G04 #@! TF.GenerationSoftware,KiCad,Pcbnew,7.0.7*
G04 #@! TF.CreationDate,2023-11-11T11:17:01+02:00*
G04 #@! TF.ProjectId,dif-pressure-meter,6469662d-7072-4657-9373-7572652d6d65,rev?*
G04 #@! TF.SameCoordinates,Original*
G04 #@! TF.FileFunction,Soldermask,Top*
G04 #@! TF.FilePolarity,Negative*
%FSLAX46Y46*%
G04 Gerber Fmt 4.6, Leading zero omitted, Abs format (unit mm)*
G04 Created by KiCad (PCBNEW 7.0.7) date 2023-11-11 11:17:01*
%MOMM*%
%LPD*%
G01*
G04 APERTURE LIST*
G04 Aperture macros list*
%AMRoundRect*
0 Rectangle with rounded corners*
0 $1 Rounding radius*
0 $2 $3 $4 $5 $6 $7 $8 $9 X,Y pos of 4 corners*
0 Add a 4 corners polygon primitive as box body*
4,1,4,$2,$3,$4,$5,$6,$7,$8,$9,$2,$3,0*
0 Add four circle primitives for the rounded corners*
1,1,$1+$1,$2,$3*
1,1,$1+$1,$4,$5*
1,1,$1+$1,$6,$7*
1,1,$1+$1,$8,$9*
0 Add four rect primitives between the rounded corners*
20,1,$1+$1,$2,$3,$4,$5,0*
20,1,$1+$1,$4,$5,$6,$7,0*
20,1,$1+$1,$6,$7,$8,$9,0*
20,1,$1+$1,$8,$9,$2,$3,0*%
G04 Aperture macros list end*
%ADD10R,1.350000X1.350000*%
%ADD11O,1.350000X1.350000*%
%ADD12RoundRect,0.102000X-0.600000X-2.000000X0.600000X-2.000000X0.600000X2.000000X-0.600000X2.000000X0*%
%ADD13C,1.524000*%
%ADD14C,1.600000*%
%ADD15C,1.800000*%
%ADD16C,3.500000*%
%ADD17R,1.700000X1.700000*%
%ADD18O,1.700000X1.700000*%
%ADD19C,0.650000*%
%ADD20O,1.800000X1.000000*%
%ADD21O,2.100000X1.000000*%
%ADD22RoundRect,0.250000X0.350000X0.625000X-0.350000X0.625000X-0.350000X-0.625000X0.350000X-0.625000X0*%
%ADD23O,1.200000X1.750000*%
G04 APERTURE END LIST*
D10*
X132250000Y-40000000D03*
D11*
X130250000Y-40000000D03*
X128250000Y-40000000D03*
X126250000Y-40000000D03*
D12*
X127700000Y-47900000D03*
X116500000Y-47900000D03*
D13*
X138140000Y-89500000D03*
X135600000Y-89500000D03*
X133060000Y-89500000D03*
X130520000Y-89500000D03*
X127980000Y-89500000D03*
X125440000Y-89500000D03*
X122900000Y-89500000D03*
X120360000Y-89500000D03*
D14*
X123750000Y-106500000D03*
X129250000Y-94000000D03*
X129250000Y-103000000D03*
X129250000Y-112000000D03*
X141750000Y-106500000D03*
D15*
X118000000Y-102750000D03*
X118000000Y-110250000D03*
X125500000Y-95250000D03*
X125500000Y-108750000D03*
X125500000Y-117750000D03*
X133000000Y-95250000D03*
X133000000Y-108750000D03*
X133000000Y-117750000D03*
X140500000Y-102750000D03*
X140500000Y-110250000D03*
D14*
X129250000Y-110000000D03*
D15*
X125500000Y-104250000D03*
X133000000Y-104250000D03*
D14*
X129250000Y-101000000D03*
D15*
X125500000Y-99750000D03*
X133000000Y-99750000D03*
D14*
X134750000Y-106500000D03*
D15*
X136000000Y-102750000D03*
X136000000Y-110250000D03*
D14*
X129250000Y-119000000D03*
D15*
X125500000Y-113250000D03*
X133000000Y-113250000D03*
D14*
X116750000Y-106500000D03*
D15*
X122500000Y-102750000D03*
X122500000Y-110250000D03*
D16*
X146300000Y-113100000D03*
D17*
X147750000Y-64000000D03*
D18*
X147750000Y-61460000D03*
X147750000Y-58920000D03*
X147750000Y-56380000D03*
X147750000Y-53840000D03*
X147750000Y-51300000D03*
X147750000Y-48760000D03*
D19*
X143395000Y-74110000D03*
X143395000Y-79890000D03*
D20*
X147075000Y-72680000D03*
D21*
X142895000Y-72680000D03*
D20*
X147075000Y-81320000D03*
D21*
X142895000Y-81320000D03*
D17*
X110500000Y-71800000D03*
D18*
X110500000Y-74340000D03*
X110500000Y-76880000D03*
X110500000Y-79420000D03*
X110500000Y-81960000D03*
X110500000Y-84500000D03*
D16*
X112200000Y-113100000D03*
D22*
X114500000Y-94300000D03*
D23*
X112500000Y-94300000D03*
M02*
