%TF.GenerationSoftware,KiCad,Pcbnew,7.0.7*%
%TF.CreationDate,2023-11-11T11:17:20+02:00*%
%TF.ProjectId,dif-pressure-meter,6469662d-7072-4657-9373-7572652d6d65,rev?*%
%TF.SameCoordinates,Original*%
%TF.FileFunction,Drillmap*%
%TF.FilePolarity,Positive*%
%FSLAX45Y45*%
G04 Gerber Fmt 4.5, Leading zero omitted, Abs format (unit mm)*
G04 Created by KiCad (PCBNEW 7.0.7) date 2023-11-11 11:17:20*
%MOMM*%
%LPD*%
G01*
G04 APERTURE LIST*
%ADD10C,0.100000*%
%ADD11C,0.200000*%
%ADD12C,0.065000*%
%ADD13C,0.350000*%
G04 APERTURE END LIST*
D10*
X10875000Y-3500000D02*
X14975000Y-3500000D01*
X14975000Y-12200000D01*
X10875000Y-12200000D01*
X10875000Y-3500000D01*
D11*
D12*
X14307000Y-7378500D02*
X14372000Y-7443500D01*
X14372000Y-7378500D02*
X14307000Y-7443500D01*
X14307000Y-7956500D02*
X14372000Y-8021500D01*
X14372000Y-7956500D02*
X14307000Y-8021500D01*
D13*
X11395000Y-11310000D02*
G75*
G03*
X11395000Y-11310000I-175000J0D01*
G01*
X14805000Y-11310000D02*
G75*
G03*
X14805000Y-11310000I-175000J0D01*
G01*
D11*
X11130777Y-12516484D02*
X11130777Y-12316484D01*
X11130777Y-12316484D02*
X11178396Y-12316484D01*
X11178396Y-12316484D02*
X11206967Y-12326008D01*
X11206967Y-12326008D02*
X11226015Y-12345055D01*
X11226015Y-12345055D02*
X11235539Y-12364103D01*
X11235539Y-12364103D02*
X11245062Y-12402198D01*
X11245062Y-12402198D02*
X11245062Y-12430769D01*
X11245062Y-12430769D02*
X11235539Y-12468865D01*
X11235539Y-12468865D02*
X11226015Y-12487912D01*
X11226015Y-12487912D02*
X11206967Y-12506960D01*
X11206967Y-12506960D02*
X11178396Y-12516484D01*
X11178396Y-12516484D02*
X11130777Y-12516484D01*
X11330777Y-12516484D02*
X11330777Y-12383150D01*
X11330777Y-12421246D02*
X11340301Y-12402198D01*
X11340301Y-12402198D02*
X11349824Y-12392674D01*
X11349824Y-12392674D02*
X11368872Y-12383150D01*
X11368872Y-12383150D02*
X11387920Y-12383150D01*
X11454586Y-12516484D02*
X11454586Y-12383150D01*
X11454586Y-12316484D02*
X11445062Y-12326008D01*
X11445062Y-12326008D02*
X11454586Y-12335531D01*
X11454586Y-12335531D02*
X11464110Y-12326008D01*
X11464110Y-12326008D02*
X11454586Y-12316484D01*
X11454586Y-12316484D02*
X11454586Y-12335531D01*
X11578396Y-12516484D02*
X11559348Y-12506960D01*
X11559348Y-12506960D02*
X11549824Y-12487912D01*
X11549824Y-12487912D02*
X11549824Y-12316484D01*
X11683158Y-12516484D02*
X11664110Y-12506960D01*
X11664110Y-12506960D02*
X11654586Y-12487912D01*
X11654586Y-12487912D02*
X11654586Y-12316484D01*
X11911729Y-12516484D02*
X11911729Y-12316484D01*
X11911729Y-12316484D02*
X11978396Y-12459341D01*
X11978396Y-12459341D02*
X12045062Y-12316484D01*
X12045062Y-12316484D02*
X12045062Y-12516484D01*
X12226015Y-12516484D02*
X12226015Y-12411722D01*
X12226015Y-12411722D02*
X12216491Y-12392674D01*
X12216491Y-12392674D02*
X12197443Y-12383150D01*
X12197443Y-12383150D02*
X12159348Y-12383150D01*
X12159348Y-12383150D02*
X12140301Y-12392674D01*
X12226015Y-12506960D02*
X12206967Y-12516484D01*
X12206967Y-12516484D02*
X12159348Y-12516484D01*
X12159348Y-12516484D02*
X12140301Y-12506960D01*
X12140301Y-12506960D02*
X12130777Y-12487912D01*
X12130777Y-12487912D02*
X12130777Y-12468865D01*
X12130777Y-12468865D02*
X12140301Y-12449817D01*
X12140301Y-12449817D02*
X12159348Y-12440293D01*
X12159348Y-12440293D02*
X12206967Y-12440293D01*
X12206967Y-12440293D02*
X12226015Y-12430769D01*
X12321253Y-12383150D02*
X12321253Y-12583150D01*
X12321253Y-12392674D02*
X12340301Y-12383150D01*
X12340301Y-12383150D02*
X12378396Y-12383150D01*
X12378396Y-12383150D02*
X12397443Y-12392674D01*
X12397443Y-12392674D02*
X12406967Y-12402198D01*
X12406967Y-12402198D02*
X12416491Y-12421246D01*
X12416491Y-12421246D02*
X12416491Y-12478388D01*
X12416491Y-12478388D02*
X12406967Y-12497436D01*
X12406967Y-12497436D02*
X12397443Y-12506960D01*
X12397443Y-12506960D02*
X12378396Y-12516484D01*
X12378396Y-12516484D02*
X12340301Y-12516484D01*
X12340301Y-12516484D02*
X12321253Y-12506960D01*
X12502205Y-12497436D02*
X12511729Y-12506960D01*
X12511729Y-12506960D02*
X12502205Y-12516484D01*
X12502205Y-12516484D02*
X12492682Y-12506960D01*
X12492682Y-12506960D02*
X12502205Y-12497436D01*
X12502205Y-12497436D02*
X12502205Y-12516484D01*
X12502205Y-12392674D02*
X12511729Y-12402198D01*
X12511729Y-12402198D02*
X12502205Y-12411722D01*
X12502205Y-12411722D02*
X12492682Y-12402198D01*
X12492682Y-12402198D02*
X12502205Y-12392674D01*
X12502205Y-12392674D02*
X12502205Y-12411722D01*
D12*
X10805000Y-12812500D02*
X10870000Y-12877500D01*
X10870000Y-12812500D02*
X10805000Y-12877500D01*
D11*
X11168872Y-12736484D02*
X11187920Y-12736484D01*
X11187920Y-12736484D02*
X11206967Y-12746008D01*
X11206967Y-12746008D02*
X11216491Y-12755531D01*
X11216491Y-12755531D02*
X11226015Y-12774579D01*
X11226015Y-12774579D02*
X11235539Y-12812674D01*
X11235539Y-12812674D02*
X11235539Y-12860293D01*
X11235539Y-12860293D02*
X11226015Y-12898388D01*
X11226015Y-12898388D02*
X11216491Y-12917436D01*
X11216491Y-12917436D02*
X11206967Y-12926960D01*
X11206967Y-12926960D02*
X11187920Y-12936484D01*
X11187920Y-12936484D02*
X11168872Y-12936484D01*
X11168872Y-12936484D02*
X11149824Y-12926960D01*
X11149824Y-12926960D02*
X11140301Y-12917436D01*
X11140301Y-12917436D02*
X11130777Y-12898388D01*
X11130777Y-12898388D02*
X11121253Y-12860293D01*
X11121253Y-12860293D02*
X11121253Y-12812674D01*
X11121253Y-12812674D02*
X11130777Y-12774579D01*
X11130777Y-12774579D02*
X11140301Y-12755531D01*
X11140301Y-12755531D02*
X11149824Y-12746008D01*
X11149824Y-12746008D02*
X11168872Y-12736484D01*
X11321253Y-12917436D02*
X11330777Y-12926960D01*
X11330777Y-12926960D02*
X11321253Y-12936484D01*
X11321253Y-12936484D02*
X11311729Y-12926960D01*
X11311729Y-12926960D02*
X11321253Y-12917436D01*
X11321253Y-12917436D02*
X11321253Y-12936484D01*
X11502205Y-12736484D02*
X11464110Y-12736484D01*
X11464110Y-12736484D02*
X11445062Y-12746008D01*
X11445062Y-12746008D02*
X11435539Y-12755531D01*
X11435539Y-12755531D02*
X11416491Y-12784103D01*
X11416491Y-12784103D02*
X11406967Y-12822198D01*
X11406967Y-12822198D02*
X11406967Y-12898388D01*
X11406967Y-12898388D02*
X11416491Y-12917436D01*
X11416491Y-12917436D02*
X11426015Y-12926960D01*
X11426015Y-12926960D02*
X11445062Y-12936484D01*
X11445062Y-12936484D02*
X11483158Y-12936484D01*
X11483158Y-12936484D02*
X11502205Y-12926960D01*
X11502205Y-12926960D02*
X11511729Y-12917436D01*
X11511729Y-12917436D02*
X11521253Y-12898388D01*
X11521253Y-12898388D02*
X11521253Y-12850769D01*
X11521253Y-12850769D02*
X11511729Y-12831722D01*
X11511729Y-12831722D02*
X11502205Y-12822198D01*
X11502205Y-12822198D02*
X11483158Y-12812674D01*
X11483158Y-12812674D02*
X11445062Y-12812674D01*
X11445062Y-12812674D02*
X11426015Y-12822198D01*
X11426015Y-12822198D02*
X11416491Y-12831722D01*
X11416491Y-12831722D02*
X11406967Y-12850769D01*
X11702205Y-12736484D02*
X11606967Y-12736484D01*
X11606967Y-12736484D02*
X11597443Y-12831722D01*
X11597443Y-12831722D02*
X11606967Y-12822198D01*
X11606967Y-12822198D02*
X11626015Y-12812674D01*
X11626015Y-12812674D02*
X11673634Y-12812674D01*
X11673634Y-12812674D02*
X11692682Y-12822198D01*
X11692682Y-12822198D02*
X11702205Y-12831722D01*
X11702205Y-12831722D02*
X11711729Y-12850769D01*
X11711729Y-12850769D02*
X11711729Y-12898388D01*
X11711729Y-12898388D02*
X11702205Y-12917436D01*
X11702205Y-12917436D02*
X11692682Y-12926960D01*
X11692682Y-12926960D02*
X11673634Y-12936484D01*
X11673634Y-12936484D02*
X11626015Y-12936484D01*
X11626015Y-12936484D02*
X11606967Y-12926960D01*
X11606967Y-12926960D02*
X11597443Y-12917436D01*
X11835539Y-12736484D02*
X11854586Y-12736484D01*
X11854586Y-12736484D02*
X11873634Y-12746008D01*
X11873634Y-12746008D02*
X11883158Y-12755531D01*
X11883158Y-12755531D02*
X11892682Y-12774579D01*
X11892682Y-12774579D02*
X11902205Y-12812674D01*
X11902205Y-12812674D02*
X11902205Y-12860293D01*
X11902205Y-12860293D02*
X11892682Y-12898388D01*
X11892682Y-12898388D02*
X11883158Y-12917436D01*
X11883158Y-12917436D02*
X11873634Y-12926960D01*
X11873634Y-12926960D02*
X11854586Y-12936484D01*
X11854586Y-12936484D02*
X11835539Y-12936484D01*
X11835539Y-12936484D02*
X11816491Y-12926960D01*
X11816491Y-12926960D02*
X11806967Y-12917436D01*
X11806967Y-12917436D02*
X11797443Y-12898388D01*
X11797443Y-12898388D02*
X11787920Y-12860293D01*
X11787920Y-12860293D02*
X11787920Y-12812674D01*
X11787920Y-12812674D02*
X11797443Y-12774579D01*
X11797443Y-12774579D02*
X11806967Y-12755531D01*
X11806967Y-12755531D02*
X11816491Y-12746008D01*
X11816491Y-12746008D02*
X11835539Y-12736484D01*
X11987920Y-12936484D02*
X11987920Y-12803150D01*
X11987920Y-12822198D02*
X11997443Y-12812674D01*
X11997443Y-12812674D02*
X12016491Y-12803150D01*
X12016491Y-12803150D02*
X12045063Y-12803150D01*
X12045063Y-12803150D02*
X12064110Y-12812674D01*
X12064110Y-12812674D02*
X12073634Y-12831722D01*
X12073634Y-12831722D02*
X12073634Y-12936484D01*
X12073634Y-12831722D02*
X12083158Y-12812674D01*
X12083158Y-12812674D02*
X12102205Y-12803150D01*
X12102205Y-12803150D02*
X12130777Y-12803150D01*
X12130777Y-12803150D02*
X12149824Y-12812674D01*
X12149824Y-12812674D02*
X12159348Y-12831722D01*
X12159348Y-12831722D02*
X12159348Y-12936484D01*
X12254586Y-12936484D02*
X12254586Y-12803150D01*
X12254586Y-12822198D02*
X12264110Y-12812674D01*
X12264110Y-12812674D02*
X12283158Y-12803150D01*
X12283158Y-12803150D02*
X12311729Y-12803150D01*
X12311729Y-12803150D02*
X12330777Y-12812674D01*
X12330777Y-12812674D02*
X12340301Y-12831722D01*
X12340301Y-12831722D02*
X12340301Y-12936484D01*
X12340301Y-12831722D02*
X12349824Y-12812674D01*
X12349824Y-12812674D02*
X12368872Y-12803150D01*
X12368872Y-12803150D02*
X12397443Y-12803150D01*
X12397443Y-12803150D02*
X12416491Y-12812674D01*
X12416491Y-12812674D02*
X12426015Y-12831722D01*
X12426015Y-12831722D02*
X12426015Y-12936484D01*
X12816491Y-12726960D02*
X12645063Y-12984103D01*
X13073634Y-12736484D02*
X13092682Y-12736484D01*
X13092682Y-12736484D02*
X13111729Y-12746008D01*
X13111729Y-12746008D02*
X13121253Y-12755531D01*
X13121253Y-12755531D02*
X13130777Y-12774579D01*
X13130777Y-12774579D02*
X13140301Y-12812674D01*
X13140301Y-12812674D02*
X13140301Y-12860293D01*
X13140301Y-12860293D02*
X13130777Y-12898388D01*
X13130777Y-12898388D02*
X13121253Y-12917436D01*
X13121253Y-12917436D02*
X13111729Y-12926960D01*
X13111729Y-12926960D02*
X13092682Y-12936484D01*
X13092682Y-12936484D02*
X13073634Y-12936484D01*
X13073634Y-12936484D02*
X13054586Y-12926960D01*
X13054586Y-12926960D02*
X13045063Y-12917436D01*
X13045063Y-12917436D02*
X13035539Y-12898388D01*
X13035539Y-12898388D02*
X13026015Y-12860293D01*
X13026015Y-12860293D02*
X13026015Y-12812674D01*
X13026015Y-12812674D02*
X13035539Y-12774579D01*
X13035539Y-12774579D02*
X13045063Y-12755531D01*
X13045063Y-12755531D02*
X13054586Y-12746008D01*
X13054586Y-12746008D02*
X13073634Y-12736484D01*
X13226015Y-12917436D02*
X13235539Y-12926960D01*
X13235539Y-12926960D02*
X13226015Y-12936484D01*
X13226015Y-12936484D02*
X13216491Y-12926960D01*
X13216491Y-12926960D02*
X13226015Y-12917436D01*
X13226015Y-12917436D02*
X13226015Y-12936484D01*
X13359348Y-12736484D02*
X13378396Y-12736484D01*
X13378396Y-12736484D02*
X13397444Y-12746008D01*
X13397444Y-12746008D02*
X13406967Y-12755531D01*
X13406967Y-12755531D02*
X13416491Y-12774579D01*
X13416491Y-12774579D02*
X13426015Y-12812674D01*
X13426015Y-12812674D02*
X13426015Y-12860293D01*
X13426015Y-12860293D02*
X13416491Y-12898388D01*
X13416491Y-12898388D02*
X13406967Y-12917436D01*
X13406967Y-12917436D02*
X13397444Y-12926960D01*
X13397444Y-12926960D02*
X13378396Y-12936484D01*
X13378396Y-12936484D02*
X13359348Y-12936484D01*
X13359348Y-12936484D02*
X13340301Y-12926960D01*
X13340301Y-12926960D02*
X13330777Y-12917436D01*
X13330777Y-12917436D02*
X13321253Y-12898388D01*
X13321253Y-12898388D02*
X13311729Y-12860293D01*
X13311729Y-12860293D02*
X13311729Y-12812674D01*
X13311729Y-12812674D02*
X13321253Y-12774579D01*
X13321253Y-12774579D02*
X13330777Y-12755531D01*
X13330777Y-12755531D02*
X13340301Y-12746008D01*
X13340301Y-12746008D02*
X13359348Y-12736484D01*
X13502206Y-12755531D02*
X13511729Y-12746008D01*
X13511729Y-12746008D02*
X13530777Y-12736484D01*
X13530777Y-12736484D02*
X13578396Y-12736484D01*
X13578396Y-12736484D02*
X13597444Y-12746008D01*
X13597444Y-12746008D02*
X13606967Y-12755531D01*
X13606967Y-12755531D02*
X13616491Y-12774579D01*
X13616491Y-12774579D02*
X13616491Y-12793627D01*
X13616491Y-12793627D02*
X13606967Y-12822198D01*
X13606967Y-12822198D02*
X13492682Y-12936484D01*
X13492682Y-12936484D02*
X13616491Y-12936484D01*
X13797444Y-12736484D02*
X13702206Y-12736484D01*
X13702206Y-12736484D02*
X13692682Y-12831722D01*
X13692682Y-12831722D02*
X13702206Y-12822198D01*
X13702206Y-12822198D02*
X13721253Y-12812674D01*
X13721253Y-12812674D02*
X13768872Y-12812674D01*
X13768872Y-12812674D02*
X13787920Y-12822198D01*
X13787920Y-12822198D02*
X13797444Y-12831722D01*
X13797444Y-12831722D02*
X13806967Y-12850769D01*
X13806967Y-12850769D02*
X13806967Y-12898388D01*
X13806967Y-12898388D02*
X13797444Y-12917436D01*
X13797444Y-12917436D02*
X13787920Y-12926960D01*
X13787920Y-12926960D02*
X13768872Y-12936484D01*
X13768872Y-12936484D02*
X13721253Y-12936484D01*
X13721253Y-12936484D02*
X13702206Y-12926960D01*
X13702206Y-12926960D02*
X13692682Y-12917436D01*
X13978396Y-12736484D02*
X13940301Y-12736484D01*
X13940301Y-12736484D02*
X13921253Y-12746008D01*
X13921253Y-12746008D02*
X13911729Y-12755531D01*
X13911729Y-12755531D02*
X13892682Y-12784103D01*
X13892682Y-12784103D02*
X13883158Y-12822198D01*
X13883158Y-12822198D02*
X13883158Y-12898388D01*
X13883158Y-12898388D02*
X13892682Y-12917436D01*
X13892682Y-12917436D02*
X13902206Y-12926960D01*
X13902206Y-12926960D02*
X13921253Y-12936484D01*
X13921253Y-12936484D02*
X13959348Y-12936484D01*
X13959348Y-12936484D02*
X13978396Y-12926960D01*
X13978396Y-12926960D02*
X13987920Y-12917436D01*
X13987920Y-12917436D02*
X13997444Y-12898388D01*
X13997444Y-12898388D02*
X13997444Y-12850769D01*
X13997444Y-12850769D02*
X13987920Y-12831722D01*
X13987920Y-12831722D02*
X13978396Y-12822198D01*
X13978396Y-12822198D02*
X13959348Y-12812674D01*
X13959348Y-12812674D02*
X13921253Y-12812674D01*
X13921253Y-12812674D02*
X13902206Y-12822198D01*
X13902206Y-12822198D02*
X13892682Y-12831722D01*
X13892682Y-12831722D02*
X13883158Y-12850769D01*
X14073634Y-12736484D02*
X14073634Y-12774579D01*
X14149825Y-12736484D02*
X14149825Y-12774579D01*
X14445063Y-13012674D02*
X14435539Y-13003150D01*
X14435539Y-13003150D02*
X14416491Y-12974579D01*
X14416491Y-12974579D02*
X14406968Y-12955531D01*
X14406968Y-12955531D02*
X14397444Y-12926960D01*
X14397444Y-12926960D02*
X14387920Y-12879341D01*
X14387920Y-12879341D02*
X14387920Y-12841246D01*
X14387920Y-12841246D02*
X14397444Y-12793627D01*
X14397444Y-12793627D02*
X14406968Y-12765055D01*
X14406968Y-12765055D02*
X14416491Y-12746008D01*
X14416491Y-12746008D02*
X14435539Y-12717436D01*
X14435539Y-12717436D02*
X14445063Y-12707912D01*
X14511729Y-12755531D02*
X14521253Y-12746008D01*
X14521253Y-12746008D02*
X14540301Y-12736484D01*
X14540301Y-12736484D02*
X14587920Y-12736484D01*
X14587920Y-12736484D02*
X14606968Y-12746008D01*
X14606968Y-12746008D02*
X14616491Y-12755531D01*
X14616491Y-12755531D02*
X14626015Y-12774579D01*
X14626015Y-12774579D02*
X14626015Y-12793627D01*
X14626015Y-12793627D02*
X14616491Y-12822198D01*
X14616491Y-12822198D02*
X14502206Y-12936484D01*
X14502206Y-12936484D02*
X14626015Y-12936484D01*
X14864110Y-12936484D02*
X14864110Y-12736484D01*
X14949825Y-12936484D02*
X14949825Y-12831722D01*
X14949825Y-12831722D02*
X14940301Y-12812674D01*
X14940301Y-12812674D02*
X14921253Y-12803150D01*
X14921253Y-12803150D02*
X14892682Y-12803150D01*
X14892682Y-12803150D02*
X14873634Y-12812674D01*
X14873634Y-12812674D02*
X14864110Y-12822198D01*
X15073634Y-12936484D02*
X15054587Y-12926960D01*
X15054587Y-12926960D02*
X15045063Y-12917436D01*
X15045063Y-12917436D02*
X15035539Y-12898388D01*
X15035539Y-12898388D02*
X15035539Y-12841246D01*
X15035539Y-12841246D02*
X15045063Y-12822198D01*
X15045063Y-12822198D02*
X15054587Y-12812674D01*
X15054587Y-12812674D02*
X15073634Y-12803150D01*
X15073634Y-12803150D02*
X15102206Y-12803150D01*
X15102206Y-12803150D02*
X15121253Y-12812674D01*
X15121253Y-12812674D02*
X15130777Y-12822198D01*
X15130777Y-12822198D02*
X15140301Y-12841246D01*
X15140301Y-12841246D02*
X15140301Y-12898388D01*
X15140301Y-12898388D02*
X15130777Y-12917436D01*
X15130777Y-12917436D02*
X15121253Y-12926960D01*
X15121253Y-12926960D02*
X15102206Y-12936484D01*
X15102206Y-12936484D02*
X15073634Y-12936484D01*
X15254587Y-12936484D02*
X15235539Y-12926960D01*
X15235539Y-12926960D02*
X15226015Y-12907912D01*
X15226015Y-12907912D02*
X15226015Y-12736484D01*
X15406968Y-12926960D02*
X15387920Y-12936484D01*
X15387920Y-12936484D02*
X15349825Y-12936484D01*
X15349825Y-12936484D02*
X15330777Y-12926960D01*
X15330777Y-12926960D02*
X15321253Y-12907912D01*
X15321253Y-12907912D02*
X15321253Y-12831722D01*
X15321253Y-12831722D02*
X15330777Y-12812674D01*
X15330777Y-12812674D02*
X15349825Y-12803150D01*
X15349825Y-12803150D02*
X15387920Y-12803150D01*
X15387920Y-12803150D02*
X15406968Y-12812674D01*
X15406968Y-12812674D02*
X15416491Y-12831722D01*
X15416491Y-12831722D02*
X15416491Y-12850769D01*
X15416491Y-12850769D02*
X15321253Y-12869817D01*
X15492682Y-12926960D02*
X15511730Y-12936484D01*
X15511730Y-12936484D02*
X15549825Y-12936484D01*
X15549825Y-12936484D02*
X15568872Y-12926960D01*
X15568872Y-12926960D02*
X15578396Y-12907912D01*
X15578396Y-12907912D02*
X15578396Y-12898388D01*
X15578396Y-12898388D02*
X15568872Y-12879341D01*
X15568872Y-12879341D02*
X15549825Y-12869817D01*
X15549825Y-12869817D02*
X15521253Y-12869817D01*
X15521253Y-12869817D02*
X15502206Y-12860293D01*
X15502206Y-12860293D02*
X15492682Y-12841246D01*
X15492682Y-12841246D02*
X15492682Y-12831722D01*
X15492682Y-12831722D02*
X15502206Y-12812674D01*
X15502206Y-12812674D02*
X15521253Y-12803150D01*
X15521253Y-12803150D02*
X15549825Y-12803150D01*
X15549825Y-12803150D02*
X15568872Y-12812674D01*
X15645063Y-13012674D02*
X15654587Y-13003150D01*
X15654587Y-13003150D02*
X15673634Y-12974579D01*
X15673634Y-12974579D02*
X15683158Y-12955531D01*
X15683158Y-12955531D02*
X15692682Y-12926960D01*
X15692682Y-12926960D02*
X15702206Y-12879341D01*
X15702206Y-12879341D02*
X15702206Y-12841246D01*
X15702206Y-12841246D02*
X15692682Y-12793627D01*
X15692682Y-12793627D02*
X15683158Y-12765055D01*
X15683158Y-12765055D02*
X15673634Y-12746008D01*
X15673634Y-12746008D02*
X15654587Y-12717436D01*
X15654587Y-12717436D02*
X15645063Y-12707912D01*
X16006968Y-13012674D02*
X15997444Y-13003150D01*
X15997444Y-13003150D02*
X15978396Y-12974579D01*
X15978396Y-12974579D02*
X15968872Y-12955531D01*
X15968872Y-12955531D02*
X15959349Y-12926960D01*
X15959349Y-12926960D02*
X15949825Y-12879341D01*
X15949825Y-12879341D02*
X15949825Y-12841246D01*
X15949825Y-12841246D02*
X15959349Y-12793627D01*
X15959349Y-12793627D02*
X15968872Y-12765055D01*
X15968872Y-12765055D02*
X15978396Y-12746008D01*
X15978396Y-12746008D02*
X15997444Y-12717436D01*
X15997444Y-12717436D02*
X16006968Y-12707912D01*
X16083158Y-12803150D02*
X16083158Y-12936484D01*
X16083158Y-12822198D02*
X16092682Y-12812674D01*
X16092682Y-12812674D02*
X16111730Y-12803150D01*
X16111730Y-12803150D02*
X16140301Y-12803150D01*
X16140301Y-12803150D02*
X16159349Y-12812674D01*
X16159349Y-12812674D02*
X16168872Y-12831722D01*
X16168872Y-12831722D02*
X16168872Y-12936484D01*
X16292682Y-12936484D02*
X16273634Y-12926960D01*
X16273634Y-12926960D02*
X16264111Y-12917436D01*
X16264111Y-12917436D02*
X16254587Y-12898388D01*
X16254587Y-12898388D02*
X16254587Y-12841246D01*
X16254587Y-12841246D02*
X16264111Y-12822198D01*
X16264111Y-12822198D02*
X16273634Y-12812674D01*
X16273634Y-12812674D02*
X16292682Y-12803150D01*
X16292682Y-12803150D02*
X16321253Y-12803150D01*
X16321253Y-12803150D02*
X16340301Y-12812674D01*
X16340301Y-12812674D02*
X16349825Y-12822198D01*
X16349825Y-12822198D02*
X16359349Y-12841246D01*
X16359349Y-12841246D02*
X16359349Y-12898388D01*
X16359349Y-12898388D02*
X16349825Y-12917436D01*
X16349825Y-12917436D02*
X16340301Y-12926960D01*
X16340301Y-12926960D02*
X16321253Y-12936484D01*
X16321253Y-12936484D02*
X16292682Y-12936484D01*
X16416492Y-12803150D02*
X16492682Y-12803150D01*
X16445063Y-12736484D02*
X16445063Y-12907912D01*
X16445063Y-12907912D02*
X16454587Y-12926960D01*
X16454587Y-12926960D02*
X16473634Y-12936484D01*
X16473634Y-12936484D02*
X16492682Y-12936484D01*
X16711730Y-12803150D02*
X16711730Y-13003150D01*
X16711730Y-12812674D02*
X16730777Y-12803150D01*
X16730777Y-12803150D02*
X16768873Y-12803150D01*
X16768873Y-12803150D02*
X16787920Y-12812674D01*
X16787920Y-12812674D02*
X16797444Y-12822198D01*
X16797444Y-12822198D02*
X16806968Y-12841246D01*
X16806968Y-12841246D02*
X16806968Y-12898388D01*
X16806968Y-12898388D02*
X16797444Y-12917436D01*
X16797444Y-12917436D02*
X16787920Y-12926960D01*
X16787920Y-12926960D02*
X16768873Y-12936484D01*
X16768873Y-12936484D02*
X16730777Y-12936484D01*
X16730777Y-12936484D02*
X16711730Y-12926960D01*
X16921254Y-12936484D02*
X16902206Y-12926960D01*
X16902206Y-12926960D02*
X16892682Y-12907912D01*
X16892682Y-12907912D02*
X16892682Y-12736484D01*
X17083158Y-12936484D02*
X17083158Y-12831722D01*
X17083158Y-12831722D02*
X17073635Y-12812674D01*
X17073635Y-12812674D02*
X17054587Y-12803150D01*
X17054587Y-12803150D02*
X17016492Y-12803150D01*
X17016492Y-12803150D02*
X16997444Y-12812674D01*
X17083158Y-12926960D02*
X17064111Y-12936484D01*
X17064111Y-12936484D02*
X17016492Y-12936484D01*
X17016492Y-12936484D02*
X16997444Y-12926960D01*
X16997444Y-12926960D02*
X16987920Y-12907912D01*
X16987920Y-12907912D02*
X16987920Y-12888865D01*
X16987920Y-12888865D02*
X16997444Y-12869817D01*
X16997444Y-12869817D02*
X17016492Y-12860293D01*
X17016492Y-12860293D02*
X17064111Y-12860293D01*
X17064111Y-12860293D02*
X17083158Y-12850769D01*
X17149825Y-12803150D02*
X17226015Y-12803150D01*
X17178396Y-12736484D02*
X17178396Y-12907912D01*
X17178396Y-12907912D02*
X17187920Y-12926960D01*
X17187920Y-12926960D02*
X17206968Y-12936484D01*
X17206968Y-12936484D02*
X17226015Y-12936484D01*
X17368873Y-12926960D02*
X17349825Y-12936484D01*
X17349825Y-12936484D02*
X17311730Y-12936484D01*
X17311730Y-12936484D02*
X17292682Y-12926960D01*
X17292682Y-12926960D02*
X17283158Y-12907912D01*
X17283158Y-12907912D02*
X17283158Y-12831722D01*
X17283158Y-12831722D02*
X17292682Y-12812674D01*
X17292682Y-12812674D02*
X17311730Y-12803150D01*
X17311730Y-12803150D02*
X17349825Y-12803150D01*
X17349825Y-12803150D02*
X17368873Y-12812674D01*
X17368873Y-12812674D02*
X17378396Y-12831722D01*
X17378396Y-12831722D02*
X17378396Y-12850769D01*
X17378396Y-12850769D02*
X17283158Y-12869817D01*
X17549825Y-12936484D02*
X17549825Y-12736484D01*
X17549825Y-12926960D02*
X17530777Y-12936484D01*
X17530777Y-12936484D02*
X17492682Y-12936484D01*
X17492682Y-12936484D02*
X17473635Y-12926960D01*
X17473635Y-12926960D02*
X17464111Y-12917436D01*
X17464111Y-12917436D02*
X17454587Y-12898388D01*
X17454587Y-12898388D02*
X17454587Y-12841246D01*
X17454587Y-12841246D02*
X17464111Y-12822198D01*
X17464111Y-12822198D02*
X17473635Y-12812674D01*
X17473635Y-12812674D02*
X17492682Y-12803150D01*
X17492682Y-12803150D02*
X17530777Y-12803150D01*
X17530777Y-12803150D02*
X17549825Y-12812674D01*
X17626016Y-13012674D02*
X17635539Y-13003150D01*
X17635539Y-13003150D02*
X17654587Y-12974579D01*
X17654587Y-12974579D02*
X17664111Y-12955531D01*
X17664111Y-12955531D02*
X17673635Y-12926960D01*
X17673635Y-12926960D02*
X17683158Y-12879341D01*
X17683158Y-12879341D02*
X17683158Y-12841246D01*
X17683158Y-12841246D02*
X17673635Y-12793627D01*
X17673635Y-12793627D02*
X17664111Y-12765055D01*
X17664111Y-12765055D02*
X17654587Y-12746008D01*
X17654587Y-12746008D02*
X17635539Y-12717436D01*
X17635539Y-12717436D02*
X17626016Y-12707912D01*
X10870000Y-13109000D02*
G75*
G03*
X10870000Y-13109000I-100000J0D01*
G01*
X11111729Y-13000484D02*
X11235539Y-13000484D01*
X11235539Y-13000484D02*
X11168872Y-13076674D01*
X11168872Y-13076674D02*
X11197443Y-13076674D01*
X11197443Y-13076674D02*
X11216491Y-13086198D01*
X11216491Y-13086198D02*
X11226015Y-13095722D01*
X11226015Y-13095722D02*
X11235539Y-13114769D01*
X11235539Y-13114769D02*
X11235539Y-13162388D01*
X11235539Y-13162388D02*
X11226015Y-13181436D01*
X11226015Y-13181436D02*
X11216491Y-13190960D01*
X11216491Y-13190960D02*
X11197443Y-13200484D01*
X11197443Y-13200484D02*
X11140301Y-13200484D01*
X11140301Y-13200484D02*
X11121253Y-13190960D01*
X11121253Y-13190960D02*
X11111729Y-13181436D01*
X11321253Y-13181436D02*
X11330777Y-13190960D01*
X11330777Y-13190960D02*
X11321253Y-13200484D01*
X11321253Y-13200484D02*
X11311729Y-13190960D01*
X11311729Y-13190960D02*
X11321253Y-13181436D01*
X11321253Y-13181436D02*
X11321253Y-13200484D01*
X11511729Y-13000484D02*
X11416491Y-13000484D01*
X11416491Y-13000484D02*
X11406967Y-13095722D01*
X11406967Y-13095722D02*
X11416491Y-13086198D01*
X11416491Y-13086198D02*
X11435539Y-13076674D01*
X11435539Y-13076674D02*
X11483158Y-13076674D01*
X11483158Y-13076674D02*
X11502205Y-13086198D01*
X11502205Y-13086198D02*
X11511729Y-13095722D01*
X11511729Y-13095722D02*
X11521253Y-13114769D01*
X11521253Y-13114769D02*
X11521253Y-13162388D01*
X11521253Y-13162388D02*
X11511729Y-13181436D01*
X11511729Y-13181436D02*
X11502205Y-13190960D01*
X11502205Y-13190960D02*
X11483158Y-13200484D01*
X11483158Y-13200484D02*
X11435539Y-13200484D01*
X11435539Y-13200484D02*
X11416491Y-13190960D01*
X11416491Y-13190960D02*
X11406967Y-13181436D01*
X11645062Y-13000484D02*
X11664110Y-13000484D01*
X11664110Y-13000484D02*
X11683158Y-13010008D01*
X11683158Y-13010008D02*
X11692682Y-13019531D01*
X11692682Y-13019531D02*
X11702205Y-13038579D01*
X11702205Y-13038579D02*
X11711729Y-13076674D01*
X11711729Y-13076674D02*
X11711729Y-13124293D01*
X11711729Y-13124293D02*
X11702205Y-13162388D01*
X11702205Y-13162388D02*
X11692682Y-13181436D01*
X11692682Y-13181436D02*
X11683158Y-13190960D01*
X11683158Y-13190960D02*
X11664110Y-13200484D01*
X11664110Y-13200484D02*
X11645062Y-13200484D01*
X11645062Y-13200484D02*
X11626015Y-13190960D01*
X11626015Y-13190960D02*
X11616491Y-13181436D01*
X11616491Y-13181436D02*
X11606967Y-13162388D01*
X11606967Y-13162388D02*
X11597443Y-13124293D01*
X11597443Y-13124293D02*
X11597443Y-13076674D01*
X11597443Y-13076674D02*
X11606967Y-13038579D01*
X11606967Y-13038579D02*
X11616491Y-13019531D01*
X11616491Y-13019531D02*
X11626015Y-13010008D01*
X11626015Y-13010008D02*
X11645062Y-13000484D01*
X11835539Y-13000484D02*
X11854586Y-13000484D01*
X11854586Y-13000484D02*
X11873634Y-13010008D01*
X11873634Y-13010008D02*
X11883158Y-13019531D01*
X11883158Y-13019531D02*
X11892682Y-13038579D01*
X11892682Y-13038579D02*
X11902205Y-13076674D01*
X11902205Y-13076674D02*
X11902205Y-13124293D01*
X11902205Y-13124293D02*
X11892682Y-13162388D01*
X11892682Y-13162388D02*
X11883158Y-13181436D01*
X11883158Y-13181436D02*
X11873634Y-13190960D01*
X11873634Y-13190960D02*
X11854586Y-13200484D01*
X11854586Y-13200484D02*
X11835539Y-13200484D01*
X11835539Y-13200484D02*
X11816491Y-13190960D01*
X11816491Y-13190960D02*
X11806967Y-13181436D01*
X11806967Y-13181436D02*
X11797443Y-13162388D01*
X11797443Y-13162388D02*
X11787920Y-13124293D01*
X11787920Y-13124293D02*
X11787920Y-13076674D01*
X11787920Y-13076674D02*
X11797443Y-13038579D01*
X11797443Y-13038579D02*
X11806967Y-13019531D01*
X11806967Y-13019531D02*
X11816491Y-13010008D01*
X11816491Y-13010008D02*
X11835539Y-13000484D01*
X11987920Y-13200484D02*
X11987920Y-13067150D01*
X11987920Y-13086198D02*
X11997443Y-13076674D01*
X11997443Y-13076674D02*
X12016491Y-13067150D01*
X12016491Y-13067150D02*
X12045063Y-13067150D01*
X12045063Y-13067150D02*
X12064110Y-13076674D01*
X12064110Y-13076674D02*
X12073634Y-13095722D01*
X12073634Y-13095722D02*
X12073634Y-13200484D01*
X12073634Y-13095722D02*
X12083158Y-13076674D01*
X12083158Y-13076674D02*
X12102205Y-13067150D01*
X12102205Y-13067150D02*
X12130777Y-13067150D01*
X12130777Y-13067150D02*
X12149824Y-13076674D01*
X12149824Y-13076674D02*
X12159348Y-13095722D01*
X12159348Y-13095722D02*
X12159348Y-13200484D01*
X12254586Y-13200484D02*
X12254586Y-13067150D01*
X12254586Y-13086198D02*
X12264110Y-13076674D01*
X12264110Y-13076674D02*
X12283158Y-13067150D01*
X12283158Y-13067150D02*
X12311729Y-13067150D01*
X12311729Y-13067150D02*
X12330777Y-13076674D01*
X12330777Y-13076674D02*
X12340301Y-13095722D01*
X12340301Y-13095722D02*
X12340301Y-13200484D01*
X12340301Y-13095722D02*
X12349824Y-13076674D01*
X12349824Y-13076674D02*
X12368872Y-13067150D01*
X12368872Y-13067150D02*
X12397443Y-13067150D01*
X12397443Y-13067150D02*
X12416491Y-13076674D01*
X12416491Y-13076674D02*
X12426015Y-13095722D01*
X12426015Y-13095722D02*
X12426015Y-13200484D01*
X12816491Y-12990960D02*
X12645063Y-13248103D01*
X13073634Y-13000484D02*
X13092682Y-13000484D01*
X13092682Y-13000484D02*
X13111729Y-13010008D01*
X13111729Y-13010008D02*
X13121253Y-13019531D01*
X13121253Y-13019531D02*
X13130777Y-13038579D01*
X13130777Y-13038579D02*
X13140301Y-13076674D01*
X13140301Y-13076674D02*
X13140301Y-13124293D01*
X13140301Y-13124293D02*
X13130777Y-13162388D01*
X13130777Y-13162388D02*
X13121253Y-13181436D01*
X13121253Y-13181436D02*
X13111729Y-13190960D01*
X13111729Y-13190960D02*
X13092682Y-13200484D01*
X13092682Y-13200484D02*
X13073634Y-13200484D01*
X13073634Y-13200484D02*
X13054586Y-13190960D01*
X13054586Y-13190960D02*
X13045063Y-13181436D01*
X13045063Y-13181436D02*
X13035539Y-13162388D01*
X13035539Y-13162388D02*
X13026015Y-13124293D01*
X13026015Y-13124293D02*
X13026015Y-13076674D01*
X13026015Y-13076674D02*
X13035539Y-13038579D01*
X13035539Y-13038579D02*
X13045063Y-13019531D01*
X13045063Y-13019531D02*
X13054586Y-13010008D01*
X13054586Y-13010008D02*
X13073634Y-13000484D01*
X13226015Y-13181436D02*
X13235539Y-13190960D01*
X13235539Y-13190960D02*
X13226015Y-13200484D01*
X13226015Y-13200484D02*
X13216491Y-13190960D01*
X13216491Y-13190960D02*
X13226015Y-13181436D01*
X13226015Y-13181436D02*
X13226015Y-13200484D01*
X13426015Y-13200484D02*
X13311729Y-13200484D01*
X13368872Y-13200484D02*
X13368872Y-13000484D01*
X13368872Y-13000484D02*
X13349825Y-13029055D01*
X13349825Y-13029055D02*
X13330777Y-13048103D01*
X13330777Y-13048103D02*
X13311729Y-13057627D01*
X13492682Y-13000484D02*
X13616491Y-13000484D01*
X13616491Y-13000484D02*
X13549825Y-13076674D01*
X13549825Y-13076674D02*
X13578396Y-13076674D01*
X13578396Y-13076674D02*
X13597444Y-13086198D01*
X13597444Y-13086198D02*
X13606967Y-13095722D01*
X13606967Y-13095722D02*
X13616491Y-13114769D01*
X13616491Y-13114769D02*
X13616491Y-13162388D01*
X13616491Y-13162388D02*
X13606967Y-13181436D01*
X13606967Y-13181436D02*
X13597444Y-13190960D01*
X13597444Y-13190960D02*
X13578396Y-13200484D01*
X13578396Y-13200484D02*
X13521253Y-13200484D01*
X13521253Y-13200484D02*
X13502206Y-13190960D01*
X13502206Y-13190960D02*
X13492682Y-13181436D01*
X13683158Y-13000484D02*
X13816491Y-13000484D01*
X13816491Y-13000484D02*
X13730777Y-13200484D01*
X13921253Y-13086198D02*
X13902206Y-13076674D01*
X13902206Y-13076674D02*
X13892682Y-13067150D01*
X13892682Y-13067150D02*
X13883158Y-13048103D01*
X13883158Y-13048103D02*
X13883158Y-13038579D01*
X13883158Y-13038579D02*
X13892682Y-13019531D01*
X13892682Y-13019531D02*
X13902206Y-13010008D01*
X13902206Y-13010008D02*
X13921253Y-13000484D01*
X13921253Y-13000484D02*
X13959348Y-13000484D01*
X13959348Y-13000484D02*
X13978396Y-13010008D01*
X13978396Y-13010008D02*
X13987920Y-13019531D01*
X13987920Y-13019531D02*
X13997444Y-13038579D01*
X13997444Y-13038579D02*
X13997444Y-13048103D01*
X13997444Y-13048103D02*
X13987920Y-13067150D01*
X13987920Y-13067150D02*
X13978396Y-13076674D01*
X13978396Y-13076674D02*
X13959348Y-13086198D01*
X13959348Y-13086198D02*
X13921253Y-13086198D01*
X13921253Y-13086198D02*
X13902206Y-13095722D01*
X13902206Y-13095722D02*
X13892682Y-13105246D01*
X13892682Y-13105246D02*
X13883158Y-13124293D01*
X13883158Y-13124293D02*
X13883158Y-13162388D01*
X13883158Y-13162388D02*
X13892682Y-13181436D01*
X13892682Y-13181436D02*
X13902206Y-13190960D01*
X13902206Y-13190960D02*
X13921253Y-13200484D01*
X13921253Y-13200484D02*
X13959348Y-13200484D01*
X13959348Y-13200484D02*
X13978396Y-13190960D01*
X13978396Y-13190960D02*
X13987920Y-13181436D01*
X13987920Y-13181436D02*
X13997444Y-13162388D01*
X13997444Y-13162388D02*
X13997444Y-13124293D01*
X13997444Y-13124293D02*
X13987920Y-13105246D01*
X13987920Y-13105246D02*
X13978396Y-13095722D01*
X13978396Y-13095722D02*
X13959348Y-13086198D01*
X14073634Y-13000484D02*
X14073634Y-13038579D01*
X14149825Y-13000484D02*
X14149825Y-13038579D01*
X14445063Y-13276674D02*
X14435539Y-13267150D01*
X14435539Y-13267150D02*
X14416491Y-13238579D01*
X14416491Y-13238579D02*
X14406968Y-13219531D01*
X14406968Y-13219531D02*
X14397444Y-13190960D01*
X14397444Y-13190960D02*
X14387920Y-13143341D01*
X14387920Y-13143341D02*
X14387920Y-13105246D01*
X14387920Y-13105246D02*
X14397444Y-13057627D01*
X14397444Y-13057627D02*
X14406968Y-13029055D01*
X14406968Y-13029055D02*
X14416491Y-13010008D01*
X14416491Y-13010008D02*
X14435539Y-12981436D01*
X14435539Y-12981436D02*
X14445063Y-12971912D01*
X14511729Y-13019531D02*
X14521253Y-13010008D01*
X14521253Y-13010008D02*
X14540301Y-13000484D01*
X14540301Y-13000484D02*
X14587920Y-13000484D01*
X14587920Y-13000484D02*
X14606968Y-13010008D01*
X14606968Y-13010008D02*
X14616491Y-13019531D01*
X14616491Y-13019531D02*
X14626015Y-13038579D01*
X14626015Y-13038579D02*
X14626015Y-13057627D01*
X14626015Y-13057627D02*
X14616491Y-13086198D01*
X14616491Y-13086198D02*
X14502206Y-13200484D01*
X14502206Y-13200484D02*
X14626015Y-13200484D01*
X14864110Y-13200484D02*
X14864110Y-13000484D01*
X14949825Y-13200484D02*
X14949825Y-13095722D01*
X14949825Y-13095722D02*
X14940301Y-13076674D01*
X14940301Y-13076674D02*
X14921253Y-13067150D01*
X14921253Y-13067150D02*
X14892682Y-13067150D01*
X14892682Y-13067150D02*
X14873634Y-13076674D01*
X14873634Y-13076674D02*
X14864110Y-13086198D01*
X15073634Y-13200484D02*
X15054587Y-13190960D01*
X15054587Y-13190960D02*
X15045063Y-13181436D01*
X15045063Y-13181436D02*
X15035539Y-13162388D01*
X15035539Y-13162388D02*
X15035539Y-13105246D01*
X15035539Y-13105246D02*
X15045063Y-13086198D01*
X15045063Y-13086198D02*
X15054587Y-13076674D01*
X15054587Y-13076674D02*
X15073634Y-13067150D01*
X15073634Y-13067150D02*
X15102206Y-13067150D01*
X15102206Y-13067150D02*
X15121253Y-13076674D01*
X15121253Y-13076674D02*
X15130777Y-13086198D01*
X15130777Y-13086198D02*
X15140301Y-13105246D01*
X15140301Y-13105246D02*
X15140301Y-13162388D01*
X15140301Y-13162388D02*
X15130777Y-13181436D01*
X15130777Y-13181436D02*
X15121253Y-13190960D01*
X15121253Y-13190960D02*
X15102206Y-13200484D01*
X15102206Y-13200484D02*
X15073634Y-13200484D01*
X15254587Y-13200484D02*
X15235539Y-13190960D01*
X15235539Y-13190960D02*
X15226015Y-13171912D01*
X15226015Y-13171912D02*
X15226015Y-13000484D01*
X15406968Y-13190960D02*
X15387920Y-13200484D01*
X15387920Y-13200484D02*
X15349825Y-13200484D01*
X15349825Y-13200484D02*
X15330777Y-13190960D01*
X15330777Y-13190960D02*
X15321253Y-13171912D01*
X15321253Y-13171912D02*
X15321253Y-13095722D01*
X15321253Y-13095722D02*
X15330777Y-13076674D01*
X15330777Y-13076674D02*
X15349825Y-13067150D01*
X15349825Y-13067150D02*
X15387920Y-13067150D01*
X15387920Y-13067150D02*
X15406968Y-13076674D01*
X15406968Y-13076674D02*
X15416491Y-13095722D01*
X15416491Y-13095722D02*
X15416491Y-13114769D01*
X15416491Y-13114769D02*
X15321253Y-13133817D01*
X15492682Y-13190960D02*
X15511730Y-13200484D01*
X15511730Y-13200484D02*
X15549825Y-13200484D01*
X15549825Y-13200484D02*
X15568872Y-13190960D01*
X15568872Y-13190960D02*
X15578396Y-13171912D01*
X15578396Y-13171912D02*
X15578396Y-13162388D01*
X15578396Y-13162388D02*
X15568872Y-13143341D01*
X15568872Y-13143341D02*
X15549825Y-13133817D01*
X15549825Y-13133817D02*
X15521253Y-13133817D01*
X15521253Y-13133817D02*
X15502206Y-13124293D01*
X15502206Y-13124293D02*
X15492682Y-13105246D01*
X15492682Y-13105246D02*
X15492682Y-13095722D01*
X15492682Y-13095722D02*
X15502206Y-13076674D01*
X15502206Y-13076674D02*
X15521253Y-13067150D01*
X15521253Y-13067150D02*
X15549825Y-13067150D01*
X15549825Y-13067150D02*
X15568872Y-13076674D01*
X15645063Y-13276674D02*
X15654587Y-13267150D01*
X15654587Y-13267150D02*
X15673634Y-13238579D01*
X15673634Y-13238579D02*
X15683158Y-13219531D01*
X15683158Y-13219531D02*
X15692682Y-13190960D01*
X15692682Y-13190960D02*
X15702206Y-13143341D01*
X15702206Y-13143341D02*
X15702206Y-13105246D01*
X15702206Y-13105246D02*
X15692682Y-13057627D01*
X15692682Y-13057627D02*
X15683158Y-13029055D01*
X15683158Y-13029055D02*
X15673634Y-13010008D01*
X15673634Y-13010008D02*
X15654587Y-12981436D01*
X15654587Y-12981436D02*
X15645063Y-12971912D01*
X16006968Y-13276674D02*
X15997444Y-13267150D01*
X15997444Y-13267150D02*
X15978396Y-13238579D01*
X15978396Y-13238579D02*
X15968872Y-13219531D01*
X15968872Y-13219531D02*
X15959349Y-13190960D01*
X15959349Y-13190960D02*
X15949825Y-13143341D01*
X15949825Y-13143341D02*
X15949825Y-13105246D01*
X15949825Y-13105246D02*
X15959349Y-13057627D01*
X15959349Y-13057627D02*
X15968872Y-13029055D01*
X15968872Y-13029055D02*
X15978396Y-13010008D01*
X15978396Y-13010008D02*
X15997444Y-12981436D01*
X15997444Y-12981436D02*
X16006968Y-12971912D01*
X16083158Y-13067150D02*
X16083158Y-13200484D01*
X16083158Y-13086198D02*
X16092682Y-13076674D01*
X16092682Y-13076674D02*
X16111730Y-13067150D01*
X16111730Y-13067150D02*
X16140301Y-13067150D01*
X16140301Y-13067150D02*
X16159349Y-13076674D01*
X16159349Y-13076674D02*
X16168872Y-13095722D01*
X16168872Y-13095722D02*
X16168872Y-13200484D01*
X16292682Y-13200484D02*
X16273634Y-13190960D01*
X16273634Y-13190960D02*
X16264111Y-13181436D01*
X16264111Y-13181436D02*
X16254587Y-13162388D01*
X16254587Y-13162388D02*
X16254587Y-13105246D01*
X16254587Y-13105246D02*
X16264111Y-13086198D01*
X16264111Y-13086198D02*
X16273634Y-13076674D01*
X16273634Y-13076674D02*
X16292682Y-13067150D01*
X16292682Y-13067150D02*
X16321253Y-13067150D01*
X16321253Y-13067150D02*
X16340301Y-13076674D01*
X16340301Y-13076674D02*
X16349825Y-13086198D01*
X16349825Y-13086198D02*
X16359349Y-13105246D01*
X16359349Y-13105246D02*
X16359349Y-13162388D01*
X16359349Y-13162388D02*
X16349825Y-13181436D01*
X16349825Y-13181436D02*
X16340301Y-13190960D01*
X16340301Y-13190960D02*
X16321253Y-13200484D01*
X16321253Y-13200484D02*
X16292682Y-13200484D01*
X16416492Y-13067150D02*
X16492682Y-13067150D01*
X16445063Y-13000484D02*
X16445063Y-13171912D01*
X16445063Y-13171912D02*
X16454587Y-13190960D01*
X16454587Y-13190960D02*
X16473634Y-13200484D01*
X16473634Y-13200484D02*
X16492682Y-13200484D01*
X16711730Y-13067150D02*
X16711730Y-13267150D01*
X16711730Y-13076674D02*
X16730777Y-13067150D01*
X16730777Y-13067150D02*
X16768873Y-13067150D01*
X16768873Y-13067150D02*
X16787920Y-13076674D01*
X16787920Y-13076674D02*
X16797444Y-13086198D01*
X16797444Y-13086198D02*
X16806968Y-13105246D01*
X16806968Y-13105246D02*
X16806968Y-13162388D01*
X16806968Y-13162388D02*
X16797444Y-13181436D01*
X16797444Y-13181436D02*
X16787920Y-13190960D01*
X16787920Y-13190960D02*
X16768873Y-13200484D01*
X16768873Y-13200484D02*
X16730777Y-13200484D01*
X16730777Y-13200484D02*
X16711730Y-13190960D01*
X16921254Y-13200484D02*
X16902206Y-13190960D01*
X16902206Y-13190960D02*
X16892682Y-13171912D01*
X16892682Y-13171912D02*
X16892682Y-13000484D01*
X17083158Y-13200484D02*
X17083158Y-13095722D01*
X17083158Y-13095722D02*
X17073635Y-13076674D01*
X17073635Y-13076674D02*
X17054587Y-13067150D01*
X17054587Y-13067150D02*
X17016492Y-13067150D01*
X17016492Y-13067150D02*
X16997444Y-13076674D01*
X17083158Y-13190960D02*
X17064111Y-13200484D01*
X17064111Y-13200484D02*
X17016492Y-13200484D01*
X17016492Y-13200484D02*
X16997444Y-13190960D01*
X16997444Y-13190960D02*
X16987920Y-13171912D01*
X16987920Y-13171912D02*
X16987920Y-13152865D01*
X16987920Y-13152865D02*
X16997444Y-13133817D01*
X16997444Y-13133817D02*
X17016492Y-13124293D01*
X17016492Y-13124293D02*
X17064111Y-13124293D01*
X17064111Y-13124293D02*
X17083158Y-13114769D01*
X17149825Y-13067150D02*
X17226015Y-13067150D01*
X17178396Y-13000484D02*
X17178396Y-13171912D01*
X17178396Y-13171912D02*
X17187920Y-13190960D01*
X17187920Y-13190960D02*
X17206968Y-13200484D01*
X17206968Y-13200484D02*
X17226015Y-13200484D01*
X17368873Y-13190960D02*
X17349825Y-13200484D01*
X17349825Y-13200484D02*
X17311730Y-13200484D01*
X17311730Y-13200484D02*
X17292682Y-13190960D01*
X17292682Y-13190960D02*
X17283158Y-13171912D01*
X17283158Y-13171912D02*
X17283158Y-13095722D01*
X17283158Y-13095722D02*
X17292682Y-13076674D01*
X17292682Y-13076674D02*
X17311730Y-13067150D01*
X17311730Y-13067150D02*
X17349825Y-13067150D01*
X17349825Y-13067150D02*
X17368873Y-13076674D01*
X17368873Y-13076674D02*
X17378396Y-13095722D01*
X17378396Y-13095722D02*
X17378396Y-13114769D01*
X17378396Y-13114769D02*
X17283158Y-13133817D01*
X17549825Y-13200484D02*
X17549825Y-13000484D01*
X17549825Y-13190960D02*
X17530777Y-13200484D01*
X17530777Y-13200484D02*
X17492682Y-13200484D01*
X17492682Y-13200484D02*
X17473635Y-13190960D01*
X17473635Y-13190960D02*
X17464111Y-13181436D01*
X17464111Y-13181436D02*
X17454587Y-13162388D01*
X17454587Y-13162388D02*
X17454587Y-13105246D01*
X17454587Y-13105246D02*
X17464111Y-13086198D01*
X17464111Y-13086198D02*
X17473635Y-13076674D01*
X17473635Y-13076674D02*
X17492682Y-13067150D01*
X17492682Y-13067150D02*
X17530777Y-13067150D01*
X17530777Y-13067150D02*
X17549825Y-13076674D01*
X17626016Y-13276674D02*
X17635539Y-13267150D01*
X17635539Y-13267150D02*
X17654587Y-13238579D01*
X17654587Y-13238579D02*
X17664111Y-13219531D01*
X17664111Y-13219531D02*
X17673635Y-13190960D01*
X17673635Y-13190960D02*
X17683158Y-13143341D01*
X17683158Y-13143341D02*
X17683158Y-13105246D01*
X17683158Y-13105246D02*
X17673635Y-13057627D01*
X17673635Y-13057627D02*
X17664111Y-13029055D01*
X17664111Y-13029055D02*
X17654587Y-13010008D01*
X17654587Y-13010008D02*
X17635539Y-12981436D01*
X17635539Y-12981436D02*
X17626016Y-12971912D01*
M02*
