M48
; DRILL file {KiCad 7.0.7} date Sat Nov 11 11:17:19 2023
; FORMAT={-:-/ absolute / metric / decimal}
; #@! TF.CreationDate,2023-11-11T11:17:19+02:00
; #@! TF.GenerationSoftware,Kicad,Pcbnew,7.0.7
; #@! TF.FileFunction,Plated,1,2,PTH
FMAT,2
METRIC
; #@! TA.AperFunction,Plated,PTH,ViaDrill
T1C0.400
; #@! TA.AperFunction,Plated,PTH,ComponentDrill
T2C0.600
; #@! TA.AperFunction,Plated,PTH,ComponentDrill
T3C0.750
; #@! TA.AperFunction,Plated,PTH,ComponentDrill
T4C0.762
; #@! TA.AperFunction,Plated,PTH,ComponentDrill
T5C0.800
; #@! TA.AperFunction,Plated,PTH,ComponentDrill
T6C1.000
%
G90
G05
T1
X110.5Y-89.25
X110.75Y-36.5
X110.75Y-43.5
X111.25Y-67.5
X111.6Y-120.1
X111.9Y-104.5
X113.75Y-68.5
X113.8Y-108.0
X115.25Y-84.25
X115.8Y-91.6
X116.0Y-56.75
X117.77Y-51.4
X118.2Y-100.7
X119.4Y-66.5
X119.6Y-91.3
X120.2Y-48.9
X120.25Y-62.45
X120.25Y-81.612
X121.0Y-104.4
X121.049Y-59.351
X121.25Y-69.8
X121.5Y-88.5
X121.6Y-113.8
X121.75Y-60.15
X122.049Y-72.299
X122.25Y-36.5
X122.4Y-57.6
X122.7Y-80.0
X122.849Y-69.95
X123.0Y-81.0
X123.467Y-67.783
X123.648Y-69.155
X123.75Y-82.75
X124.0Y-66.75
X124.4Y-50.4
X124.5Y-68.5
X124.5Y-91.0
X124.8Y-101.9
X125.128Y-84.878
X125.25Y-61.75
X125.25Y-66.5
X126.7Y-90.5
X127.21Y-45.143
X127.459Y-62.75
X128.4Y-66.859
X128.451Y-62.5
X128.75Y-60.66
X129.2Y-51.0
X129.25Y-90.5
X129.476Y-49.387
X129.6Y-114.8
X130.25Y-68.75
X130.25Y-106.25
X130.4Y-49.769
X130.4Y-96.8
X130.5Y-63.25
X130.6Y-98.7
X131.0Y-71.0
X131.0Y-76.25
X131.366Y-49.513
X132.26Y-62.74
X132.5Y-49.5
X132.6Y-60.2
X133.8Y-39.8
X134.0Y-102.1
X134.4Y-43.3
X135.25Y-80.0
X135.5Y-86.0
X135.5Y-95.0
X135.6Y-83.8
X135.75Y-93.75
X136.0Y-113.5
X136.2Y-59.7
X136.3Y-46.8
X136.3Y-49.8
X136.4Y-65.5
X136.435Y-77.815
X136.5Y-51.7
X136.6Y-106.2
X136.9Y-95.1
X136.951Y-71.75
X137.0Y-37.0
X137.5Y-99.0
X137.75Y-46.0
X137.75Y-67.25
X138.549Y-52.75
X138.614Y-53.747
X138.9Y-51.5
X139.059Y-56.642
X139.125Y-65.875
X139.9Y-107.5
X140.3Y-93.0
X140.75Y-71.75
X141.1Y-89.2
X141.2Y-68.499
X141.4Y-70.1
X141.5Y-83.0
X141.7Y-119.1
X142.1Y-51.3
X143.4Y-51.715
X143.5Y-52.75
X143.7Y-55.6
X144.6Y-83.7
X144.75Y-49.75
X145.0Y-44.9
X145.0Y-57.25
X145.25Y-47.5
X145.7Y-52.75
X146.1Y-77.2
X146.4Y-97.6
X148.1Y-92.8
X148.25Y-36.75
T3
X112.5Y-94.3
X114.5Y-94.3
T4
X120.36Y-89.5
X122.9Y-89.5
X125.44Y-89.5
X127.98Y-89.5
X130.52Y-89.5
X133.06Y-89.5
X135.6Y-89.5
X138.14Y-89.5
T5
X116.75Y-106.5
X123.75Y-106.5
X126.25Y-40.0
X128.25Y-40.0
X129.25Y-94.0
X129.25Y-101.0
X129.25Y-103.0
X129.25Y-110.0
X129.25Y-112.0
X129.25Y-119.0
X130.25Y-40.0
X132.25Y-40.0
X134.75Y-106.5
X141.75Y-106.5
T6
X110.5Y-71.8
X110.5Y-74.34
X110.5Y-76.88
X110.5Y-79.42
X110.5Y-81.96
X110.5Y-84.5
X118.0Y-102.75
X118.0Y-110.25
X122.5Y-102.75
X122.5Y-110.25
X125.5Y-95.25
X125.5Y-99.75
X125.5Y-104.25
X125.5Y-108.75
X125.5Y-113.25
X125.5Y-117.75
X133.0Y-95.25
X133.0Y-99.75
X133.0Y-104.25
X133.0Y-108.75
X133.0Y-113.25
X133.0Y-117.75
X136.0Y-102.75
X136.0Y-110.25
X140.5Y-102.75
X140.5Y-110.25
X147.75Y-48.76
X147.75Y-51.3
X147.75Y-53.84
X147.75Y-56.38
X147.75Y-58.92
X147.75Y-61.46
X147.75Y-64.0
T2
X143.445Y-72.68G85X142.345Y-72.68
G05
X143.445Y-81.32G85X142.345Y-81.32
G05
X147.475Y-72.68G85X146.675Y-72.68
G05
X147.475Y-81.32G85X146.675Y-81.32
G05
T0
M30
