%TF.GenerationSoftware,KiCad,Pcbnew,7.0.7*%
%TF.CreationDate,2023-11-11T11:17:20+02:00*%
%TF.ProjectId,dif-pressure-meter,6469662d-7072-4657-9373-7572652d6d65,rev?*%
%TF.SameCoordinates,Original*%
%TF.FileFunction,Drillmap*%
%TF.FilePolarity,Positive*%
%FSLAX45Y45*%
G04 Gerber Fmt 4.5, Leading zero omitted, Abs format (unit mm)*
G04 Created by KiCad (PCBNEW 7.0.7) date 2023-11-11 11:17:20*
%MOMM*%
%LPD*%
G01*
G04 APERTURE LIST*
%ADD10C,0.100000*%
%ADD11C,0.200000*%
%ADD12C,0.040000*%
%ADD13C,0.060000*%
%ADD14C,0.075000*%
%ADD15C,0.076200*%
%ADD16C,0.080000*%
G04 APERTURE END LIST*
D10*
X10875000Y-3500000D02*
X14975000Y-3500000D01*
X14975000Y-12200000D01*
X10875000Y-12200000D01*
X10875000Y-3500000D01*
D11*
D12*
X11030000Y-8905000D02*
X11070000Y-8945000D01*
X11070000Y-8905000D02*
X11030000Y-8945000D01*
X11055000Y-3630000D02*
X11095000Y-3670000D01*
X11095000Y-3630000D02*
X11055000Y-3670000D01*
X11055000Y-4330000D02*
X11095000Y-4370000D01*
X11095000Y-4330000D02*
X11055000Y-4370000D01*
X11105000Y-6730000D02*
X11145000Y-6770000D01*
X11145000Y-6730000D02*
X11105000Y-6770000D01*
X11140000Y-11990000D02*
X11180000Y-12030000D01*
X11180000Y-11990000D02*
X11140000Y-12030000D01*
X11170000Y-10430000D02*
X11210000Y-10470000D01*
X11210000Y-10430000D02*
X11170000Y-10470000D01*
X11355000Y-6830000D02*
X11395000Y-6870000D01*
X11395000Y-6830000D02*
X11355000Y-6870000D01*
X11360000Y-10780000D02*
X11400000Y-10820000D01*
X11400000Y-10780000D02*
X11360000Y-10820000D01*
X11505000Y-8405000D02*
X11545000Y-8445000D01*
X11545000Y-8405000D02*
X11505000Y-8445000D01*
X11560000Y-9140000D02*
X11600000Y-9180000D01*
X11600000Y-9140000D02*
X11560000Y-9180000D01*
X11580000Y-5655000D02*
X11620000Y-5695000D01*
X11620000Y-5655000D02*
X11580000Y-5695000D01*
X11757000Y-5120000D02*
X11797000Y-5160000D01*
X11797000Y-5120000D02*
X11757000Y-5160000D01*
X11800000Y-10050000D02*
X11840000Y-10090000D01*
X11840000Y-10050000D02*
X11800000Y-10090000D01*
X11920000Y-6630000D02*
X11960000Y-6670000D01*
X11960000Y-6630000D02*
X11920000Y-6670000D01*
X11940000Y-9110000D02*
X11980000Y-9150000D01*
X11980000Y-9110000D02*
X11940000Y-9150000D01*
X12000000Y-4870000D02*
X12040000Y-4910000D01*
X12040000Y-4870000D02*
X12000000Y-4910000D01*
X12005000Y-6225050D02*
X12045000Y-6265050D01*
X12045000Y-6225050D02*
X12005000Y-6265050D01*
X12005000Y-8141201D02*
X12045000Y-8181201D01*
X12045000Y-8141201D02*
X12005000Y-8181201D01*
X12080000Y-10420000D02*
X12120000Y-10460000D01*
X12120000Y-10420000D02*
X12080000Y-10460000D01*
X12084950Y-5915100D02*
X12124950Y-5955100D01*
X12124950Y-5915100D02*
X12084950Y-5955100D01*
X12105000Y-6960000D02*
X12145000Y-7000000D01*
X12145000Y-6960000D02*
X12105000Y-7000000D01*
X12130000Y-8830000D02*
X12170000Y-8870000D01*
X12170000Y-8830000D02*
X12130000Y-8870000D01*
X12140000Y-11360000D02*
X12180000Y-11400000D01*
X12180000Y-11360000D02*
X12140000Y-11400000D01*
X12155000Y-5995050D02*
X12195000Y-6035050D01*
X12195000Y-5995050D02*
X12155000Y-6035050D01*
X12184950Y-7209950D02*
X12224950Y-7249950D01*
X12224950Y-7209950D02*
X12184950Y-7249950D01*
X12205000Y-3630000D02*
X12245000Y-3670000D01*
X12245000Y-3630000D02*
X12205000Y-3670000D01*
X12220000Y-5740000D02*
X12260000Y-5780000D01*
X12260000Y-5740000D02*
X12220000Y-5780000D01*
X12250000Y-7980000D02*
X12290000Y-8020000D01*
X12290000Y-7980000D02*
X12250000Y-8020000D01*
X12264900Y-6975050D02*
X12304900Y-7015050D01*
X12304900Y-6975050D02*
X12264900Y-7015050D01*
X12280000Y-8079950D02*
X12320000Y-8119950D01*
X12320000Y-8079950D02*
X12280000Y-8119950D01*
X12326710Y-6758290D02*
X12366710Y-6798290D01*
X12366710Y-6758290D02*
X12326710Y-6798290D01*
X12344843Y-6895476D02*
X12384843Y-6935476D01*
X12384843Y-6895476D02*
X12344843Y-6935476D01*
X12355000Y-8255000D02*
X12395000Y-8295000D01*
X12395000Y-8255000D02*
X12355000Y-8295000D01*
X12380000Y-6655000D02*
X12420000Y-6695000D01*
X12420000Y-6655000D02*
X12380000Y-6695000D01*
X12420000Y-5020000D02*
X12460000Y-5060000D01*
X12460000Y-5020000D02*
X12420000Y-5060000D01*
X12430000Y-6830000D02*
X12470000Y-6870000D01*
X12470000Y-6830000D02*
X12430000Y-6870000D01*
X12430000Y-9080000D02*
X12470000Y-9120000D01*
X12470000Y-9080000D02*
X12430000Y-9120000D01*
X12460000Y-10170000D02*
X12500000Y-10210000D01*
X12500000Y-10170000D02*
X12460000Y-10210000D01*
X12492783Y-8467783D02*
X12532783Y-8507783D01*
X12532783Y-8467783D02*
X12492783Y-8507783D01*
X12505000Y-6155000D02*
X12545000Y-6195000D01*
X12545000Y-6155000D02*
X12505000Y-6195000D01*
X12505000Y-6630000D02*
X12545000Y-6670000D01*
X12545000Y-6630000D02*
X12505000Y-6670000D01*
X12650000Y-9030000D02*
X12690000Y-9070000D01*
X12690000Y-9030000D02*
X12650000Y-9070000D01*
X12700958Y-4494331D02*
X12740958Y-4534331D01*
X12740958Y-4494331D02*
X12700958Y-4534331D01*
X12725902Y-6255000D02*
X12765902Y-6295000D01*
X12765902Y-6255000D02*
X12725902Y-6295000D01*
X12820000Y-6665892D02*
X12860000Y-6705892D01*
X12860000Y-6665892D02*
X12820000Y-6705892D01*
X12825050Y-6230000D02*
X12865050Y-6270000D01*
X12865050Y-6230000D02*
X12825050Y-6270000D01*
X12855000Y-6046050D02*
X12895000Y-6086050D01*
X12895000Y-6046050D02*
X12855000Y-6086050D01*
X12900000Y-5080000D02*
X12940000Y-5120000D01*
X12940000Y-5080000D02*
X12900000Y-5120000D01*
X12905000Y-9030000D02*
X12945000Y-9070000D01*
X12945000Y-9030000D02*
X12905000Y-9070000D01*
X12927622Y-4918689D02*
X12967622Y-4958689D01*
X12967622Y-4918689D02*
X12927622Y-4958689D01*
X12940000Y-11460000D02*
X12980000Y-11500000D01*
X12980000Y-11460000D02*
X12940000Y-11500000D01*
X13005000Y-6855000D02*
X13045000Y-6895000D01*
X13045000Y-6855000D02*
X13005000Y-6895000D01*
X13005000Y-10605000D02*
X13045000Y-10645000D01*
X13045000Y-10605000D02*
X13005000Y-10645000D01*
X13019999Y-4956854D02*
X13059999Y-4996854D01*
X13059999Y-4956854D02*
X13019999Y-4996854D01*
X13020000Y-9660000D02*
X13060000Y-9700000D01*
X13060000Y-9660000D02*
X13020000Y-9700000D01*
X13030000Y-6305000D02*
X13070000Y-6345000D01*
X13070000Y-6305000D02*
X13030000Y-6345000D01*
X13040000Y-9850000D02*
X13080000Y-9890000D01*
X13080000Y-9850000D02*
X13040000Y-9890000D01*
X13080000Y-7080000D02*
X13120000Y-7120000D01*
X13120000Y-7080000D02*
X13080000Y-7120000D01*
X13080000Y-7605000D02*
X13120000Y-7645000D01*
X13120000Y-7605000D02*
X13080000Y-7645000D01*
X13116619Y-4931268D02*
X13156619Y-4971268D01*
X13156619Y-4931268D02*
X13116619Y-4971268D01*
X13206033Y-6253967D02*
X13246033Y-6293967D01*
X13246033Y-6253967D02*
X13206033Y-6293967D01*
X13230000Y-4930000D02*
X13270000Y-4970000D01*
X13270000Y-4930000D02*
X13230000Y-4970000D01*
X13240000Y-6000000D02*
X13280000Y-6040000D01*
X13280000Y-6000000D02*
X13240000Y-6040000D01*
X13360000Y-3960000D02*
X13400000Y-4000000D01*
X13400000Y-3960000D02*
X13360000Y-4000000D01*
X13380000Y-10190000D02*
X13420000Y-10230000D01*
X13420000Y-10190000D02*
X13380000Y-10230000D01*
X13420000Y-4310000D02*
X13460000Y-4350000D01*
X13460000Y-4310000D02*
X13420000Y-4350000D01*
X13505000Y-7980000D02*
X13545000Y-8020000D01*
X13545000Y-7980000D02*
X13505000Y-8020000D01*
X13530000Y-8580000D02*
X13570000Y-8620000D01*
X13570000Y-8580000D02*
X13530000Y-8620000D01*
X13530000Y-9480000D02*
X13570000Y-9520000D01*
X13570000Y-9480000D02*
X13530000Y-9520000D01*
X13540000Y-8360000D02*
X13580000Y-8400000D01*
X13580000Y-8360000D02*
X13540000Y-8400000D01*
X13555000Y-9355000D02*
X13595000Y-9395000D01*
X13595000Y-9355000D02*
X13555000Y-9395000D01*
X13580000Y-11330000D02*
X13620000Y-11370000D01*
X13620000Y-11330000D02*
X13580000Y-11370000D01*
X13600000Y-5950000D02*
X13640000Y-5990000D01*
X13640000Y-5950000D02*
X13600000Y-5990000D01*
X13610000Y-4660000D02*
X13650000Y-4700000D01*
X13650000Y-4660000D02*
X13610000Y-4700000D01*
X13610000Y-4960000D02*
X13650000Y-5000000D01*
X13650000Y-4960000D02*
X13610000Y-5000000D01*
X13620000Y-6530000D02*
X13660000Y-6570000D01*
X13660000Y-6530000D02*
X13620000Y-6570000D01*
X13623467Y-7761533D02*
X13663467Y-7801533D01*
X13663467Y-7761533D02*
X13623467Y-7801533D01*
X13630000Y-5150000D02*
X13670000Y-5190000D01*
X13670000Y-5150000D02*
X13630000Y-5190000D01*
X13640000Y-10600000D02*
X13680000Y-10640000D01*
X13680000Y-10600000D02*
X13640000Y-10640000D01*
X13670000Y-9490000D02*
X13710000Y-9530000D01*
X13710000Y-9490000D02*
X13670000Y-9530000D01*
X13675050Y-7155000D02*
X13715050Y-7195000D01*
X13715050Y-7155000D02*
X13675050Y-7195000D01*
X13680000Y-3680000D02*
X13720000Y-3720000D01*
X13720000Y-3680000D02*
X13680000Y-3720000D01*
X13730000Y-9880000D02*
X13770000Y-9920000D01*
X13770000Y-9880000D02*
X13730000Y-9920000D01*
X13755000Y-4580000D02*
X13795000Y-4620000D01*
X13795000Y-4580000D02*
X13755000Y-4620000D01*
X13755000Y-6705000D02*
X13795000Y-6745000D01*
X13795000Y-6705000D02*
X13755000Y-6745000D01*
X13834950Y-5255000D02*
X13874950Y-5295000D01*
X13874950Y-5255000D02*
X13834950Y-5295000D01*
X13841399Y-5354742D02*
X13881399Y-5394742D01*
X13881399Y-5354742D02*
X13841399Y-5394742D01*
X13870000Y-5130000D02*
X13910000Y-5170000D01*
X13910000Y-5130000D02*
X13870000Y-5170000D01*
X13885856Y-5644192D02*
X13925856Y-5684192D01*
X13925856Y-5644192D02*
X13885856Y-5684192D01*
X13892500Y-6567500D02*
X13932500Y-6607500D01*
X13932500Y-6567500D02*
X13892500Y-6607500D01*
X13970000Y-10730000D02*
X14010000Y-10770000D01*
X14010000Y-10730000D02*
X13970000Y-10770000D01*
X14010000Y-9280000D02*
X14050000Y-9320000D01*
X14050000Y-9280000D02*
X14010000Y-9320000D01*
X14055000Y-7155000D02*
X14095000Y-7195000D01*
X14095000Y-7155000D02*
X14055000Y-7195000D01*
X14090000Y-8900000D02*
X14130000Y-8940000D01*
X14130000Y-8900000D02*
X14090000Y-8940000D01*
X14100000Y-6829950D02*
X14140000Y-6869950D01*
X14140000Y-6829950D02*
X14100000Y-6869950D01*
X14120000Y-6990050D02*
X14160000Y-7030050D01*
X14160000Y-6990050D02*
X14120000Y-7030050D01*
X14130000Y-8280000D02*
X14170000Y-8320000D01*
X14170000Y-8280000D02*
X14130000Y-8320000D01*
X14150000Y-11890000D02*
X14190000Y-11930000D01*
X14190000Y-11890000D02*
X14150000Y-11930000D01*
X14190000Y-5110000D02*
X14230000Y-5150000D01*
X14230000Y-5110000D02*
X14190000Y-5150000D01*
X14320050Y-5151533D02*
X14360050Y-5191533D01*
X14360050Y-5151533D02*
X14320050Y-5191533D01*
X14330000Y-5255000D02*
X14370000Y-5295000D01*
X14370000Y-5255000D02*
X14330000Y-5295000D01*
X14350000Y-5540000D02*
X14390000Y-5580000D01*
X14390000Y-5540000D02*
X14350000Y-5580000D01*
X14440000Y-8350000D02*
X14480000Y-8390000D01*
X14480000Y-8350000D02*
X14440000Y-8390000D01*
X14455000Y-4955000D02*
X14495000Y-4995000D01*
X14495000Y-4955000D02*
X14455000Y-4995000D01*
X14480000Y-4470000D02*
X14520000Y-4510000D01*
X14520000Y-4470000D02*
X14480000Y-4510000D01*
X14480000Y-5705000D02*
X14520000Y-5745000D01*
X14520000Y-5705000D02*
X14480000Y-5745000D01*
X14505000Y-4730000D02*
X14545000Y-4770000D01*
X14545000Y-4730000D02*
X14505000Y-4770000D01*
X14550000Y-5255000D02*
X14590000Y-5295000D01*
X14590000Y-5255000D02*
X14550000Y-5295000D01*
X14590000Y-7700000D02*
X14630000Y-7740000D01*
X14630000Y-7700000D02*
X14590000Y-7740000D01*
X14620000Y-9740000D02*
X14660000Y-9780000D01*
X14660000Y-9740000D02*
X14620000Y-9780000D01*
X14790000Y-9260000D02*
X14830000Y-9300000D01*
X14830000Y-9260000D02*
X14790000Y-9300000D01*
X14805000Y-3655000D02*
X14845000Y-3695000D01*
X14845000Y-3655000D02*
X14805000Y-3695000D01*
D13*
X14319500Y-7268000D02*
G75*
G03*
X14319500Y-7268000I-30000J0D01*
G01*
D11*
X14344500Y-7238000D02*
X14234500Y-7238000D01*
X14234500Y-7238000D02*
G75*
G03*
X14234500Y-7298000I0J-30000D01*
G01*
X14234500Y-7298000D02*
X14344500Y-7298000D01*
X14344500Y-7298000D02*
G75*
G03*
X14344500Y-7238000I0J30000D01*
G01*
D13*
X14319500Y-8132000D02*
G75*
G03*
X14319500Y-8132000I-30000J0D01*
G01*
D11*
X14344500Y-8102000D02*
X14234500Y-8102000D01*
X14234500Y-8102000D02*
G75*
G03*
X14234500Y-8162000I0J-30000D01*
G01*
X14234500Y-8162000D02*
X14344500Y-8162000D01*
X14344500Y-8162000D02*
G75*
G03*
X14344500Y-8102000I0J30000D01*
G01*
D13*
X14737500Y-7268000D02*
G75*
G03*
X14737500Y-7268000I-30000J0D01*
G01*
D11*
X14747500Y-7238000D02*
X14667500Y-7238000D01*
X14667500Y-7238000D02*
G75*
G03*
X14667500Y-7298000I0J-30000D01*
G01*
X14667500Y-7298000D02*
X14747500Y-7298000D01*
X14747500Y-7298000D02*
G75*
G03*
X14747500Y-7238000I0J30000D01*
G01*
D13*
X14737500Y-8132000D02*
G75*
G03*
X14737500Y-8132000I-30000J0D01*
G01*
D11*
X14747500Y-8102000D02*
X14667500Y-8102000D01*
X14667500Y-8102000D02*
G75*
G03*
X14667500Y-8162000I0J-30000D01*
G01*
X14667500Y-8162000D02*
X14747500Y-8162000D01*
X14747500Y-8162000D02*
G75*
G03*
X14747500Y-8102000I0J30000D01*
G01*
D14*
X11250000Y-9392500D02*
X11250000Y-9467500D01*
X11212500Y-9430000D02*
X11287500Y-9430000D01*
X11450000Y-9392500D02*
X11450000Y-9467500D01*
X11412500Y-9430000D02*
X11487500Y-9430000D01*
D15*
X12062941Y-8976941D02*
X12062941Y-8923059D01*
X12009059Y-8923059D01*
X12009059Y-8976941D01*
X12062941Y-8976941D01*
X12316941Y-8976941D02*
X12316941Y-8923059D01*
X12263059Y-8923059D01*
X12263059Y-8976941D01*
X12316941Y-8976941D01*
X12570941Y-8976941D02*
X12570941Y-8923059D01*
X12517059Y-8923059D01*
X12517059Y-8976941D01*
X12570941Y-8976941D01*
X12824941Y-8976941D02*
X12824941Y-8923059D01*
X12771059Y-8923059D01*
X12771059Y-8976941D01*
X12824941Y-8976941D01*
X13078941Y-8976941D02*
X13078941Y-8923059D01*
X13025059Y-8923059D01*
X13025059Y-8976941D01*
X13078941Y-8976941D01*
X13332941Y-8976941D02*
X13332941Y-8923059D01*
X13279059Y-8923059D01*
X13279059Y-8976941D01*
X13332941Y-8976941D01*
X13586941Y-8976941D02*
X13586941Y-8923059D01*
X13533059Y-8923059D01*
X13533059Y-8976941D01*
X13586941Y-8976941D01*
X13840941Y-8976941D02*
X13840941Y-8923059D01*
X13787059Y-8923059D01*
X13787059Y-8976941D01*
X13840941Y-8976941D01*
D16*
X11675000Y-10690000D02*
X11715000Y-10650000D01*
X11675000Y-10610000D01*
X11635000Y-10650000D01*
X11675000Y-10690000D01*
X12375000Y-10690000D02*
X12415000Y-10650000D01*
X12375000Y-10610000D01*
X12335000Y-10650000D01*
X12375000Y-10690000D01*
X12625000Y-4040000D02*
X12665000Y-4000000D01*
X12625000Y-3960000D01*
X12585000Y-4000000D01*
X12625000Y-4040000D01*
X12825000Y-4040000D02*
X12865000Y-4000000D01*
X12825000Y-3960000D01*
X12785000Y-4000000D01*
X12825000Y-4040000D01*
X12925000Y-9440000D02*
X12965000Y-9400000D01*
X12925000Y-9360000D01*
X12885000Y-9400000D01*
X12925000Y-9440000D01*
X12925000Y-10140000D02*
X12965000Y-10100000D01*
X12925000Y-10060000D01*
X12885000Y-10100000D01*
X12925000Y-10140000D01*
X12925000Y-10340000D02*
X12965000Y-10300000D01*
X12925000Y-10260000D01*
X12885000Y-10300000D01*
X12925000Y-10340000D01*
X12925000Y-11040000D02*
X12965000Y-11000000D01*
X12925000Y-10960000D01*
X12885000Y-11000000D01*
X12925000Y-11040000D01*
X12925000Y-11240000D02*
X12965000Y-11200000D01*
X12925000Y-11160000D01*
X12885000Y-11200000D01*
X12925000Y-11240000D01*
X12925000Y-11940000D02*
X12965000Y-11900000D01*
X12925000Y-11860000D01*
X12885000Y-11900000D01*
X12925000Y-11940000D01*
X13025000Y-4040000D02*
X13065000Y-4000000D01*
X13025000Y-3960000D01*
X12985000Y-4000000D01*
X13025000Y-4040000D01*
X13225000Y-4040000D02*
X13265000Y-4000000D01*
X13225000Y-3960000D01*
X13185000Y-4000000D01*
X13225000Y-4040000D01*
X13475000Y-10690000D02*
X13515000Y-10650000D01*
X13475000Y-10610000D01*
X13435000Y-10650000D01*
X13475000Y-10690000D01*
X14175000Y-10690000D02*
X14215000Y-10650000D01*
X14175000Y-10610000D01*
X14135000Y-10650000D01*
X14175000Y-10690000D01*
D10*
X11000000Y-7130000D02*
X11100000Y-7230000D01*
X11100000Y-7130000D02*
X11000000Y-7230000D01*
X11100000Y-7180000D02*
G75*
G03*
X11100000Y-7180000I-50000J0D01*
G01*
X11000000Y-7384000D02*
X11100000Y-7484000D01*
X11100000Y-7384000D02*
X11000000Y-7484000D01*
X11100000Y-7434000D02*
G75*
G03*
X11100000Y-7434000I-50000J0D01*
G01*
X11000000Y-7638000D02*
X11100000Y-7738000D01*
X11100000Y-7638000D02*
X11000000Y-7738000D01*
X11100000Y-7688000D02*
G75*
G03*
X11100000Y-7688000I-50000J0D01*
G01*
X11000000Y-7892000D02*
X11100000Y-7992000D01*
X11100000Y-7892000D02*
X11000000Y-7992000D01*
X11100000Y-7942000D02*
G75*
G03*
X11100000Y-7942000I-50000J0D01*
G01*
X11000000Y-8146000D02*
X11100000Y-8246000D01*
X11100000Y-8146000D02*
X11000000Y-8246000D01*
X11100000Y-8196000D02*
G75*
G03*
X11100000Y-8196000I-50000J0D01*
G01*
X11000000Y-8400000D02*
X11100000Y-8500000D01*
X11100000Y-8400000D02*
X11000000Y-8500000D01*
X11100000Y-8450000D02*
G75*
G03*
X11100000Y-8450000I-50000J0D01*
G01*
X11750000Y-10225000D02*
X11850000Y-10325000D01*
X11850000Y-10225000D02*
X11750000Y-10325000D01*
X11850000Y-10275000D02*
G75*
G03*
X11850000Y-10275000I-50000J0D01*
G01*
X11750000Y-10975000D02*
X11850000Y-11075000D01*
X11850000Y-10975000D02*
X11750000Y-11075000D01*
X11850000Y-11025000D02*
G75*
G03*
X11850000Y-11025000I-50000J0D01*
G01*
X12200000Y-10225000D02*
X12300000Y-10325000D01*
X12300000Y-10225000D02*
X12200000Y-10325000D01*
X12300000Y-10275000D02*
G75*
G03*
X12300000Y-10275000I-50000J0D01*
G01*
X12200000Y-10975000D02*
X12300000Y-11075000D01*
X12300000Y-10975000D02*
X12200000Y-11075000D01*
X12300000Y-11025000D02*
G75*
G03*
X12300000Y-11025000I-50000J0D01*
G01*
X12500000Y-9475000D02*
X12600000Y-9575000D01*
X12600000Y-9475000D02*
X12500000Y-9575000D01*
X12600000Y-9525000D02*
G75*
G03*
X12600000Y-9525000I-50000J0D01*
G01*
X12500000Y-9925000D02*
X12600000Y-10025000D01*
X12600000Y-9925000D02*
X12500000Y-10025000D01*
X12600000Y-9975000D02*
G75*
G03*
X12600000Y-9975000I-50000J0D01*
G01*
X12500000Y-10375000D02*
X12600000Y-10475000D01*
X12600000Y-10375000D02*
X12500000Y-10475000D01*
X12600000Y-10425000D02*
G75*
G03*
X12600000Y-10425000I-50000J0D01*
G01*
X12500000Y-10825000D02*
X12600000Y-10925000D01*
X12600000Y-10825000D02*
X12500000Y-10925000D01*
X12600000Y-10875000D02*
G75*
G03*
X12600000Y-10875000I-50000J0D01*
G01*
X12500000Y-11275000D02*
X12600000Y-11375000D01*
X12600000Y-11275000D02*
X12500000Y-11375000D01*
X12600000Y-11325000D02*
G75*
G03*
X12600000Y-11325000I-50000J0D01*
G01*
X12500000Y-11725000D02*
X12600000Y-11825000D01*
X12600000Y-11725000D02*
X12500000Y-11825000D01*
X12600000Y-11775000D02*
G75*
G03*
X12600000Y-11775000I-50000J0D01*
G01*
X13250000Y-9475000D02*
X13350000Y-9575000D01*
X13350000Y-9475000D02*
X13250000Y-9575000D01*
X13350000Y-9525000D02*
G75*
G03*
X13350000Y-9525000I-50000J0D01*
G01*
X13250000Y-9925000D02*
X13350000Y-10025000D01*
X13350000Y-9925000D02*
X13250000Y-10025000D01*
X13350000Y-9975000D02*
G75*
G03*
X13350000Y-9975000I-50000J0D01*
G01*
X13250000Y-10375000D02*
X13350000Y-10475000D01*
X13350000Y-10375000D02*
X13250000Y-10475000D01*
X13350000Y-10425000D02*
G75*
G03*
X13350000Y-10425000I-50000J0D01*
G01*
X13250000Y-10825000D02*
X13350000Y-10925000D01*
X13350000Y-10825000D02*
X13250000Y-10925000D01*
X13350000Y-10875000D02*
G75*
G03*
X13350000Y-10875000I-50000J0D01*
G01*
X13250000Y-11275000D02*
X13350000Y-11375000D01*
X13350000Y-11275000D02*
X13250000Y-11375000D01*
X13350000Y-11325000D02*
G75*
G03*
X13350000Y-11325000I-50000J0D01*
G01*
X13250000Y-11725000D02*
X13350000Y-11825000D01*
X13350000Y-11725000D02*
X13250000Y-11825000D01*
X13350000Y-11775000D02*
G75*
G03*
X13350000Y-11775000I-50000J0D01*
G01*
X13550000Y-10225000D02*
X13650000Y-10325000D01*
X13650000Y-10225000D02*
X13550000Y-10325000D01*
X13650000Y-10275000D02*
G75*
G03*
X13650000Y-10275000I-50000J0D01*
G01*
X13550000Y-10975000D02*
X13650000Y-11075000D01*
X13650000Y-10975000D02*
X13550000Y-11075000D01*
X13650000Y-11025000D02*
G75*
G03*
X13650000Y-11025000I-50000J0D01*
G01*
X14000000Y-10225000D02*
X14100000Y-10325000D01*
X14100000Y-10225000D02*
X14000000Y-10325000D01*
X14100000Y-10275000D02*
G75*
G03*
X14100000Y-10275000I-50000J0D01*
G01*
X14000000Y-10975000D02*
X14100000Y-11075000D01*
X14100000Y-10975000D02*
X14000000Y-11075000D01*
X14100000Y-11025000D02*
G75*
G03*
X14100000Y-11025000I-50000J0D01*
G01*
X14725000Y-4826000D02*
X14825000Y-4926000D01*
X14825000Y-4826000D02*
X14725000Y-4926000D01*
X14825000Y-4876000D02*
G75*
G03*
X14825000Y-4876000I-50000J0D01*
G01*
X14725000Y-5080000D02*
X14825000Y-5180000D01*
X14825000Y-5080000D02*
X14725000Y-5180000D01*
X14825000Y-5130000D02*
G75*
G03*
X14825000Y-5130000I-50000J0D01*
G01*
X14725000Y-5334000D02*
X14825000Y-5434000D01*
X14825000Y-5334000D02*
X14725000Y-5434000D01*
X14825000Y-5384000D02*
G75*
G03*
X14825000Y-5384000I-50000J0D01*
G01*
X14725000Y-5588000D02*
X14825000Y-5688000D01*
X14825000Y-5588000D02*
X14725000Y-5688000D01*
X14825000Y-5638000D02*
G75*
G03*
X14825000Y-5638000I-50000J0D01*
G01*
X14725000Y-5842000D02*
X14825000Y-5942000D01*
X14825000Y-5842000D02*
X14725000Y-5942000D01*
X14825000Y-5892000D02*
G75*
G03*
X14825000Y-5892000I-50000J0D01*
G01*
X14725000Y-6096000D02*
X14825000Y-6196000D01*
X14825000Y-6096000D02*
X14725000Y-6196000D01*
X14825000Y-6146000D02*
G75*
G03*
X14825000Y-6146000I-50000J0D01*
G01*
X14725000Y-6350000D02*
X14825000Y-6450000D01*
X14825000Y-6350000D02*
X14725000Y-6450000D01*
X14825000Y-6400000D02*
G75*
G03*
X14825000Y-6400000I-50000J0D01*
G01*
D11*
X11130777Y-12516484D02*
X11130777Y-12316484D01*
X11130777Y-12316484D02*
X11178396Y-12316484D01*
X11178396Y-12316484D02*
X11206967Y-12326008D01*
X11206967Y-12326008D02*
X11226015Y-12345055D01*
X11226015Y-12345055D02*
X11235539Y-12364103D01*
X11235539Y-12364103D02*
X11245062Y-12402198D01*
X11245062Y-12402198D02*
X11245062Y-12430769D01*
X11245062Y-12430769D02*
X11235539Y-12468865D01*
X11235539Y-12468865D02*
X11226015Y-12487912D01*
X11226015Y-12487912D02*
X11206967Y-12506960D01*
X11206967Y-12506960D02*
X11178396Y-12516484D01*
X11178396Y-12516484D02*
X11130777Y-12516484D01*
X11330777Y-12516484D02*
X11330777Y-12383150D01*
X11330777Y-12421246D02*
X11340301Y-12402198D01*
X11340301Y-12402198D02*
X11349824Y-12392674D01*
X11349824Y-12392674D02*
X11368872Y-12383150D01*
X11368872Y-12383150D02*
X11387920Y-12383150D01*
X11454586Y-12516484D02*
X11454586Y-12383150D01*
X11454586Y-12316484D02*
X11445062Y-12326008D01*
X11445062Y-12326008D02*
X11454586Y-12335531D01*
X11454586Y-12335531D02*
X11464110Y-12326008D01*
X11464110Y-12326008D02*
X11454586Y-12316484D01*
X11454586Y-12316484D02*
X11454586Y-12335531D01*
X11578396Y-12516484D02*
X11559348Y-12506960D01*
X11559348Y-12506960D02*
X11549824Y-12487912D01*
X11549824Y-12487912D02*
X11549824Y-12316484D01*
X11683158Y-12516484D02*
X11664110Y-12506960D01*
X11664110Y-12506960D02*
X11654586Y-12487912D01*
X11654586Y-12487912D02*
X11654586Y-12316484D01*
X11911729Y-12516484D02*
X11911729Y-12316484D01*
X11911729Y-12316484D02*
X11978396Y-12459341D01*
X11978396Y-12459341D02*
X12045062Y-12316484D01*
X12045062Y-12316484D02*
X12045062Y-12516484D01*
X12226015Y-12516484D02*
X12226015Y-12411722D01*
X12226015Y-12411722D02*
X12216491Y-12392674D01*
X12216491Y-12392674D02*
X12197443Y-12383150D01*
X12197443Y-12383150D02*
X12159348Y-12383150D01*
X12159348Y-12383150D02*
X12140301Y-12392674D01*
X12226015Y-12506960D02*
X12206967Y-12516484D01*
X12206967Y-12516484D02*
X12159348Y-12516484D01*
X12159348Y-12516484D02*
X12140301Y-12506960D01*
X12140301Y-12506960D02*
X12130777Y-12487912D01*
X12130777Y-12487912D02*
X12130777Y-12468865D01*
X12130777Y-12468865D02*
X12140301Y-12449817D01*
X12140301Y-12449817D02*
X12159348Y-12440293D01*
X12159348Y-12440293D02*
X12206967Y-12440293D01*
X12206967Y-12440293D02*
X12226015Y-12430769D01*
X12321253Y-12383150D02*
X12321253Y-12583150D01*
X12321253Y-12392674D02*
X12340301Y-12383150D01*
X12340301Y-12383150D02*
X12378396Y-12383150D01*
X12378396Y-12383150D02*
X12397443Y-12392674D01*
X12397443Y-12392674D02*
X12406967Y-12402198D01*
X12406967Y-12402198D02*
X12416491Y-12421246D01*
X12416491Y-12421246D02*
X12416491Y-12478388D01*
X12416491Y-12478388D02*
X12406967Y-12497436D01*
X12406967Y-12497436D02*
X12397443Y-12506960D01*
X12397443Y-12506960D02*
X12378396Y-12516484D01*
X12378396Y-12516484D02*
X12340301Y-12516484D01*
X12340301Y-12516484D02*
X12321253Y-12506960D01*
X12502205Y-12497436D02*
X12511729Y-12506960D01*
X12511729Y-12506960D02*
X12502205Y-12516484D01*
X12502205Y-12516484D02*
X12492682Y-12506960D01*
X12492682Y-12506960D02*
X12502205Y-12497436D01*
X12502205Y-12497436D02*
X12502205Y-12516484D01*
X12502205Y-12392674D02*
X12511729Y-12402198D01*
X12511729Y-12402198D02*
X12502205Y-12411722D01*
X12502205Y-12411722D02*
X12492682Y-12402198D01*
X12492682Y-12402198D02*
X12502205Y-12392674D01*
X12502205Y-12392674D02*
X12502205Y-12411722D01*
D12*
X10830000Y-12825000D02*
X10870000Y-12865000D01*
X10870000Y-12825000D02*
X10830000Y-12865000D01*
D11*
X11168872Y-12736484D02*
X11187920Y-12736484D01*
X11187920Y-12736484D02*
X11206967Y-12746008D01*
X11206967Y-12746008D02*
X11216491Y-12755531D01*
X11216491Y-12755531D02*
X11226015Y-12774579D01*
X11226015Y-12774579D02*
X11235539Y-12812674D01*
X11235539Y-12812674D02*
X11235539Y-12860293D01*
X11235539Y-12860293D02*
X11226015Y-12898388D01*
X11226015Y-12898388D02*
X11216491Y-12917436D01*
X11216491Y-12917436D02*
X11206967Y-12926960D01*
X11206967Y-12926960D02*
X11187920Y-12936484D01*
X11187920Y-12936484D02*
X11168872Y-12936484D01*
X11168872Y-12936484D02*
X11149824Y-12926960D01*
X11149824Y-12926960D02*
X11140301Y-12917436D01*
X11140301Y-12917436D02*
X11130777Y-12898388D01*
X11130777Y-12898388D02*
X11121253Y-12860293D01*
X11121253Y-12860293D02*
X11121253Y-12812674D01*
X11121253Y-12812674D02*
X11130777Y-12774579D01*
X11130777Y-12774579D02*
X11140301Y-12755531D01*
X11140301Y-12755531D02*
X11149824Y-12746008D01*
X11149824Y-12746008D02*
X11168872Y-12736484D01*
X11321253Y-12917436D02*
X11330777Y-12926960D01*
X11330777Y-12926960D02*
X11321253Y-12936484D01*
X11321253Y-12936484D02*
X11311729Y-12926960D01*
X11311729Y-12926960D02*
X11321253Y-12917436D01*
X11321253Y-12917436D02*
X11321253Y-12936484D01*
X11502205Y-12803150D02*
X11502205Y-12936484D01*
X11454586Y-12726960D02*
X11406967Y-12869817D01*
X11406967Y-12869817D02*
X11530777Y-12869817D01*
X11645062Y-12736484D02*
X11664110Y-12736484D01*
X11664110Y-12736484D02*
X11683158Y-12746008D01*
X11683158Y-12746008D02*
X11692682Y-12755531D01*
X11692682Y-12755531D02*
X11702205Y-12774579D01*
X11702205Y-12774579D02*
X11711729Y-12812674D01*
X11711729Y-12812674D02*
X11711729Y-12860293D01*
X11711729Y-12860293D02*
X11702205Y-12898388D01*
X11702205Y-12898388D02*
X11692682Y-12917436D01*
X11692682Y-12917436D02*
X11683158Y-12926960D01*
X11683158Y-12926960D02*
X11664110Y-12936484D01*
X11664110Y-12936484D02*
X11645062Y-12936484D01*
X11645062Y-12936484D02*
X11626015Y-12926960D01*
X11626015Y-12926960D02*
X11616491Y-12917436D01*
X11616491Y-12917436D02*
X11606967Y-12898388D01*
X11606967Y-12898388D02*
X11597443Y-12860293D01*
X11597443Y-12860293D02*
X11597443Y-12812674D01*
X11597443Y-12812674D02*
X11606967Y-12774579D01*
X11606967Y-12774579D02*
X11616491Y-12755531D01*
X11616491Y-12755531D02*
X11626015Y-12746008D01*
X11626015Y-12746008D02*
X11645062Y-12736484D01*
X11835539Y-12736484D02*
X11854586Y-12736484D01*
X11854586Y-12736484D02*
X11873634Y-12746008D01*
X11873634Y-12746008D02*
X11883158Y-12755531D01*
X11883158Y-12755531D02*
X11892682Y-12774579D01*
X11892682Y-12774579D02*
X11902205Y-12812674D01*
X11902205Y-12812674D02*
X11902205Y-12860293D01*
X11902205Y-12860293D02*
X11892682Y-12898388D01*
X11892682Y-12898388D02*
X11883158Y-12917436D01*
X11883158Y-12917436D02*
X11873634Y-12926960D01*
X11873634Y-12926960D02*
X11854586Y-12936484D01*
X11854586Y-12936484D02*
X11835539Y-12936484D01*
X11835539Y-12936484D02*
X11816491Y-12926960D01*
X11816491Y-12926960D02*
X11806967Y-12917436D01*
X11806967Y-12917436D02*
X11797443Y-12898388D01*
X11797443Y-12898388D02*
X11787920Y-12860293D01*
X11787920Y-12860293D02*
X11787920Y-12812674D01*
X11787920Y-12812674D02*
X11797443Y-12774579D01*
X11797443Y-12774579D02*
X11806967Y-12755531D01*
X11806967Y-12755531D02*
X11816491Y-12746008D01*
X11816491Y-12746008D02*
X11835539Y-12736484D01*
X11987920Y-12936484D02*
X11987920Y-12803150D01*
X11987920Y-12822198D02*
X11997443Y-12812674D01*
X11997443Y-12812674D02*
X12016491Y-12803150D01*
X12016491Y-12803150D02*
X12045063Y-12803150D01*
X12045063Y-12803150D02*
X12064110Y-12812674D01*
X12064110Y-12812674D02*
X12073634Y-12831722D01*
X12073634Y-12831722D02*
X12073634Y-12936484D01*
X12073634Y-12831722D02*
X12083158Y-12812674D01*
X12083158Y-12812674D02*
X12102205Y-12803150D01*
X12102205Y-12803150D02*
X12130777Y-12803150D01*
X12130777Y-12803150D02*
X12149824Y-12812674D01*
X12149824Y-12812674D02*
X12159348Y-12831722D01*
X12159348Y-12831722D02*
X12159348Y-12936484D01*
X12254586Y-12936484D02*
X12254586Y-12803150D01*
X12254586Y-12822198D02*
X12264110Y-12812674D01*
X12264110Y-12812674D02*
X12283158Y-12803150D01*
X12283158Y-12803150D02*
X12311729Y-12803150D01*
X12311729Y-12803150D02*
X12330777Y-12812674D01*
X12330777Y-12812674D02*
X12340301Y-12831722D01*
X12340301Y-12831722D02*
X12340301Y-12936484D01*
X12340301Y-12831722D02*
X12349824Y-12812674D01*
X12349824Y-12812674D02*
X12368872Y-12803150D01*
X12368872Y-12803150D02*
X12397443Y-12803150D01*
X12397443Y-12803150D02*
X12416491Y-12812674D01*
X12416491Y-12812674D02*
X12426015Y-12831722D01*
X12426015Y-12831722D02*
X12426015Y-12936484D01*
X12816491Y-12726960D02*
X12645063Y-12984103D01*
X13073634Y-12736484D02*
X13092682Y-12736484D01*
X13092682Y-12736484D02*
X13111729Y-12746008D01*
X13111729Y-12746008D02*
X13121253Y-12755531D01*
X13121253Y-12755531D02*
X13130777Y-12774579D01*
X13130777Y-12774579D02*
X13140301Y-12812674D01*
X13140301Y-12812674D02*
X13140301Y-12860293D01*
X13140301Y-12860293D02*
X13130777Y-12898388D01*
X13130777Y-12898388D02*
X13121253Y-12917436D01*
X13121253Y-12917436D02*
X13111729Y-12926960D01*
X13111729Y-12926960D02*
X13092682Y-12936484D01*
X13092682Y-12936484D02*
X13073634Y-12936484D01*
X13073634Y-12936484D02*
X13054586Y-12926960D01*
X13054586Y-12926960D02*
X13045063Y-12917436D01*
X13045063Y-12917436D02*
X13035539Y-12898388D01*
X13035539Y-12898388D02*
X13026015Y-12860293D01*
X13026015Y-12860293D02*
X13026015Y-12812674D01*
X13026015Y-12812674D02*
X13035539Y-12774579D01*
X13035539Y-12774579D02*
X13045063Y-12755531D01*
X13045063Y-12755531D02*
X13054586Y-12746008D01*
X13054586Y-12746008D02*
X13073634Y-12736484D01*
X13226015Y-12917436D02*
X13235539Y-12926960D01*
X13235539Y-12926960D02*
X13226015Y-12936484D01*
X13226015Y-12936484D02*
X13216491Y-12926960D01*
X13216491Y-12926960D02*
X13226015Y-12917436D01*
X13226015Y-12917436D02*
X13226015Y-12936484D01*
X13359348Y-12736484D02*
X13378396Y-12736484D01*
X13378396Y-12736484D02*
X13397444Y-12746008D01*
X13397444Y-12746008D02*
X13406967Y-12755531D01*
X13406967Y-12755531D02*
X13416491Y-12774579D01*
X13416491Y-12774579D02*
X13426015Y-12812674D01*
X13426015Y-12812674D02*
X13426015Y-12860293D01*
X13426015Y-12860293D02*
X13416491Y-12898388D01*
X13416491Y-12898388D02*
X13406967Y-12917436D01*
X13406967Y-12917436D02*
X13397444Y-12926960D01*
X13397444Y-12926960D02*
X13378396Y-12936484D01*
X13378396Y-12936484D02*
X13359348Y-12936484D01*
X13359348Y-12936484D02*
X13340301Y-12926960D01*
X13340301Y-12926960D02*
X13330777Y-12917436D01*
X13330777Y-12917436D02*
X13321253Y-12898388D01*
X13321253Y-12898388D02*
X13311729Y-12860293D01*
X13311729Y-12860293D02*
X13311729Y-12812674D01*
X13311729Y-12812674D02*
X13321253Y-12774579D01*
X13321253Y-12774579D02*
X13330777Y-12755531D01*
X13330777Y-12755531D02*
X13340301Y-12746008D01*
X13340301Y-12746008D02*
X13359348Y-12736484D01*
X13616491Y-12936484D02*
X13502206Y-12936484D01*
X13559348Y-12936484D02*
X13559348Y-12736484D01*
X13559348Y-12736484D02*
X13540301Y-12765055D01*
X13540301Y-12765055D02*
X13521253Y-12784103D01*
X13521253Y-12784103D02*
X13502206Y-12793627D01*
X13797444Y-12736484D02*
X13702206Y-12736484D01*
X13702206Y-12736484D02*
X13692682Y-12831722D01*
X13692682Y-12831722D02*
X13702206Y-12822198D01*
X13702206Y-12822198D02*
X13721253Y-12812674D01*
X13721253Y-12812674D02*
X13768872Y-12812674D01*
X13768872Y-12812674D02*
X13787920Y-12822198D01*
X13787920Y-12822198D02*
X13797444Y-12831722D01*
X13797444Y-12831722D02*
X13806967Y-12850769D01*
X13806967Y-12850769D02*
X13806967Y-12898388D01*
X13806967Y-12898388D02*
X13797444Y-12917436D01*
X13797444Y-12917436D02*
X13787920Y-12926960D01*
X13787920Y-12926960D02*
X13768872Y-12936484D01*
X13768872Y-12936484D02*
X13721253Y-12936484D01*
X13721253Y-12936484D02*
X13702206Y-12926960D01*
X13702206Y-12926960D02*
X13692682Y-12917436D01*
X13873634Y-12736484D02*
X14006967Y-12736484D01*
X14006967Y-12736484D02*
X13921253Y-12936484D01*
X14073634Y-12736484D02*
X14073634Y-12774579D01*
X14149825Y-12736484D02*
X14149825Y-12774579D01*
X14445063Y-13012674D02*
X14435539Y-13003150D01*
X14435539Y-13003150D02*
X14416491Y-12974579D01*
X14416491Y-12974579D02*
X14406968Y-12955531D01*
X14406968Y-12955531D02*
X14397444Y-12926960D01*
X14397444Y-12926960D02*
X14387920Y-12879341D01*
X14387920Y-12879341D02*
X14387920Y-12841246D01*
X14387920Y-12841246D02*
X14397444Y-12793627D01*
X14397444Y-12793627D02*
X14406968Y-12765055D01*
X14406968Y-12765055D02*
X14416491Y-12746008D01*
X14416491Y-12746008D02*
X14435539Y-12717436D01*
X14435539Y-12717436D02*
X14445063Y-12707912D01*
X14626015Y-12936484D02*
X14511729Y-12936484D01*
X14568872Y-12936484D02*
X14568872Y-12736484D01*
X14568872Y-12736484D02*
X14549825Y-12765055D01*
X14549825Y-12765055D02*
X14530777Y-12784103D01*
X14530777Y-12784103D02*
X14511729Y-12793627D01*
X14816491Y-12936484D02*
X14702206Y-12936484D01*
X14759348Y-12936484D02*
X14759348Y-12736484D01*
X14759348Y-12736484D02*
X14740301Y-12765055D01*
X14740301Y-12765055D02*
X14721253Y-12784103D01*
X14721253Y-12784103D02*
X14702206Y-12793627D01*
X14892682Y-12755531D02*
X14902206Y-12746008D01*
X14902206Y-12746008D02*
X14921253Y-12736484D01*
X14921253Y-12736484D02*
X14968872Y-12736484D01*
X14968872Y-12736484D02*
X14987920Y-12746008D01*
X14987920Y-12746008D02*
X14997444Y-12755531D01*
X14997444Y-12755531D02*
X15006968Y-12774579D01*
X15006968Y-12774579D02*
X15006968Y-12793627D01*
X15006968Y-12793627D02*
X14997444Y-12822198D01*
X14997444Y-12822198D02*
X14883158Y-12936484D01*
X14883158Y-12936484D02*
X15006968Y-12936484D01*
X15245063Y-12936484D02*
X15245063Y-12736484D01*
X15330777Y-12936484D02*
X15330777Y-12831722D01*
X15330777Y-12831722D02*
X15321253Y-12812674D01*
X15321253Y-12812674D02*
X15302206Y-12803150D01*
X15302206Y-12803150D02*
X15273634Y-12803150D01*
X15273634Y-12803150D02*
X15254587Y-12812674D01*
X15254587Y-12812674D02*
X15245063Y-12822198D01*
X15454587Y-12936484D02*
X15435539Y-12926960D01*
X15435539Y-12926960D02*
X15426015Y-12917436D01*
X15426015Y-12917436D02*
X15416491Y-12898388D01*
X15416491Y-12898388D02*
X15416491Y-12841246D01*
X15416491Y-12841246D02*
X15426015Y-12822198D01*
X15426015Y-12822198D02*
X15435539Y-12812674D01*
X15435539Y-12812674D02*
X15454587Y-12803150D01*
X15454587Y-12803150D02*
X15483158Y-12803150D01*
X15483158Y-12803150D02*
X15502206Y-12812674D01*
X15502206Y-12812674D02*
X15511730Y-12822198D01*
X15511730Y-12822198D02*
X15521253Y-12841246D01*
X15521253Y-12841246D02*
X15521253Y-12898388D01*
X15521253Y-12898388D02*
X15511730Y-12917436D01*
X15511730Y-12917436D02*
X15502206Y-12926960D01*
X15502206Y-12926960D02*
X15483158Y-12936484D01*
X15483158Y-12936484D02*
X15454587Y-12936484D01*
X15635539Y-12936484D02*
X15616491Y-12926960D01*
X15616491Y-12926960D02*
X15606968Y-12907912D01*
X15606968Y-12907912D02*
X15606968Y-12736484D01*
X15787920Y-12926960D02*
X15768872Y-12936484D01*
X15768872Y-12936484D02*
X15730777Y-12936484D01*
X15730777Y-12936484D02*
X15711730Y-12926960D01*
X15711730Y-12926960D02*
X15702206Y-12907912D01*
X15702206Y-12907912D02*
X15702206Y-12831722D01*
X15702206Y-12831722D02*
X15711730Y-12812674D01*
X15711730Y-12812674D02*
X15730777Y-12803150D01*
X15730777Y-12803150D02*
X15768872Y-12803150D01*
X15768872Y-12803150D02*
X15787920Y-12812674D01*
X15787920Y-12812674D02*
X15797444Y-12831722D01*
X15797444Y-12831722D02*
X15797444Y-12850769D01*
X15797444Y-12850769D02*
X15702206Y-12869817D01*
X15873634Y-12926960D02*
X15892682Y-12936484D01*
X15892682Y-12936484D02*
X15930777Y-12936484D01*
X15930777Y-12936484D02*
X15949825Y-12926960D01*
X15949825Y-12926960D02*
X15959349Y-12907912D01*
X15959349Y-12907912D02*
X15959349Y-12898388D01*
X15959349Y-12898388D02*
X15949825Y-12879341D01*
X15949825Y-12879341D02*
X15930777Y-12869817D01*
X15930777Y-12869817D02*
X15902206Y-12869817D01*
X15902206Y-12869817D02*
X15883158Y-12860293D01*
X15883158Y-12860293D02*
X15873634Y-12841246D01*
X15873634Y-12841246D02*
X15873634Y-12831722D01*
X15873634Y-12831722D02*
X15883158Y-12812674D01*
X15883158Y-12812674D02*
X15902206Y-12803150D01*
X15902206Y-12803150D02*
X15930777Y-12803150D01*
X15930777Y-12803150D02*
X15949825Y-12812674D01*
X16026015Y-13012674D02*
X16035539Y-13003150D01*
X16035539Y-13003150D02*
X16054587Y-12974579D01*
X16054587Y-12974579D02*
X16064111Y-12955531D01*
X16064111Y-12955531D02*
X16073634Y-12926960D01*
X16073634Y-12926960D02*
X16083158Y-12879341D01*
X16083158Y-12879341D02*
X16083158Y-12841246D01*
X16083158Y-12841246D02*
X16073634Y-12793627D01*
X16073634Y-12793627D02*
X16064111Y-12765055D01*
X16064111Y-12765055D02*
X16054587Y-12746008D01*
X16054587Y-12746008D02*
X16035539Y-12717436D01*
X16035539Y-12717436D02*
X16026015Y-12707912D01*
D13*
X10870000Y-13109000D02*
G75*
G03*
X10870000Y-13109000I-30000J0D01*
G01*
D11*
X11168872Y-13000484D02*
X11187920Y-13000484D01*
X11187920Y-13000484D02*
X11206967Y-13010008D01*
X11206967Y-13010008D02*
X11216491Y-13019531D01*
X11216491Y-13019531D02*
X11226015Y-13038579D01*
X11226015Y-13038579D02*
X11235539Y-13076674D01*
X11235539Y-13076674D02*
X11235539Y-13124293D01*
X11235539Y-13124293D02*
X11226015Y-13162388D01*
X11226015Y-13162388D02*
X11216491Y-13181436D01*
X11216491Y-13181436D02*
X11206967Y-13190960D01*
X11206967Y-13190960D02*
X11187920Y-13200484D01*
X11187920Y-13200484D02*
X11168872Y-13200484D01*
X11168872Y-13200484D02*
X11149824Y-13190960D01*
X11149824Y-13190960D02*
X11140301Y-13181436D01*
X11140301Y-13181436D02*
X11130777Y-13162388D01*
X11130777Y-13162388D02*
X11121253Y-13124293D01*
X11121253Y-13124293D02*
X11121253Y-13076674D01*
X11121253Y-13076674D02*
X11130777Y-13038579D01*
X11130777Y-13038579D02*
X11140301Y-13019531D01*
X11140301Y-13019531D02*
X11149824Y-13010008D01*
X11149824Y-13010008D02*
X11168872Y-13000484D01*
X11321253Y-13181436D02*
X11330777Y-13190960D01*
X11330777Y-13190960D02*
X11321253Y-13200484D01*
X11321253Y-13200484D02*
X11311729Y-13190960D01*
X11311729Y-13190960D02*
X11321253Y-13181436D01*
X11321253Y-13181436D02*
X11321253Y-13200484D01*
X11502205Y-13000484D02*
X11464110Y-13000484D01*
X11464110Y-13000484D02*
X11445062Y-13010008D01*
X11445062Y-13010008D02*
X11435539Y-13019531D01*
X11435539Y-13019531D02*
X11416491Y-13048103D01*
X11416491Y-13048103D02*
X11406967Y-13086198D01*
X11406967Y-13086198D02*
X11406967Y-13162388D01*
X11406967Y-13162388D02*
X11416491Y-13181436D01*
X11416491Y-13181436D02*
X11426015Y-13190960D01*
X11426015Y-13190960D02*
X11445062Y-13200484D01*
X11445062Y-13200484D02*
X11483158Y-13200484D01*
X11483158Y-13200484D02*
X11502205Y-13190960D01*
X11502205Y-13190960D02*
X11511729Y-13181436D01*
X11511729Y-13181436D02*
X11521253Y-13162388D01*
X11521253Y-13162388D02*
X11521253Y-13114769D01*
X11521253Y-13114769D02*
X11511729Y-13095722D01*
X11511729Y-13095722D02*
X11502205Y-13086198D01*
X11502205Y-13086198D02*
X11483158Y-13076674D01*
X11483158Y-13076674D02*
X11445062Y-13076674D01*
X11445062Y-13076674D02*
X11426015Y-13086198D01*
X11426015Y-13086198D02*
X11416491Y-13095722D01*
X11416491Y-13095722D02*
X11406967Y-13114769D01*
X11645062Y-13000484D02*
X11664110Y-13000484D01*
X11664110Y-13000484D02*
X11683158Y-13010008D01*
X11683158Y-13010008D02*
X11692682Y-13019531D01*
X11692682Y-13019531D02*
X11702205Y-13038579D01*
X11702205Y-13038579D02*
X11711729Y-13076674D01*
X11711729Y-13076674D02*
X11711729Y-13124293D01*
X11711729Y-13124293D02*
X11702205Y-13162388D01*
X11702205Y-13162388D02*
X11692682Y-13181436D01*
X11692682Y-13181436D02*
X11683158Y-13190960D01*
X11683158Y-13190960D02*
X11664110Y-13200484D01*
X11664110Y-13200484D02*
X11645062Y-13200484D01*
X11645062Y-13200484D02*
X11626015Y-13190960D01*
X11626015Y-13190960D02*
X11616491Y-13181436D01*
X11616491Y-13181436D02*
X11606967Y-13162388D01*
X11606967Y-13162388D02*
X11597443Y-13124293D01*
X11597443Y-13124293D02*
X11597443Y-13076674D01*
X11597443Y-13076674D02*
X11606967Y-13038579D01*
X11606967Y-13038579D02*
X11616491Y-13019531D01*
X11616491Y-13019531D02*
X11626015Y-13010008D01*
X11626015Y-13010008D02*
X11645062Y-13000484D01*
X11835539Y-13000484D02*
X11854586Y-13000484D01*
X11854586Y-13000484D02*
X11873634Y-13010008D01*
X11873634Y-13010008D02*
X11883158Y-13019531D01*
X11883158Y-13019531D02*
X11892682Y-13038579D01*
X11892682Y-13038579D02*
X11902205Y-13076674D01*
X11902205Y-13076674D02*
X11902205Y-13124293D01*
X11902205Y-13124293D02*
X11892682Y-13162388D01*
X11892682Y-13162388D02*
X11883158Y-13181436D01*
X11883158Y-13181436D02*
X11873634Y-13190960D01*
X11873634Y-13190960D02*
X11854586Y-13200484D01*
X11854586Y-13200484D02*
X11835539Y-13200484D01*
X11835539Y-13200484D02*
X11816491Y-13190960D01*
X11816491Y-13190960D02*
X11806967Y-13181436D01*
X11806967Y-13181436D02*
X11797443Y-13162388D01*
X11797443Y-13162388D02*
X11787920Y-13124293D01*
X11787920Y-13124293D02*
X11787920Y-13076674D01*
X11787920Y-13076674D02*
X11797443Y-13038579D01*
X11797443Y-13038579D02*
X11806967Y-13019531D01*
X11806967Y-13019531D02*
X11816491Y-13010008D01*
X11816491Y-13010008D02*
X11835539Y-13000484D01*
X11987920Y-13200484D02*
X11987920Y-13067150D01*
X11987920Y-13086198D02*
X11997443Y-13076674D01*
X11997443Y-13076674D02*
X12016491Y-13067150D01*
X12016491Y-13067150D02*
X12045063Y-13067150D01*
X12045063Y-13067150D02*
X12064110Y-13076674D01*
X12064110Y-13076674D02*
X12073634Y-13095722D01*
X12073634Y-13095722D02*
X12073634Y-13200484D01*
X12073634Y-13095722D02*
X12083158Y-13076674D01*
X12083158Y-13076674D02*
X12102205Y-13067150D01*
X12102205Y-13067150D02*
X12130777Y-13067150D01*
X12130777Y-13067150D02*
X12149824Y-13076674D01*
X12149824Y-13076674D02*
X12159348Y-13095722D01*
X12159348Y-13095722D02*
X12159348Y-13200484D01*
X12254586Y-13200484D02*
X12254586Y-13067150D01*
X12254586Y-13086198D02*
X12264110Y-13076674D01*
X12264110Y-13076674D02*
X12283158Y-13067150D01*
X12283158Y-13067150D02*
X12311729Y-13067150D01*
X12311729Y-13067150D02*
X12330777Y-13076674D01*
X12330777Y-13076674D02*
X12340301Y-13095722D01*
X12340301Y-13095722D02*
X12340301Y-13200484D01*
X12340301Y-13095722D02*
X12349824Y-13076674D01*
X12349824Y-13076674D02*
X12368872Y-13067150D01*
X12368872Y-13067150D02*
X12397443Y-13067150D01*
X12397443Y-13067150D02*
X12416491Y-13076674D01*
X12416491Y-13076674D02*
X12426015Y-13095722D01*
X12426015Y-13095722D02*
X12426015Y-13200484D01*
X12816491Y-12990960D02*
X12645063Y-13248103D01*
X13073634Y-13000484D02*
X13092682Y-13000484D01*
X13092682Y-13000484D02*
X13111729Y-13010008D01*
X13111729Y-13010008D02*
X13121253Y-13019531D01*
X13121253Y-13019531D02*
X13130777Y-13038579D01*
X13130777Y-13038579D02*
X13140301Y-13076674D01*
X13140301Y-13076674D02*
X13140301Y-13124293D01*
X13140301Y-13124293D02*
X13130777Y-13162388D01*
X13130777Y-13162388D02*
X13121253Y-13181436D01*
X13121253Y-13181436D02*
X13111729Y-13190960D01*
X13111729Y-13190960D02*
X13092682Y-13200484D01*
X13092682Y-13200484D02*
X13073634Y-13200484D01*
X13073634Y-13200484D02*
X13054586Y-13190960D01*
X13054586Y-13190960D02*
X13045063Y-13181436D01*
X13045063Y-13181436D02*
X13035539Y-13162388D01*
X13035539Y-13162388D02*
X13026015Y-13124293D01*
X13026015Y-13124293D02*
X13026015Y-13076674D01*
X13026015Y-13076674D02*
X13035539Y-13038579D01*
X13035539Y-13038579D02*
X13045063Y-13019531D01*
X13045063Y-13019531D02*
X13054586Y-13010008D01*
X13054586Y-13010008D02*
X13073634Y-13000484D01*
X13226015Y-13181436D02*
X13235539Y-13190960D01*
X13235539Y-13190960D02*
X13226015Y-13200484D01*
X13226015Y-13200484D02*
X13216491Y-13190960D01*
X13216491Y-13190960D02*
X13226015Y-13181436D01*
X13226015Y-13181436D02*
X13226015Y-13200484D01*
X13359348Y-13000484D02*
X13378396Y-13000484D01*
X13378396Y-13000484D02*
X13397444Y-13010008D01*
X13397444Y-13010008D02*
X13406967Y-13019531D01*
X13406967Y-13019531D02*
X13416491Y-13038579D01*
X13416491Y-13038579D02*
X13426015Y-13076674D01*
X13426015Y-13076674D02*
X13426015Y-13124293D01*
X13426015Y-13124293D02*
X13416491Y-13162388D01*
X13416491Y-13162388D02*
X13406967Y-13181436D01*
X13406967Y-13181436D02*
X13397444Y-13190960D01*
X13397444Y-13190960D02*
X13378396Y-13200484D01*
X13378396Y-13200484D02*
X13359348Y-13200484D01*
X13359348Y-13200484D02*
X13340301Y-13190960D01*
X13340301Y-13190960D02*
X13330777Y-13181436D01*
X13330777Y-13181436D02*
X13321253Y-13162388D01*
X13321253Y-13162388D02*
X13311729Y-13124293D01*
X13311729Y-13124293D02*
X13311729Y-13076674D01*
X13311729Y-13076674D02*
X13321253Y-13038579D01*
X13321253Y-13038579D02*
X13330777Y-13019531D01*
X13330777Y-13019531D02*
X13340301Y-13010008D01*
X13340301Y-13010008D02*
X13359348Y-13000484D01*
X13502206Y-13019531D02*
X13511729Y-13010008D01*
X13511729Y-13010008D02*
X13530777Y-13000484D01*
X13530777Y-13000484D02*
X13578396Y-13000484D01*
X13578396Y-13000484D02*
X13597444Y-13010008D01*
X13597444Y-13010008D02*
X13606967Y-13019531D01*
X13606967Y-13019531D02*
X13616491Y-13038579D01*
X13616491Y-13038579D02*
X13616491Y-13057627D01*
X13616491Y-13057627D02*
X13606967Y-13086198D01*
X13606967Y-13086198D02*
X13492682Y-13200484D01*
X13492682Y-13200484D02*
X13616491Y-13200484D01*
X13683158Y-13000484D02*
X13806967Y-13000484D01*
X13806967Y-13000484D02*
X13740301Y-13076674D01*
X13740301Y-13076674D02*
X13768872Y-13076674D01*
X13768872Y-13076674D02*
X13787920Y-13086198D01*
X13787920Y-13086198D02*
X13797444Y-13095722D01*
X13797444Y-13095722D02*
X13806967Y-13114769D01*
X13806967Y-13114769D02*
X13806967Y-13162388D01*
X13806967Y-13162388D02*
X13797444Y-13181436D01*
X13797444Y-13181436D02*
X13787920Y-13190960D01*
X13787920Y-13190960D02*
X13768872Y-13200484D01*
X13768872Y-13200484D02*
X13711729Y-13200484D01*
X13711729Y-13200484D02*
X13692682Y-13190960D01*
X13692682Y-13190960D02*
X13683158Y-13181436D01*
X13978396Y-13000484D02*
X13940301Y-13000484D01*
X13940301Y-13000484D02*
X13921253Y-13010008D01*
X13921253Y-13010008D02*
X13911729Y-13019531D01*
X13911729Y-13019531D02*
X13892682Y-13048103D01*
X13892682Y-13048103D02*
X13883158Y-13086198D01*
X13883158Y-13086198D02*
X13883158Y-13162388D01*
X13883158Y-13162388D02*
X13892682Y-13181436D01*
X13892682Y-13181436D02*
X13902206Y-13190960D01*
X13902206Y-13190960D02*
X13921253Y-13200484D01*
X13921253Y-13200484D02*
X13959348Y-13200484D01*
X13959348Y-13200484D02*
X13978396Y-13190960D01*
X13978396Y-13190960D02*
X13987920Y-13181436D01*
X13987920Y-13181436D02*
X13997444Y-13162388D01*
X13997444Y-13162388D02*
X13997444Y-13114769D01*
X13997444Y-13114769D02*
X13987920Y-13095722D01*
X13987920Y-13095722D02*
X13978396Y-13086198D01*
X13978396Y-13086198D02*
X13959348Y-13076674D01*
X13959348Y-13076674D02*
X13921253Y-13076674D01*
X13921253Y-13076674D02*
X13902206Y-13086198D01*
X13902206Y-13086198D02*
X13892682Y-13095722D01*
X13892682Y-13095722D02*
X13883158Y-13114769D01*
X14073634Y-13000484D02*
X14073634Y-13038579D01*
X14149825Y-13000484D02*
X14149825Y-13038579D01*
X14445063Y-13276674D02*
X14435539Y-13267150D01*
X14435539Y-13267150D02*
X14416491Y-13238579D01*
X14416491Y-13238579D02*
X14406968Y-13219531D01*
X14406968Y-13219531D02*
X14397444Y-13190960D01*
X14397444Y-13190960D02*
X14387920Y-13143341D01*
X14387920Y-13143341D02*
X14387920Y-13105246D01*
X14387920Y-13105246D02*
X14397444Y-13057627D01*
X14397444Y-13057627D02*
X14406968Y-13029055D01*
X14406968Y-13029055D02*
X14416491Y-13010008D01*
X14416491Y-13010008D02*
X14435539Y-12981436D01*
X14435539Y-12981436D02*
X14445063Y-12971912D01*
X14559348Y-13000484D02*
X14578396Y-13000484D01*
X14578396Y-13000484D02*
X14597444Y-13010008D01*
X14597444Y-13010008D02*
X14606968Y-13019531D01*
X14606968Y-13019531D02*
X14616491Y-13038579D01*
X14616491Y-13038579D02*
X14626015Y-13076674D01*
X14626015Y-13076674D02*
X14626015Y-13124293D01*
X14626015Y-13124293D02*
X14616491Y-13162388D01*
X14616491Y-13162388D02*
X14606968Y-13181436D01*
X14606968Y-13181436D02*
X14597444Y-13190960D01*
X14597444Y-13190960D02*
X14578396Y-13200484D01*
X14578396Y-13200484D02*
X14559348Y-13200484D01*
X14559348Y-13200484D02*
X14540301Y-13190960D01*
X14540301Y-13190960D02*
X14530777Y-13181436D01*
X14530777Y-13181436D02*
X14521253Y-13162388D01*
X14521253Y-13162388D02*
X14511729Y-13124293D01*
X14511729Y-13124293D02*
X14511729Y-13076674D01*
X14511729Y-13076674D02*
X14521253Y-13038579D01*
X14521253Y-13038579D02*
X14530777Y-13019531D01*
X14530777Y-13019531D02*
X14540301Y-13010008D01*
X14540301Y-13010008D02*
X14559348Y-13000484D01*
X14864110Y-13200484D02*
X14864110Y-13000484D01*
X14949825Y-13200484D02*
X14949825Y-13095722D01*
X14949825Y-13095722D02*
X14940301Y-13076674D01*
X14940301Y-13076674D02*
X14921253Y-13067150D01*
X14921253Y-13067150D02*
X14892682Y-13067150D01*
X14892682Y-13067150D02*
X14873634Y-13076674D01*
X14873634Y-13076674D02*
X14864110Y-13086198D01*
X15073634Y-13200484D02*
X15054587Y-13190960D01*
X15054587Y-13190960D02*
X15045063Y-13181436D01*
X15045063Y-13181436D02*
X15035539Y-13162388D01*
X15035539Y-13162388D02*
X15035539Y-13105246D01*
X15035539Y-13105246D02*
X15045063Y-13086198D01*
X15045063Y-13086198D02*
X15054587Y-13076674D01*
X15054587Y-13076674D02*
X15073634Y-13067150D01*
X15073634Y-13067150D02*
X15102206Y-13067150D01*
X15102206Y-13067150D02*
X15121253Y-13076674D01*
X15121253Y-13076674D02*
X15130777Y-13086198D01*
X15130777Y-13086198D02*
X15140301Y-13105246D01*
X15140301Y-13105246D02*
X15140301Y-13162388D01*
X15140301Y-13162388D02*
X15130777Y-13181436D01*
X15130777Y-13181436D02*
X15121253Y-13190960D01*
X15121253Y-13190960D02*
X15102206Y-13200484D01*
X15102206Y-13200484D02*
X15073634Y-13200484D01*
X15254587Y-13200484D02*
X15235539Y-13190960D01*
X15235539Y-13190960D02*
X15226015Y-13171912D01*
X15226015Y-13171912D02*
X15226015Y-13000484D01*
X15406968Y-13190960D02*
X15387920Y-13200484D01*
X15387920Y-13200484D02*
X15349825Y-13200484D01*
X15349825Y-13200484D02*
X15330777Y-13190960D01*
X15330777Y-13190960D02*
X15321253Y-13171912D01*
X15321253Y-13171912D02*
X15321253Y-13095722D01*
X15321253Y-13095722D02*
X15330777Y-13076674D01*
X15330777Y-13076674D02*
X15349825Y-13067150D01*
X15349825Y-13067150D02*
X15387920Y-13067150D01*
X15387920Y-13067150D02*
X15406968Y-13076674D01*
X15406968Y-13076674D02*
X15416491Y-13095722D01*
X15416491Y-13095722D02*
X15416491Y-13114769D01*
X15416491Y-13114769D02*
X15321253Y-13133817D01*
X15492682Y-13190960D02*
X15511730Y-13200484D01*
X15511730Y-13200484D02*
X15549825Y-13200484D01*
X15549825Y-13200484D02*
X15568872Y-13190960D01*
X15568872Y-13190960D02*
X15578396Y-13171912D01*
X15578396Y-13171912D02*
X15578396Y-13162388D01*
X15578396Y-13162388D02*
X15568872Y-13143341D01*
X15568872Y-13143341D02*
X15549825Y-13133817D01*
X15549825Y-13133817D02*
X15521253Y-13133817D01*
X15521253Y-13133817D02*
X15502206Y-13124293D01*
X15502206Y-13124293D02*
X15492682Y-13105246D01*
X15492682Y-13105246D02*
X15492682Y-13095722D01*
X15492682Y-13095722D02*
X15502206Y-13076674D01*
X15502206Y-13076674D02*
X15521253Y-13067150D01*
X15521253Y-13067150D02*
X15549825Y-13067150D01*
X15549825Y-13067150D02*
X15568872Y-13076674D01*
X15816492Y-13124293D02*
X15968873Y-13124293D01*
X15892682Y-13200484D02*
X15892682Y-13048103D01*
X16302206Y-13067150D02*
X16302206Y-13200484D01*
X16254587Y-12990960D02*
X16206968Y-13133817D01*
X16206968Y-13133817D02*
X16330777Y-13133817D01*
X16549825Y-13190960D02*
X16568873Y-13200484D01*
X16568873Y-13200484D02*
X16606968Y-13200484D01*
X16606968Y-13200484D02*
X16626015Y-13190960D01*
X16626015Y-13190960D02*
X16635539Y-13171912D01*
X16635539Y-13171912D02*
X16635539Y-13162388D01*
X16635539Y-13162388D02*
X16626015Y-13143341D01*
X16626015Y-13143341D02*
X16606968Y-13133817D01*
X16606968Y-13133817D02*
X16578396Y-13133817D01*
X16578396Y-13133817D02*
X16559349Y-13124293D01*
X16559349Y-13124293D02*
X16549825Y-13105246D01*
X16549825Y-13105246D02*
X16549825Y-13095722D01*
X16549825Y-13095722D02*
X16559349Y-13076674D01*
X16559349Y-13076674D02*
X16578396Y-13067150D01*
X16578396Y-13067150D02*
X16606968Y-13067150D01*
X16606968Y-13067150D02*
X16626015Y-13076674D01*
X16749825Y-13200484D02*
X16730777Y-13190960D01*
X16730777Y-13190960D02*
X16721254Y-13171912D01*
X16721254Y-13171912D02*
X16721254Y-13000484D01*
X16854587Y-13200484D02*
X16835539Y-13190960D01*
X16835539Y-13190960D02*
X16826016Y-13181436D01*
X16826016Y-13181436D02*
X16816492Y-13162388D01*
X16816492Y-13162388D02*
X16816492Y-13105246D01*
X16816492Y-13105246D02*
X16826016Y-13086198D01*
X16826016Y-13086198D02*
X16835539Y-13076674D01*
X16835539Y-13076674D02*
X16854587Y-13067150D01*
X16854587Y-13067150D02*
X16883158Y-13067150D01*
X16883158Y-13067150D02*
X16902206Y-13076674D01*
X16902206Y-13076674D02*
X16911730Y-13086198D01*
X16911730Y-13086198D02*
X16921254Y-13105246D01*
X16921254Y-13105246D02*
X16921254Y-13162388D01*
X16921254Y-13162388D02*
X16911730Y-13181436D01*
X16911730Y-13181436D02*
X16902206Y-13190960D01*
X16902206Y-13190960D02*
X16883158Y-13200484D01*
X16883158Y-13200484D02*
X16854587Y-13200484D01*
X16978397Y-13067150D02*
X17054587Y-13067150D01*
X17006968Y-13000484D02*
X17006968Y-13171912D01*
X17006968Y-13171912D02*
X17016492Y-13190960D01*
X17016492Y-13190960D02*
X17035539Y-13200484D01*
X17035539Y-13200484D02*
X17054587Y-13200484D01*
X17111730Y-13190960D02*
X17130777Y-13200484D01*
X17130777Y-13200484D02*
X17168873Y-13200484D01*
X17168873Y-13200484D02*
X17187920Y-13190960D01*
X17187920Y-13190960D02*
X17197444Y-13171912D01*
X17197444Y-13171912D02*
X17197444Y-13162388D01*
X17197444Y-13162388D02*
X17187920Y-13143341D01*
X17187920Y-13143341D02*
X17168873Y-13133817D01*
X17168873Y-13133817D02*
X17140301Y-13133817D01*
X17140301Y-13133817D02*
X17121254Y-13124293D01*
X17121254Y-13124293D02*
X17111730Y-13105246D01*
X17111730Y-13105246D02*
X17111730Y-13095722D01*
X17111730Y-13095722D02*
X17121254Y-13076674D01*
X17121254Y-13076674D02*
X17140301Y-13067150D01*
X17140301Y-13067150D02*
X17168873Y-13067150D01*
X17168873Y-13067150D02*
X17187920Y-13076674D01*
X17264111Y-13276674D02*
X17273635Y-13267150D01*
X17273635Y-13267150D02*
X17292682Y-13238579D01*
X17292682Y-13238579D02*
X17302206Y-13219531D01*
X17302206Y-13219531D02*
X17311730Y-13190960D01*
X17311730Y-13190960D02*
X17321254Y-13143341D01*
X17321254Y-13143341D02*
X17321254Y-13105246D01*
X17321254Y-13105246D02*
X17311730Y-13057627D01*
X17311730Y-13057627D02*
X17302206Y-13029055D01*
X17302206Y-13029055D02*
X17292682Y-13010008D01*
X17292682Y-13010008D02*
X17273635Y-12981436D01*
X17273635Y-12981436D02*
X17264111Y-12971912D01*
D14*
X10832500Y-13335500D02*
X10832500Y-13410500D01*
X10795000Y-13373000D02*
X10870000Y-13373000D01*
D11*
X11168872Y-13264484D02*
X11187920Y-13264484D01*
X11187920Y-13264484D02*
X11206967Y-13274008D01*
X11206967Y-13274008D02*
X11216491Y-13283531D01*
X11216491Y-13283531D02*
X11226015Y-13302579D01*
X11226015Y-13302579D02*
X11235539Y-13340674D01*
X11235539Y-13340674D02*
X11235539Y-13388293D01*
X11235539Y-13388293D02*
X11226015Y-13426388D01*
X11226015Y-13426388D02*
X11216491Y-13445436D01*
X11216491Y-13445436D02*
X11206967Y-13454960D01*
X11206967Y-13454960D02*
X11187920Y-13464484D01*
X11187920Y-13464484D02*
X11168872Y-13464484D01*
X11168872Y-13464484D02*
X11149824Y-13454960D01*
X11149824Y-13454960D02*
X11140301Y-13445436D01*
X11140301Y-13445436D02*
X11130777Y-13426388D01*
X11130777Y-13426388D02*
X11121253Y-13388293D01*
X11121253Y-13388293D02*
X11121253Y-13340674D01*
X11121253Y-13340674D02*
X11130777Y-13302579D01*
X11130777Y-13302579D02*
X11140301Y-13283531D01*
X11140301Y-13283531D02*
X11149824Y-13274008D01*
X11149824Y-13274008D02*
X11168872Y-13264484D01*
X11321253Y-13445436D02*
X11330777Y-13454960D01*
X11330777Y-13454960D02*
X11321253Y-13464484D01*
X11321253Y-13464484D02*
X11311729Y-13454960D01*
X11311729Y-13454960D02*
X11321253Y-13445436D01*
X11321253Y-13445436D02*
X11321253Y-13464484D01*
X11397443Y-13264484D02*
X11530777Y-13264484D01*
X11530777Y-13264484D02*
X11445062Y-13464484D01*
X11702205Y-13264484D02*
X11606967Y-13264484D01*
X11606967Y-13264484D02*
X11597443Y-13359722D01*
X11597443Y-13359722D02*
X11606967Y-13350198D01*
X11606967Y-13350198D02*
X11626015Y-13340674D01*
X11626015Y-13340674D02*
X11673634Y-13340674D01*
X11673634Y-13340674D02*
X11692682Y-13350198D01*
X11692682Y-13350198D02*
X11702205Y-13359722D01*
X11702205Y-13359722D02*
X11711729Y-13378769D01*
X11711729Y-13378769D02*
X11711729Y-13426388D01*
X11711729Y-13426388D02*
X11702205Y-13445436D01*
X11702205Y-13445436D02*
X11692682Y-13454960D01*
X11692682Y-13454960D02*
X11673634Y-13464484D01*
X11673634Y-13464484D02*
X11626015Y-13464484D01*
X11626015Y-13464484D02*
X11606967Y-13454960D01*
X11606967Y-13454960D02*
X11597443Y-13445436D01*
X11835539Y-13264484D02*
X11854586Y-13264484D01*
X11854586Y-13264484D02*
X11873634Y-13274008D01*
X11873634Y-13274008D02*
X11883158Y-13283531D01*
X11883158Y-13283531D02*
X11892682Y-13302579D01*
X11892682Y-13302579D02*
X11902205Y-13340674D01*
X11902205Y-13340674D02*
X11902205Y-13388293D01*
X11902205Y-13388293D02*
X11892682Y-13426388D01*
X11892682Y-13426388D02*
X11883158Y-13445436D01*
X11883158Y-13445436D02*
X11873634Y-13454960D01*
X11873634Y-13454960D02*
X11854586Y-13464484D01*
X11854586Y-13464484D02*
X11835539Y-13464484D01*
X11835539Y-13464484D02*
X11816491Y-13454960D01*
X11816491Y-13454960D02*
X11806967Y-13445436D01*
X11806967Y-13445436D02*
X11797443Y-13426388D01*
X11797443Y-13426388D02*
X11787920Y-13388293D01*
X11787920Y-13388293D02*
X11787920Y-13340674D01*
X11787920Y-13340674D02*
X11797443Y-13302579D01*
X11797443Y-13302579D02*
X11806967Y-13283531D01*
X11806967Y-13283531D02*
X11816491Y-13274008D01*
X11816491Y-13274008D02*
X11835539Y-13264484D01*
X11987920Y-13464484D02*
X11987920Y-13331150D01*
X11987920Y-13350198D02*
X11997443Y-13340674D01*
X11997443Y-13340674D02*
X12016491Y-13331150D01*
X12016491Y-13331150D02*
X12045063Y-13331150D01*
X12045063Y-13331150D02*
X12064110Y-13340674D01*
X12064110Y-13340674D02*
X12073634Y-13359722D01*
X12073634Y-13359722D02*
X12073634Y-13464484D01*
X12073634Y-13359722D02*
X12083158Y-13340674D01*
X12083158Y-13340674D02*
X12102205Y-13331150D01*
X12102205Y-13331150D02*
X12130777Y-13331150D01*
X12130777Y-13331150D02*
X12149824Y-13340674D01*
X12149824Y-13340674D02*
X12159348Y-13359722D01*
X12159348Y-13359722D02*
X12159348Y-13464484D01*
X12254586Y-13464484D02*
X12254586Y-13331150D01*
X12254586Y-13350198D02*
X12264110Y-13340674D01*
X12264110Y-13340674D02*
X12283158Y-13331150D01*
X12283158Y-13331150D02*
X12311729Y-13331150D01*
X12311729Y-13331150D02*
X12330777Y-13340674D01*
X12330777Y-13340674D02*
X12340301Y-13359722D01*
X12340301Y-13359722D02*
X12340301Y-13464484D01*
X12340301Y-13359722D02*
X12349824Y-13340674D01*
X12349824Y-13340674D02*
X12368872Y-13331150D01*
X12368872Y-13331150D02*
X12397443Y-13331150D01*
X12397443Y-13331150D02*
X12416491Y-13340674D01*
X12416491Y-13340674D02*
X12426015Y-13359722D01*
X12426015Y-13359722D02*
X12426015Y-13464484D01*
X12816491Y-13254960D02*
X12645063Y-13512103D01*
X13073634Y-13264484D02*
X13092682Y-13264484D01*
X13092682Y-13264484D02*
X13111729Y-13274008D01*
X13111729Y-13274008D02*
X13121253Y-13283531D01*
X13121253Y-13283531D02*
X13130777Y-13302579D01*
X13130777Y-13302579D02*
X13140301Y-13340674D01*
X13140301Y-13340674D02*
X13140301Y-13388293D01*
X13140301Y-13388293D02*
X13130777Y-13426388D01*
X13130777Y-13426388D02*
X13121253Y-13445436D01*
X13121253Y-13445436D02*
X13111729Y-13454960D01*
X13111729Y-13454960D02*
X13092682Y-13464484D01*
X13092682Y-13464484D02*
X13073634Y-13464484D01*
X13073634Y-13464484D02*
X13054586Y-13454960D01*
X13054586Y-13454960D02*
X13045063Y-13445436D01*
X13045063Y-13445436D02*
X13035539Y-13426388D01*
X13035539Y-13426388D02*
X13026015Y-13388293D01*
X13026015Y-13388293D02*
X13026015Y-13340674D01*
X13026015Y-13340674D02*
X13035539Y-13302579D01*
X13035539Y-13302579D02*
X13045063Y-13283531D01*
X13045063Y-13283531D02*
X13054586Y-13274008D01*
X13054586Y-13274008D02*
X13073634Y-13264484D01*
X13226015Y-13445436D02*
X13235539Y-13454960D01*
X13235539Y-13454960D02*
X13226015Y-13464484D01*
X13226015Y-13464484D02*
X13216491Y-13454960D01*
X13216491Y-13454960D02*
X13226015Y-13445436D01*
X13226015Y-13445436D02*
X13226015Y-13464484D01*
X13359348Y-13264484D02*
X13378396Y-13264484D01*
X13378396Y-13264484D02*
X13397444Y-13274008D01*
X13397444Y-13274008D02*
X13406967Y-13283531D01*
X13406967Y-13283531D02*
X13416491Y-13302579D01*
X13416491Y-13302579D02*
X13426015Y-13340674D01*
X13426015Y-13340674D02*
X13426015Y-13388293D01*
X13426015Y-13388293D02*
X13416491Y-13426388D01*
X13416491Y-13426388D02*
X13406967Y-13445436D01*
X13406967Y-13445436D02*
X13397444Y-13454960D01*
X13397444Y-13454960D02*
X13378396Y-13464484D01*
X13378396Y-13464484D02*
X13359348Y-13464484D01*
X13359348Y-13464484D02*
X13340301Y-13454960D01*
X13340301Y-13454960D02*
X13330777Y-13445436D01*
X13330777Y-13445436D02*
X13321253Y-13426388D01*
X13321253Y-13426388D02*
X13311729Y-13388293D01*
X13311729Y-13388293D02*
X13311729Y-13340674D01*
X13311729Y-13340674D02*
X13321253Y-13302579D01*
X13321253Y-13302579D02*
X13330777Y-13283531D01*
X13330777Y-13283531D02*
X13340301Y-13274008D01*
X13340301Y-13274008D02*
X13359348Y-13264484D01*
X13502206Y-13283531D02*
X13511729Y-13274008D01*
X13511729Y-13274008D02*
X13530777Y-13264484D01*
X13530777Y-13264484D02*
X13578396Y-13264484D01*
X13578396Y-13264484D02*
X13597444Y-13274008D01*
X13597444Y-13274008D02*
X13606967Y-13283531D01*
X13606967Y-13283531D02*
X13616491Y-13302579D01*
X13616491Y-13302579D02*
X13616491Y-13321627D01*
X13616491Y-13321627D02*
X13606967Y-13350198D01*
X13606967Y-13350198D02*
X13492682Y-13464484D01*
X13492682Y-13464484D02*
X13616491Y-13464484D01*
X13711729Y-13464484D02*
X13749825Y-13464484D01*
X13749825Y-13464484D02*
X13768872Y-13454960D01*
X13768872Y-13454960D02*
X13778396Y-13445436D01*
X13778396Y-13445436D02*
X13797444Y-13416865D01*
X13797444Y-13416865D02*
X13806967Y-13378769D01*
X13806967Y-13378769D02*
X13806967Y-13302579D01*
X13806967Y-13302579D02*
X13797444Y-13283531D01*
X13797444Y-13283531D02*
X13787920Y-13274008D01*
X13787920Y-13274008D02*
X13768872Y-13264484D01*
X13768872Y-13264484D02*
X13730777Y-13264484D01*
X13730777Y-13264484D02*
X13711729Y-13274008D01*
X13711729Y-13274008D02*
X13702206Y-13283531D01*
X13702206Y-13283531D02*
X13692682Y-13302579D01*
X13692682Y-13302579D02*
X13692682Y-13350198D01*
X13692682Y-13350198D02*
X13702206Y-13369246D01*
X13702206Y-13369246D02*
X13711729Y-13378769D01*
X13711729Y-13378769D02*
X13730777Y-13388293D01*
X13730777Y-13388293D02*
X13768872Y-13388293D01*
X13768872Y-13388293D02*
X13787920Y-13378769D01*
X13787920Y-13378769D02*
X13797444Y-13369246D01*
X13797444Y-13369246D02*
X13806967Y-13350198D01*
X13987920Y-13264484D02*
X13892682Y-13264484D01*
X13892682Y-13264484D02*
X13883158Y-13359722D01*
X13883158Y-13359722D02*
X13892682Y-13350198D01*
X13892682Y-13350198D02*
X13911729Y-13340674D01*
X13911729Y-13340674D02*
X13959348Y-13340674D01*
X13959348Y-13340674D02*
X13978396Y-13350198D01*
X13978396Y-13350198D02*
X13987920Y-13359722D01*
X13987920Y-13359722D02*
X13997444Y-13378769D01*
X13997444Y-13378769D02*
X13997444Y-13426388D01*
X13997444Y-13426388D02*
X13987920Y-13445436D01*
X13987920Y-13445436D02*
X13978396Y-13454960D01*
X13978396Y-13454960D02*
X13959348Y-13464484D01*
X13959348Y-13464484D02*
X13911729Y-13464484D01*
X13911729Y-13464484D02*
X13892682Y-13454960D01*
X13892682Y-13454960D02*
X13883158Y-13445436D01*
X14073634Y-13264484D02*
X14073634Y-13302579D01*
X14149825Y-13264484D02*
X14149825Y-13302579D01*
X14445063Y-13540674D02*
X14435539Y-13531150D01*
X14435539Y-13531150D02*
X14416491Y-13502579D01*
X14416491Y-13502579D02*
X14406968Y-13483531D01*
X14406968Y-13483531D02*
X14397444Y-13454960D01*
X14397444Y-13454960D02*
X14387920Y-13407341D01*
X14387920Y-13407341D02*
X14387920Y-13369246D01*
X14387920Y-13369246D02*
X14397444Y-13321627D01*
X14397444Y-13321627D02*
X14406968Y-13293055D01*
X14406968Y-13293055D02*
X14416491Y-13274008D01*
X14416491Y-13274008D02*
X14435539Y-13245436D01*
X14435539Y-13245436D02*
X14445063Y-13235912D01*
X14511729Y-13283531D02*
X14521253Y-13274008D01*
X14521253Y-13274008D02*
X14540301Y-13264484D01*
X14540301Y-13264484D02*
X14587920Y-13264484D01*
X14587920Y-13264484D02*
X14606968Y-13274008D01*
X14606968Y-13274008D02*
X14616491Y-13283531D01*
X14616491Y-13283531D02*
X14626015Y-13302579D01*
X14626015Y-13302579D02*
X14626015Y-13321627D01*
X14626015Y-13321627D02*
X14616491Y-13350198D01*
X14616491Y-13350198D02*
X14502206Y-13464484D01*
X14502206Y-13464484D02*
X14626015Y-13464484D01*
X14864110Y-13464484D02*
X14864110Y-13264484D01*
X14949825Y-13464484D02*
X14949825Y-13359722D01*
X14949825Y-13359722D02*
X14940301Y-13340674D01*
X14940301Y-13340674D02*
X14921253Y-13331150D01*
X14921253Y-13331150D02*
X14892682Y-13331150D01*
X14892682Y-13331150D02*
X14873634Y-13340674D01*
X14873634Y-13340674D02*
X14864110Y-13350198D01*
X15073634Y-13464484D02*
X15054587Y-13454960D01*
X15054587Y-13454960D02*
X15045063Y-13445436D01*
X15045063Y-13445436D02*
X15035539Y-13426388D01*
X15035539Y-13426388D02*
X15035539Y-13369246D01*
X15035539Y-13369246D02*
X15045063Y-13350198D01*
X15045063Y-13350198D02*
X15054587Y-13340674D01*
X15054587Y-13340674D02*
X15073634Y-13331150D01*
X15073634Y-13331150D02*
X15102206Y-13331150D01*
X15102206Y-13331150D02*
X15121253Y-13340674D01*
X15121253Y-13340674D02*
X15130777Y-13350198D01*
X15130777Y-13350198D02*
X15140301Y-13369246D01*
X15140301Y-13369246D02*
X15140301Y-13426388D01*
X15140301Y-13426388D02*
X15130777Y-13445436D01*
X15130777Y-13445436D02*
X15121253Y-13454960D01*
X15121253Y-13454960D02*
X15102206Y-13464484D01*
X15102206Y-13464484D02*
X15073634Y-13464484D01*
X15254587Y-13464484D02*
X15235539Y-13454960D01*
X15235539Y-13454960D02*
X15226015Y-13435912D01*
X15226015Y-13435912D02*
X15226015Y-13264484D01*
X15406968Y-13454960D02*
X15387920Y-13464484D01*
X15387920Y-13464484D02*
X15349825Y-13464484D01*
X15349825Y-13464484D02*
X15330777Y-13454960D01*
X15330777Y-13454960D02*
X15321253Y-13435912D01*
X15321253Y-13435912D02*
X15321253Y-13359722D01*
X15321253Y-13359722D02*
X15330777Y-13340674D01*
X15330777Y-13340674D02*
X15349825Y-13331150D01*
X15349825Y-13331150D02*
X15387920Y-13331150D01*
X15387920Y-13331150D02*
X15406968Y-13340674D01*
X15406968Y-13340674D02*
X15416491Y-13359722D01*
X15416491Y-13359722D02*
X15416491Y-13378769D01*
X15416491Y-13378769D02*
X15321253Y-13397817D01*
X15492682Y-13454960D02*
X15511730Y-13464484D01*
X15511730Y-13464484D02*
X15549825Y-13464484D01*
X15549825Y-13464484D02*
X15568872Y-13454960D01*
X15568872Y-13454960D02*
X15578396Y-13435912D01*
X15578396Y-13435912D02*
X15578396Y-13426388D01*
X15578396Y-13426388D02*
X15568872Y-13407341D01*
X15568872Y-13407341D02*
X15549825Y-13397817D01*
X15549825Y-13397817D02*
X15521253Y-13397817D01*
X15521253Y-13397817D02*
X15502206Y-13388293D01*
X15502206Y-13388293D02*
X15492682Y-13369246D01*
X15492682Y-13369246D02*
X15492682Y-13359722D01*
X15492682Y-13359722D02*
X15502206Y-13340674D01*
X15502206Y-13340674D02*
X15521253Y-13331150D01*
X15521253Y-13331150D02*
X15549825Y-13331150D01*
X15549825Y-13331150D02*
X15568872Y-13340674D01*
X15645063Y-13540674D02*
X15654587Y-13531150D01*
X15654587Y-13531150D02*
X15673634Y-13502579D01*
X15673634Y-13502579D02*
X15683158Y-13483531D01*
X15683158Y-13483531D02*
X15692682Y-13454960D01*
X15692682Y-13454960D02*
X15702206Y-13407341D01*
X15702206Y-13407341D02*
X15702206Y-13369246D01*
X15702206Y-13369246D02*
X15692682Y-13321627D01*
X15692682Y-13321627D02*
X15683158Y-13293055D01*
X15683158Y-13293055D02*
X15673634Y-13274008D01*
X15673634Y-13274008D02*
X15654587Y-13245436D01*
X15654587Y-13245436D02*
X15645063Y-13235912D01*
D15*
X10858841Y-13663941D02*
X10858841Y-13610059D01*
X10804959Y-13610059D01*
X10804959Y-13663941D01*
X10858841Y-13663941D01*
D11*
X11168872Y-13528484D02*
X11187920Y-13528484D01*
X11187920Y-13528484D02*
X11206967Y-13538008D01*
X11206967Y-13538008D02*
X11216491Y-13547531D01*
X11216491Y-13547531D02*
X11226015Y-13566579D01*
X11226015Y-13566579D02*
X11235539Y-13604674D01*
X11235539Y-13604674D02*
X11235539Y-13652293D01*
X11235539Y-13652293D02*
X11226015Y-13690388D01*
X11226015Y-13690388D02*
X11216491Y-13709436D01*
X11216491Y-13709436D02*
X11206967Y-13718960D01*
X11206967Y-13718960D02*
X11187920Y-13728484D01*
X11187920Y-13728484D02*
X11168872Y-13728484D01*
X11168872Y-13728484D02*
X11149824Y-13718960D01*
X11149824Y-13718960D02*
X11140301Y-13709436D01*
X11140301Y-13709436D02*
X11130777Y-13690388D01*
X11130777Y-13690388D02*
X11121253Y-13652293D01*
X11121253Y-13652293D02*
X11121253Y-13604674D01*
X11121253Y-13604674D02*
X11130777Y-13566579D01*
X11130777Y-13566579D02*
X11140301Y-13547531D01*
X11140301Y-13547531D02*
X11149824Y-13538008D01*
X11149824Y-13538008D02*
X11168872Y-13528484D01*
X11321253Y-13709436D02*
X11330777Y-13718960D01*
X11330777Y-13718960D02*
X11321253Y-13728484D01*
X11321253Y-13728484D02*
X11311729Y-13718960D01*
X11311729Y-13718960D02*
X11321253Y-13709436D01*
X11321253Y-13709436D02*
X11321253Y-13728484D01*
X11397443Y-13528484D02*
X11530777Y-13528484D01*
X11530777Y-13528484D02*
X11445062Y-13728484D01*
X11692682Y-13528484D02*
X11654586Y-13528484D01*
X11654586Y-13528484D02*
X11635539Y-13538008D01*
X11635539Y-13538008D02*
X11626015Y-13547531D01*
X11626015Y-13547531D02*
X11606967Y-13576103D01*
X11606967Y-13576103D02*
X11597443Y-13614198D01*
X11597443Y-13614198D02*
X11597443Y-13690388D01*
X11597443Y-13690388D02*
X11606967Y-13709436D01*
X11606967Y-13709436D02*
X11616491Y-13718960D01*
X11616491Y-13718960D02*
X11635539Y-13728484D01*
X11635539Y-13728484D02*
X11673634Y-13728484D01*
X11673634Y-13728484D02*
X11692682Y-13718960D01*
X11692682Y-13718960D02*
X11702205Y-13709436D01*
X11702205Y-13709436D02*
X11711729Y-13690388D01*
X11711729Y-13690388D02*
X11711729Y-13642769D01*
X11711729Y-13642769D02*
X11702205Y-13623722D01*
X11702205Y-13623722D02*
X11692682Y-13614198D01*
X11692682Y-13614198D02*
X11673634Y-13604674D01*
X11673634Y-13604674D02*
X11635539Y-13604674D01*
X11635539Y-13604674D02*
X11616491Y-13614198D01*
X11616491Y-13614198D02*
X11606967Y-13623722D01*
X11606967Y-13623722D02*
X11597443Y-13642769D01*
X11787920Y-13547531D02*
X11797443Y-13538008D01*
X11797443Y-13538008D02*
X11816491Y-13528484D01*
X11816491Y-13528484D02*
X11864110Y-13528484D01*
X11864110Y-13528484D02*
X11883158Y-13538008D01*
X11883158Y-13538008D02*
X11892682Y-13547531D01*
X11892682Y-13547531D02*
X11902205Y-13566579D01*
X11902205Y-13566579D02*
X11902205Y-13585627D01*
X11902205Y-13585627D02*
X11892682Y-13614198D01*
X11892682Y-13614198D02*
X11778396Y-13728484D01*
X11778396Y-13728484D02*
X11902205Y-13728484D01*
X11987920Y-13728484D02*
X11987920Y-13595150D01*
X11987920Y-13614198D02*
X11997443Y-13604674D01*
X11997443Y-13604674D02*
X12016491Y-13595150D01*
X12016491Y-13595150D02*
X12045063Y-13595150D01*
X12045063Y-13595150D02*
X12064110Y-13604674D01*
X12064110Y-13604674D02*
X12073634Y-13623722D01*
X12073634Y-13623722D02*
X12073634Y-13728484D01*
X12073634Y-13623722D02*
X12083158Y-13604674D01*
X12083158Y-13604674D02*
X12102205Y-13595150D01*
X12102205Y-13595150D02*
X12130777Y-13595150D01*
X12130777Y-13595150D02*
X12149824Y-13604674D01*
X12149824Y-13604674D02*
X12159348Y-13623722D01*
X12159348Y-13623722D02*
X12159348Y-13728484D01*
X12254586Y-13728484D02*
X12254586Y-13595150D01*
X12254586Y-13614198D02*
X12264110Y-13604674D01*
X12264110Y-13604674D02*
X12283158Y-13595150D01*
X12283158Y-13595150D02*
X12311729Y-13595150D01*
X12311729Y-13595150D02*
X12330777Y-13604674D01*
X12330777Y-13604674D02*
X12340301Y-13623722D01*
X12340301Y-13623722D02*
X12340301Y-13728484D01*
X12340301Y-13623722D02*
X12349824Y-13604674D01*
X12349824Y-13604674D02*
X12368872Y-13595150D01*
X12368872Y-13595150D02*
X12397443Y-13595150D01*
X12397443Y-13595150D02*
X12416491Y-13604674D01*
X12416491Y-13604674D02*
X12426015Y-13623722D01*
X12426015Y-13623722D02*
X12426015Y-13728484D01*
X12816491Y-13518960D02*
X12645063Y-13776103D01*
X13073634Y-13528484D02*
X13092682Y-13528484D01*
X13092682Y-13528484D02*
X13111729Y-13538008D01*
X13111729Y-13538008D02*
X13121253Y-13547531D01*
X13121253Y-13547531D02*
X13130777Y-13566579D01*
X13130777Y-13566579D02*
X13140301Y-13604674D01*
X13140301Y-13604674D02*
X13140301Y-13652293D01*
X13140301Y-13652293D02*
X13130777Y-13690388D01*
X13130777Y-13690388D02*
X13121253Y-13709436D01*
X13121253Y-13709436D02*
X13111729Y-13718960D01*
X13111729Y-13718960D02*
X13092682Y-13728484D01*
X13092682Y-13728484D02*
X13073634Y-13728484D01*
X13073634Y-13728484D02*
X13054586Y-13718960D01*
X13054586Y-13718960D02*
X13045063Y-13709436D01*
X13045063Y-13709436D02*
X13035539Y-13690388D01*
X13035539Y-13690388D02*
X13026015Y-13652293D01*
X13026015Y-13652293D02*
X13026015Y-13604674D01*
X13026015Y-13604674D02*
X13035539Y-13566579D01*
X13035539Y-13566579D02*
X13045063Y-13547531D01*
X13045063Y-13547531D02*
X13054586Y-13538008D01*
X13054586Y-13538008D02*
X13073634Y-13528484D01*
X13226015Y-13709436D02*
X13235539Y-13718960D01*
X13235539Y-13718960D02*
X13226015Y-13728484D01*
X13226015Y-13728484D02*
X13216491Y-13718960D01*
X13216491Y-13718960D02*
X13226015Y-13709436D01*
X13226015Y-13709436D02*
X13226015Y-13728484D01*
X13359348Y-13528484D02*
X13378396Y-13528484D01*
X13378396Y-13528484D02*
X13397444Y-13538008D01*
X13397444Y-13538008D02*
X13406967Y-13547531D01*
X13406967Y-13547531D02*
X13416491Y-13566579D01*
X13416491Y-13566579D02*
X13426015Y-13604674D01*
X13426015Y-13604674D02*
X13426015Y-13652293D01*
X13426015Y-13652293D02*
X13416491Y-13690388D01*
X13416491Y-13690388D02*
X13406967Y-13709436D01*
X13406967Y-13709436D02*
X13397444Y-13718960D01*
X13397444Y-13718960D02*
X13378396Y-13728484D01*
X13378396Y-13728484D02*
X13359348Y-13728484D01*
X13359348Y-13728484D02*
X13340301Y-13718960D01*
X13340301Y-13718960D02*
X13330777Y-13709436D01*
X13330777Y-13709436D02*
X13321253Y-13690388D01*
X13321253Y-13690388D02*
X13311729Y-13652293D01*
X13311729Y-13652293D02*
X13311729Y-13604674D01*
X13311729Y-13604674D02*
X13321253Y-13566579D01*
X13321253Y-13566579D02*
X13330777Y-13547531D01*
X13330777Y-13547531D02*
X13340301Y-13538008D01*
X13340301Y-13538008D02*
X13359348Y-13528484D01*
X13492682Y-13528484D02*
X13616491Y-13528484D01*
X13616491Y-13528484D02*
X13549825Y-13604674D01*
X13549825Y-13604674D02*
X13578396Y-13604674D01*
X13578396Y-13604674D02*
X13597444Y-13614198D01*
X13597444Y-13614198D02*
X13606967Y-13623722D01*
X13606967Y-13623722D02*
X13616491Y-13642769D01*
X13616491Y-13642769D02*
X13616491Y-13690388D01*
X13616491Y-13690388D02*
X13606967Y-13709436D01*
X13606967Y-13709436D02*
X13597444Y-13718960D01*
X13597444Y-13718960D02*
X13578396Y-13728484D01*
X13578396Y-13728484D02*
X13521253Y-13728484D01*
X13521253Y-13728484D02*
X13502206Y-13718960D01*
X13502206Y-13718960D02*
X13492682Y-13709436D01*
X13740301Y-13528484D02*
X13759348Y-13528484D01*
X13759348Y-13528484D02*
X13778396Y-13538008D01*
X13778396Y-13538008D02*
X13787920Y-13547531D01*
X13787920Y-13547531D02*
X13797444Y-13566579D01*
X13797444Y-13566579D02*
X13806967Y-13604674D01*
X13806967Y-13604674D02*
X13806967Y-13652293D01*
X13806967Y-13652293D02*
X13797444Y-13690388D01*
X13797444Y-13690388D02*
X13787920Y-13709436D01*
X13787920Y-13709436D02*
X13778396Y-13718960D01*
X13778396Y-13718960D02*
X13759348Y-13728484D01*
X13759348Y-13728484D02*
X13740301Y-13728484D01*
X13740301Y-13728484D02*
X13721253Y-13718960D01*
X13721253Y-13718960D02*
X13711729Y-13709436D01*
X13711729Y-13709436D02*
X13702206Y-13690388D01*
X13702206Y-13690388D02*
X13692682Y-13652293D01*
X13692682Y-13652293D02*
X13692682Y-13604674D01*
X13692682Y-13604674D02*
X13702206Y-13566579D01*
X13702206Y-13566579D02*
X13711729Y-13547531D01*
X13711729Y-13547531D02*
X13721253Y-13538008D01*
X13721253Y-13538008D02*
X13740301Y-13528484D01*
X13930777Y-13528484D02*
X13949825Y-13528484D01*
X13949825Y-13528484D02*
X13968872Y-13538008D01*
X13968872Y-13538008D02*
X13978396Y-13547531D01*
X13978396Y-13547531D02*
X13987920Y-13566579D01*
X13987920Y-13566579D02*
X13997444Y-13604674D01*
X13997444Y-13604674D02*
X13997444Y-13652293D01*
X13997444Y-13652293D02*
X13987920Y-13690388D01*
X13987920Y-13690388D02*
X13978396Y-13709436D01*
X13978396Y-13709436D02*
X13968872Y-13718960D01*
X13968872Y-13718960D02*
X13949825Y-13728484D01*
X13949825Y-13728484D02*
X13930777Y-13728484D01*
X13930777Y-13728484D02*
X13911729Y-13718960D01*
X13911729Y-13718960D02*
X13902206Y-13709436D01*
X13902206Y-13709436D02*
X13892682Y-13690388D01*
X13892682Y-13690388D02*
X13883158Y-13652293D01*
X13883158Y-13652293D02*
X13883158Y-13604674D01*
X13883158Y-13604674D02*
X13892682Y-13566579D01*
X13892682Y-13566579D02*
X13902206Y-13547531D01*
X13902206Y-13547531D02*
X13911729Y-13538008D01*
X13911729Y-13538008D02*
X13930777Y-13528484D01*
X14073634Y-13528484D02*
X14073634Y-13566579D01*
X14149825Y-13528484D02*
X14149825Y-13566579D01*
X14445063Y-13804674D02*
X14435539Y-13795150D01*
X14435539Y-13795150D02*
X14416491Y-13766579D01*
X14416491Y-13766579D02*
X14406968Y-13747531D01*
X14406968Y-13747531D02*
X14397444Y-13718960D01*
X14397444Y-13718960D02*
X14387920Y-13671341D01*
X14387920Y-13671341D02*
X14387920Y-13633246D01*
X14387920Y-13633246D02*
X14397444Y-13585627D01*
X14397444Y-13585627D02*
X14406968Y-13557055D01*
X14406968Y-13557055D02*
X14416491Y-13538008D01*
X14416491Y-13538008D02*
X14435539Y-13509436D01*
X14435539Y-13509436D02*
X14445063Y-13499912D01*
X14549825Y-13614198D02*
X14530777Y-13604674D01*
X14530777Y-13604674D02*
X14521253Y-13595150D01*
X14521253Y-13595150D02*
X14511729Y-13576103D01*
X14511729Y-13576103D02*
X14511729Y-13566579D01*
X14511729Y-13566579D02*
X14521253Y-13547531D01*
X14521253Y-13547531D02*
X14530777Y-13538008D01*
X14530777Y-13538008D02*
X14549825Y-13528484D01*
X14549825Y-13528484D02*
X14587920Y-13528484D01*
X14587920Y-13528484D02*
X14606968Y-13538008D01*
X14606968Y-13538008D02*
X14616491Y-13547531D01*
X14616491Y-13547531D02*
X14626015Y-13566579D01*
X14626015Y-13566579D02*
X14626015Y-13576103D01*
X14626015Y-13576103D02*
X14616491Y-13595150D01*
X14616491Y-13595150D02*
X14606968Y-13604674D01*
X14606968Y-13604674D02*
X14587920Y-13614198D01*
X14587920Y-13614198D02*
X14549825Y-13614198D01*
X14549825Y-13614198D02*
X14530777Y-13623722D01*
X14530777Y-13623722D02*
X14521253Y-13633246D01*
X14521253Y-13633246D02*
X14511729Y-13652293D01*
X14511729Y-13652293D02*
X14511729Y-13690388D01*
X14511729Y-13690388D02*
X14521253Y-13709436D01*
X14521253Y-13709436D02*
X14530777Y-13718960D01*
X14530777Y-13718960D02*
X14549825Y-13728484D01*
X14549825Y-13728484D02*
X14587920Y-13728484D01*
X14587920Y-13728484D02*
X14606968Y-13718960D01*
X14606968Y-13718960D02*
X14616491Y-13709436D01*
X14616491Y-13709436D02*
X14626015Y-13690388D01*
X14626015Y-13690388D02*
X14626015Y-13652293D01*
X14626015Y-13652293D02*
X14616491Y-13633246D01*
X14616491Y-13633246D02*
X14606968Y-13623722D01*
X14606968Y-13623722D02*
X14587920Y-13614198D01*
X14864110Y-13728484D02*
X14864110Y-13528484D01*
X14949825Y-13728484D02*
X14949825Y-13623722D01*
X14949825Y-13623722D02*
X14940301Y-13604674D01*
X14940301Y-13604674D02*
X14921253Y-13595150D01*
X14921253Y-13595150D02*
X14892682Y-13595150D01*
X14892682Y-13595150D02*
X14873634Y-13604674D01*
X14873634Y-13604674D02*
X14864110Y-13614198D01*
X15073634Y-13728484D02*
X15054587Y-13718960D01*
X15054587Y-13718960D02*
X15045063Y-13709436D01*
X15045063Y-13709436D02*
X15035539Y-13690388D01*
X15035539Y-13690388D02*
X15035539Y-13633246D01*
X15035539Y-13633246D02*
X15045063Y-13614198D01*
X15045063Y-13614198D02*
X15054587Y-13604674D01*
X15054587Y-13604674D02*
X15073634Y-13595150D01*
X15073634Y-13595150D02*
X15102206Y-13595150D01*
X15102206Y-13595150D02*
X15121253Y-13604674D01*
X15121253Y-13604674D02*
X15130777Y-13614198D01*
X15130777Y-13614198D02*
X15140301Y-13633246D01*
X15140301Y-13633246D02*
X15140301Y-13690388D01*
X15140301Y-13690388D02*
X15130777Y-13709436D01*
X15130777Y-13709436D02*
X15121253Y-13718960D01*
X15121253Y-13718960D02*
X15102206Y-13728484D01*
X15102206Y-13728484D02*
X15073634Y-13728484D01*
X15254587Y-13728484D02*
X15235539Y-13718960D01*
X15235539Y-13718960D02*
X15226015Y-13699912D01*
X15226015Y-13699912D02*
X15226015Y-13528484D01*
X15406968Y-13718960D02*
X15387920Y-13728484D01*
X15387920Y-13728484D02*
X15349825Y-13728484D01*
X15349825Y-13728484D02*
X15330777Y-13718960D01*
X15330777Y-13718960D02*
X15321253Y-13699912D01*
X15321253Y-13699912D02*
X15321253Y-13623722D01*
X15321253Y-13623722D02*
X15330777Y-13604674D01*
X15330777Y-13604674D02*
X15349825Y-13595150D01*
X15349825Y-13595150D02*
X15387920Y-13595150D01*
X15387920Y-13595150D02*
X15406968Y-13604674D01*
X15406968Y-13604674D02*
X15416491Y-13623722D01*
X15416491Y-13623722D02*
X15416491Y-13642769D01*
X15416491Y-13642769D02*
X15321253Y-13661817D01*
X15492682Y-13718960D02*
X15511730Y-13728484D01*
X15511730Y-13728484D02*
X15549825Y-13728484D01*
X15549825Y-13728484D02*
X15568872Y-13718960D01*
X15568872Y-13718960D02*
X15578396Y-13699912D01*
X15578396Y-13699912D02*
X15578396Y-13690388D01*
X15578396Y-13690388D02*
X15568872Y-13671341D01*
X15568872Y-13671341D02*
X15549825Y-13661817D01*
X15549825Y-13661817D02*
X15521253Y-13661817D01*
X15521253Y-13661817D02*
X15502206Y-13652293D01*
X15502206Y-13652293D02*
X15492682Y-13633246D01*
X15492682Y-13633246D02*
X15492682Y-13623722D01*
X15492682Y-13623722D02*
X15502206Y-13604674D01*
X15502206Y-13604674D02*
X15521253Y-13595150D01*
X15521253Y-13595150D02*
X15549825Y-13595150D01*
X15549825Y-13595150D02*
X15568872Y-13604674D01*
X15645063Y-13804674D02*
X15654587Y-13795150D01*
X15654587Y-13795150D02*
X15673634Y-13766579D01*
X15673634Y-13766579D02*
X15683158Y-13747531D01*
X15683158Y-13747531D02*
X15692682Y-13718960D01*
X15692682Y-13718960D02*
X15702206Y-13671341D01*
X15702206Y-13671341D02*
X15702206Y-13633246D01*
X15702206Y-13633246D02*
X15692682Y-13585627D01*
X15692682Y-13585627D02*
X15683158Y-13557055D01*
X15683158Y-13557055D02*
X15673634Y-13538008D01*
X15673634Y-13538008D02*
X15654587Y-13509436D01*
X15654587Y-13509436D02*
X15645063Y-13499912D01*
D16*
X10830000Y-13941000D02*
X10870000Y-13901000D01*
X10830000Y-13861000D01*
X10790000Y-13901000D01*
X10830000Y-13941000D01*
D11*
X11168872Y-13792484D02*
X11187920Y-13792484D01*
X11187920Y-13792484D02*
X11206967Y-13802008D01*
X11206967Y-13802008D02*
X11216491Y-13811531D01*
X11216491Y-13811531D02*
X11226015Y-13830579D01*
X11226015Y-13830579D02*
X11235539Y-13868674D01*
X11235539Y-13868674D02*
X11235539Y-13916293D01*
X11235539Y-13916293D02*
X11226015Y-13954388D01*
X11226015Y-13954388D02*
X11216491Y-13973436D01*
X11216491Y-13973436D02*
X11206967Y-13982960D01*
X11206967Y-13982960D02*
X11187920Y-13992484D01*
X11187920Y-13992484D02*
X11168872Y-13992484D01*
X11168872Y-13992484D02*
X11149824Y-13982960D01*
X11149824Y-13982960D02*
X11140301Y-13973436D01*
X11140301Y-13973436D02*
X11130777Y-13954388D01*
X11130777Y-13954388D02*
X11121253Y-13916293D01*
X11121253Y-13916293D02*
X11121253Y-13868674D01*
X11121253Y-13868674D02*
X11130777Y-13830579D01*
X11130777Y-13830579D02*
X11140301Y-13811531D01*
X11140301Y-13811531D02*
X11149824Y-13802008D01*
X11149824Y-13802008D02*
X11168872Y-13792484D01*
X11321253Y-13973436D02*
X11330777Y-13982960D01*
X11330777Y-13982960D02*
X11321253Y-13992484D01*
X11321253Y-13992484D02*
X11311729Y-13982960D01*
X11311729Y-13982960D02*
X11321253Y-13973436D01*
X11321253Y-13973436D02*
X11321253Y-13992484D01*
X11445062Y-13878198D02*
X11426015Y-13868674D01*
X11426015Y-13868674D02*
X11416491Y-13859150D01*
X11416491Y-13859150D02*
X11406967Y-13840103D01*
X11406967Y-13840103D02*
X11406967Y-13830579D01*
X11406967Y-13830579D02*
X11416491Y-13811531D01*
X11416491Y-13811531D02*
X11426015Y-13802008D01*
X11426015Y-13802008D02*
X11445062Y-13792484D01*
X11445062Y-13792484D02*
X11483158Y-13792484D01*
X11483158Y-13792484D02*
X11502205Y-13802008D01*
X11502205Y-13802008D02*
X11511729Y-13811531D01*
X11511729Y-13811531D02*
X11521253Y-13830579D01*
X11521253Y-13830579D02*
X11521253Y-13840103D01*
X11521253Y-13840103D02*
X11511729Y-13859150D01*
X11511729Y-13859150D02*
X11502205Y-13868674D01*
X11502205Y-13868674D02*
X11483158Y-13878198D01*
X11483158Y-13878198D02*
X11445062Y-13878198D01*
X11445062Y-13878198D02*
X11426015Y-13887722D01*
X11426015Y-13887722D02*
X11416491Y-13897246D01*
X11416491Y-13897246D02*
X11406967Y-13916293D01*
X11406967Y-13916293D02*
X11406967Y-13954388D01*
X11406967Y-13954388D02*
X11416491Y-13973436D01*
X11416491Y-13973436D02*
X11426015Y-13982960D01*
X11426015Y-13982960D02*
X11445062Y-13992484D01*
X11445062Y-13992484D02*
X11483158Y-13992484D01*
X11483158Y-13992484D02*
X11502205Y-13982960D01*
X11502205Y-13982960D02*
X11511729Y-13973436D01*
X11511729Y-13973436D02*
X11521253Y-13954388D01*
X11521253Y-13954388D02*
X11521253Y-13916293D01*
X11521253Y-13916293D02*
X11511729Y-13897246D01*
X11511729Y-13897246D02*
X11502205Y-13887722D01*
X11502205Y-13887722D02*
X11483158Y-13878198D01*
X11645062Y-13792484D02*
X11664110Y-13792484D01*
X11664110Y-13792484D02*
X11683158Y-13802008D01*
X11683158Y-13802008D02*
X11692682Y-13811531D01*
X11692682Y-13811531D02*
X11702205Y-13830579D01*
X11702205Y-13830579D02*
X11711729Y-13868674D01*
X11711729Y-13868674D02*
X11711729Y-13916293D01*
X11711729Y-13916293D02*
X11702205Y-13954388D01*
X11702205Y-13954388D02*
X11692682Y-13973436D01*
X11692682Y-13973436D02*
X11683158Y-13982960D01*
X11683158Y-13982960D02*
X11664110Y-13992484D01*
X11664110Y-13992484D02*
X11645062Y-13992484D01*
X11645062Y-13992484D02*
X11626015Y-13982960D01*
X11626015Y-13982960D02*
X11616491Y-13973436D01*
X11616491Y-13973436D02*
X11606967Y-13954388D01*
X11606967Y-13954388D02*
X11597443Y-13916293D01*
X11597443Y-13916293D02*
X11597443Y-13868674D01*
X11597443Y-13868674D02*
X11606967Y-13830579D01*
X11606967Y-13830579D02*
X11616491Y-13811531D01*
X11616491Y-13811531D02*
X11626015Y-13802008D01*
X11626015Y-13802008D02*
X11645062Y-13792484D01*
X11835539Y-13792484D02*
X11854586Y-13792484D01*
X11854586Y-13792484D02*
X11873634Y-13802008D01*
X11873634Y-13802008D02*
X11883158Y-13811531D01*
X11883158Y-13811531D02*
X11892682Y-13830579D01*
X11892682Y-13830579D02*
X11902205Y-13868674D01*
X11902205Y-13868674D02*
X11902205Y-13916293D01*
X11902205Y-13916293D02*
X11892682Y-13954388D01*
X11892682Y-13954388D02*
X11883158Y-13973436D01*
X11883158Y-13973436D02*
X11873634Y-13982960D01*
X11873634Y-13982960D02*
X11854586Y-13992484D01*
X11854586Y-13992484D02*
X11835539Y-13992484D01*
X11835539Y-13992484D02*
X11816491Y-13982960D01*
X11816491Y-13982960D02*
X11806967Y-13973436D01*
X11806967Y-13973436D02*
X11797443Y-13954388D01*
X11797443Y-13954388D02*
X11787920Y-13916293D01*
X11787920Y-13916293D02*
X11787920Y-13868674D01*
X11787920Y-13868674D02*
X11797443Y-13830579D01*
X11797443Y-13830579D02*
X11806967Y-13811531D01*
X11806967Y-13811531D02*
X11816491Y-13802008D01*
X11816491Y-13802008D02*
X11835539Y-13792484D01*
X11987920Y-13992484D02*
X11987920Y-13859150D01*
X11987920Y-13878198D02*
X11997443Y-13868674D01*
X11997443Y-13868674D02*
X12016491Y-13859150D01*
X12016491Y-13859150D02*
X12045063Y-13859150D01*
X12045063Y-13859150D02*
X12064110Y-13868674D01*
X12064110Y-13868674D02*
X12073634Y-13887722D01*
X12073634Y-13887722D02*
X12073634Y-13992484D01*
X12073634Y-13887722D02*
X12083158Y-13868674D01*
X12083158Y-13868674D02*
X12102205Y-13859150D01*
X12102205Y-13859150D02*
X12130777Y-13859150D01*
X12130777Y-13859150D02*
X12149824Y-13868674D01*
X12149824Y-13868674D02*
X12159348Y-13887722D01*
X12159348Y-13887722D02*
X12159348Y-13992484D01*
X12254586Y-13992484D02*
X12254586Y-13859150D01*
X12254586Y-13878198D02*
X12264110Y-13868674D01*
X12264110Y-13868674D02*
X12283158Y-13859150D01*
X12283158Y-13859150D02*
X12311729Y-13859150D01*
X12311729Y-13859150D02*
X12330777Y-13868674D01*
X12330777Y-13868674D02*
X12340301Y-13887722D01*
X12340301Y-13887722D02*
X12340301Y-13992484D01*
X12340301Y-13887722D02*
X12349824Y-13868674D01*
X12349824Y-13868674D02*
X12368872Y-13859150D01*
X12368872Y-13859150D02*
X12397443Y-13859150D01*
X12397443Y-13859150D02*
X12416491Y-13868674D01*
X12416491Y-13868674D02*
X12426015Y-13887722D01*
X12426015Y-13887722D02*
X12426015Y-13992484D01*
X12816491Y-13782960D02*
X12645063Y-14040103D01*
X13073634Y-13792484D02*
X13092682Y-13792484D01*
X13092682Y-13792484D02*
X13111729Y-13802008D01*
X13111729Y-13802008D02*
X13121253Y-13811531D01*
X13121253Y-13811531D02*
X13130777Y-13830579D01*
X13130777Y-13830579D02*
X13140301Y-13868674D01*
X13140301Y-13868674D02*
X13140301Y-13916293D01*
X13140301Y-13916293D02*
X13130777Y-13954388D01*
X13130777Y-13954388D02*
X13121253Y-13973436D01*
X13121253Y-13973436D02*
X13111729Y-13982960D01*
X13111729Y-13982960D02*
X13092682Y-13992484D01*
X13092682Y-13992484D02*
X13073634Y-13992484D01*
X13073634Y-13992484D02*
X13054586Y-13982960D01*
X13054586Y-13982960D02*
X13045063Y-13973436D01*
X13045063Y-13973436D02*
X13035539Y-13954388D01*
X13035539Y-13954388D02*
X13026015Y-13916293D01*
X13026015Y-13916293D02*
X13026015Y-13868674D01*
X13026015Y-13868674D02*
X13035539Y-13830579D01*
X13035539Y-13830579D02*
X13045063Y-13811531D01*
X13045063Y-13811531D02*
X13054586Y-13802008D01*
X13054586Y-13802008D02*
X13073634Y-13792484D01*
X13226015Y-13973436D02*
X13235539Y-13982960D01*
X13235539Y-13982960D02*
X13226015Y-13992484D01*
X13226015Y-13992484D02*
X13216491Y-13982960D01*
X13216491Y-13982960D02*
X13226015Y-13973436D01*
X13226015Y-13973436D02*
X13226015Y-13992484D01*
X13359348Y-13792484D02*
X13378396Y-13792484D01*
X13378396Y-13792484D02*
X13397444Y-13802008D01*
X13397444Y-13802008D02*
X13406967Y-13811531D01*
X13406967Y-13811531D02*
X13416491Y-13830579D01*
X13416491Y-13830579D02*
X13426015Y-13868674D01*
X13426015Y-13868674D02*
X13426015Y-13916293D01*
X13426015Y-13916293D02*
X13416491Y-13954388D01*
X13416491Y-13954388D02*
X13406967Y-13973436D01*
X13406967Y-13973436D02*
X13397444Y-13982960D01*
X13397444Y-13982960D02*
X13378396Y-13992484D01*
X13378396Y-13992484D02*
X13359348Y-13992484D01*
X13359348Y-13992484D02*
X13340301Y-13982960D01*
X13340301Y-13982960D02*
X13330777Y-13973436D01*
X13330777Y-13973436D02*
X13321253Y-13954388D01*
X13321253Y-13954388D02*
X13311729Y-13916293D01*
X13311729Y-13916293D02*
X13311729Y-13868674D01*
X13311729Y-13868674D02*
X13321253Y-13830579D01*
X13321253Y-13830579D02*
X13330777Y-13811531D01*
X13330777Y-13811531D02*
X13340301Y-13802008D01*
X13340301Y-13802008D02*
X13359348Y-13792484D01*
X13492682Y-13792484D02*
X13616491Y-13792484D01*
X13616491Y-13792484D02*
X13549825Y-13868674D01*
X13549825Y-13868674D02*
X13578396Y-13868674D01*
X13578396Y-13868674D02*
X13597444Y-13878198D01*
X13597444Y-13878198D02*
X13606967Y-13887722D01*
X13606967Y-13887722D02*
X13616491Y-13906769D01*
X13616491Y-13906769D02*
X13616491Y-13954388D01*
X13616491Y-13954388D02*
X13606967Y-13973436D01*
X13606967Y-13973436D02*
X13597444Y-13982960D01*
X13597444Y-13982960D02*
X13578396Y-13992484D01*
X13578396Y-13992484D02*
X13521253Y-13992484D01*
X13521253Y-13992484D02*
X13502206Y-13982960D01*
X13502206Y-13982960D02*
X13492682Y-13973436D01*
X13806967Y-13992484D02*
X13692682Y-13992484D01*
X13749825Y-13992484D02*
X13749825Y-13792484D01*
X13749825Y-13792484D02*
X13730777Y-13821055D01*
X13730777Y-13821055D02*
X13711729Y-13840103D01*
X13711729Y-13840103D02*
X13692682Y-13849627D01*
X13987920Y-13792484D02*
X13892682Y-13792484D01*
X13892682Y-13792484D02*
X13883158Y-13887722D01*
X13883158Y-13887722D02*
X13892682Y-13878198D01*
X13892682Y-13878198D02*
X13911729Y-13868674D01*
X13911729Y-13868674D02*
X13959348Y-13868674D01*
X13959348Y-13868674D02*
X13978396Y-13878198D01*
X13978396Y-13878198D02*
X13987920Y-13887722D01*
X13987920Y-13887722D02*
X13997444Y-13906769D01*
X13997444Y-13906769D02*
X13997444Y-13954388D01*
X13997444Y-13954388D02*
X13987920Y-13973436D01*
X13987920Y-13973436D02*
X13978396Y-13982960D01*
X13978396Y-13982960D02*
X13959348Y-13992484D01*
X13959348Y-13992484D02*
X13911729Y-13992484D01*
X13911729Y-13992484D02*
X13892682Y-13982960D01*
X13892682Y-13982960D02*
X13883158Y-13973436D01*
X14073634Y-13792484D02*
X14073634Y-13830579D01*
X14149825Y-13792484D02*
X14149825Y-13830579D01*
X14445063Y-14068674D02*
X14435539Y-14059150D01*
X14435539Y-14059150D02*
X14416491Y-14030579D01*
X14416491Y-14030579D02*
X14406968Y-14011531D01*
X14406968Y-14011531D02*
X14397444Y-13982960D01*
X14397444Y-13982960D02*
X14387920Y-13935341D01*
X14387920Y-13935341D02*
X14387920Y-13897246D01*
X14387920Y-13897246D02*
X14397444Y-13849627D01*
X14397444Y-13849627D02*
X14406968Y-13821055D01*
X14406968Y-13821055D02*
X14416491Y-13802008D01*
X14416491Y-13802008D02*
X14435539Y-13773436D01*
X14435539Y-13773436D02*
X14445063Y-13763912D01*
X14626015Y-13992484D02*
X14511729Y-13992484D01*
X14568872Y-13992484D02*
X14568872Y-13792484D01*
X14568872Y-13792484D02*
X14549825Y-13821055D01*
X14549825Y-13821055D02*
X14530777Y-13840103D01*
X14530777Y-13840103D02*
X14511729Y-13849627D01*
X14797444Y-13859150D02*
X14797444Y-13992484D01*
X14749825Y-13782960D02*
X14702206Y-13925817D01*
X14702206Y-13925817D02*
X14826015Y-13925817D01*
X15054587Y-13992484D02*
X15054587Y-13792484D01*
X15140301Y-13992484D02*
X15140301Y-13887722D01*
X15140301Y-13887722D02*
X15130777Y-13868674D01*
X15130777Y-13868674D02*
X15111730Y-13859150D01*
X15111730Y-13859150D02*
X15083158Y-13859150D01*
X15083158Y-13859150D02*
X15064110Y-13868674D01*
X15064110Y-13868674D02*
X15054587Y-13878198D01*
X15264110Y-13992484D02*
X15245063Y-13982960D01*
X15245063Y-13982960D02*
X15235539Y-13973436D01*
X15235539Y-13973436D02*
X15226015Y-13954388D01*
X15226015Y-13954388D02*
X15226015Y-13897246D01*
X15226015Y-13897246D02*
X15235539Y-13878198D01*
X15235539Y-13878198D02*
X15245063Y-13868674D01*
X15245063Y-13868674D02*
X15264110Y-13859150D01*
X15264110Y-13859150D02*
X15292682Y-13859150D01*
X15292682Y-13859150D02*
X15311730Y-13868674D01*
X15311730Y-13868674D02*
X15321253Y-13878198D01*
X15321253Y-13878198D02*
X15330777Y-13897246D01*
X15330777Y-13897246D02*
X15330777Y-13954388D01*
X15330777Y-13954388D02*
X15321253Y-13973436D01*
X15321253Y-13973436D02*
X15311730Y-13982960D01*
X15311730Y-13982960D02*
X15292682Y-13992484D01*
X15292682Y-13992484D02*
X15264110Y-13992484D01*
X15445063Y-13992484D02*
X15426015Y-13982960D01*
X15426015Y-13982960D02*
X15416491Y-13963912D01*
X15416491Y-13963912D02*
X15416491Y-13792484D01*
X15597444Y-13982960D02*
X15578396Y-13992484D01*
X15578396Y-13992484D02*
X15540301Y-13992484D01*
X15540301Y-13992484D02*
X15521253Y-13982960D01*
X15521253Y-13982960D02*
X15511730Y-13963912D01*
X15511730Y-13963912D02*
X15511730Y-13887722D01*
X15511730Y-13887722D02*
X15521253Y-13868674D01*
X15521253Y-13868674D02*
X15540301Y-13859150D01*
X15540301Y-13859150D02*
X15578396Y-13859150D01*
X15578396Y-13859150D02*
X15597444Y-13868674D01*
X15597444Y-13868674D02*
X15606968Y-13887722D01*
X15606968Y-13887722D02*
X15606968Y-13906769D01*
X15606968Y-13906769D02*
X15511730Y-13925817D01*
X15683158Y-13982960D02*
X15702206Y-13992484D01*
X15702206Y-13992484D02*
X15740301Y-13992484D01*
X15740301Y-13992484D02*
X15759349Y-13982960D01*
X15759349Y-13982960D02*
X15768872Y-13963912D01*
X15768872Y-13963912D02*
X15768872Y-13954388D01*
X15768872Y-13954388D02*
X15759349Y-13935341D01*
X15759349Y-13935341D02*
X15740301Y-13925817D01*
X15740301Y-13925817D02*
X15711730Y-13925817D01*
X15711730Y-13925817D02*
X15692682Y-13916293D01*
X15692682Y-13916293D02*
X15683158Y-13897246D01*
X15683158Y-13897246D02*
X15683158Y-13887722D01*
X15683158Y-13887722D02*
X15692682Y-13868674D01*
X15692682Y-13868674D02*
X15711730Y-13859150D01*
X15711730Y-13859150D02*
X15740301Y-13859150D01*
X15740301Y-13859150D02*
X15759349Y-13868674D01*
X15835539Y-14068674D02*
X15845063Y-14059150D01*
X15845063Y-14059150D02*
X15864111Y-14030579D01*
X15864111Y-14030579D02*
X15873634Y-14011531D01*
X15873634Y-14011531D02*
X15883158Y-13982960D01*
X15883158Y-13982960D02*
X15892682Y-13935341D01*
X15892682Y-13935341D02*
X15892682Y-13897246D01*
X15892682Y-13897246D02*
X15883158Y-13849627D01*
X15883158Y-13849627D02*
X15873634Y-13821055D01*
X15873634Y-13821055D02*
X15864111Y-13802008D01*
X15864111Y-13802008D02*
X15845063Y-13773436D01*
X15845063Y-13773436D02*
X15835539Y-13763912D01*
D10*
X10770000Y-14115000D02*
X10870000Y-14215000D01*
X10870000Y-14115000D02*
X10770000Y-14215000D01*
X10870000Y-14165000D02*
G75*
G03*
X10870000Y-14165000I-50000J0D01*
G01*
D11*
X11235539Y-14256484D02*
X11121253Y-14256484D01*
X11178396Y-14256484D02*
X11178396Y-14056484D01*
X11178396Y-14056484D02*
X11159348Y-14085055D01*
X11159348Y-14085055D02*
X11140301Y-14104103D01*
X11140301Y-14104103D02*
X11121253Y-14113627D01*
X11321253Y-14237436D02*
X11330777Y-14246960D01*
X11330777Y-14246960D02*
X11321253Y-14256484D01*
X11321253Y-14256484D02*
X11311729Y-14246960D01*
X11311729Y-14246960D02*
X11321253Y-14237436D01*
X11321253Y-14237436D02*
X11321253Y-14256484D01*
X11454586Y-14056484D02*
X11473634Y-14056484D01*
X11473634Y-14056484D02*
X11492682Y-14066008D01*
X11492682Y-14066008D02*
X11502205Y-14075531D01*
X11502205Y-14075531D02*
X11511729Y-14094579D01*
X11511729Y-14094579D02*
X11521253Y-14132674D01*
X11521253Y-14132674D02*
X11521253Y-14180293D01*
X11521253Y-14180293D02*
X11511729Y-14218388D01*
X11511729Y-14218388D02*
X11502205Y-14237436D01*
X11502205Y-14237436D02*
X11492682Y-14246960D01*
X11492682Y-14246960D02*
X11473634Y-14256484D01*
X11473634Y-14256484D02*
X11454586Y-14256484D01*
X11454586Y-14256484D02*
X11435539Y-14246960D01*
X11435539Y-14246960D02*
X11426015Y-14237436D01*
X11426015Y-14237436D02*
X11416491Y-14218388D01*
X11416491Y-14218388D02*
X11406967Y-14180293D01*
X11406967Y-14180293D02*
X11406967Y-14132674D01*
X11406967Y-14132674D02*
X11416491Y-14094579D01*
X11416491Y-14094579D02*
X11426015Y-14075531D01*
X11426015Y-14075531D02*
X11435539Y-14066008D01*
X11435539Y-14066008D02*
X11454586Y-14056484D01*
X11645062Y-14056484D02*
X11664110Y-14056484D01*
X11664110Y-14056484D02*
X11683158Y-14066008D01*
X11683158Y-14066008D02*
X11692682Y-14075531D01*
X11692682Y-14075531D02*
X11702205Y-14094579D01*
X11702205Y-14094579D02*
X11711729Y-14132674D01*
X11711729Y-14132674D02*
X11711729Y-14180293D01*
X11711729Y-14180293D02*
X11702205Y-14218388D01*
X11702205Y-14218388D02*
X11692682Y-14237436D01*
X11692682Y-14237436D02*
X11683158Y-14246960D01*
X11683158Y-14246960D02*
X11664110Y-14256484D01*
X11664110Y-14256484D02*
X11645062Y-14256484D01*
X11645062Y-14256484D02*
X11626015Y-14246960D01*
X11626015Y-14246960D02*
X11616491Y-14237436D01*
X11616491Y-14237436D02*
X11606967Y-14218388D01*
X11606967Y-14218388D02*
X11597443Y-14180293D01*
X11597443Y-14180293D02*
X11597443Y-14132674D01*
X11597443Y-14132674D02*
X11606967Y-14094579D01*
X11606967Y-14094579D02*
X11616491Y-14075531D01*
X11616491Y-14075531D02*
X11626015Y-14066008D01*
X11626015Y-14066008D02*
X11645062Y-14056484D01*
X11835539Y-14056484D02*
X11854586Y-14056484D01*
X11854586Y-14056484D02*
X11873634Y-14066008D01*
X11873634Y-14066008D02*
X11883158Y-14075531D01*
X11883158Y-14075531D02*
X11892682Y-14094579D01*
X11892682Y-14094579D02*
X11902205Y-14132674D01*
X11902205Y-14132674D02*
X11902205Y-14180293D01*
X11902205Y-14180293D02*
X11892682Y-14218388D01*
X11892682Y-14218388D02*
X11883158Y-14237436D01*
X11883158Y-14237436D02*
X11873634Y-14246960D01*
X11873634Y-14246960D02*
X11854586Y-14256484D01*
X11854586Y-14256484D02*
X11835539Y-14256484D01*
X11835539Y-14256484D02*
X11816491Y-14246960D01*
X11816491Y-14246960D02*
X11806967Y-14237436D01*
X11806967Y-14237436D02*
X11797443Y-14218388D01*
X11797443Y-14218388D02*
X11787920Y-14180293D01*
X11787920Y-14180293D02*
X11787920Y-14132674D01*
X11787920Y-14132674D02*
X11797443Y-14094579D01*
X11797443Y-14094579D02*
X11806967Y-14075531D01*
X11806967Y-14075531D02*
X11816491Y-14066008D01*
X11816491Y-14066008D02*
X11835539Y-14056484D01*
X11987920Y-14256484D02*
X11987920Y-14123150D01*
X11987920Y-14142198D02*
X11997443Y-14132674D01*
X11997443Y-14132674D02*
X12016491Y-14123150D01*
X12016491Y-14123150D02*
X12045063Y-14123150D01*
X12045063Y-14123150D02*
X12064110Y-14132674D01*
X12064110Y-14132674D02*
X12073634Y-14151722D01*
X12073634Y-14151722D02*
X12073634Y-14256484D01*
X12073634Y-14151722D02*
X12083158Y-14132674D01*
X12083158Y-14132674D02*
X12102205Y-14123150D01*
X12102205Y-14123150D02*
X12130777Y-14123150D01*
X12130777Y-14123150D02*
X12149824Y-14132674D01*
X12149824Y-14132674D02*
X12159348Y-14151722D01*
X12159348Y-14151722D02*
X12159348Y-14256484D01*
X12254586Y-14256484D02*
X12254586Y-14123150D01*
X12254586Y-14142198D02*
X12264110Y-14132674D01*
X12264110Y-14132674D02*
X12283158Y-14123150D01*
X12283158Y-14123150D02*
X12311729Y-14123150D01*
X12311729Y-14123150D02*
X12330777Y-14132674D01*
X12330777Y-14132674D02*
X12340301Y-14151722D01*
X12340301Y-14151722D02*
X12340301Y-14256484D01*
X12340301Y-14151722D02*
X12349824Y-14132674D01*
X12349824Y-14132674D02*
X12368872Y-14123150D01*
X12368872Y-14123150D02*
X12397443Y-14123150D01*
X12397443Y-14123150D02*
X12416491Y-14132674D01*
X12416491Y-14132674D02*
X12426015Y-14151722D01*
X12426015Y-14151722D02*
X12426015Y-14256484D01*
X12816491Y-14046960D02*
X12645063Y-14304103D01*
X13073634Y-14056484D02*
X13092682Y-14056484D01*
X13092682Y-14056484D02*
X13111729Y-14066008D01*
X13111729Y-14066008D02*
X13121253Y-14075531D01*
X13121253Y-14075531D02*
X13130777Y-14094579D01*
X13130777Y-14094579D02*
X13140301Y-14132674D01*
X13140301Y-14132674D02*
X13140301Y-14180293D01*
X13140301Y-14180293D02*
X13130777Y-14218388D01*
X13130777Y-14218388D02*
X13121253Y-14237436D01*
X13121253Y-14237436D02*
X13111729Y-14246960D01*
X13111729Y-14246960D02*
X13092682Y-14256484D01*
X13092682Y-14256484D02*
X13073634Y-14256484D01*
X13073634Y-14256484D02*
X13054586Y-14246960D01*
X13054586Y-14246960D02*
X13045063Y-14237436D01*
X13045063Y-14237436D02*
X13035539Y-14218388D01*
X13035539Y-14218388D02*
X13026015Y-14180293D01*
X13026015Y-14180293D02*
X13026015Y-14132674D01*
X13026015Y-14132674D02*
X13035539Y-14094579D01*
X13035539Y-14094579D02*
X13045063Y-14075531D01*
X13045063Y-14075531D02*
X13054586Y-14066008D01*
X13054586Y-14066008D02*
X13073634Y-14056484D01*
X13226015Y-14237436D02*
X13235539Y-14246960D01*
X13235539Y-14246960D02*
X13226015Y-14256484D01*
X13226015Y-14256484D02*
X13216491Y-14246960D01*
X13216491Y-14246960D02*
X13226015Y-14237436D01*
X13226015Y-14237436D02*
X13226015Y-14256484D01*
X13359348Y-14056484D02*
X13378396Y-14056484D01*
X13378396Y-14056484D02*
X13397444Y-14066008D01*
X13397444Y-14066008D02*
X13406967Y-14075531D01*
X13406967Y-14075531D02*
X13416491Y-14094579D01*
X13416491Y-14094579D02*
X13426015Y-14132674D01*
X13426015Y-14132674D02*
X13426015Y-14180293D01*
X13426015Y-14180293D02*
X13416491Y-14218388D01*
X13416491Y-14218388D02*
X13406967Y-14237436D01*
X13406967Y-14237436D02*
X13397444Y-14246960D01*
X13397444Y-14246960D02*
X13378396Y-14256484D01*
X13378396Y-14256484D02*
X13359348Y-14256484D01*
X13359348Y-14256484D02*
X13340301Y-14246960D01*
X13340301Y-14246960D02*
X13330777Y-14237436D01*
X13330777Y-14237436D02*
X13321253Y-14218388D01*
X13321253Y-14218388D02*
X13311729Y-14180293D01*
X13311729Y-14180293D02*
X13311729Y-14132674D01*
X13311729Y-14132674D02*
X13321253Y-14094579D01*
X13321253Y-14094579D02*
X13330777Y-14075531D01*
X13330777Y-14075531D02*
X13340301Y-14066008D01*
X13340301Y-14066008D02*
X13359348Y-14056484D01*
X13492682Y-14056484D02*
X13616491Y-14056484D01*
X13616491Y-14056484D02*
X13549825Y-14132674D01*
X13549825Y-14132674D02*
X13578396Y-14132674D01*
X13578396Y-14132674D02*
X13597444Y-14142198D01*
X13597444Y-14142198D02*
X13606967Y-14151722D01*
X13606967Y-14151722D02*
X13616491Y-14170769D01*
X13616491Y-14170769D02*
X13616491Y-14218388D01*
X13616491Y-14218388D02*
X13606967Y-14237436D01*
X13606967Y-14237436D02*
X13597444Y-14246960D01*
X13597444Y-14246960D02*
X13578396Y-14256484D01*
X13578396Y-14256484D02*
X13521253Y-14256484D01*
X13521253Y-14256484D02*
X13502206Y-14246960D01*
X13502206Y-14246960D02*
X13492682Y-14237436D01*
X13711729Y-14256484D02*
X13749825Y-14256484D01*
X13749825Y-14256484D02*
X13768872Y-14246960D01*
X13768872Y-14246960D02*
X13778396Y-14237436D01*
X13778396Y-14237436D02*
X13797444Y-14208865D01*
X13797444Y-14208865D02*
X13806967Y-14170769D01*
X13806967Y-14170769D02*
X13806967Y-14094579D01*
X13806967Y-14094579D02*
X13797444Y-14075531D01*
X13797444Y-14075531D02*
X13787920Y-14066008D01*
X13787920Y-14066008D02*
X13768872Y-14056484D01*
X13768872Y-14056484D02*
X13730777Y-14056484D01*
X13730777Y-14056484D02*
X13711729Y-14066008D01*
X13711729Y-14066008D02*
X13702206Y-14075531D01*
X13702206Y-14075531D02*
X13692682Y-14094579D01*
X13692682Y-14094579D02*
X13692682Y-14142198D01*
X13692682Y-14142198D02*
X13702206Y-14161246D01*
X13702206Y-14161246D02*
X13711729Y-14170769D01*
X13711729Y-14170769D02*
X13730777Y-14180293D01*
X13730777Y-14180293D02*
X13768872Y-14180293D01*
X13768872Y-14180293D02*
X13787920Y-14170769D01*
X13787920Y-14170769D02*
X13797444Y-14161246D01*
X13797444Y-14161246D02*
X13806967Y-14142198D01*
X13978396Y-14123150D02*
X13978396Y-14256484D01*
X13930777Y-14046960D02*
X13883158Y-14189817D01*
X13883158Y-14189817D02*
X14006967Y-14189817D01*
X14073634Y-14056484D02*
X14073634Y-14094579D01*
X14149825Y-14056484D02*
X14149825Y-14094579D01*
X14445063Y-14332674D02*
X14435539Y-14323150D01*
X14435539Y-14323150D02*
X14416491Y-14294579D01*
X14416491Y-14294579D02*
X14406968Y-14275531D01*
X14406968Y-14275531D02*
X14397444Y-14246960D01*
X14397444Y-14246960D02*
X14387920Y-14199341D01*
X14387920Y-14199341D02*
X14387920Y-14161246D01*
X14387920Y-14161246D02*
X14397444Y-14113627D01*
X14397444Y-14113627D02*
X14406968Y-14085055D01*
X14406968Y-14085055D02*
X14416491Y-14066008D01*
X14416491Y-14066008D02*
X14435539Y-14037436D01*
X14435539Y-14037436D02*
X14445063Y-14027912D01*
X14502206Y-14056484D02*
X14626015Y-14056484D01*
X14626015Y-14056484D02*
X14559348Y-14132674D01*
X14559348Y-14132674D02*
X14587920Y-14132674D01*
X14587920Y-14132674D02*
X14606968Y-14142198D01*
X14606968Y-14142198D02*
X14616491Y-14151722D01*
X14616491Y-14151722D02*
X14626015Y-14170769D01*
X14626015Y-14170769D02*
X14626015Y-14218388D01*
X14626015Y-14218388D02*
X14616491Y-14237436D01*
X14616491Y-14237436D02*
X14606968Y-14246960D01*
X14606968Y-14246960D02*
X14587920Y-14256484D01*
X14587920Y-14256484D02*
X14530777Y-14256484D01*
X14530777Y-14256484D02*
X14511729Y-14246960D01*
X14511729Y-14246960D02*
X14502206Y-14237436D01*
X14692682Y-14056484D02*
X14816491Y-14056484D01*
X14816491Y-14056484D02*
X14749825Y-14132674D01*
X14749825Y-14132674D02*
X14778396Y-14132674D01*
X14778396Y-14132674D02*
X14797444Y-14142198D01*
X14797444Y-14142198D02*
X14806968Y-14151722D01*
X14806968Y-14151722D02*
X14816491Y-14170769D01*
X14816491Y-14170769D02*
X14816491Y-14218388D01*
X14816491Y-14218388D02*
X14806968Y-14237436D01*
X14806968Y-14237436D02*
X14797444Y-14246960D01*
X14797444Y-14246960D02*
X14778396Y-14256484D01*
X14778396Y-14256484D02*
X14721253Y-14256484D01*
X14721253Y-14256484D02*
X14702206Y-14246960D01*
X14702206Y-14246960D02*
X14692682Y-14237436D01*
X15054587Y-14256484D02*
X15054587Y-14056484D01*
X15140301Y-14256484D02*
X15140301Y-14151722D01*
X15140301Y-14151722D02*
X15130777Y-14132674D01*
X15130777Y-14132674D02*
X15111730Y-14123150D01*
X15111730Y-14123150D02*
X15083158Y-14123150D01*
X15083158Y-14123150D02*
X15064110Y-14132674D01*
X15064110Y-14132674D02*
X15054587Y-14142198D01*
X15264110Y-14256484D02*
X15245063Y-14246960D01*
X15245063Y-14246960D02*
X15235539Y-14237436D01*
X15235539Y-14237436D02*
X15226015Y-14218388D01*
X15226015Y-14218388D02*
X15226015Y-14161246D01*
X15226015Y-14161246D02*
X15235539Y-14142198D01*
X15235539Y-14142198D02*
X15245063Y-14132674D01*
X15245063Y-14132674D02*
X15264110Y-14123150D01*
X15264110Y-14123150D02*
X15292682Y-14123150D01*
X15292682Y-14123150D02*
X15311730Y-14132674D01*
X15311730Y-14132674D02*
X15321253Y-14142198D01*
X15321253Y-14142198D02*
X15330777Y-14161246D01*
X15330777Y-14161246D02*
X15330777Y-14218388D01*
X15330777Y-14218388D02*
X15321253Y-14237436D01*
X15321253Y-14237436D02*
X15311730Y-14246960D01*
X15311730Y-14246960D02*
X15292682Y-14256484D01*
X15292682Y-14256484D02*
X15264110Y-14256484D01*
X15445063Y-14256484D02*
X15426015Y-14246960D01*
X15426015Y-14246960D02*
X15416491Y-14227912D01*
X15416491Y-14227912D02*
X15416491Y-14056484D01*
X15597444Y-14246960D02*
X15578396Y-14256484D01*
X15578396Y-14256484D02*
X15540301Y-14256484D01*
X15540301Y-14256484D02*
X15521253Y-14246960D01*
X15521253Y-14246960D02*
X15511730Y-14227912D01*
X15511730Y-14227912D02*
X15511730Y-14151722D01*
X15511730Y-14151722D02*
X15521253Y-14132674D01*
X15521253Y-14132674D02*
X15540301Y-14123150D01*
X15540301Y-14123150D02*
X15578396Y-14123150D01*
X15578396Y-14123150D02*
X15597444Y-14132674D01*
X15597444Y-14132674D02*
X15606968Y-14151722D01*
X15606968Y-14151722D02*
X15606968Y-14170769D01*
X15606968Y-14170769D02*
X15511730Y-14189817D01*
X15683158Y-14246960D02*
X15702206Y-14256484D01*
X15702206Y-14256484D02*
X15740301Y-14256484D01*
X15740301Y-14256484D02*
X15759349Y-14246960D01*
X15759349Y-14246960D02*
X15768872Y-14227912D01*
X15768872Y-14227912D02*
X15768872Y-14218388D01*
X15768872Y-14218388D02*
X15759349Y-14199341D01*
X15759349Y-14199341D02*
X15740301Y-14189817D01*
X15740301Y-14189817D02*
X15711730Y-14189817D01*
X15711730Y-14189817D02*
X15692682Y-14180293D01*
X15692682Y-14180293D02*
X15683158Y-14161246D01*
X15683158Y-14161246D02*
X15683158Y-14151722D01*
X15683158Y-14151722D02*
X15692682Y-14132674D01*
X15692682Y-14132674D02*
X15711730Y-14123150D01*
X15711730Y-14123150D02*
X15740301Y-14123150D01*
X15740301Y-14123150D02*
X15759349Y-14132674D01*
X15835539Y-14332674D02*
X15845063Y-14323150D01*
X15845063Y-14323150D02*
X15864111Y-14294579D01*
X15864111Y-14294579D02*
X15873634Y-14275531D01*
X15873634Y-14275531D02*
X15883158Y-14246960D01*
X15883158Y-14246960D02*
X15892682Y-14199341D01*
X15892682Y-14199341D02*
X15892682Y-14161246D01*
X15892682Y-14161246D02*
X15883158Y-14113627D01*
X15883158Y-14113627D02*
X15873634Y-14085055D01*
X15873634Y-14085055D02*
X15864111Y-14066008D01*
X15864111Y-14066008D02*
X15845063Y-14037436D01*
X15845063Y-14037436D02*
X15835539Y-14027912D01*
M02*
