G04 #@! TF.GenerationSoftware,KiCad,Pcbnew,7.0.7*
G04 #@! TF.CreationDate,2023-10-29T22:41:13+02:00*
G04 #@! TF.ProjectId,dif-pressure-meter,6469662d-7072-4657-9373-7572652d6d65,rev?*
G04 #@! TF.SameCoordinates,Original*
G04 #@! TF.FileFunction,Legend,Bot*
G04 #@! TF.FilePolarity,Positive*
%FSLAX46Y46*%
G04 Gerber Fmt 4.6, Leading zero omitted, Abs format (unit mm)*
G04 Created by KiCad (PCBNEW 7.0.7) date 2023-10-29 22:41:13*
%MOMM*%
%LPD*%
G01*
G04 APERTURE LIST*
G04 Aperture macros list*
%AMRoundRect*
0 Rectangle with rounded corners*
0 $1 Rounding radius*
0 $2 $3 $4 $5 $6 $7 $8 $9 X,Y pos of 4 corners*
0 Add a 4 corners polygon primitive as box body*
4,1,4,$2,$3,$4,$5,$6,$7,$8,$9,$2,$3,0*
0 Add four circle primitives for the rounded corners*
1,1,$1+$1,$2,$3*
1,1,$1+$1,$4,$5*
1,1,$1+$1,$6,$7*
1,1,$1+$1,$8,$9*
0 Add four rect primitives between the rounded corners*
20,1,$1+$1,$2,$3,$4,$5,0*
20,1,$1+$1,$4,$5,$6,$7,0*
20,1,$1+$1,$6,$7,$8,$9,0*
20,1,$1+$1,$8,$9,$2,$3,0*%
G04 Aperture macros list end*
%ADD10C,0.150000*%
%ADD11C,0.120000*%
%ADD12C,0.127000*%
%ADD13C,0.200000*%
%ADD14C,1.600000*%
%ADD15C,1.800000*%
%ADD16R,1.350000X1.350000*%
%ADD17O,1.350000X1.350000*%
%ADD18C,1.524000*%
%ADD19RoundRect,0.250000X-0.350000X-0.450000X0.350000X-0.450000X0.350000X0.450000X-0.350000X0.450000X0*%
%ADD20RoundRect,0.250000X0.350000X0.450000X-0.350000X0.450000X-0.350000X-0.450000X0.350000X-0.450000X0*%
%ADD21RoundRect,0.250000X-0.450000X0.350000X-0.450000X-0.350000X0.450000X-0.350000X0.450000X0.350000X0*%
%ADD22RoundRect,0.102000X0.365000X-0.605000X0.365000X0.605000X-0.365000X0.605000X-0.365000X-0.605000X0*%
%ADD23C,3.500000*%
%ADD24R,1.700000X1.700000*%
%ADD25O,1.700000X1.700000*%
%ADD26RoundRect,0.250000X-0.475000X0.337500X-0.475000X-0.337500X0.475000X-0.337500X0.475000X0.337500X0*%
%ADD27R,0.900000X1.500000*%
%ADD28R,1.500000X0.900000*%
%ADD29R,0.900000X0.900000*%
%ADD30RoundRect,0.150000X0.512500X0.150000X-0.512500X0.150000X-0.512500X-0.150000X0.512500X-0.150000X0*%
%ADD31RoundRect,0.150000X0.150000X-0.512500X0.150000X0.512500X-0.150000X0.512500X-0.150000X-0.512500X0*%
%ADD32RoundRect,0.250000X0.337500X0.475000X-0.337500X0.475000X-0.337500X-0.475000X0.337500X-0.475000X0*%
%ADD33RoundRect,0.144000X0.943000X0.258000X-0.943000X0.258000X-0.943000X-0.258000X0.943000X-0.258000X0*%
%ADD34RoundRect,0.102000X1.206500X1.651000X-1.206500X1.651000X-1.206500X-1.651000X1.206500X-1.651000X0*%
%ADD35RoundRect,0.250000X-0.337500X-0.475000X0.337500X-0.475000X0.337500X0.475000X-0.337500X0.475000X0*%
%ADD36RoundRect,0.150000X0.587500X0.150000X-0.587500X0.150000X-0.587500X-0.150000X0.587500X-0.150000X0*%
%ADD37C,0.650000*%
%ADD38R,1.150000X0.600000*%
%ADD39R,1.150000X0.300000*%
%ADD40O,1.800000X1.000000*%
%ADD41O,2.100000X1.000000*%
%ADD42RoundRect,0.102000X-0.605000X-0.365000X0.605000X-0.365000X0.605000X0.365000X-0.605000X0.365000X0*%
%ADD43RoundRect,0.250000X0.450000X-0.350000X0.450000X0.350000X-0.450000X0.350000X-0.450000X-0.350000X0*%
%ADD44RoundRect,0.150000X-0.150000X0.587500X-0.150000X-0.587500X0.150000X-0.587500X0.150000X0.587500X0*%
%ADD45RoundRect,0.150000X0.150000X-0.825000X0.150000X0.825000X-0.150000X0.825000X-0.150000X-0.825000X0*%
%ADD46RoundRect,0.150000X-0.512500X-0.150000X0.512500X-0.150000X0.512500X0.150000X-0.512500X0.150000X0*%
%ADD47RoundRect,0.250000X0.475000X-0.337500X0.475000X0.337500X-0.475000X0.337500X-0.475000X-0.337500X0*%
%ADD48RoundRect,0.250000X0.450000X-0.325000X0.450000X0.325000X-0.450000X0.325000X-0.450000X-0.325000X0*%
%ADD49RoundRect,0.250000X0.350000X0.625000X-0.350000X0.625000X-0.350000X-0.625000X0.350000X-0.625000X0*%
%ADD50O,1.200000X1.750000*%
G04 APERTURE END LIST*
D10*
X145606078Y-53775247D02*
X145872744Y-53775247D01*
X145872744Y-54194295D02*
X145872744Y-53394295D01*
X145872744Y-53394295D02*
X145491792Y-53394295D01*
X145034649Y-53394295D02*
X144882268Y-53394295D01*
X144882268Y-53394295D02*
X144806078Y-53432390D01*
X144806078Y-53432390D02*
X144729887Y-53508580D01*
X144729887Y-53508580D02*
X144691792Y-53660961D01*
X144691792Y-53660961D02*
X144691792Y-53927628D01*
X144691792Y-53927628D02*
X144729887Y-54080009D01*
X144729887Y-54080009D02*
X144806078Y-54156200D01*
X144806078Y-54156200D02*
X144882268Y-54194295D01*
X144882268Y-54194295D02*
X145034649Y-54194295D01*
X145034649Y-54194295D02*
X145110840Y-54156200D01*
X145110840Y-54156200D02*
X145187030Y-54080009D01*
X145187030Y-54080009D02*
X145225126Y-53927628D01*
X145225126Y-53927628D02*
X145225126Y-53660961D01*
X145225126Y-53660961D02*
X145187030Y-53508580D01*
X145187030Y-53508580D02*
X145110840Y-53432390D01*
X145110840Y-53432390D02*
X145034649Y-53394295D01*
X145691792Y-61082390D02*
X145767982Y-61044295D01*
X145767982Y-61044295D02*
X145882268Y-61044295D01*
X145882268Y-61044295D02*
X145996554Y-61082390D01*
X145996554Y-61082390D02*
X146072744Y-61158580D01*
X146072744Y-61158580D02*
X146110839Y-61234771D01*
X146110839Y-61234771D02*
X146148935Y-61387152D01*
X146148935Y-61387152D02*
X146148935Y-61501438D01*
X146148935Y-61501438D02*
X146110839Y-61653819D01*
X146110839Y-61653819D02*
X146072744Y-61730009D01*
X146072744Y-61730009D02*
X145996554Y-61806200D01*
X145996554Y-61806200D02*
X145882268Y-61844295D01*
X145882268Y-61844295D02*
X145806077Y-61844295D01*
X145806077Y-61844295D02*
X145691792Y-61806200D01*
X145691792Y-61806200D02*
X145653696Y-61768104D01*
X145653696Y-61768104D02*
X145653696Y-61501438D01*
X145653696Y-61501438D02*
X145806077Y-61501438D01*
X145310839Y-61844295D02*
X145310839Y-61044295D01*
X145310839Y-61044295D02*
X144853696Y-61844295D01*
X144853696Y-61844295D02*
X144853696Y-61044295D01*
X144472744Y-61844295D02*
X144472744Y-61044295D01*
X144472744Y-61044295D02*
X144282268Y-61044295D01*
X144282268Y-61044295D02*
X144167982Y-61082390D01*
X144167982Y-61082390D02*
X144091792Y-61158580D01*
X144091792Y-61158580D02*
X144053697Y-61234771D01*
X144053697Y-61234771D02*
X144015601Y-61387152D01*
X144015601Y-61387152D02*
X144015601Y-61501438D01*
X144015601Y-61501438D02*
X144053697Y-61653819D01*
X144053697Y-61653819D02*
X144091792Y-61730009D01*
X144091792Y-61730009D02*
X144167982Y-61806200D01*
X144167982Y-61806200D02*
X144282268Y-61844295D01*
X144282268Y-61844295D02*
X144472744Y-61844295D01*
X112210839Y-91489533D02*
X111601316Y-91489533D01*
X114225125Y-81414295D02*
X113767982Y-81414295D01*
X113996554Y-82214295D02*
X113996554Y-81414295D01*
X113577506Y-81414295D02*
X113044172Y-82214295D01*
X113044172Y-81414295D02*
X113577506Y-82214295D01*
X114225125Y-74012390D02*
X114301315Y-73974295D01*
X114301315Y-73974295D02*
X114415601Y-73974295D01*
X114415601Y-73974295D02*
X114529887Y-74012390D01*
X114529887Y-74012390D02*
X114606077Y-74088580D01*
X114606077Y-74088580D02*
X114644172Y-74164771D01*
X114644172Y-74164771D02*
X114682268Y-74317152D01*
X114682268Y-74317152D02*
X114682268Y-74431438D01*
X114682268Y-74431438D02*
X114644172Y-74583819D01*
X114644172Y-74583819D02*
X114606077Y-74660009D01*
X114606077Y-74660009D02*
X114529887Y-74736200D01*
X114529887Y-74736200D02*
X114415601Y-74774295D01*
X114415601Y-74774295D02*
X114339410Y-74774295D01*
X114339410Y-74774295D02*
X114225125Y-74736200D01*
X114225125Y-74736200D02*
X114187029Y-74698104D01*
X114187029Y-74698104D02*
X114187029Y-74431438D01*
X114187029Y-74431438D02*
X114339410Y-74431438D01*
X113844172Y-74774295D02*
X113844172Y-73974295D01*
X113844172Y-73974295D02*
X113387029Y-74774295D01*
X113387029Y-74774295D02*
X113387029Y-73974295D01*
X113006077Y-74774295D02*
X113006077Y-73974295D01*
X113006077Y-73974295D02*
X112815601Y-73974295D01*
X112815601Y-73974295D02*
X112701315Y-74012390D01*
X112701315Y-74012390D02*
X112625125Y-74088580D01*
X112625125Y-74088580D02*
X112587030Y-74164771D01*
X112587030Y-74164771D02*
X112548934Y-74317152D01*
X112548934Y-74317152D02*
X112548934Y-74431438D01*
X112548934Y-74431438D02*
X112587030Y-74583819D01*
X112587030Y-74583819D02*
X112625125Y-74660009D01*
X112625125Y-74660009D02*
X112701315Y-74736200D01*
X112701315Y-74736200D02*
X112815601Y-74774295D01*
X112815601Y-74774295D02*
X113006077Y-74774295D01*
X114796553Y-71494295D02*
X114301315Y-71494295D01*
X114301315Y-71494295D02*
X114567981Y-71799057D01*
X114567981Y-71799057D02*
X114453696Y-71799057D01*
X114453696Y-71799057D02*
X114377505Y-71837152D01*
X114377505Y-71837152D02*
X114339410Y-71875247D01*
X114339410Y-71875247D02*
X114301315Y-71951438D01*
X114301315Y-71951438D02*
X114301315Y-72141914D01*
X114301315Y-72141914D02*
X114339410Y-72218104D01*
X114339410Y-72218104D02*
X114377505Y-72256200D01*
X114377505Y-72256200D02*
X114453696Y-72294295D01*
X114453696Y-72294295D02*
X114682267Y-72294295D01*
X114682267Y-72294295D02*
X114758458Y-72256200D01*
X114758458Y-72256200D02*
X114796553Y-72218104D01*
X113958457Y-72218104D02*
X113920362Y-72256200D01*
X113920362Y-72256200D02*
X113958457Y-72294295D01*
X113958457Y-72294295D02*
X113996553Y-72256200D01*
X113996553Y-72256200D02*
X113958457Y-72218104D01*
X113958457Y-72218104D02*
X113958457Y-72294295D01*
X113653696Y-71494295D02*
X113158458Y-71494295D01*
X113158458Y-71494295D02*
X113425124Y-71799057D01*
X113425124Y-71799057D02*
X113310839Y-71799057D01*
X113310839Y-71799057D02*
X113234648Y-71837152D01*
X113234648Y-71837152D02*
X113196553Y-71875247D01*
X113196553Y-71875247D02*
X113158458Y-71951438D01*
X113158458Y-71951438D02*
X113158458Y-72141914D01*
X113158458Y-72141914D02*
X113196553Y-72218104D01*
X113196553Y-72218104D02*
X113234648Y-72256200D01*
X113234648Y-72256200D02*
X113310839Y-72294295D01*
X113310839Y-72294295D02*
X113539410Y-72294295D01*
X113539410Y-72294295D02*
X113615601Y-72256200D01*
X113615601Y-72256200D02*
X113653696Y-72218104D01*
X112929886Y-71494295D02*
X112663219Y-72294295D01*
X112663219Y-72294295D02*
X112396553Y-71494295D01*
X114415600Y-79734295D02*
X114415600Y-78934295D01*
X113882267Y-78934295D02*
X113729886Y-78934295D01*
X113729886Y-78934295D02*
X113653696Y-78972390D01*
X113653696Y-78972390D02*
X113577505Y-79048580D01*
X113577505Y-79048580D02*
X113539410Y-79200961D01*
X113539410Y-79200961D02*
X113539410Y-79467628D01*
X113539410Y-79467628D02*
X113577505Y-79620009D01*
X113577505Y-79620009D02*
X113653696Y-79696200D01*
X113653696Y-79696200D02*
X113729886Y-79734295D01*
X113729886Y-79734295D02*
X113882267Y-79734295D01*
X113882267Y-79734295D02*
X113958458Y-79696200D01*
X113958458Y-79696200D02*
X114034648Y-79620009D01*
X114034648Y-79620009D02*
X114072744Y-79467628D01*
X114072744Y-79467628D02*
X114072744Y-79200961D01*
X114072744Y-79200961D02*
X114034648Y-79048580D01*
X114034648Y-79048580D02*
X113958458Y-78972390D01*
X113958458Y-78972390D02*
X113882267Y-78934295D01*
X113044172Y-78934295D02*
X112967982Y-78934295D01*
X112967982Y-78934295D02*
X112891791Y-78972390D01*
X112891791Y-78972390D02*
X112853696Y-79010485D01*
X112853696Y-79010485D02*
X112815601Y-79086676D01*
X112815601Y-79086676D02*
X112777506Y-79239057D01*
X112777506Y-79239057D02*
X112777506Y-79429533D01*
X112777506Y-79429533D02*
X112815601Y-79581914D01*
X112815601Y-79581914D02*
X112853696Y-79658104D01*
X112853696Y-79658104D02*
X112891791Y-79696200D01*
X112891791Y-79696200D02*
X112967982Y-79734295D01*
X112967982Y-79734295D02*
X113044172Y-79734295D01*
X113044172Y-79734295D02*
X113120363Y-79696200D01*
X113120363Y-79696200D02*
X113158458Y-79658104D01*
X113158458Y-79658104D02*
X113196553Y-79581914D01*
X113196553Y-79581914D02*
X113234649Y-79429533D01*
X113234649Y-79429533D02*
X113234649Y-79239057D01*
X113234649Y-79239057D02*
X113196553Y-79086676D01*
X113196553Y-79086676D02*
X113158458Y-79010485D01*
X113158458Y-79010485D02*
X113120363Y-78972390D01*
X113120363Y-78972390D02*
X113044172Y-78934295D01*
X145091792Y-48332390D02*
X145167982Y-48294295D01*
X145167982Y-48294295D02*
X145282268Y-48294295D01*
X145282268Y-48294295D02*
X145396554Y-48332390D01*
X145396554Y-48332390D02*
X145472744Y-48408580D01*
X145472744Y-48408580D02*
X145510839Y-48484771D01*
X145510839Y-48484771D02*
X145548935Y-48637152D01*
X145548935Y-48637152D02*
X145548935Y-48751438D01*
X145548935Y-48751438D02*
X145510839Y-48903819D01*
X145510839Y-48903819D02*
X145472744Y-48980009D01*
X145472744Y-48980009D02*
X145396554Y-49056200D01*
X145396554Y-49056200D02*
X145282268Y-49094295D01*
X145282268Y-49094295D02*
X145206077Y-49094295D01*
X145206077Y-49094295D02*
X145091792Y-49056200D01*
X145091792Y-49056200D02*
X145053696Y-49018104D01*
X145053696Y-49018104D02*
X145053696Y-48751438D01*
X145053696Y-48751438D02*
X145206077Y-48751438D01*
X115658458Y-118803152D02*
X115420363Y-119469819D01*
X115420363Y-119469819D02*
X115182268Y-118803152D01*
X114277506Y-119469819D02*
X114848934Y-119469819D01*
X114563220Y-119469819D02*
X114563220Y-118469819D01*
X114563220Y-118469819D02*
X114658458Y-118612676D01*
X114658458Y-118612676D02*
X114753696Y-118707914D01*
X114753696Y-118707914D02*
X114848934Y-118755533D01*
X113848934Y-119374580D02*
X113801315Y-119422200D01*
X113801315Y-119422200D02*
X113848934Y-119469819D01*
X113848934Y-119469819D02*
X113896553Y-119422200D01*
X113896553Y-119422200D02*
X113848934Y-119374580D01*
X113848934Y-119374580D02*
X113848934Y-119469819D01*
X112848935Y-119469819D02*
X113420363Y-119469819D01*
X113134649Y-119469819D02*
X113134649Y-118469819D01*
X113134649Y-118469819D02*
X113229887Y-118612676D01*
X113229887Y-118612676D02*
X113325125Y-118707914D01*
X113325125Y-118707914D02*
X113420363Y-118755533D01*
X146101315Y-55944295D02*
X145948934Y-55944295D01*
X145948934Y-55944295D02*
X145872744Y-55982390D01*
X145872744Y-55982390D02*
X145796553Y-56058580D01*
X145796553Y-56058580D02*
X145758458Y-56210961D01*
X145758458Y-56210961D02*
X145758458Y-56477628D01*
X145758458Y-56477628D02*
X145796553Y-56630009D01*
X145796553Y-56630009D02*
X145872744Y-56706200D01*
X145872744Y-56706200D02*
X145948934Y-56744295D01*
X145948934Y-56744295D02*
X146101315Y-56744295D01*
X146101315Y-56744295D02*
X146177506Y-56706200D01*
X146177506Y-56706200D02*
X146253696Y-56630009D01*
X146253696Y-56630009D02*
X146291792Y-56477628D01*
X146291792Y-56477628D02*
X146291792Y-56210961D01*
X146291792Y-56210961D02*
X146253696Y-56058580D01*
X146253696Y-56058580D02*
X146177506Y-55982390D01*
X146177506Y-55982390D02*
X146101315Y-55944295D01*
X145415601Y-55944295D02*
X145415601Y-56591914D01*
X145415601Y-56591914D02*
X145377506Y-56668104D01*
X145377506Y-56668104D02*
X145339411Y-56706200D01*
X145339411Y-56706200D02*
X145263220Y-56744295D01*
X145263220Y-56744295D02*
X145110839Y-56744295D01*
X145110839Y-56744295D02*
X145034649Y-56706200D01*
X145034649Y-56706200D02*
X144996554Y-56668104D01*
X144996554Y-56668104D02*
X144958458Y-56591914D01*
X144958458Y-56591914D02*
X144958458Y-55944295D01*
X144691792Y-55944295D02*
X144234649Y-55944295D01*
X144463221Y-56744295D02*
X144463221Y-55944295D01*
X113748934Y-84694295D02*
X114015601Y-84313342D01*
X114206077Y-84694295D02*
X114206077Y-83894295D01*
X114206077Y-83894295D02*
X113901315Y-83894295D01*
X113901315Y-83894295D02*
X113825125Y-83932390D01*
X113825125Y-83932390D02*
X113787030Y-83970485D01*
X113787030Y-83970485D02*
X113748934Y-84046676D01*
X113748934Y-84046676D02*
X113748934Y-84160961D01*
X113748934Y-84160961D02*
X113787030Y-84237152D01*
X113787030Y-84237152D02*
X113825125Y-84275247D01*
X113825125Y-84275247D02*
X113901315Y-84313342D01*
X113901315Y-84313342D02*
X114206077Y-84313342D01*
X113482268Y-83894295D02*
X112948934Y-84694295D01*
X112948934Y-83894295D02*
X113482268Y-84694295D01*
X145529888Y-51606200D02*
X145415602Y-51644295D01*
X145415602Y-51644295D02*
X145225126Y-51644295D01*
X145225126Y-51644295D02*
X145148935Y-51606200D01*
X145148935Y-51606200D02*
X145110840Y-51568104D01*
X145110840Y-51568104D02*
X145072745Y-51491914D01*
X145072745Y-51491914D02*
X145072745Y-51415723D01*
X145072745Y-51415723D02*
X145110840Y-51339533D01*
X145110840Y-51339533D02*
X145148935Y-51301438D01*
X145148935Y-51301438D02*
X145225126Y-51263342D01*
X145225126Y-51263342D02*
X145377507Y-51225247D01*
X145377507Y-51225247D02*
X145453697Y-51187152D01*
X145453697Y-51187152D02*
X145491792Y-51149057D01*
X145491792Y-51149057D02*
X145529888Y-51072866D01*
X145529888Y-51072866D02*
X145529888Y-50996676D01*
X145529888Y-50996676D02*
X145491792Y-50920485D01*
X145491792Y-50920485D02*
X145453697Y-50882390D01*
X145453697Y-50882390D02*
X145377507Y-50844295D01*
X145377507Y-50844295D02*
X145187030Y-50844295D01*
X145187030Y-50844295D02*
X145072745Y-50882390D01*
X145720363Y-64394295D02*
X145720363Y-63594295D01*
X145339411Y-64394295D02*
X145339411Y-63594295D01*
X145339411Y-63594295D02*
X144882268Y-64394295D01*
X144882268Y-64394295D02*
X144882268Y-63594295D01*
X145987031Y-59256200D02*
X145872745Y-59294295D01*
X145872745Y-59294295D02*
X145682269Y-59294295D01*
X145682269Y-59294295D02*
X145606078Y-59256200D01*
X145606078Y-59256200D02*
X145567983Y-59218104D01*
X145567983Y-59218104D02*
X145529888Y-59141914D01*
X145529888Y-59141914D02*
X145529888Y-59065723D01*
X145529888Y-59065723D02*
X145567983Y-58989533D01*
X145567983Y-58989533D02*
X145606078Y-58951438D01*
X145606078Y-58951438D02*
X145682269Y-58913342D01*
X145682269Y-58913342D02*
X145834650Y-58875247D01*
X145834650Y-58875247D02*
X145910840Y-58837152D01*
X145910840Y-58837152D02*
X145948935Y-58799057D01*
X145948935Y-58799057D02*
X145987031Y-58722866D01*
X145987031Y-58722866D02*
X145987031Y-58646676D01*
X145987031Y-58646676D02*
X145948935Y-58570485D01*
X145948935Y-58570485D02*
X145910840Y-58532390D01*
X145910840Y-58532390D02*
X145834650Y-58494295D01*
X145834650Y-58494295D02*
X145644173Y-58494295D01*
X145644173Y-58494295D02*
X145529888Y-58532390D01*
X145263221Y-58494295D02*
X145072745Y-59294295D01*
X145072745Y-59294295D02*
X144920364Y-58722866D01*
X144920364Y-58722866D02*
X144767983Y-59294295D01*
X144767983Y-59294295D02*
X144577507Y-58494295D01*
X114053696Y-77254295D02*
X114320363Y-76873342D01*
X114510839Y-77254295D02*
X114510839Y-76454295D01*
X114510839Y-76454295D02*
X114206077Y-76454295D01*
X114206077Y-76454295D02*
X114129887Y-76492390D01*
X114129887Y-76492390D02*
X114091792Y-76530485D01*
X114091792Y-76530485D02*
X114053696Y-76606676D01*
X114053696Y-76606676D02*
X114053696Y-76720961D01*
X114053696Y-76720961D02*
X114091792Y-76797152D01*
X114091792Y-76797152D02*
X114129887Y-76835247D01*
X114129887Y-76835247D02*
X114206077Y-76873342D01*
X114206077Y-76873342D02*
X114510839Y-76873342D01*
X113748935Y-77216200D02*
X113634649Y-77254295D01*
X113634649Y-77254295D02*
X113444173Y-77254295D01*
X113444173Y-77254295D02*
X113367982Y-77216200D01*
X113367982Y-77216200D02*
X113329887Y-77178104D01*
X113329887Y-77178104D02*
X113291792Y-77101914D01*
X113291792Y-77101914D02*
X113291792Y-77025723D01*
X113291792Y-77025723D02*
X113329887Y-76949533D01*
X113329887Y-76949533D02*
X113367982Y-76911438D01*
X113367982Y-76911438D02*
X113444173Y-76873342D01*
X113444173Y-76873342D02*
X113596554Y-76835247D01*
X113596554Y-76835247D02*
X113672744Y-76797152D01*
X113672744Y-76797152D02*
X113710839Y-76759057D01*
X113710839Y-76759057D02*
X113748935Y-76682866D01*
X113748935Y-76682866D02*
X113748935Y-76606676D01*
X113748935Y-76606676D02*
X113710839Y-76530485D01*
X113710839Y-76530485D02*
X113672744Y-76492390D01*
X113672744Y-76492390D02*
X113596554Y-76454295D01*
X113596554Y-76454295D02*
X113406077Y-76454295D01*
X113406077Y-76454295D02*
X113291792Y-76492390D01*
X113063220Y-76454295D02*
X112606077Y-76454295D01*
X112834649Y-77254295D02*
X112834649Y-76454295D01*
X114910839Y-91489533D02*
X114301316Y-91489533D01*
X114606077Y-91794295D02*
X114606077Y-91184771D01*
X134133332Y-80862295D02*
X134399999Y-80481342D01*
X134590475Y-80862295D02*
X134590475Y-80062295D01*
X134590475Y-80062295D02*
X134285713Y-80062295D01*
X134285713Y-80062295D02*
X134209523Y-80100390D01*
X134209523Y-80100390D02*
X134171428Y-80138485D01*
X134171428Y-80138485D02*
X134133332Y-80214676D01*
X134133332Y-80214676D02*
X134133332Y-80328961D01*
X134133332Y-80328961D02*
X134171428Y-80405152D01*
X134171428Y-80405152D02*
X134209523Y-80443247D01*
X134209523Y-80443247D02*
X134285713Y-80481342D01*
X134285713Y-80481342D02*
X134590475Y-80481342D01*
X133447618Y-80062295D02*
X133599999Y-80062295D01*
X133599999Y-80062295D02*
X133676190Y-80100390D01*
X133676190Y-80100390D02*
X133714285Y-80138485D01*
X133714285Y-80138485D02*
X133790475Y-80252771D01*
X133790475Y-80252771D02*
X133828571Y-80405152D01*
X133828571Y-80405152D02*
X133828571Y-80709914D01*
X133828571Y-80709914D02*
X133790475Y-80786104D01*
X133790475Y-80786104D02*
X133752380Y-80824200D01*
X133752380Y-80824200D02*
X133676190Y-80862295D01*
X133676190Y-80862295D02*
X133523809Y-80862295D01*
X133523809Y-80862295D02*
X133447618Y-80824200D01*
X133447618Y-80824200D02*
X133409523Y-80786104D01*
X133409523Y-80786104D02*
X133371428Y-80709914D01*
X133371428Y-80709914D02*
X133371428Y-80519438D01*
X133371428Y-80519438D02*
X133409523Y-80443247D01*
X133409523Y-80443247D02*
X133447618Y-80405152D01*
X133447618Y-80405152D02*
X133523809Y-80367057D01*
X133523809Y-80367057D02*
X133676190Y-80367057D01*
X133676190Y-80367057D02*
X133752380Y-80405152D01*
X133752380Y-80405152D02*
X133790475Y-80443247D01*
X133790475Y-80443247D02*
X133828571Y-80519438D01*
X148814285Y-105962295D02*
X149080952Y-105581342D01*
X149271428Y-105962295D02*
X149271428Y-105162295D01*
X149271428Y-105162295D02*
X148966666Y-105162295D01*
X148966666Y-105162295D02*
X148890476Y-105200390D01*
X148890476Y-105200390D02*
X148852381Y-105238485D01*
X148852381Y-105238485D02*
X148814285Y-105314676D01*
X148814285Y-105314676D02*
X148814285Y-105428961D01*
X148814285Y-105428961D02*
X148852381Y-105505152D01*
X148852381Y-105505152D02*
X148890476Y-105543247D01*
X148890476Y-105543247D02*
X148966666Y-105581342D01*
X148966666Y-105581342D02*
X149271428Y-105581342D01*
X148509524Y-105238485D02*
X148471428Y-105200390D01*
X148471428Y-105200390D02*
X148395238Y-105162295D01*
X148395238Y-105162295D02*
X148204762Y-105162295D01*
X148204762Y-105162295D02*
X148128571Y-105200390D01*
X148128571Y-105200390D02*
X148090476Y-105238485D01*
X148090476Y-105238485D02*
X148052381Y-105314676D01*
X148052381Y-105314676D02*
X148052381Y-105390866D01*
X148052381Y-105390866D02*
X148090476Y-105505152D01*
X148090476Y-105505152D02*
X148547619Y-105962295D01*
X148547619Y-105962295D02*
X148052381Y-105962295D01*
X147671428Y-105962295D02*
X147519047Y-105962295D01*
X147519047Y-105962295D02*
X147442857Y-105924200D01*
X147442857Y-105924200D02*
X147404761Y-105886104D01*
X147404761Y-105886104D02*
X147328571Y-105771819D01*
X147328571Y-105771819D02*
X147290476Y-105619438D01*
X147290476Y-105619438D02*
X147290476Y-105314676D01*
X147290476Y-105314676D02*
X147328571Y-105238485D01*
X147328571Y-105238485D02*
X147366666Y-105200390D01*
X147366666Y-105200390D02*
X147442857Y-105162295D01*
X147442857Y-105162295D02*
X147595238Y-105162295D01*
X147595238Y-105162295D02*
X147671428Y-105200390D01*
X147671428Y-105200390D02*
X147709523Y-105238485D01*
X147709523Y-105238485D02*
X147747619Y-105314676D01*
X147747619Y-105314676D02*
X147747619Y-105505152D01*
X147747619Y-105505152D02*
X147709523Y-105581342D01*
X147709523Y-105581342D02*
X147671428Y-105619438D01*
X147671428Y-105619438D02*
X147595238Y-105657533D01*
X147595238Y-105657533D02*
X147442857Y-105657533D01*
X147442857Y-105657533D02*
X147366666Y-105619438D01*
X147366666Y-105619438D02*
X147328571Y-105581342D01*
X147328571Y-105581342D02*
X147290476Y-105505152D01*
X147062295Y-88585714D02*
X146681342Y-88319047D01*
X147062295Y-88128571D02*
X146262295Y-88128571D01*
X146262295Y-88128571D02*
X146262295Y-88433333D01*
X146262295Y-88433333D02*
X146300390Y-88509523D01*
X146300390Y-88509523D02*
X146338485Y-88547618D01*
X146338485Y-88547618D02*
X146414676Y-88585714D01*
X146414676Y-88585714D02*
X146528961Y-88585714D01*
X146528961Y-88585714D02*
X146605152Y-88547618D01*
X146605152Y-88547618D02*
X146643247Y-88509523D01*
X146643247Y-88509523D02*
X146681342Y-88433333D01*
X146681342Y-88433333D02*
X146681342Y-88128571D01*
X147062295Y-89347618D02*
X147062295Y-88890475D01*
X147062295Y-89119047D02*
X146262295Y-89119047D01*
X146262295Y-89119047D02*
X146376580Y-89042856D01*
X146376580Y-89042856D02*
X146452771Y-88966666D01*
X146452771Y-88966666D02*
X146490866Y-88890475D01*
X146262295Y-89842857D02*
X146262295Y-89919047D01*
X146262295Y-89919047D02*
X146300390Y-89995238D01*
X146300390Y-89995238D02*
X146338485Y-90033333D01*
X146338485Y-90033333D02*
X146414676Y-90071428D01*
X146414676Y-90071428D02*
X146567057Y-90109523D01*
X146567057Y-90109523D02*
X146757533Y-90109523D01*
X146757533Y-90109523D02*
X146909914Y-90071428D01*
X146909914Y-90071428D02*
X146986104Y-90033333D01*
X146986104Y-90033333D02*
X147024200Y-89995238D01*
X147024200Y-89995238D02*
X147062295Y-89919047D01*
X147062295Y-89919047D02*
X147062295Y-89842857D01*
X147062295Y-89842857D02*
X147024200Y-89766666D01*
X147024200Y-89766666D02*
X146986104Y-89728571D01*
X146986104Y-89728571D02*
X146909914Y-89690476D01*
X146909914Y-89690476D02*
X146757533Y-89652380D01*
X146757533Y-89652380D02*
X146567057Y-89652380D01*
X146567057Y-89652380D02*
X146414676Y-89690476D01*
X146414676Y-89690476D02*
X146338485Y-89728571D01*
X146338485Y-89728571D02*
X146300390Y-89766666D01*
X146300390Y-89766666D02*
X146262295Y-89842857D01*
X136612295Y-82616667D02*
X136231342Y-82350000D01*
X136612295Y-82159524D02*
X135812295Y-82159524D01*
X135812295Y-82159524D02*
X135812295Y-82464286D01*
X135812295Y-82464286D02*
X135850390Y-82540476D01*
X135850390Y-82540476D02*
X135888485Y-82578571D01*
X135888485Y-82578571D02*
X135964676Y-82616667D01*
X135964676Y-82616667D02*
X136078961Y-82616667D01*
X136078961Y-82616667D02*
X136155152Y-82578571D01*
X136155152Y-82578571D02*
X136193247Y-82540476D01*
X136193247Y-82540476D02*
X136231342Y-82464286D01*
X136231342Y-82464286D02*
X136231342Y-82159524D01*
X136612295Y-83378571D02*
X136612295Y-82921428D01*
X136612295Y-83150000D02*
X135812295Y-83150000D01*
X135812295Y-83150000D02*
X135926580Y-83073809D01*
X135926580Y-83073809D02*
X136002771Y-82997619D01*
X136002771Y-82997619D02*
X136040866Y-82921428D01*
X137764285Y-94612295D02*
X138030952Y-94231342D01*
X138221428Y-94612295D02*
X138221428Y-93812295D01*
X138221428Y-93812295D02*
X137916666Y-93812295D01*
X137916666Y-93812295D02*
X137840476Y-93850390D01*
X137840476Y-93850390D02*
X137802381Y-93888485D01*
X137802381Y-93888485D02*
X137764285Y-93964676D01*
X137764285Y-93964676D02*
X137764285Y-94078961D01*
X137764285Y-94078961D02*
X137802381Y-94155152D01*
X137802381Y-94155152D02*
X137840476Y-94193247D01*
X137840476Y-94193247D02*
X137916666Y-94231342D01*
X137916666Y-94231342D02*
X138221428Y-94231342D01*
X137459524Y-93888485D02*
X137421428Y-93850390D01*
X137421428Y-93850390D02*
X137345238Y-93812295D01*
X137345238Y-93812295D02*
X137154762Y-93812295D01*
X137154762Y-93812295D02*
X137078571Y-93850390D01*
X137078571Y-93850390D02*
X137040476Y-93888485D01*
X137040476Y-93888485D02*
X137002381Y-93964676D01*
X137002381Y-93964676D02*
X137002381Y-94040866D01*
X137002381Y-94040866D02*
X137040476Y-94155152D01*
X137040476Y-94155152D02*
X137497619Y-94612295D01*
X137497619Y-94612295D02*
X137002381Y-94612295D01*
X136316666Y-93812295D02*
X136469047Y-93812295D01*
X136469047Y-93812295D02*
X136545238Y-93850390D01*
X136545238Y-93850390D02*
X136583333Y-93888485D01*
X136583333Y-93888485D02*
X136659523Y-94002771D01*
X136659523Y-94002771D02*
X136697619Y-94155152D01*
X136697619Y-94155152D02*
X136697619Y-94459914D01*
X136697619Y-94459914D02*
X136659523Y-94536104D01*
X136659523Y-94536104D02*
X136621428Y-94574200D01*
X136621428Y-94574200D02*
X136545238Y-94612295D01*
X136545238Y-94612295D02*
X136392857Y-94612295D01*
X136392857Y-94612295D02*
X136316666Y-94574200D01*
X136316666Y-94574200D02*
X136278571Y-94536104D01*
X136278571Y-94536104D02*
X136240476Y-94459914D01*
X136240476Y-94459914D02*
X136240476Y-94269438D01*
X136240476Y-94269438D02*
X136278571Y-94193247D01*
X136278571Y-94193247D02*
X136316666Y-94155152D01*
X136316666Y-94155152D02*
X136392857Y-94117057D01*
X136392857Y-94117057D02*
X136545238Y-94117057D01*
X136545238Y-94117057D02*
X136621428Y-94155152D01*
X136621428Y-94155152D02*
X136659523Y-94193247D01*
X136659523Y-94193247D02*
X136697619Y-94269438D01*
X136662295Y-61909524D02*
X135862295Y-61909524D01*
X135862295Y-61909524D02*
X135862295Y-62100000D01*
X135862295Y-62100000D02*
X135900390Y-62214286D01*
X135900390Y-62214286D02*
X135976580Y-62290476D01*
X135976580Y-62290476D02*
X136052771Y-62328571D01*
X136052771Y-62328571D02*
X136205152Y-62366667D01*
X136205152Y-62366667D02*
X136319438Y-62366667D01*
X136319438Y-62366667D02*
X136471819Y-62328571D01*
X136471819Y-62328571D02*
X136548009Y-62290476D01*
X136548009Y-62290476D02*
X136624200Y-62214286D01*
X136624200Y-62214286D02*
X136662295Y-62100000D01*
X136662295Y-62100000D02*
X136662295Y-61909524D01*
X135862295Y-62633333D02*
X135862295Y-63128571D01*
X135862295Y-63128571D02*
X136167057Y-62861905D01*
X136167057Y-62861905D02*
X136167057Y-62976190D01*
X136167057Y-62976190D02*
X136205152Y-63052381D01*
X136205152Y-63052381D02*
X136243247Y-63090476D01*
X136243247Y-63090476D02*
X136319438Y-63128571D01*
X136319438Y-63128571D02*
X136509914Y-63128571D01*
X136509914Y-63128571D02*
X136586104Y-63090476D01*
X136586104Y-63090476D02*
X136624200Y-63052381D01*
X136624200Y-63052381D02*
X136662295Y-62976190D01*
X136662295Y-62976190D02*
X136662295Y-62747619D01*
X136662295Y-62747619D02*
X136624200Y-62671428D01*
X136624200Y-62671428D02*
X136586104Y-62633333D01*
X133014285Y-69512295D02*
X133280952Y-69131342D01*
X133471428Y-69512295D02*
X133471428Y-68712295D01*
X133471428Y-68712295D02*
X133166666Y-68712295D01*
X133166666Y-68712295D02*
X133090476Y-68750390D01*
X133090476Y-68750390D02*
X133052381Y-68788485D01*
X133052381Y-68788485D02*
X133014285Y-68864676D01*
X133014285Y-68864676D02*
X133014285Y-68978961D01*
X133014285Y-68978961D02*
X133052381Y-69055152D01*
X133052381Y-69055152D02*
X133090476Y-69093247D01*
X133090476Y-69093247D02*
X133166666Y-69131342D01*
X133166666Y-69131342D02*
X133471428Y-69131342D01*
X132709524Y-68788485D02*
X132671428Y-68750390D01*
X132671428Y-68750390D02*
X132595238Y-68712295D01*
X132595238Y-68712295D02*
X132404762Y-68712295D01*
X132404762Y-68712295D02*
X132328571Y-68750390D01*
X132328571Y-68750390D02*
X132290476Y-68788485D01*
X132290476Y-68788485D02*
X132252381Y-68864676D01*
X132252381Y-68864676D02*
X132252381Y-68940866D01*
X132252381Y-68940866D02*
X132290476Y-69055152D01*
X132290476Y-69055152D02*
X132747619Y-69512295D01*
X132747619Y-69512295D02*
X132252381Y-69512295D01*
X131490476Y-69512295D02*
X131947619Y-69512295D01*
X131719047Y-69512295D02*
X131719047Y-68712295D01*
X131719047Y-68712295D02*
X131795238Y-68826580D01*
X131795238Y-68826580D02*
X131871428Y-68902771D01*
X131871428Y-68902771D02*
X131947619Y-68940866D01*
X124133332Y-85362295D02*
X124399999Y-84981342D01*
X124590475Y-85362295D02*
X124590475Y-84562295D01*
X124590475Y-84562295D02*
X124285713Y-84562295D01*
X124285713Y-84562295D02*
X124209523Y-84600390D01*
X124209523Y-84600390D02*
X124171428Y-84638485D01*
X124171428Y-84638485D02*
X124133332Y-84714676D01*
X124133332Y-84714676D02*
X124133332Y-84828961D01*
X124133332Y-84828961D02*
X124171428Y-84905152D01*
X124171428Y-84905152D02*
X124209523Y-84943247D01*
X124209523Y-84943247D02*
X124285713Y-84981342D01*
X124285713Y-84981342D02*
X124590475Y-84981342D01*
X123447618Y-84828961D02*
X123447618Y-85362295D01*
X123638094Y-84524200D02*
X123828571Y-85095628D01*
X123828571Y-85095628D02*
X123333332Y-85095628D01*
X137514285Y-48112295D02*
X137780952Y-47731342D01*
X137971428Y-48112295D02*
X137971428Y-47312295D01*
X137971428Y-47312295D02*
X137666666Y-47312295D01*
X137666666Y-47312295D02*
X137590476Y-47350390D01*
X137590476Y-47350390D02*
X137552381Y-47388485D01*
X137552381Y-47388485D02*
X137514285Y-47464676D01*
X137514285Y-47464676D02*
X137514285Y-47578961D01*
X137514285Y-47578961D02*
X137552381Y-47655152D01*
X137552381Y-47655152D02*
X137590476Y-47693247D01*
X137590476Y-47693247D02*
X137666666Y-47731342D01*
X137666666Y-47731342D02*
X137971428Y-47731342D01*
X136752381Y-48112295D02*
X137209524Y-48112295D01*
X136980952Y-48112295D02*
X136980952Y-47312295D01*
X136980952Y-47312295D02*
X137057143Y-47426580D01*
X137057143Y-47426580D02*
X137133333Y-47502771D01*
X137133333Y-47502771D02*
X137209524Y-47540866D01*
X136371428Y-48112295D02*
X136219047Y-48112295D01*
X136219047Y-48112295D02*
X136142857Y-48074200D01*
X136142857Y-48074200D02*
X136104761Y-48036104D01*
X136104761Y-48036104D02*
X136028571Y-47921819D01*
X136028571Y-47921819D02*
X135990476Y-47769438D01*
X135990476Y-47769438D02*
X135990476Y-47464676D01*
X135990476Y-47464676D02*
X136028571Y-47388485D01*
X136028571Y-47388485D02*
X136066666Y-47350390D01*
X136066666Y-47350390D02*
X136142857Y-47312295D01*
X136142857Y-47312295D02*
X136295238Y-47312295D01*
X136295238Y-47312295D02*
X136371428Y-47350390D01*
X136371428Y-47350390D02*
X136409523Y-47388485D01*
X136409523Y-47388485D02*
X136447619Y-47464676D01*
X136447619Y-47464676D02*
X136447619Y-47655152D01*
X136447619Y-47655152D02*
X136409523Y-47731342D01*
X136409523Y-47731342D02*
X136371428Y-47769438D01*
X136371428Y-47769438D02*
X136295238Y-47807533D01*
X136295238Y-47807533D02*
X136142857Y-47807533D01*
X136142857Y-47807533D02*
X136066666Y-47769438D01*
X136066666Y-47769438D02*
X136028571Y-47731342D01*
X136028571Y-47731342D02*
X135990476Y-47655152D01*
X147966666Y-45962295D02*
X147966666Y-46533723D01*
X147966666Y-46533723D02*
X148004761Y-46648009D01*
X148004761Y-46648009D02*
X148080952Y-46724200D01*
X148080952Y-46724200D02*
X148195237Y-46762295D01*
X148195237Y-46762295D02*
X148271428Y-46762295D01*
X147242856Y-46228961D02*
X147242856Y-46762295D01*
X147433332Y-45924200D02*
X147623809Y-46495628D01*
X147623809Y-46495628D02*
X147128570Y-46495628D01*
X148814285Y-108162295D02*
X149080952Y-107781342D01*
X149271428Y-108162295D02*
X149271428Y-107362295D01*
X149271428Y-107362295D02*
X148966666Y-107362295D01*
X148966666Y-107362295D02*
X148890476Y-107400390D01*
X148890476Y-107400390D02*
X148852381Y-107438485D01*
X148852381Y-107438485D02*
X148814285Y-107514676D01*
X148814285Y-107514676D02*
X148814285Y-107628961D01*
X148814285Y-107628961D02*
X148852381Y-107705152D01*
X148852381Y-107705152D02*
X148890476Y-107743247D01*
X148890476Y-107743247D02*
X148966666Y-107781342D01*
X148966666Y-107781342D02*
X149271428Y-107781342D01*
X148547619Y-107362295D02*
X148052381Y-107362295D01*
X148052381Y-107362295D02*
X148319047Y-107667057D01*
X148319047Y-107667057D02*
X148204762Y-107667057D01*
X148204762Y-107667057D02*
X148128571Y-107705152D01*
X148128571Y-107705152D02*
X148090476Y-107743247D01*
X148090476Y-107743247D02*
X148052381Y-107819438D01*
X148052381Y-107819438D02*
X148052381Y-108009914D01*
X148052381Y-108009914D02*
X148090476Y-108086104D01*
X148090476Y-108086104D02*
X148128571Y-108124200D01*
X148128571Y-108124200D02*
X148204762Y-108162295D01*
X148204762Y-108162295D02*
X148433333Y-108162295D01*
X148433333Y-108162295D02*
X148509524Y-108124200D01*
X148509524Y-108124200D02*
X148547619Y-108086104D01*
X147557142Y-107362295D02*
X147480952Y-107362295D01*
X147480952Y-107362295D02*
X147404761Y-107400390D01*
X147404761Y-107400390D02*
X147366666Y-107438485D01*
X147366666Y-107438485D02*
X147328571Y-107514676D01*
X147328571Y-107514676D02*
X147290476Y-107667057D01*
X147290476Y-107667057D02*
X147290476Y-107857533D01*
X147290476Y-107857533D02*
X147328571Y-108009914D01*
X147328571Y-108009914D02*
X147366666Y-108086104D01*
X147366666Y-108086104D02*
X147404761Y-108124200D01*
X147404761Y-108124200D02*
X147480952Y-108162295D01*
X147480952Y-108162295D02*
X147557142Y-108162295D01*
X147557142Y-108162295D02*
X147633333Y-108124200D01*
X147633333Y-108124200D02*
X147671428Y-108086104D01*
X147671428Y-108086104D02*
X147709523Y-108009914D01*
X147709523Y-108009914D02*
X147747619Y-107857533D01*
X147747619Y-107857533D02*
X147747619Y-107667057D01*
X147747619Y-107667057D02*
X147709523Y-107514676D01*
X147709523Y-107514676D02*
X147671428Y-107438485D01*
X147671428Y-107438485D02*
X147633333Y-107400390D01*
X147633333Y-107400390D02*
X147557142Y-107362295D01*
X136612295Y-84866667D02*
X136231342Y-84600000D01*
X136612295Y-84409524D02*
X135812295Y-84409524D01*
X135812295Y-84409524D02*
X135812295Y-84714286D01*
X135812295Y-84714286D02*
X135850390Y-84790476D01*
X135850390Y-84790476D02*
X135888485Y-84828571D01*
X135888485Y-84828571D02*
X135964676Y-84866667D01*
X135964676Y-84866667D02*
X136078961Y-84866667D01*
X136078961Y-84866667D02*
X136155152Y-84828571D01*
X136155152Y-84828571D02*
X136193247Y-84790476D01*
X136193247Y-84790476D02*
X136231342Y-84714286D01*
X136231342Y-84714286D02*
X136231342Y-84409524D01*
X135888485Y-85171428D02*
X135850390Y-85209524D01*
X135850390Y-85209524D02*
X135812295Y-85285714D01*
X135812295Y-85285714D02*
X135812295Y-85476190D01*
X135812295Y-85476190D02*
X135850390Y-85552381D01*
X135850390Y-85552381D02*
X135888485Y-85590476D01*
X135888485Y-85590476D02*
X135964676Y-85628571D01*
X135964676Y-85628571D02*
X136040866Y-85628571D01*
X136040866Y-85628571D02*
X136155152Y-85590476D01*
X136155152Y-85590476D02*
X136612295Y-85133333D01*
X136612295Y-85133333D02*
X136612295Y-85628571D01*
X136662295Y-56209524D02*
X135862295Y-56209524D01*
X135862295Y-56209524D02*
X135862295Y-56400000D01*
X135862295Y-56400000D02*
X135900390Y-56514286D01*
X135900390Y-56514286D02*
X135976580Y-56590476D01*
X135976580Y-56590476D02*
X136052771Y-56628571D01*
X136052771Y-56628571D02*
X136205152Y-56666667D01*
X136205152Y-56666667D02*
X136319438Y-56666667D01*
X136319438Y-56666667D02*
X136471819Y-56628571D01*
X136471819Y-56628571D02*
X136548009Y-56590476D01*
X136548009Y-56590476D02*
X136624200Y-56514286D01*
X136624200Y-56514286D02*
X136662295Y-56400000D01*
X136662295Y-56400000D02*
X136662295Y-56209524D01*
X135862295Y-57390476D02*
X135862295Y-57009524D01*
X135862295Y-57009524D02*
X136243247Y-56971428D01*
X136243247Y-56971428D02*
X136205152Y-57009524D01*
X136205152Y-57009524D02*
X136167057Y-57085714D01*
X136167057Y-57085714D02*
X136167057Y-57276190D01*
X136167057Y-57276190D02*
X136205152Y-57352381D01*
X136205152Y-57352381D02*
X136243247Y-57390476D01*
X136243247Y-57390476D02*
X136319438Y-57428571D01*
X136319438Y-57428571D02*
X136509914Y-57428571D01*
X136509914Y-57428571D02*
X136586104Y-57390476D01*
X136586104Y-57390476D02*
X136624200Y-57352381D01*
X136624200Y-57352381D02*
X136662295Y-57276190D01*
X136662295Y-57276190D02*
X136662295Y-57085714D01*
X136662295Y-57085714D02*
X136624200Y-57009524D01*
X136624200Y-57009524D02*
X136586104Y-56971428D01*
X136883332Y-40536104D02*
X136921428Y-40574200D01*
X136921428Y-40574200D02*
X137035713Y-40612295D01*
X137035713Y-40612295D02*
X137111904Y-40612295D01*
X137111904Y-40612295D02*
X137226190Y-40574200D01*
X137226190Y-40574200D02*
X137302380Y-40498009D01*
X137302380Y-40498009D02*
X137340475Y-40421819D01*
X137340475Y-40421819D02*
X137378571Y-40269438D01*
X137378571Y-40269438D02*
X137378571Y-40155152D01*
X137378571Y-40155152D02*
X137340475Y-40002771D01*
X137340475Y-40002771D02*
X137302380Y-39926580D01*
X137302380Y-39926580D02*
X137226190Y-39850390D01*
X137226190Y-39850390D02*
X137111904Y-39812295D01*
X137111904Y-39812295D02*
X137035713Y-39812295D01*
X137035713Y-39812295D02*
X136921428Y-39850390D01*
X136921428Y-39850390D02*
X136883332Y-39888485D01*
X136426190Y-40155152D02*
X136502380Y-40117057D01*
X136502380Y-40117057D02*
X136540475Y-40078961D01*
X136540475Y-40078961D02*
X136578571Y-40002771D01*
X136578571Y-40002771D02*
X136578571Y-39964676D01*
X136578571Y-39964676D02*
X136540475Y-39888485D01*
X136540475Y-39888485D02*
X136502380Y-39850390D01*
X136502380Y-39850390D02*
X136426190Y-39812295D01*
X136426190Y-39812295D02*
X136273809Y-39812295D01*
X136273809Y-39812295D02*
X136197618Y-39850390D01*
X136197618Y-39850390D02*
X136159523Y-39888485D01*
X136159523Y-39888485D02*
X136121428Y-39964676D01*
X136121428Y-39964676D02*
X136121428Y-40002771D01*
X136121428Y-40002771D02*
X136159523Y-40078961D01*
X136159523Y-40078961D02*
X136197618Y-40117057D01*
X136197618Y-40117057D02*
X136273809Y-40155152D01*
X136273809Y-40155152D02*
X136426190Y-40155152D01*
X136426190Y-40155152D02*
X136502380Y-40193247D01*
X136502380Y-40193247D02*
X136540475Y-40231342D01*
X136540475Y-40231342D02*
X136578571Y-40307533D01*
X136578571Y-40307533D02*
X136578571Y-40459914D01*
X136578571Y-40459914D02*
X136540475Y-40536104D01*
X136540475Y-40536104D02*
X136502380Y-40574200D01*
X136502380Y-40574200D02*
X136426190Y-40612295D01*
X136426190Y-40612295D02*
X136273809Y-40612295D01*
X136273809Y-40612295D02*
X136197618Y-40574200D01*
X136197618Y-40574200D02*
X136159523Y-40536104D01*
X136159523Y-40536104D02*
X136121428Y-40459914D01*
X136121428Y-40459914D02*
X136121428Y-40307533D01*
X136121428Y-40307533D02*
X136159523Y-40231342D01*
X136159523Y-40231342D02*
X136197618Y-40193247D01*
X136197618Y-40193247D02*
X136273809Y-40155152D01*
X114309523Y-45362295D02*
X114309523Y-46009914D01*
X114309523Y-46009914D02*
X114271428Y-46086104D01*
X114271428Y-46086104D02*
X114233333Y-46124200D01*
X114233333Y-46124200D02*
X114157142Y-46162295D01*
X114157142Y-46162295D02*
X114004761Y-46162295D01*
X114004761Y-46162295D02*
X113928571Y-46124200D01*
X113928571Y-46124200D02*
X113890476Y-46086104D01*
X113890476Y-46086104D02*
X113852380Y-46009914D01*
X113852380Y-46009914D02*
X113852380Y-45362295D01*
X113128571Y-45628961D02*
X113128571Y-46162295D01*
X113319047Y-45324200D02*
X113509524Y-45895628D01*
X113509524Y-45895628D02*
X113014285Y-45895628D01*
X112143723Y-51940475D02*
X112143723Y-52321428D01*
X112372295Y-51864285D02*
X111572295Y-52130952D01*
X111572295Y-52130952D02*
X112372295Y-52397618D01*
X111838961Y-52664285D02*
X112372295Y-52664285D01*
X111915152Y-52664285D02*
X111877057Y-52702380D01*
X111877057Y-52702380D02*
X111838961Y-52778570D01*
X111838961Y-52778570D02*
X111838961Y-52892856D01*
X111838961Y-52892856D02*
X111877057Y-52969047D01*
X111877057Y-52969047D02*
X111953247Y-53007142D01*
X111953247Y-53007142D02*
X112372295Y-53007142D01*
X111838961Y-53273809D02*
X111838961Y-53578571D01*
X111572295Y-53388095D02*
X112258009Y-53388095D01*
X112258009Y-53388095D02*
X112334200Y-53426190D01*
X112334200Y-53426190D02*
X112372295Y-53502380D01*
X112372295Y-53502380D02*
X112372295Y-53578571D01*
X112334200Y-54150000D02*
X112372295Y-54073809D01*
X112372295Y-54073809D02*
X112372295Y-53921428D01*
X112372295Y-53921428D02*
X112334200Y-53845238D01*
X112334200Y-53845238D02*
X112258009Y-53807142D01*
X112258009Y-53807142D02*
X111953247Y-53807142D01*
X111953247Y-53807142D02*
X111877057Y-53845238D01*
X111877057Y-53845238D02*
X111838961Y-53921428D01*
X111838961Y-53921428D02*
X111838961Y-54073809D01*
X111838961Y-54073809D02*
X111877057Y-54150000D01*
X111877057Y-54150000D02*
X111953247Y-54188095D01*
X111953247Y-54188095D02*
X112029438Y-54188095D01*
X112029438Y-54188095D02*
X112105628Y-53807142D01*
X111838961Y-54530952D02*
X112372295Y-54530952D01*
X111915152Y-54530952D02*
X111877057Y-54569047D01*
X111877057Y-54569047D02*
X111838961Y-54645237D01*
X111838961Y-54645237D02*
X111838961Y-54759523D01*
X111838961Y-54759523D02*
X111877057Y-54835714D01*
X111877057Y-54835714D02*
X111953247Y-54873809D01*
X111953247Y-54873809D02*
X112372295Y-54873809D01*
X111838961Y-55254762D02*
X112372295Y-55254762D01*
X111915152Y-55254762D02*
X111877057Y-55292857D01*
X111877057Y-55292857D02*
X111838961Y-55369047D01*
X111838961Y-55369047D02*
X111838961Y-55483333D01*
X111838961Y-55483333D02*
X111877057Y-55559524D01*
X111877057Y-55559524D02*
X111953247Y-55597619D01*
X111953247Y-55597619D02*
X112372295Y-55597619D01*
X112372295Y-56321429D02*
X111953247Y-56321429D01*
X111953247Y-56321429D02*
X111877057Y-56283334D01*
X111877057Y-56283334D02*
X111838961Y-56207143D01*
X111838961Y-56207143D02*
X111838961Y-56054762D01*
X111838961Y-56054762D02*
X111877057Y-55978572D01*
X112334200Y-56321429D02*
X112372295Y-56245238D01*
X112372295Y-56245238D02*
X112372295Y-56054762D01*
X112372295Y-56054762D02*
X112334200Y-55978572D01*
X112334200Y-55978572D02*
X112258009Y-55940476D01*
X112258009Y-55940476D02*
X112181819Y-55940476D01*
X112181819Y-55940476D02*
X112105628Y-55978572D01*
X112105628Y-55978572D02*
X112067533Y-56054762D01*
X112067533Y-56054762D02*
X112067533Y-56245238D01*
X112067533Y-56245238D02*
X112029438Y-56321429D01*
X112143723Y-57273810D02*
X112143723Y-57654763D01*
X112372295Y-57197620D02*
X111572295Y-57464287D01*
X111572295Y-57464287D02*
X112372295Y-57730953D01*
X112372295Y-57997620D02*
X111838961Y-57997620D01*
X111991342Y-57997620D02*
X111915152Y-58035715D01*
X111915152Y-58035715D02*
X111877057Y-58073810D01*
X111877057Y-58073810D02*
X111838961Y-58150001D01*
X111838961Y-58150001D02*
X111838961Y-58226191D01*
X112334200Y-58797620D02*
X112372295Y-58721429D01*
X112372295Y-58721429D02*
X112372295Y-58569048D01*
X112372295Y-58569048D02*
X112334200Y-58492858D01*
X112334200Y-58492858D02*
X112258009Y-58454762D01*
X112258009Y-58454762D02*
X111953247Y-58454762D01*
X111953247Y-58454762D02*
X111877057Y-58492858D01*
X111877057Y-58492858D02*
X111838961Y-58569048D01*
X111838961Y-58569048D02*
X111838961Y-58721429D01*
X111838961Y-58721429D02*
X111877057Y-58797620D01*
X111877057Y-58797620D02*
X111953247Y-58835715D01*
X111953247Y-58835715D02*
X112029438Y-58835715D01*
X112029438Y-58835715D02*
X112105628Y-58454762D01*
X112372295Y-59521429D02*
X111953247Y-59521429D01*
X111953247Y-59521429D02*
X111877057Y-59483334D01*
X111877057Y-59483334D02*
X111838961Y-59407143D01*
X111838961Y-59407143D02*
X111838961Y-59254762D01*
X111838961Y-59254762D02*
X111877057Y-59178572D01*
X112334200Y-59521429D02*
X112372295Y-59445238D01*
X112372295Y-59445238D02*
X112372295Y-59254762D01*
X112372295Y-59254762D02*
X112334200Y-59178572D01*
X112334200Y-59178572D02*
X112258009Y-59140476D01*
X112258009Y-59140476D02*
X112181819Y-59140476D01*
X112181819Y-59140476D02*
X112105628Y-59178572D01*
X112105628Y-59178572D02*
X112067533Y-59254762D01*
X112067533Y-59254762D02*
X112067533Y-59445238D01*
X112067533Y-59445238D02*
X112029438Y-59521429D01*
X124133332Y-83112295D02*
X124399999Y-82731342D01*
X124590475Y-83112295D02*
X124590475Y-82312295D01*
X124590475Y-82312295D02*
X124285713Y-82312295D01*
X124285713Y-82312295D02*
X124209523Y-82350390D01*
X124209523Y-82350390D02*
X124171428Y-82388485D01*
X124171428Y-82388485D02*
X124133332Y-82464676D01*
X124133332Y-82464676D02*
X124133332Y-82578961D01*
X124133332Y-82578961D02*
X124171428Y-82655152D01*
X124171428Y-82655152D02*
X124209523Y-82693247D01*
X124209523Y-82693247D02*
X124285713Y-82731342D01*
X124285713Y-82731342D02*
X124590475Y-82731342D01*
X123409523Y-82312295D02*
X123790475Y-82312295D01*
X123790475Y-82312295D02*
X123828571Y-82693247D01*
X123828571Y-82693247D02*
X123790475Y-82655152D01*
X123790475Y-82655152D02*
X123714285Y-82617057D01*
X123714285Y-82617057D02*
X123523809Y-82617057D01*
X123523809Y-82617057D02*
X123447618Y-82655152D01*
X123447618Y-82655152D02*
X123409523Y-82693247D01*
X123409523Y-82693247D02*
X123371428Y-82769438D01*
X123371428Y-82769438D02*
X123371428Y-82959914D01*
X123371428Y-82959914D02*
X123409523Y-83036104D01*
X123409523Y-83036104D02*
X123447618Y-83074200D01*
X123447618Y-83074200D02*
X123523809Y-83112295D01*
X123523809Y-83112295D02*
X123714285Y-83112295D01*
X123714285Y-83112295D02*
X123790475Y-83074200D01*
X123790475Y-83074200D02*
X123828571Y-83036104D01*
X144006190Y-67288485D02*
X144082380Y-67250390D01*
X144082380Y-67250390D02*
X144158571Y-67174200D01*
X144158571Y-67174200D02*
X144272857Y-67059914D01*
X144272857Y-67059914D02*
X144349047Y-67021819D01*
X144349047Y-67021819D02*
X144425238Y-67021819D01*
X144387142Y-67212295D02*
X144463333Y-67174200D01*
X144463333Y-67174200D02*
X144539523Y-67098009D01*
X144539523Y-67098009D02*
X144577619Y-66945628D01*
X144577619Y-66945628D02*
X144577619Y-66678961D01*
X144577619Y-66678961D02*
X144539523Y-66526580D01*
X144539523Y-66526580D02*
X144463333Y-66450390D01*
X144463333Y-66450390D02*
X144387142Y-66412295D01*
X144387142Y-66412295D02*
X144234761Y-66412295D01*
X144234761Y-66412295D02*
X144158571Y-66450390D01*
X144158571Y-66450390D02*
X144082380Y-66526580D01*
X144082380Y-66526580D02*
X144044285Y-66678961D01*
X144044285Y-66678961D02*
X144044285Y-66945628D01*
X144044285Y-66945628D02*
X144082380Y-67098009D01*
X144082380Y-67098009D02*
X144158571Y-67174200D01*
X144158571Y-67174200D02*
X144234761Y-67212295D01*
X144234761Y-67212295D02*
X144387142Y-67212295D01*
X143282381Y-67212295D02*
X143739524Y-67212295D01*
X143510952Y-67212295D02*
X143510952Y-66412295D01*
X143510952Y-66412295D02*
X143587143Y-66526580D01*
X143587143Y-66526580D02*
X143663333Y-66602771D01*
X143663333Y-66602771D02*
X143739524Y-66640866D01*
X143950057Y-53654761D02*
X143902438Y-53559523D01*
X143902438Y-53559523D02*
X143807200Y-53464285D01*
X143807200Y-53464285D02*
X143664342Y-53321428D01*
X143664342Y-53321428D02*
X143616723Y-53226190D01*
X143616723Y-53226190D02*
X143616723Y-53130952D01*
X143854819Y-53178571D02*
X143807200Y-53083333D01*
X143807200Y-53083333D02*
X143711961Y-52988095D01*
X143711961Y-52988095D02*
X143521485Y-52940476D01*
X143521485Y-52940476D02*
X143188152Y-52940476D01*
X143188152Y-52940476D02*
X142997676Y-52988095D01*
X142997676Y-52988095D02*
X142902438Y-53083333D01*
X142902438Y-53083333D02*
X142854819Y-53178571D01*
X142854819Y-53178571D02*
X142854819Y-53369047D01*
X142854819Y-53369047D02*
X142902438Y-53464285D01*
X142902438Y-53464285D02*
X142997676Y-53559523D01*
X142997676Y-53559523D02*
X143188152Y-53607142D01*
X143188152Y-53607142D02*
X143521485Y-53607142D01*
X143521485Y-53607142D02*
X143711961Y-53559523D01*
X143711961Y-53559523D02*
X143807200Y-53464285D01*
X143807200Y-53464285D02*
X143854819Y-53369047D01*
X143854819Y-53369047D02*
X143854819Y-53178571D01*
X143188152Y-54464285D02*
X143854819Y-54464285D01*
X142807200Y-54226190D02*
X143521485Y-53988095D01*
X143521485Y-53988095D02*
X143521485Y-54607142D01*
X125514285Y-36262295D02*
X125780952Y-35881342D01*
X125971428Y-36262295D02*
X125971428Y-35462295D01*
X125971428Y-35462295D02*
X125666666Y-35462295D01*
X125666666Y-35462295D02*
X125590476Y-35500390D01*
X125590476Y-35500390D02*
X125552381Y-35538485D01*
X125552381Y-35538485D02*
X125514285Y-35614676D01*
X125514285Y-35614676D02*
X125514285Y-35728961D01*
X125514285Y-35728961D02*
X125552381Y-35805152D01*
X125552381Y-35805152D02*
X125590476Y-35843247D01*
X125590476Y-35843247D02*
X125666666Y-35881342D01*
X125666666Y-35881342D02*
X125971428Y-35881342D01*
X125209524Y-35538485D02*
X125171428Y-35500390D01*
X125171428Y-35500390D02*
X125095238Y-35462295D01*
X125095238Y-35462295D02*
X124904762Y-35462295D01*
X124904762Y-35462295D02*
X124828571Y-35500390D01*
X124828571Y-35500390D02*
X124790476Y-35538485D01*
X124790476Y-35538485D02*
X124752381Y-35614676D01*
X124752381Y-35614676D02*
X124752381Y-35690866D01*
X124752381Y-35690866D02*
X124790476Y-35805152D01*
X124790476Y-35805152D02*
X125247619Y-36262295D01*
X125247619Y-36262295D02*
X124752381Y-36262295D01*
X124485714Y-35462295D02*
X123990476Y-35462295D01*
X123990476Y-35462295D02*
X124257142Y-35767057D01*
X124257142Y-35767057D02*
X124142857Y-35767057D01*
X124142857Y-35767057D02*
X124066666Y-35805152D01*
X124066666Y-35805152D02*
X124028571Y-35843247D01*
X124028571Y-35843247D02*
X123990476Y-35919438D01*
X123990476Y-35919438D02*
X123990476Y-36109914D01*
X123990476Y-36109914D02*
X124028571Y-36186104D01*
X124028571Y-36186104D02*
X124066666Y-36224200D01*
X124066666Y-36224200D02*
X124142857Y-36262295D01*
X124142857Y-36262295D02*
X124371428Y-36262295D01*
X124371428Y-36262295D02*
X124447619Y-36224200D01*
X124447619Y-36224200D02*
X124485714Y-36186104D01*
X148814285Y-99762295D02*
X149080952Y-99381342D01*
X149271428Y-99762295D02*
X149271428Y-98962295D01*
X149271428Y-98962295D02*
X148966666Y-98962295D01*
X148966666Y-98962295D02*
X148890476Y-99000390D01*
X148890476Y-99000390D02*
X148852381Y-99038485D01*
X148852381Y-99038485D02*
X148814285Y-99114676D01*
X148814285Y-99114676D02*
X148814285Y-99228961D01*
X148814285Y-99228961D02*
X148852381Y-99305152D01*
X148852381Y-99305152D02*
X148890476Y-99343247D01*
X148890476Y-99343247D02*
X148966666Y-99381342D01*
X148966666Y-99381342D02*
X149271428Y-99381342D01*
X148509524Y-99038485D02*
X148471428Y-99000390D01*
X148471428Y-99000390D02*
X148395238Y-98962295D01*
X148395238Y-98962295D02*
X148204762Y-98962295D01*
X148204762Y-98962295D02*
X148128571Y-99000390D01*
X148128571Y-99000390D02*
X148090476Y-99038485D01*
X148090476Y-99038485D02*
X148052381Y-99114676D01*
X148052381Y-99114676D02*
X148052381Y-99190866D01*
X148052381Y-99190866D02*
X148090476Y-99305152D01*
X148090476Y-99305152D02*
X148547619Y-99762295D01*
X148547619Y-99762295D02*
X148052381Y-99762295D01*
X147785714Y-98962295D02*
X147252380Y-98962295D01*
X147252380Y-98962295D02*
X147595238Y-99762295D01*
X147714285Y-40262295D02*
X147980952Y-39881342D01*
X148171428Y-40262295D02*
X148171428Y-39462295D01*
X148171428Y-39462295D02*
X147866666Y-39462295D01*
X147866666Y-39462295D02*
X147790476Y-39500390D01*
X147790476Y-39500390D02*
X147752381Y-39538485D01*
X147752381Y-39538485D02*
X147714285Y-39614676D01*
X147714285Y-39614676D02*
X147714285Y-39728961D01*
X147714285Y-39728961D02*
X147752381Y-39805152D01*
X147752381Y-39805152D02*
X147790476Y-39843247D01*
X147790476Y-39843247D02*
X147866666Y-39881342D01*
X147866666Y-39881342D02*
X148171428Y-39881342D01*
X146952381Y-40262295D02*
X147409524Y-40262295D01*
X147180952Y-40262295D02*
X147180952Y-39462295D01*
X147180952Y-39462295D02*
X147257143Y-39576580D01*
X147257143Y-39576580D02*
X147333333Y-39652771D01*
X147333333Y-39652771D02*
X147409524Y-39690866D01*
X146685714Y-39462295D02*
X146152380Y-39462295D01*
X146152380Y-39462295D02*
X146495238Y-40262295D01*
X129764285Y-36036104D02*
X129802381Y-36074200D01*
X129802381Y-36074200D02*
X129916666Y-36112295D01*
X129916666Y-36112295D02*
X129992857Y-36112295D01*
X129992857Y-36112295D02*
X130107143Y-36074200D01*
X130107143Y-36074200D02*
X130183333Y-35998009D01*
X130183333Y-35998009D02*
X130221428Y-35921819D01*
X130221428Y-35921819D02*
X130259524Y-35769438D01*
X130259524Y-35769438D02*
X130259524Y-35655152D01*
X130259524Y-35655152D02*
X130221428Y-35502771D01*
X130221428Y-35502771D02*
X130183333Y-35426580D01*
X130183333Y-35426580D02*
X130107143Y-35350390D01*
X130107143Y-35350390D02*
X129992857Y-35312295D01*
X129992857Y-35312295D02*
X129916666Y-35312295D01*
X129916666Y-35312295D02*
X129802381Y-35350390D01*
X129802381Y-35350390D02*
X129764285Y-35388485D01*
X129002381Y-36112295D02*
X129459524Y-36112295D01*
X129230952Y-36112295D02*
X129230952Y-35312295D01*
X129230952Y-35312295D02*
X129307143Y-35426580D01*
X129307143Y-35426580D02*
X129383333Y-35502771D01*
X129383333Y-35502771D02*
X129459524Y-35540866D01*
X128240476Y-36112295D02*
X128697619Y-36112295D01*
X128469047Y-36112295D02*
X128469047Y-35312295D01*
X128469047Y-35312295D02*
X128545238Y-35426580D01*
X128545238Y-35426580D02*
X128621428Y-35502771D01*
X128621428Y-35502771D02*
X128697619Y-35540866D01*
X130879523Y-81545295D02*
X130879523Y-82192914D01*
X130879523Y-82192914D02*
X130841428Y-82269104D01*
X130841428Y-82269104D02*
X130803333Y-82307200D01*
X130803333Y-82307200D02*
X130727142Y-82345295D01*
X130727142Y-82345295D02*
X130574761Y-82345295D01*
X130574761Y-82345295D02*
X130498571Y-82307200D01*
X130498571Y-82307200D02*
X130460476Y-82269104D01*
X130460476Y-82269104D02*
X130422380Y-82192914D01*
X130422380Y-82192914D02*
X130422380Y-81545295D01*
X130079524Y-81621485D02*
X130041428Y-81583390D01*
X130041428Y-81583390D02*
X129965238Y-81545295D01*
X129965238Y-81545295D02*
X129774762Y-81545295D01*
X129774762Y-81545295D02*
X129698571Y-81583390D01*
X129698571Y-81583390D02*
X129660476Y-81621485D01*
X129660476Y-81621485D02*
X129622381Y-81697676D01*
X129622381Y-81697676D02*
X129622381Y-81773866D01*
X129622381Y-81773866D02*
X129660476Y-81888152D01*
X129660476Y-81888152D02*
X130117619Y-82345295D01*
X130117619Y-82345295D02*
X129622381Y-82345295D01*
X137383332Y-50286104D02*
X137421428Y-50324200D01*
X137421428Y-50324200D02*
X137535713Y-50362295D01*
X137535713Y-50362295D02*
X137611904Y-50362295D01*
X137611904Y-50362295D02*
X137726190Y-50324200D01*
X137726190Y-50324200D02*
X137802380Y-50248009D01*
X137802380Y-50248009D02*
X137840475Y-50171819D01*
X137840475Y-50171819D02*
X137878571Y-50019438D01*
X137878571Y-50019438D02*
X137878571Y-49905152D01*
X137878571Y-49905152D02*
X137840475Y-49752771D01*
X137840475Y-49752771D02*
X137802380Y-49676580D01*
X137802380Y-49676580D02*
X137726190Y-49600390D01*
X137726190Y-49600390D02*
X137611904Y-49562295D01*
X137611904Y-49562295D02*
X137535713Y-49562295D01*
X137535713Y-49562295D02*
X137421428Y-49600390D01*
X137421428Y-49600390D02*
X137383332Y-49638485D01*
X137116666Y-49562295D02*
X136583332Y-49562295D01*
X136583332Y-49562295D02*
X136926190Y-50362295D01*
X134633332Y-71536104D02*
X134671428Y-71574200D01*
X134671428Y-71574200D02*
X134785713Y-71612295D01*
X134785713Y-71612295D02*
X134861904Y-71612295D01*
X134861904Y-71612295D02*
X134976190Y-71574200D01*
X134976190Y-71574200D02*
X135052380Y-71498009D01*
X135052380Y-71498009D02*
X135090475Y-71421819D01*
X135090475Y-71421819D02*
X135128571Y-71269438D01*
X135128571Y-71269438D02*
X135128571Y-71155152D01*
X135128571Y-71155152D02*
X135090475Y-71002771D01*
X135090475Y-71002771D02*
X135052380Y-70926580D01*
X135052380Y-70926580D02*
X134976190Y-70850390D01*
X134976190Y-70850390D02*
X134861904Y-70812295D01*
X134861904Y-70812295D02*
X134785713Y-70812295D01*
X134785713Y-70812295D02*
X134671428Y-70850390D01*
X134671428Y-70850390D02*
X134633332Y-70888485D01*
X134328571Y-70888485D02*
X134290475Y-70850390D01*
X134290475Y-70850390D02*
X134214285Y-70812295D01*
X134214285Y-70812295D02*
X134023809Y-70812295D01*
X134023809Y-70812295D02*
X133947618Y-70850390D01*
X133947618Y-70850390D02*
X133909523Y-70888485D01*
X133909523Y-70888485D02*
X133871428Y-70964676D01*
X133871428Y-70964676D02*
X133871428Y-71040866D01*
X133871428Y-71040866D02*
X133909523Y-71155152D01*
X133909523Y-71155152D02*
X134366666Y-71612295D01*
X134366666Y-71612295D02*
X133871428Y-71612295D01*
X148814285Y-101762295D02*
X149080952Y-101381342D01*
X149271428Y-101762295D02*
X149271428Y-100962295D01*
X149271428Y-100962295D02*
X148966666Y-100962295D01*
X148966666Y-100962295D02*
X148890476Y-101000390D01*
X148890476Y-101000390D02*
X148852381Y-101038485D01*
X148852381Y-101038485D02*
X148814285Y-101114676D01*
X148814285Y-101114676D02*
X148814285Y-101228961D01*
X148814285Y-101228961D02*
X148852381Y-101305152D01*
X148852381Y-101305152D02*
X148890476Y-101343247D01*
X148890476Y-101343247D02*
X148966666Y-101381342D01*
X148966666Y-101381342D02*
X149271428Y-101381342D01*
X148509524Y-101038485D02*
X148471428Y-101000390D01*
X148471428Y-101000390D02*
X148395238Y-100962295D01*
X148395238Y-100962295D02*
X148204762Y-100962295D01*
X148204762Y-100962295D02*
X148128571Y-101000390D01*
X148128571Y-101000390D02*
X148090476Y-101038485D01*
X148090476Y-101038485D02*
X148052381Y-101114676D01*
X148052381Y-101114676D02*
X148052381Y-101190866D01*
X148052381Y-101190866D02*
X148090476Y-101305152D01*
X148090476Y-101305152D02*
X148547619Y-101762295D01*
X148547619Y-101762295D02*
X148052381Y-101762295D01*
X147595238Y-101305152D02*
X147671428Y-101267057D01*
X147671428Y-101267057D02*
X147709523Y-101228961D01*
X147709523Y-101228961D02*
X147747619Y-101152771D01*
X147747619Y-101152771D02*
X147747619Y-101114676D01*
X147747619Y-101114676D02*
X147709523Y-101038485D01*
X147709523Y-101038485D02*
X147671428Y-101000390D01*
X147671428Y-101000390D02*
X147595238Y-100962295D01*
X147595238Y-100962295D02*
X147442857Y-100962295D01*
X147442857Y-100962295D02*
X147366666Y-101000390D01*
X147366666Y-101000390D02*
X147328571Y-101038485D01*
X147328571Y-101038485D02*
X147290476Y-101114676D01*
X147290476Y-101114676D02*
X147290476Y-101152771D01*
X147290476Y-101152771D02*
X147328571Y-101228961D01*
X147328571Y-101228961D02*
X147366666Y-101267057D01*
X147366666Y-101267057D02*
X147442857Y-101305152D01*
X147442857Y-101305152D02*
X147595238Y-101305152D01*
X147595238Y-101305152D02*
X147671428Y-101343247D01*
X147671428Y-101343247D02*
X147709523Y-101381342D01*
X147709523Y-101381342D02*
X147747619Y-101457533D01*
X147747619Y-101457533D02*
X147747619Y-101609914D01*
X147747619Y-101609914D02*
X147709523Y-101686104D01*
X147709523Y-101686104D02*
X147671428Y-101724200D01*
X147671428Y-101724200D02*
X147595238Y-101762295D01*
X147595238Y-101762295D02*
X147442857Y-101762295D01*
X147442857Y-101762295D02*
X147366666Y-101724200D01*
X147366666Y-101724200D02*
X147328571Y-101686104D01*
X147328571Y-101686104D02*
X147290476Y-101609914D01*
X147290476Y-101609914D02*
X147290476Y-101457533D01*
X147290476Y-101457533D02*
X147328571Y-101381342D01*
X147328571Y-101381342D02*
X147366666Y-101343247D01*
X147366666Y-101343247D02*
X147442857Y-101305152D01*
X147883332Y-67112295D02*
X148149999Y-66731342D01*
X148340475Y-67112295D02*
X148340475Y-66312295D01*
X148340475Y-66312295D02*
X148035713Y-66312295D01*
X148035713Y-66312295D02*
X147959523Y-66350390D01*
X147959523Y-66350390D02*
X147921428Y-66388485D01*
X147921428Y-66388485D02*
X147883332Y-66464676D01*
X147883332Y-66464676D02*
X147883332Y-66578961D01*
X147883332Y-66578961D02*
X147921428Y-66655152D01*
X147921428Y-66655152D02*
X147959523Y-66693247D01*
X147959523Y-66693247D02*
X148035713Y-66731342D01*
X148035713Y-66731342D02*
X148340475Y-66731342D01*
X147616666Y-66312295D02*
X147121428Y-66312295D01*
X147121428Y-66312295D02*
X147388094Y-66617057D01*
X147388094Y-66617057D02*
X147273809Y-66617057D01*
X147273809Y-66617057D02*
X147197618Y-66655152D01*
X147197618Y-66655152D02*
X147159523Y-66693247D01*
X147159523Y-66693247D02*
X147121428Y-66769438D01*
X147121428Y-66769438D02*
X147121428Y-66959914D01*
X147121428Y-66959914D02*
X147159523Y-67036104D01*
X147159523Y-67036104D02*
X147197618Y-67074200D01*
X147197618Y-67074200D02*
X147273809Y-67112295D01*
X147273809Y-67112295D02*
X147502380Y-67112295D01*
X147502380Y-67112295D02*
X147578571Y-67074200D01*
X147578571Y-67074200D02*
X147616666Y-67036104D01*
X136536104Y-87116667D02*
X136574200Y-87078571D01*
X136574200Y-87078571D02*
X136612295Y-86964286D01*
X136612295Y-86964286D02*
X136612295Y-86888095D01*
X136612295Y-86888095D02*
X136574200Y-86773809D01*
X136574200Y-86773809D02*
X136498009Y-86697619D01*
X136498009Y-86697619D02*
X136421819Y-86659524D01*
X136421819Y-86659524D02*
X136269438Y-86621428D01*
X136269438Y-86621428D02*
X136155152Y-86621428D01*
X136155152Y-86621428D02*
X136002771Y-86659524D01*
X136002771Y-86659524D02*
X135926580Y-86697619D01*
X135926580Y-86697619D02*
X135850390Y-86773809D01*
X135850390Y-86773809D02*
X135812295Y-86888095D01*
X135812295Y-86888095D02*
X135812295Y-86964286D01*
X135812295Y-86964286D02*
X135850390Y-87078571D01*
X135850390Y-87078571D02*
X135888485Y-87116667D01*
X136612295Y-87878571D02*
X136612295Y-87421428D01*
X136612295Y-87650000D02*
X135812295Y-87650000D01*
X135812295Y-87650000D02*
X135926580Y-87573809D01*
X135926580Y-87573809D02*
X136002771Y-87497619D01*
X136002771Y-87497619D02*
X136040866Y-87421428D01*
X124276190Y-41238485D02*
X124352380Y-41200390D01*
X124352380Y-41200390D02*
X124428571Y-41124200D01*
X124428571Y-41124200D02*
X124542857Y-41009914D01*
X124542857Y-41009914D02*
X124619047Y-40971819D01*
X124619047Y-40971819D02*
X124695238Y-40971819D01*
X124657142Y-41162295D02*
X124733333Y-41124200D01*
X124733333Y-41124200D02*
X124809523Y-41048009D01*
X124809523Y-41048009D02*
X124847619Y-40895628D01*
X124847619Y-40895628D02*
X124847619Y-40628961D01*
X124847619Y-40628961D02*
X124809523Y-40476580D01*
X124809523Y-40476580D02*
X124733333Y-40400390D01*
X124733333Y-40400390D02*
X124657142Y-40362295D01*
X124657142Y-40362295D02*
X124504761Y-40362295D01*
X124504761Y-40362295D02*
X124428571Y-40400390D01*
X124428571Y-40400390D02*
X124352380Y-40476580D01*
X124352380Y-40476580D02*
X124314285Y-40628961D01*
X124314285Y-40628961D02*
X124314285Y-40895628D01*
X124314285Y-40895628D02*
X124352380Y-41048009D01*
X124352380Y-41048009D02*
X124428571Y-41124200D01*
X124428571Y-41124200D02*
X124504761Y-41162295D01*
X124504761Y-41162295D02*
X124657142Y-41162295D01*
X123628571Y-40362295D02*
X123780952Y-40362295D01*
X123780952Y-40362295D02*
X123857143Y-40400390D01*
X123857143Y-40400390D02*
X123895238Y-40438485D01*
X123895238Y-40438485D02*
X123971428Y-40552771D01*
X123971428Y-40552771D02*
X124009524Y-40705152D01*
X124009524Y-40705152D02*
X124009524Y-41009914D01*
X124009524Y-41009914D02*
X123971428Y-41086104D01*
X123971428Y-41086104D02*
X123933333Y-41124200D01*
X123933333Y-41124200D02*
X123857143Y-41162295D01*
X123857143Y-41162295D02*
X123704762Y-41162295D01*
X123704762Y-41162295D02*
X123628571Y-41124200D01*
X123628571Y-41124200D02*
X123590476Y-41086104D01*
X123590476Y-41086104D02*
X123552381Y-41009914D01*
X123552381Y-41009914D02*
X123552381Y-40819438D01*
X123552381Y-40819438D02*
X123590476Y-40743247D01*
X123590476Y-40743247D02*
X123628571Y-40705152D01*
X123628571Y-40705152D02*
X123704762Y-40667057D01*
X123704762Y-40667057D02*
X123857143Y-40667057D01*
X123857143Y-40667057D02*
X123933333Y-40705152D01*
X123933333Y-40705152D02*
X123971428Y-40743247D01*
X123971428Y-40743247D02*
X124009524Y-40819438D01*
X139266666Y-71312295D02*
X139266666Y-71883723D01*
X139266666Y-71883723D02*
X139304761Y-71998009D01*
X139304761Y-71998009D02*
X139380952Y-72074200D01*
X139380952Y-72074200D02*
X139495237Y-72112295D01*
X139495237Y-72112295D02*
X139571428Y-72112295D01*
X138466666Y-72112295D02*
X138923809Y-72112295D01*
X138695237Y-72112295D02*
X138695237Y-71312295D01*
X138695237Y-71312295D02*
X138771428Y-71426580D01*
X138771428Y-71426580D02*
X138847618Y-71502771D01*
X138847618Y-71502771D02*
X138923809Y-71540866D01*
X138990475Y-68662295D02*
X138990475Y-67862295D01*
X138990475Y-67862295D02*
X138799999Y-67862295D01*
X138799999Y-67862295D02*
X138685713Y-67900390D01*
X138685713Y-67900390D02*
X138609523Y-67976580D01*
X138609523Y-67976580D02*
X138571428Y-68052771D01*
X138571428Y-68052771D02*
X138533332Y-68205152D01*
X138533332Y-68205152D02*
X138533332Y-68319438D01*
X138533332Y-68319438D02*
X138571428Y-68471819D01*
X138571428Y-68471819D02*
X138609523Y-68548009D01*
X138609523Y-68548009D02*
X138685713Y-68624200D01*
X138685713Y-68624200D02*
X138799999Y-68662295D01*
X138799999Y-68662295D02*
X138990475Y-68662295D01*
X138228571Y-67938485D02*
X138190475Y-67900390D01*
X138190475Y-67900390D02*
X138114285Y-67862295D01*
X138114285Y-67862295D02*
X137923809Y-67862295D01*
X137923809Y-67862295D02*
X137847618Y-67900390D01*
X137847618Y-67900390D02*
X137809523Y-67938485D01*
X137809523Y-67938485D02*
X137771428Y-68014676D01*
X137771428Y-68014676D02*
X137771428Y-68090866D01*
X137771428Y-68090866D02*
X137809523Y-68205152D01*
X137809523Y-68205152D02*
X138266666Y-68662295D01*
X138266666Y-68662295D02*
X137771428Y-68662295D01*
X134214285Y-36262295D02*
X134480952Y-35881342D01*
X134671428Y-36262295D02*
X134671428Y-35462295D01*
X134671428Y-35462295D02*
X134366666Y-35462295D01*
X134366666Y-35462295D02*
X134290476Y-35500390D01*
X134290476Y-35500390D02*
X134252381Y-35538485D01*
X134252381Y-35538485D02*
X134214285Y-35614676D01*
X134214285Y-35614676D02*
X134214285Y-35728961D01*
X134214285Y-35728961D02*
X134252381Y-35805152D01*
X134252381Y-35805152D02*
X134290476Y-35843247D01*
X134290476Y-35843247D02*
X134366666Y-35881342D01*
X134366666Y-35881342D02*
X134671428Y-35881342D01*
X133909524Y-35538485D02*
X133871428Y-35500390D01*
X133871428Y-35500390D02*
X133795238Y-35462295D01*
X133795238Y-35462295D02*
X133604762Y-35462295D01*
X133604762Y-35462295D02*
X133528571Y-35500390D01*
X133528571Y-35500390D02*
X133490476Y-35538485D01*
X133490476Y-35538485D02*
X133452381Y-35614676D01*
X133452381Y-35614676D02*
X133452381Y-35690866D01*
X133452381Y-35690866D02*
X133490476Y-35805152D01*
X133490476Y-35805152D02*
X133947619Y-36262295D01*
X133947619Y-36262295D02*
X133452381Y-36262295D01*
X132766666Y-35728961D02*
X132766666Y-36262295D01*
X132957142Y-35424200D02*
X133147619Y-35995628D01*
X133147619Y-35995628D02*
X132652380Y-35995628D01*
X110766666Y-69032295D02*
X110766666Y-69603723D01*
X110766666Y-69603723D02*
X110804761Y-69718009D01*
X110804761Y-69718009D02*
X110880952Y-69794200D01*
X110880952Y-69794200D02*
X110995237Y-69832295D01*
X110995237Y-69832295D02*
X111071428Y-69832295D01*
X110461904Y-69032295D02*
X109966666Y-69032295D01*
X109966666Y-69032295D02*
X110233332Y-69337057D01*
X110233332Y-69337057D02*
X110119047Y-69337057D01*
X110119047Y-69337057D02*
X110042856Y-69375152D01*
X110042856Y-69375152D02*
X110004761Y-69413247D01*
X110004761Y-69413247D02*
X109966666Y-69489438D01*
X109966666Y-69489438D02*
X109966666Y-69679914D01*
X109966666Y-69679914D02*
X110004761Y-69756104D01*
X110004761Y-69756104D02*
X110042856Y-69794200D01*
X110042856Y-69794200D02*
X110119047Y-69832295D01*
X110119047Y-69832295D02*
X110347618Y-69832295D01*
X110347618Y-69832295D02*
X110423809Y-69794200D01*
X110423809Y-69794200D02*
X110461904Y-69756104D01*
X143862295Y-63985714D02*
X143481342Y-63719047D01*
X143862295Y-63528571D02*
X143062295Y-63528571D01*
X143062295Y-63528571D02*
X143062295Y-63833333D01*
X143062295Y-63833333D02*
X143100390Y-63909523D01*
X143100390Y-63909523D02*
X143138485Y-63947618D01*
X143138485Y-63947618D02*
X143214676Y-63985714D01*
X143214676Y-63985714D02*
X143328961Y-63985714D01*
X143328961Y-63985714D02*
X143405152Y-63947618D01*
X143405152Y-63947618D02*
X143443247Y-63909523D01*
X143443247Y-63909523D02*
X143481342Y-63833333D01*
X143481342Y-63833333D02*
X143481342Y-63528571D01*
X143862295Y-64747618D02*
X143862295Y-64290475D01*
X143862295Y-64519047D02*
X143062295Y-64519047D01*
X143062295Y-64519047D02*
X143176580Y-64442856D01*
X143176580Y-64442856D02*
X143252771Y-64366666D01*
X143252771Y-64366666D02*
X143290866Y-64290475D01*
X143062295Y-65471428D02*
X143062295Y-65090476D01*
X143062295Y-65090476D02*
X143443247Y-65052380D01*
X143443247Y-65052380D02*
X143405152Y-65090476D01*
X143405152Y-65090476D02*
X143367057Y-65166666D01*
X143367057Y-65166666D02*
X143367057Y-65357142D01*
X143367057Y-65357142D02*
X143405152Y-65433333D01*
X143405152Y-65433333D02*
X143443247Y-65471428D01*
X143443247Y-65471428D02*
X143519438Y-65509523D01*
X143519438Y-65509523D02*
X143709914Y-65509523D01*
X143709914Y-65509523D02*
X143786104Y-65471428D01*
X143786104Y-65471428D02*
X143824200Y-65433333D01*
X143824200Y-65433333D02*
X143862295Y-65357142D01*
X143862295Y-65357142D02*
X143862295Y-65166666D01*
X143862295Y-65166666D02*
X143824200Y-65090476D01*
X143824200Y-65090476D02*
X143786104Y-65052380D01*
X143514285Y-46862295D02*
X143780952Y-46481342D01*
X143971428Y-46862295D02*
X143971428Y-46062295D01*
X143971428Y-46062295D02*
X143666666Y-46062295D01*
X143666666Y-46062295D02*
X143590476Y-46100390D01*
X143590476Y-46100390D02*
X143552381Y-46138485D01*
X143552381Y-46138485D02*
X143514285Y-46214676D01*
X143514285Y-46214676D02*
X143514285Y-46328961D01*
X143514285Y-46328961D02*
X143552381Y-46405152D01*
X143552381Y-46405152D02*
X143590476Y-46443247D01*
X143590476Y-46443247D02*
X143666666Y-46481342D01*
X143666666Y-46481342D02*
X143971428Y-46481342D01*
X142752381Y-46862295D02*
X143209524Y-46862295D01*
X142980952Y-46862295D02*
X142980952Y-46062295D01*
X142980952Y-46062295D02*
X143057143Y-46176580D01*
X143057143Y-46176580D02*
X143133333Y-46252771D01*
X143133333Y-46252771D02*
X143209524Y-46290866D01*
X142295238Y-46405152D02*
X142371428Y-46367057D01*
X142371428Y-46367057D02*
X142409523Y-46328961D01*
X142409523Y-46328961D02*
X142447619Y-46252771D01*
X142447619Y-46252771D02*
X142447619Y-46214676D01*
X142447619Y-46214676D02*
X142409523Y-46138485D01*
X142409523Y-46138485D02*
X142371428Y-46100390D01*
X142371428Y-46100390D02*
X142295238Y-46062295D01*
X142295238Y-46062295D02*
X142142857Y-46062295D01*
X142142857Y-46062295D02*
X142066666Y-46100390D01*
X142066666Y-46100390D02*
X142028571Y-46138485D01*
X142028571Y-46138485D02*
X141990476Y-46214676D01*
X141990476Y-46214676D02*
X141990476Y-46252771D01*
X141990476Y-46252771D02*
X142028571Y-46328961D01*
X142028571Y-46328961D02*
X142066666Y-46367057D01*
X142066666Y-46367057D02*
X142142857Y-46405152D01*
X142142857Y-46405152D02*
X142295238Y-46405152D01*
X142295238Y-46405152D02*
X142371428Y-46443247D01*
X142371428Y-46443247D02*
X142409523Y-46481342D01*
X142409523Y-46481342D02*
X142447619Y-46557533D01*
X142447619Y-46557533D02*
X142447619Y-46709914D01*
X142447619Y-46709914D02*
X142409523Y-46786104D01*
X142409523Y-46786104D02*
X142371428Y-46824200D01*
X142371428Y-46824200D02*
X142295238Y-46862295D01*
X142295238Y-46862295D02*
X142142857Y-46862295D01*
X142142857Y-46862295D02*
X142066666Y-46824200D01*
X142066666Y-46824200D02*
X142028571Y-46786104D01*
X142028571Y-46786104D02*
X141990476Y-46709914D01*
X141990476Y-46709914D02*
X141990476Y-46557533D01*
X141990476Y-46557533D02*
X142028571Y-46481342D01*
X142028571Y-46481342D02*
X142066666Y-46443247D01*
X142066666Y-46443247D02*
X142142857Y-46405152D01*
X120876190Y-80163485D02*
X120952380Y-80125390D01*
X120952380Y-80125390D02*
X121028571Y-80049200D01*
X121028571Y-80049200D02*
X121142857Y-79934914D01*
X121142857Y-79934914D02*
X121219047Y-79896819D01*
X121219047Y-79896819D02*
X121295238Y-79896819D01*
X121257142Y-80087295D02*
X121333333Y-80049200D01*
X121333333Y-80049200D02*
X121409523Y-79973009D01*
X121409523Y-79973009D02*
X121447619Y-79820628D01*
X121447619Y-79820628D02*
X121447619Y-79553961D01*
X121447619Y-79553961D02*
X121409523Y-79401580D01*
X121409523Y-79401580D02*
X121333333Y-79325390D01*
X121333333Y-79325390D02*
X121257142Y-79287295D01*
X121257142Y-79287295D02*
X121104761Y-79287295D01*
X121104761Y-79287295D02*
X121028571Y-79325390D01*
X121028571Y-79325390D02*
X120952380Y-79401580D01*
X120952380Y-79401580D02*
X120914285Y-79553961D01*
X120914285Y-79553961D02*
X120914285Y-79820628D01*
X120914285Y-79820628D02*
X120952380Y-79973009D01*
X120952380Y-79973009D02*
X121028571Y-80049200D01*
X121028571Y-80049200D02*
X121104761Y-80087295D01*
X121104761Y-80087295D02*
X121257142Y-80087295D01*
X120647619Y-79287295D02*
X120152381Y-79287295D01*
X120152381Y-79287295D02*
X120419047Y-79592057D01*
X120419047Y-79592057D02*
X120304762Y-79592057D01*
X120304762Y-79592057D02*
X120228571Y-79630152D01*
X120228571Y-79630152D02*
X120190476Y-79668247D01*
X120190476Y-79668247D02*
X120152381Y-79744438D01*
X120152381Y-79744438D02*
X120152381Y-79934914D01*
X120152381Y-79934914D02*
X120190476Y-80011104D01*
X120190476Y-80011104D02*
X120228571Y-80049200D01*
X120228571Y-80049200D02*
X120304762Y-80087295D01*
X120304762Y-80087295D02*
X120533333Y-80087295D01*
X120533333Y-80087295D02*
X120609524Y-80049200D01*
X120609524Y-80049200D02*
X120647619Y-80011104D01*
X116433332Y-74162295D02*
X116699999Y-73781342D01*
X116890475Y-74162295D02*
X116890475Y-73362295D01*
X116890475Y-73362295D02*
X116585713Y-73362295D01*
X116585713Y-73362295D02*
X116509523Y-73400390D01*
X116509523Y-73400390D02*
X116471428Y-73438485D01*
X116471428Y-73438485D02*
X116433332Y-73514676D01*
X116433332Y-73514676D02*
X116433332Y-73628961D01*
X116433332Y-73628961D02*
X116471428Y-73705152D01*
X116471428Y-73705152D02*
X116509523Y-73743247D01*
X116509523Y-73743247D02*
X116585713Y-73781342D01*
X116585713Y-73781342D02*
X116890475Y-73781342D01*
X116052380Y-74162295D02*
X115899999Y-74162295D01*
X115899999Y-74162295D02*
X115823809Y-74124200D01*
X115823809Y-74124200D02*
X115785713Y-74086104D01*
X115785713Y-74086104D02*
X115709523Y-73971819D01*
X115709523Y-73971819D02*
X115671428Y-73819438D01*
X115671428Y-73819438D02*
X115671428Y-73514676D01*
X115671428Y-73514676D02*
X115709523Y-73438485D01*
X115709523Y-73438485D02*
X115747618Y-73400390D01*
X115747618Y-73400390D02*
X115823809Y-73362295D01*
X115823809Y-73362295D02*
X115976190Y-73362295D01*
X115976190Y-73362295D02*
X116052380Y-73400390D01*
X116052380Y-73400390D02*
X116090475Y-73438485D01*
X116090475Y-73438485D02*
X116128571Y-73514676D01*
X116128571Y-73514676D02*
X116128571Y-73705152D01*
X116128571Y-73705152D02*
X116090475Y-73781342D01*
X116090475Y-73781342D02*
X116052380Y-73819438D01*
X116052380Y-73819438D02*
X115976190Y-73857533D01*
X115976190Y-73857533D02*
X115823809Y-73857533D01*
X115823809Y-73857533D02*
X115747618Y-73819438D01*
X115747618Y-73819438D02*
X115709523Y-73781342D01*
X115709523Y-73781342D02*
X115671428Y-73705152D01*
X136717295Y-79485714D02*
X136336342Y-79219047D01*
X136717295Y-79028571D02*
X135917295Y-79028571D01*
X135917295Y-79028571D02*
X135917295Y-79333333D01*
X135917295Y-79333333D02*
X135955390Y-79409523D01*
X135955390Y-79409523D02*
X135993485Y-79447618D01*
X135993485Y-79447618D02*
X136069676Y-79485714D01*
X136069676Y-79485714D02*
X136183961Y-79485714D01*
X136183961Y-79485714D02*
X136260152Y-79447618D01*
X136260152Y-79447618D02*
X136298247Y-79409523D01*
X136298247Y-79409523D02*
X136336342Y-79333333D01*
X136336342Y-79333333D02*
X136336342Y-79028571D01*
X136717295Y-80247618D02*
X136717295Y-79790475D01*
X136717295Y-80019047D02*
X135917295Y-80019047D01*
X135917295Y-80019047D02*
X136031580Y-79942856D01*
X136031580Y-79942856D02*
X136107771Y-79866666D01*
X136107771Y-79866666D02*
X136145866Y-79790475D01*
X135993485Y-80552380D02*
X135955390Y-80590476D01*
X135955390Y-80590476D02*
X135917295Y-80666666D01*
X135917295Y-80666666D02*
X135917295Y-80857142D01*
X135917295Y-80857142D02*
X135955390Y-80933333D01*
X135955390Y-80933333D02*
X135993485Y-80971428D01*
X135993485Y-80971428D02*
X136069676Y-81009523D01*
X136069676Y-81009523D02*
X136145866Y-81009523D01*
X136145866Y-81009523D02*
X136260152Y-80971428D01*
X136260152Y-80971428D02*
X136717295Y-80514285D01*
X136717295Y-80514285D02*
X136717295Y-81009523D01*
X133109523Y-70812295D02*
X133109523Y-71459914D01*
X133109523Y-71459914D02*
X133071428Y-71536104D01*
X133071428Y-71536104D02*
X133033333Y-71574200D01*
X133033333Y-71574200D02*
X132957142Y-71612295D01*
X132957142Y-71612295D02*
X132804761Y-71612295D01*
X132804761Y-71612295D02*
X132728571Y-71574200D01*
X132728571Y-71574200D02*
X132690476Y-71536104D01*
X132690476Y-71536104D02*
X132652380Y-71459914D01*
X132652380Y-71459914D02*
X132652380Y-70812295D01*
X131852381Y-71612295D02*
X132309524Y-71612295D01*
X132080952Y-71612295D02*
X132080952Y-70812295D01*
X132080952Y-70812295D02*
X132157143Y-70926580D01*
X132157143Y-70926580D02*
X132233333Y-71002771D01*
X132233333Y-71002771D02*
X132309524Y-71040866D01*
X124633332Y-80862295D02*
X124899999Y-80481342D01*
X125090475Y-80862295D02*
X125090475Y-80062295D01*
X125090475Y-80062295D02*
X124785713Y-80062295D01*
X124785713Y-80062295D02*
X124709523Y-80100390D01*
X124709523Y-80100390D02*
X124671428Y-80138485D01*
X124671428Y-80138485D02*
X124633332Y-80214676D01*
X124633332Y-80214676D02*
X124633332Y-80328961D01*
X124633332Y-80328961D02*
X124671428Y-80405152D01*
X124671428Y-80405152D02*
X124709523Y-80443247D01*
X124709523Y-80443247D02*
X124785713Y-80481342D01*
X124785713Y-80481342D02*
X125090475Y-80481342D01*
X124366666Y-80062295D02*
X123833332Y-80062295D01*
X123833332Y-80062295D02*
X124176190Y-80862295D01*
X145326190Y-93138485D02*
X145402380Y-93100390D01*
X145402380Y-93100390D02*
X145478571Y-93024200D01*
X145478571Y-93024200D02*
X145592857Y-92909914D01*
X145592857Y-92909914D02*
X145669047Y-92871819D01*
X145669047Y-92871819D02*
X145745238Y-92871819D01*
X145707142Y-93062295D02*
X145783333Y-93024200D01*
X145783333Y-93024200D02*
X145859523Y-92948009D01*
X145859523Y-92948009D02*
X145897619Y-92795628D01*
X145897619Y-92795628D02*
X145897619Y-92528961D01*
X145897619Y-92528961D02*
X145859523Y-92376580D01*
X145859523Y-92376580D02*
X145783333Y-92300390D01*
X145783333Y-92300390D02*
X145707142Y-92262295D01*
X145707142Y-92262295D02*
X145554761Y-92262295D01*
X145554761Y-92262295D02*
X145478571Y-92300390D01*
X145478571Y-92300390D02*
X145402380Y-92376580D01*
X145402380Y-92376580D02*
X145364285Y-92528961D01*
X145364285Y-92528961D02*
X145364285Y-92795628D01*
X145364285Y-92795628D02*
X145402380Y-92948009D01*
X145402380Y-92948009D02*
X145478571Y-93024200D01*
X145478571Y-93024200D02*
X145554761Y-93062295D01*
X145554761Y-93062295D02*
X145707142Y-93062295D01*
X144640476Y-92262295D02*
X145021428Y-92262295D01*
X145021428Y-92262295D02*
X145059524Y-92643247D01*
X145059524Y-92643247D02*
X145021428Y-92605152D01*
X145021428Y-92605152D02*
X144945238Y-92567057D01*
X144945238Y-92567057D02*
X144754762Y-92567057D01*
X144754762Y-92567057D02*
X144678571Y-92605152D01*
X144678571Y-92605152D02*
X144640476Y-92643247D01*
X144640476Y-92643247D02*
X144602381Y-92719438D01*
X144602381Y-92719438D02*
X144602381Y-92909914D01*
X144602381Y-92909914D02*
X144640476Y-92986104D01*
X144640476Y-92986104D02*
X144678571Y-93024200D01*
X144678571Y-93024200D02*
X144754762Y-93062295D01*
X144754762Y-93062295D02*
X144945238Y-93062295D01*
X144945238Y-93062295D02*
X145021428Y-93024200D01*
X145021428Y-93024200D02*
X145059524Y-92986104D01*
X118114285Y-41162295D02*
X118380952Y-40781342D01*
X118571428Y-41162295D02*
X118571428Y-40362295D01*
X118571428Y-40362295D02*
X118266666Y-40362295D01*
X118266666Y-40362295D02*
X118190476Y-40400390D01*
X118190476Y-40400390D02*
X118152381Y-40438485D01*
X118152381Y-40438485D02*
X118114285Y-40514676D01*
X118114285Y-40514676D02*
X118114285Y-40628961D01*
X118114285Y-40628961D02*
X118152381Y-40705152D01*
X118152381Y-40705152D02*
X118190476Y-40743247D01*
X118190476Y-40743247D02*
X118266666Y-40781342D01*
X118266666Y-40781342D02*
X118571428Y-40781342D01*
X117809524Y-40438485D02*
X117771428Y-40400390D01*
X117771428Y-40400390D02*
X117695238Y-40362295D01*
X117695238Y-40362295D02*
X117504762Y-40362295D01*
X117504762Y-40362295D02*
X117428571Y-40400390D01*
X117428571Y-40400390D02*
X117390476Y-40438485D01*
X117390476Y-40438485D02*
X117352381Y-40514676D01*
X117352381Y-40514676D02*
X117352381Y-40590866D01*
X117352381Y-40590866D02*
X117390476Y-40705152D01*
X117390476Y-40705152D02*
X117847619Y-41162295D01*
X117847619Y-41162295D02*
X117352381Y-41162295D01*
X116857142Y-40362295D02*
X116780952Y-40362295D01*
X116780952Y-40362295D02*
X116704761Y-40400390D01*
X116704761Y-40400390D02*
X116666666Y-40438485D01*
X116666666Y-40438485D02*
X116628571Y-40514676D01*
X116628571Y-40514676D02*
X116590476Y-40667057D01*
X116590476Y-40667057D02*
X116590476Y-40857533D01*
X116590476Y-40857533D02*
X116628571Y-41009914D01*
X116628571Y-41009914D02*
X116666666Y-41086104D01*
X116666666Y-41086104D02*
X116704761Y-41124200D01*
X116704761Y-41124200D02*
X116780952Y-41162295D01*
X116780952Y-41162295D02*
X116857142Y-41162295D01*
X116857142Y-41162295D02*
X116933333Y-41124200D01*
X116933333Y-41124200D02*
X116971428Y-41086104D01*
X116971428Y-41086104D02*
X117009523Y-41009914D01*
X117009523Y-41009914D02*
X117047619Y-40857533D01*
X117047619Y-40857533D02*
X117047619Y-40667057D01*
X117047619Y-40667057D02*
X117009523Y-40514676D01*
X117009523Y-40514676D02*
X116971428Y-40438485D01*
X116971428Y-40438485D02*
X116933333Y-40400390D01*
X116933333Y-40400390D02*
X116857142Y-40362295D01*
X117076190Y-80163485D02*
X117152380Y-80125390D01*
X117152380Y-80125390D02*
X117228571Y-80049200D01*
X117228571Y-80049200D02*
X117342857Y-79934914D01*
X117342857Y-79934914D02*
X117419047Y-79896819D01*
X117419047Y-79896819D02*
X117495238Y-79896819D01*
X117457142Y-80087295D02*
X117533333Y-80049200D01*
X117533333Y-80049200D02*
X117609523Y-79973009D01*
X117609523Y-79973009D02*
X117647619Y-79820628D01*
X117647619Y-79820628D02*
X117647619Y-79553961D01*
X117647619Y-79553961D02*
X117609523Y-79401580D01*
X117609523Y-79401580D02*
X117533333Y-79325390D01*
X117533333Y-79325390D02*
X117457142Y-79287295D01*
X117457142Y-79287295D02*
X117304761Y-79287295D01*
X117304761Y-79287295D02*
X117228571Y-79325390D01*
X117228571Y-79325390D02*
X117152380Y-79401580D01*
X117152380Y-79401580D02*
X117114285Y-79553961D01*
X117114285Y-79553961D02*
X117114285Y-79820628D01*
X117114285Y-79820628D02*
X117152380Y-79973009D01*
X117152380Y-79973009D02*
X117228571Y-80049200D01*
X117228571Y-80049200D02*
X117304761Y-80087295D01*
X117304761Y-80087295D02*
X117457142Y-80087295D01*
X116809524Y-79363485D02*
X116771428Y-79325390D01*
X116771428Y-79325390D02*
X116695238Y-79287295D01*
X116695238Y-79287295D02*
X116504762Y-79287295D01*
X116504762Y-79287295D02*
X116428571Y-79325390D01*
X116428571Y-79325390D02*
X116390476Y-79363485D01*
X116390476Y-79363485D02*
X116352381Y-79439676D01*
X116352381Y-79439676D02*
X116352381Y-79515866D01*
X116352381Y-79515866D02*
X116390476Y-79630152D01*
X116390476Y-79630152D02*
X116847619Y-80087295D01*
X116847619Y-80087295D02*
X116352381Y-80087295D01*
X137764285Y-96862295D02*
X138030952Y-96481342D01*
X138221428Y-96862295D02*
X138221428Y-96062295D01*
X138221428Y-96062295D02*
X137916666Y-96062295D01*
X137916666Y-96062295D02*
X137840476Y-96100390D01*
X137840476Y-96100390D02*
X137802381Y-96138485D01*
X137802381Y-96138485D02*
X137764285Y-96214676D01*
X137764285Y-96214676D02*
X137764285Y-96328961D01*
X137764285Y-96328961D02*
X137802381Y-96405152D01*
X137802381Y-96405152D02*
X137840476Y-96443247D01*
X137840476Y-96443247D02*
X137916666Y-96481342D01*
X137916666Y-96481342D02*
X138221428Y-96481342D01*
X137459524Y-96138485D02*
X137421428Y-96100390D01*
X137421428Y-96100390D02*
X137345238Y-96062295D01*
X137345238Y-96062295D02*
X137154762Y-96062295D01*
X137154762Y-96062295D02*
X137078571Y-96100390D01*
X137078571Y-96100390D02*
X137040476Y-96138485D01*
X137040476Y-96138485D02*
X137002381Y-96214676D01*
X137002381Y-96214676D02*
X137002381Y-96290866D01*
X137002381Y-96290866D02*
X137040476Y-96405152D01*
X137040476Y-96405152D02*
X137497619Y-96862295D01*
X137497619Y-96862295D02*
X137002381Y-96862295D01*
X136278571Y-96062295D02*
X136659523Y-96062295D01*
X136659523Y-96062295D02*
X136697619Y-96443247D01*
X136697619Y-96443247D02*
X136659523Y-96405152D01*
X136659523Y-96405152D02*
X136583333Y-96367057D01*
X136583333Y-96367057D02*
X136392857Y-96367057D01*
X136392857Y-96367057D02*
X136316666Y-96405152D01*
X136316666Y-96405152D02*
X136278571Y-96443247D01*
X136278571Y-96443247D02*
X136240476Y-96519438D01*
X136240476Y-96519438D02*
X136240476Y-96709914D01*
X136240476Y-96709914D02*
X136278571Y-96786104D01*
X136278571Y-96786104D02*
X136316666Y-96824200D01*
X136316666Y-96824200D02*
X136392857Y-96862295D01*
X136392857Y-96862295D02*
X136583333Y-96862295D01*
X136583333Y-96862295D02*
X136659523Y-96824200D01*
X136659523Y-96824200D02*
X136697619Y-96786104D01*
X122414285Y-41162295D02*
X122680952Y-40781342D01*
X122871428Y-41162295D02*
X122871428Y-40362295D01*
X122871428Y-40362295D02*
X122566666Y-40362295D01*
X122566666Y-40362295D02*
X122490476Y-40400390D01*
X122490476Y-40400390D02*
X122452381Y-40438485D01*
X122452381Y-40438485D02*
X122414285Y-40514676D01*
X122414285Y-40514676D02*
X122414285Y-40628961D01*
X122414285Y-40628961D02*
X122452381Y-40705152D01*
X122452381Y-40705152D02*
X122490476Y-40743247D01*
X122490476Y-40743247D02*
X122566666Y-40781342D01*
X122566666Y-40781342D02*
X122871428Y-40781342D01*
X122147619Y-40362295D02*
X121652381Y-40362295D01*
X121652381Y-40362295D02*
X121919047Y-40667057D01*
X121919047Y-40667057D02*
X121804762Y-40667057D01*
X121804762Y-40667057D02*
X121728571Y-40705152D01*
X121728571Y-40705152D02*
X121690476Y-40743247D01*
X121690476Y-40743247D02*
X121652381Y-40819438D01*
X121652381Y-40819438D02*
X121652381Y-41009914D01*
X121652381Y-41009914D02*
X121690476Y-41086104D01*
X121690476Y-41086104D02*
X121728571Y-41124200D01*
X121728571Y-41124200D02*
X121804762Y-41162295D01*
X121804762Y-41162295D02*
X122033333Y-41162295D01*
X122033333Y-41162295D02*
X122109524Y-41124200D01*
X122109524Y-41124200D02*
X122147619Y-41086104D01*
X121347619Y-40438485D02*
X121309523Y-40400390D01*
X121309523Y-40400390D02*
X121233333Y-40362295D01*
X121233333Y-40362295D02*
X121042857Y-40362295D01*
X121042857Y-40362295D02*
X120966666Y-40400390D01*
X120966666Y-40400390D02*
X120928571Y-40438485D01*
X120928571Y-40438485D02*
X120890476Y-40514676D01*
X120890476Y-40514676D02*
X120890476Y-40590866D01*
X120890476Y-40590866D02*
X120928571Y-40705152D01*
X120928571Y-40705152D02*
X121385714Y-41162295D01*
X121385714Y-41162295D02*
X120890476Y-41162295D01*
X148814285Y-103862295D02*
X149080952Y-103481342D01*
X149271428Y-103862295D02*
X149271428Y-103062295D01*
X149271428Y-103062295D02*
X148966666Y-103062295D01*
X148966666Y-103062295D02*
X148890476Y-103100390D01*
X148890476Y-103100390D02*
X148852381Y-103138485D01*
X148852381Y-103138485D02*
X148814285Y-103214676D01*
X148814285Y-103214676D02*
X148814285Y-103328961D01*
X148814285Y-103328961D02*
X148852381Y-103405152D01*
X148852381Y-103405152D02*
X148890476Y-103443247D01*
X148890476Y-103443247D02*
X148966666Y-103481342D01*
X148966666Y-103481342D02*
X149271428Y-103481342D01*
X148509524Y-103138485D02*
X148471428Y-103100390D01*
X148471428Y-103100390D02*
X148395238Y-103062295D01*
X148395238Y-103062295D02*
X148204762Y-103062295D01*
X148204762Y-103062295D02*
X148128571Y-103100390D01*
X148128571Y-103100390D02*
X148090476Y-103138485D01*
X148090476Y-103138485D02*
X148052381Y-103214676D01*
X148052381Y-103214676D02*
X148052381Y-103290866D01*
X148052381Y-103290866D02*
X148090476Y-103405152D01*
X148090476Y-103405152D02*
X148547619Y-103862295D01*
X148547619Y-103862295D02*
X148052381Y-103862295D01*
X147747619Y-103138485D02*
X147709523Y-103100390D01*
X147709523Y-103100390D02*
X147633333Y-103062295D01*
X147633333Y-103062295D02*
X147442857Y-103062295D01*
X147442857Y-103062295D02*
X147366666Y-103100390D01*
X147366666Y-103100390D02*
X147328571Y-103138485D01*
X147328571Y-103138485D02*
X147290476Y-103214676D01*
X147290476Y-103214676D02*
X147290476Y-103290866D01*
X147290476Y-103290866D02*
X147328571Y-103405152D01*
X147328571Y-103405152D02*
X147785714Y-103862295D01*
X147785714Y-103862295D02*
X147290476Y-103862295D01*
X115814285Y-40986104D02*
X115852381Y-41024200D01*
X115852381Y-41024200D02*
X115966666Y-41062295D01*
X115966666Y-41062295D02*
X116042857Y-41062295D01*
X116042857Y-41062295D02*
X116157143Y-41024200D01*
X116157143Y-41024200D02*
X116233333Y-40948009D01*
X116233333Y-40948009D02*
X116271428Y-40871819D01*
X116271428Y-40871819D02*
X116309524Y-40719438D01*
X116309524Y-40719438D02*
X116309524Y-40605152D01*
X116309524Y-40605152D02*
X116271428Y-40452771D01*
X116271428Y-40452771D02*
X116233333Y-40376580D01*
X116233333Y-40376580D02*
X116157143Y-40300390D01*
X116157143Y-40300390D02*
X116042857Y-40262295D01*
X116042857Y-40262295D02*
X115966666Y-40262295D01*
X115966666Y-40262295D02*
X115852381Y-40300390D01*
X115852381Y-40300390D02*
X115814285Y-40338485D01*
X115052381Y-41062295D02*
X115509524Y-41062295D01*
X115280952Y-41062295D02*
X115280952Y-40262295D01*
X115280952Y-40262295D02*
X115357143Y-40376580D01*
X115357143Y-40376580D02*
X115433333Y-40452771D01*
X115433333Y-40452771D02*
X115509524Y-40490866D01*
X114557142Y-40262295D02*
X114480952Y-40262295D01*
X114480952Y-40262295D02*
X114404761Y-40300390D01*
X114404761Y-40300390D02*
X114366666Y-40338485D01*
X114366666Y-40338485D02*
X114328571Y-40414676D01*
X114328571Y-40414676D02*
X114290476Y-40567057D01*
X114290476Y-40567057D02*
X114290476Y-40757533D01*
X114290476Y-40757533D02*
X114328571Y-40909914D01*
X114328571Y-40909914D02*
X114366666Y-40986104D01*
X114366666Y-40986104D02*
X114404761Y-41024200D01*
X114404761Y-41024200D02*
X114480952Y-41062295D01*
X114480952Y-41062295D02*
X114557142Y-41062295D01*
X114557142Y-41062295D02*
X114633333Y-41024200D01*
X114633333Y-41024200D02*
X114671428Y-40986104D01*
X114671428Y-40986104D02*
X114709523Y-40909914D01*
X114709523Y-40909914D02*
X114747619Y-40757533D01*
X114747619Y-40757533D02*
X114747619Y-40567057D01*
X114747619Y-40567057D02*
X114709523Y-40414676D01*
X114709523Y-40414676D02*
X114671428Y-40338485D01*
X114671428Y-40338485D02*
X114633333Y-40300390D01*
X114633333Y-40300390D02*
X114557142Y-40262295D01*
X141609523Y-39662295D02*
X141609523Y-40309914D01*
X141609523Y-40309914D02*
X141571428Y-40386104D01*
X141571428Y-40386104D02*
X141533333Y-40424200D01*
X141533333Y-40424200D02*
X141457142Y-40462295D01*
X141457142Y-40462295D02*
X141304761Y-40462295D01*
X141304761Y-40462295D02*
X141228571Y-40424200D01*
X141228571Y-40424200D02*
X141190476Y-40386104D01*
X141190476Y-40386104D02*
X141152380Y-40309914D01*
X141152380Y-40309914D02*
X141152380Y-39662295D01*
X140847619Y-39662295D02*
X140352381Y-39662295D01*
X140352381Y-39662295D02*
X140619047Y-39967057D01*
X140619047Y-39967057D02*
X140504762Y-39967057D01*
X140504762Y-39967057D02*
X140428571Y-40005152D01*
X140428571Y-40005152D02*
X140390476Y-40043247D01*
X140390476Y-40043247D02*
X140352381Y-40119438D01*
X140352381Y-40119438D02*
X140352381Y-40309914D01*
X140352381Y-40309914D02*
X140390476Y-40386104D01*
X140390476Y-40386104D02*
X140428571Y-40424200D01*
X140428571Y-40424200D02*
X140504762Y-40462295D01*
X140504762Y-40462295D02*
X140733333Y-40462295D01*
X140733333Y-40462295D02*
X140809524Y-40424200D01*
X140809524Y-40424200D02*
X140847619Y-40386104D01*
X145133332Y-40186104D02*
X145171428Y-40224200D01*
X145171428Y-40224200D02*
X145285713Y-40262295D01*
X145285713Y-40262295D02*
X145361904Y-40262295D01*
X145361904Y-40262295D02*
X145476190Y-40224200D01*
X145476190Y-40224200D02*
X145552380Y-40148009D01*
X145552380Y-40148009D02*
X145590475Y-40071819D01*
X145590475Y-40071819D02*
X145628571Y-39919438D01*
X145628571Y-39919438D02*
X145628571Y-39805152D01*
X145628571Y-39805152D02*
X145590475Y-39652771D01*
X145590475Y-39652771D02*
X145552380Y-39576580D01*
X145552380Y-39576580D02*
X145476190Y-39500390D01*
X145476190Y-39500390D02*
X145361904Y-39462295D01*
X145361904Y-39462295D02*
X145285713Y-39462295D01*
X145285713Y-39462295D02*
X145171428Y-39500390D01*
X145171428Y-39500390D02*
X145133332Y-39538485D01*
X144409523Y-39462295D02*
X144790475Y-39462295D01*
X144790475Y-39462295D02*
X144828571Y-39843247D01*
X144828571Y-39843247D02*
X144790475Y-39805152D01*
X144790475Y-39805152D02*
X144714285Y-39767057D01*
X144714285Y-39767057D02*
X144523809Y-39767057D01*
X144523809Y-39767057D02*
X144447618Y-39805152D01*
X144447618Y-39805152D02*
X144409523Y-39843247D01*
X144409523Y-39843247D02*
X144371428Y-39919438D01*
X144371428Y-39919438D02*
X144371428Y-40109914D01*
X144371428Y-40109914D02*
X144409523Y-40186104D01*
X144409523Y-40186104D02*
X144447618Y-40224200D01*
X144447618Y-40224200D02*
X144523809Y-40262295D01*
X144523809Y-40262295D02*
X144714285Y-40262295D01*
X144714285Y-40262295D02*
X144790475Y-40224200D01*
X144790475Y-40224200D02*
X144828571Y-40186104D01*
X146962295Y-85309524D02*
X146162295Y-85309524D01*
X146162295Y-85309524D02*
X146162295Y-85500000D01*
X146162295Y-85500000D02*
X146200390Y-85614286D01*
X146200390Y-85614286D02*
X146276580Y-85690476D01*
X146276580Y-85690476D02*
X146352771Y-85728571D01*
X146352771Y-85728571D02*
X146505152Y-85766667D01*
X146505152Y-85766667D02*
X146619438Y-85766667D01*
X146619438Y-85766667D02*
X146771819Y-85728571D01*
X146771819Y-85728571D02*
X146848009Y-85690476D01*
X146848009Y-85690476D02*
X146924200Y-85614286D01*
X146924200Y-85614286D02*
X146962295Y-85500000D01*
X146962295Y-85500000D02*
X146962295Y-85309524D01*
X146962295Y-86528571D02*
X146962295Y-86071428D01*
X146962295Y-86300000D02*
X146162295Y-86300000D01*
X146162295Y-86300000D02*
X146276580Y-86223809D01*
X146276580Y-86223809D02*
X146352771Y-86147619D01*
X146352771Y-86147619D02*
X146390866Y-86071428D01*
X143786104Y-62116667D02*
X143824200Y-62078571D01*
X143824200Y-62078571D02*
X143862295Y-61964286D01*
X143862295Y-61964286D02*
X143862295Y-61888095D01*
X143862295Y-61888095D02*
X143824200Y-61773809D01*
X143824200Y-61773809D02*
X143748009Y-61697619D01*
X143748009Y-61697619D02*
X143671819Y-61659524D01*
X143671819Y-61659524D02*
X143519438Y-61621428D01*
X143519438Y-61621428D02*
X143405152Y-61621428D01*
X143405152Y-61621428D02*
X143252771Y-61659524D01*
X143252771Y-61659524D02*
X143176580Y-61697619D01*
X143176580Y-61697619D02*
X143100390Y-61773809D01*
X143100390Y-61773809D02*
X143062295Y-61888095D01*
X143062295Y-61888095D02*
X143062295Y-61964286D01*
X143062295Y-61964286D02*
X143100390Y-62078571D01*
X143100390Y-62078571D02*
X143138485Y-62116667D01*
X143328961Y-62802381D02*
X143862295Y-62802381D01*
X143024200Y-62611905D02*
X143595628Y-62421428D01*
X143595628Y-62421428D02*
X143595628Y-62916667D01*
X136717295Y-77235714D02*
X136336342Y-76969047D01*
X136717295Y-76778571D02*
X135917295Y-76778571D01*
X135917295Y-76778571D02*
X135917295Y-77083333D01*
X135917295Y-77083333D02*
X135955390Y-77159523D01*
X135955390Y-77159523D02*
X135993485Y-77197618D01*
X135993485Y-77197618D02*
X136069676Y-77235714D01*
X136069676Y-77235714D02*
X136183961Y-77235714D01*
X136183961Y-77235714D02*
X136260152Y-77197618D01*
X136260152Y-77197618D02*
X136298247Y-77159523D01*
X136298247Y-77159523D02*
X136336342Y-77083333D01*
X136336342Y-77083333D02*
X136336342Y-76778571D01*
X136717295Y-77997618D02*
X136717295Y-77540475D01*
X136717295Y-77769047D02*
X135917295Y-77769047D01*
X135917295Y-77769047D02*
X136031580Y-77692856D01*
X136031580Y-77692856D02*
X136107771Y-77616666D01*
X136107771Y-77616666D02*
X136145866Y-77540475D01*
X136183961Y-78683333D02*
X136717295Y-78683333D01*
X135879200Y-78492857D02*
X136450628Y-78302380D01*
X136450628Y-78302380D02*
X136450628Y-78797619D01*
X143862295Y-59485714D02*
X143481342Y-59219047D01*
X143862295Y-59028571D02*
X143062295Y-59028571D01*
X143062295Y-59028571D02*
X143062295Y-59333333D01*
X143062295Y-59333333D02*
X143100390Y-59409523D01*
X143100390Y-59409523D02*
X143138485Y-59447618D01*
X143138485Y-59447618D02*
X143214676Y-59485714D01*
X143214676Y-59485714D02*
X143328961Y-59485714D01*
X143328961Y-59485714D02*
X143405152Y-59447618D01*
X143405152Y-59447618D02*
X143443247Y-59409523D01*
X143443247Y-59409523D02*
X143481342Y-59333333D01*
X143481342Y-59333333D02*
X143481342Y-59028571D01*
X143862295Y-60247618D02*
X143862295Y-59790475D01*
X143862295Y-60019047D02*
X143062295Y-60019047D01*
X143062295Y-60019047D02*
X143176580Y-59942856D01*
X143176580Y-59942856D02*
X143252771Y-59866666D01*
X143252771Y-59866666D02*
X143290866Y-59790475D01*
X143062295Y-60933333D02*
X143062295Y-60780952D01*
X143062295Y-60780952D02*
X143100390Y-60704761D01*
X143100390Y-60704761D02*
X143138485Y-60666666D01*
X143138485Y-60666666D02*
X143252771Y-60590476D01*
X143252771Y-60590476D02*
X143405152Y-60552380D01*
X143405152Y-60552380D02*
X143709914Y-60552380D01*
X143709914Y-60552380D02*
X143786104Y-60590476D01*
X143786104Y-60590476D02*
X143824200Y-60628571D01*
X143824200Y-60628571D02*
X143862295Y-60704761D01*
X143862295Y-60704761D02*
X143862295Y-60857142D01*
X143862295Y-60857142D02*
X143824200Y-60933333D01*
X143824200Y-60933333D02*
X143786104Y-60971428D01*
X143786104Y-60971428D02*
X143709914Y-61009523D01*
X143709914Y-61009523D02*
X143519438Y-61009523D01*
X143519438Y-61009523D02*
X143443247Y-60971428D01*
X143443247Y-60971428D02*
X143405152Y-60933333D01*
X143405152Y-60933333D02*
X143367057Y-60857142D01*
X143367057Y-60857142D02*
X143367057Y-60704761D01*
X143367057Y-60704761D02*
X143405152Y-60628571D01*
X143405152Y-60628571D02*
X143443247Y-60590476D01*
X143443247Y-60590476D02*
X143519438Y-60552380D01*
X143786104Y-57616667D02*
X143824200Y-57578571D01*
X143824200Y-57578571D02*
X143862295Y-57464286D01*
X143862295Y-57464286D02*
X143862295Y-57388095D01*
X143862295Y-57388095D02*
X143824200Y-57273809D01*
X143824200Y-57273809D02*
X143748009Y-57197619D01*
X143748009Y-57197619D02*
X143671819Y-57159524D01*
X143671819Y-57159524D02*
X143519438Y-57121428D01*
X143519438Y-57121428D02*
X143405152Y-57121428D01*
X143405152Y-57121428D02*
X143252771Y-57159524D01*
X143252771Y-57159524D02*
X143176580Y-57197619D01*
X143176580Y-57197619D02*
X143100390Y-57273809D01*
X143100390Y-57273809D02*
X143062295Y-57388095D01*
X143062295Y-57388095D02*
X143062295Y-57464286D01*
X143062295Y-57464286D02*
X143100390Y-57578571D01*
X143100390Y-57578571D02*
X143138485Y-57616667D01*
X143062295Y-58302381D02*
X143062295Y-58150000D01*
X143062295Y-58150000D02*
X143100390Y-58073809D01*
X143100390Y-58073809D02*
X143138485Y-58035714D01*
X143138485Y-58035714D02*
X143252771Y-57959524D01*
X143252771Y-57959524D02*
X143405152Y-57921428D01*
X143405152Y-57921428D02*
X143709914Y-57921428D01*
X143709914Y-57921428D02*
X143786104Y-57959524D01*
X143786104Y-57959524D02*
X143824200Y-57997619D01*
X143824200Y-57997619D02*
X143862295Y-58073809D01*
X143862295Y-58073809D02*
X143862295Y-58226190D01*
X143862295Y-58226190D02*
X143824200Y-58302381D01*
X143824200Y-58302381D02*
X143786104Y-58340476D01*
X143786104Y-58340476D02*
X143709914Y-58378571D01*
X143709914Y-58378571D02*
X143519438Y-58378571D01*
X143519438Y-58378571D02*
X143443247Y-58340476D01*
X143443247Y-58340476D02*
X143405152Y-58302381D01*
X143405152Y-58302381D02*
X143367057Y-58226190D01*
X143367057Y-58226190D02*
X143367057Y-58073809D01*
X143367057Y-58073809D02*
X143405152Y-57997619D01*
X143405152Y-57997619D02*
X143443247Y-57959524D01*
X143443247Y-57959524D02*
X143519438Y-57921428D01*
X130214285Y-42662295D02*
X130480952Y-42281342D01*
X130671428Y-42662295D02*
X130671428Y-41862295D01*
X130671428Y-41862295D02*
X130366666Y-41862295D01*
X130366666Y-41862295D02*
X130290476Y-41900390D01*
X130290476Y-41900390D02*
X130252381Y-41938485D01*
X130252381Y-41938485D02*
X130214285Y-42014676D01*
X130214285Y-42014676D02*
X130214285Y-42128961D01*
X130214285Y-42128961D02*
X130252381Y-42205152D01*
X130252381Y-42205152D02*
X130290476Y-42243247D01*
X130290476Y-42243247D02*
X130366666Y-42281342D01*
X130366666Y-42281342D02*
X130671428Y-42281342D01*
X129947619Y-41862295D02*
X129452381Y-41862295D01*
X129452381Y-41862295D02*
X129719047Y-42167057D01*
X129719047Y-42167057D02*
X129604762Y-42167057D01*
X129604762Y-42167057D02*
X129528571Y-42205152D01*
X129528571Y-42205152D02*
X129490476Y-42243247D01*
X129490476Y-42243247D02*
X129452381Y-42319438D01*
X129452381Y-42319438D02*
X129452381Y-42509914D01*
X129452381Y-42509914D02*
X129490476Y-42586104D01*
X129490476Y-42586104D02*
X129528571Y-42624200D01*
X129528571Y-42624200D02*
X129604762Y-42662295D01*
X129604762Y-42662295D02*
X129833333Y-42662295D01*
X129833333Y-42662295D02*
X129909524Y-42624200D01*
X129909524Y-42624200D02*
X129947619Y-42586104D01*
X128690476Y-42662295D02*
X129147619Y-42662295D01*
X128919047Y-42662295D02*
X128919047Y-41862295D01*
X128919047Y-41862295D02*
X128995238Y-41976580D01*
X128995238Y-41976580D02*
X129071428Y-42052771D01*
X129071428Y-42052771D02*
X129147619Y-42090866D01*
X144990475Y-85762295D02*
X144990475Y-84962295D01*
X144990475Y-84962295D02*
X144799999Y-84962295D01*
X144799999Y-84962295D02*
X144685713Y-85000390D01*
X144685713Y-85000390D02*
X144609523Y-85076580D01*
X144609523Y-85076580D02*
X144571428Y-85152771D01*
X144571428Y-85152771D02*
X144533332Y-85305152D01*
X144533332Y-85305152D02*
X144533332Y-85419438D01*
X144533332Y-85419438D02*
X144571428Y-85571819D01*
X144571428Y-85571819D02*
X144609523Y-85648009D01*
X144609523Y-85648009D02*
X144685713Y-85724200D01*
X144685713Y-85724200D02*
X144799999Y-85762295D01*
X144799999Y-85762295D02*
X144990475Y-85762295D01*
X143847618Y-85228961D02*
X143847618Y-85762295D01*
X144038094Y-84924200D02*
X144228571Y-85495628D01*
X144228571Y-85495628D02*
X143733332Y-85495628D01*
X116333332Y-71962295D02*
X116599999Y-71581342D01*
X116790475Y-71962295D02*
X116790475Y-71162295D01*
X116790475Y-71162295D02*
X116485713Y-71162295D01*
X116485713Y-71162295D02*
X116409523Y-71200390D01*
X116409523Y-71200390D02*
X116371428Y-71238485D01*
X116371428Y-71238485D02*
X116333332Y-71314676D01*
X116333332Y-71314676D02*
X116333332Y-71428961D01*
X116333332Y-71428961D02*
X116371428Y-71505152D01*
X116371428Y-71505152D02*
X116409523Y-71543247D01*
X116409523Y-71543247D02*
X116485713Y-71581342D01*
X116485713Y-71581342D02*
X116790475Y-71581342D01*
X115876190Y-71505152D02*
X115952380Y-71467057D01*
X115952380Y-71467057D02*
X115990475Y-71428961D01*
X115990475Y-71428961D02*
X116028571Y-71352771D01*
X116028571Y-71352771D02*
X116028571Y-71314676D01*
X116028571Y-71314676D02*
X115990475Y-71238485D01*
X115990475Y-71238485D02*
X115952380Y-71200390D01*
X115952380Y-71200390D02*
X115876190Y-71162295D01*
X115876190Y-71162295D02*
X115723809Y-71162295D01*
X115723809Y-71162295D02*
X115647618Y-71200390D01*
X115647618Y-71200390D02*
X115609523Y-71238485D01*
X115609523Y-71238485D02*
X115571428Y-71314676D01*
X115571428Y-71314676D02*
X115571428Y-71352771D01*
X115571428Y-71352771D02*
X115609523Y-71428961D01*
X115609523Y-71428961D02*
X115647618Y-71467057D01*
X115647618Y-71467057D02*
X115723809Y-71505152D01*
X115723809Y-71505152D02*
X115876190Y-71505152D01*
X115876190Y-71505152D02*
X115952380Y-71543247D01*
X115952380Y-71543247D02*
X115990475Y-71581342D01*
X115990475Y-71581342D02*
X116028571Y-71657533D01*
X116028571Y-71657533D02*
X116028571Y-71809914D01*
X116028571Y-71809914D02*
X115990475Y-71886104D01*
X115990475Y-71886104D02*
X115952380Y-71924200D01*
X115952380Y-71924200D02*
X115876190Y-71962295D01*
X115876190Y-71962295D02*
X115723809Y-71962295D01*
X115723809Y-71962295D02*
X115647618Y-71924200D01*
X115647618Y-71924200D02*
X115609523Y-71886104D01*
X115609523Y-71886104D02*
X115571428Y-71809914D01*
X115571428Y-71809914D02*
X115571428Y-71657533D01*
X115571428Y-71657533D02*
X115609523Y-71581342D01*
X115609523Y-71581342D02*
X115647618Y-71543247D01*
X115647618Y-71543247D02*
X115723809Y-71505152D01*
X136717295Y-74875714D02*
X136336342Y-74609047D01*
X136717295Y-74418571D02*
X135917295Y-74418571D01*
X135917295Y-74418571D02*
X135917295Y-74723333D01*
X135917295Y-74723333D02*
X135955390Y-74799523D01*
X135955390Y-74799523D02*
X135993485Y-74837618D01*
X135993485Y-74837618D02*
X136069676Y-74875714D01*
X136069676Y-74875714D02*
X136183961Y-74875714D01*
X136183961Y-74875714D02*
X136260152Y-74837618D01*
X136260152Y-74837618D02*
X136298247Y-74799523D01*
X136298247Y-74799523D02*
X136336342Y-74723333D01*
X136336342Y-74723333D02*
X136336342Y-74418571D01*
X136717295Y-75637618D02*
X136717295Y-75180475D01*
X136717295Y-75409047D02*
X135917295Y-75409047D01*
X135917295Y-75409047D02*
X136031580Y-75332856D01*
X136031580Y-75332856D02*
X136107771Y-75256666D01*
X136107771Y-75256666D02*
X136145866Y-75180475D01*
X135917295Y-75904285D02*
X135917295Y-76399523D01*
X135917295Y-76399523D02*
X136222057Y-76132857D01*
X136222057Y-76132857D02*
X136222057Y-76247142D01*
X136222057Y-76247142D02*
X136260152Y-76323333D01*
X136260152Y-76323333D02*
X136298247Y-76361428D01*
X136298247Y-76361428D02*
X136374438Y-76399523D01*
X136374438Y-76399523D02*
X136564914Y-76399523D01*
X136564914Y-76399523D02*
X136641104Y-76361428D01*
X136641104Y-76361428D02*
X136679200Y-76323333D01*
X136679200Y-76323333D02*
X136717295Y-76247142D01*
X136717295Y-76247142D02*
X136717295Y-76018571D01*
X136717295Y-76018571D02*
X136679200Y-75942380D01*
X136679200Y-75942380D02*
X136641104Y-75904285D01*
X124133332Y-87536104D02*
X124171428Y-87574200D01*
X124171428Y-87574200D02*
X124285713Y-87612295D01*
X124285713Y-87612295D02*
X124361904Y-87612295D01*
X124361904Y-87612295D02*
X124476190Y-87574200D01*
X124476190Y-87574200D02*
X124552380Y-87498009D01*
X124552380Y-87498009D02*
X124590475Y-87421819D01*
X124590475Y-87421819D02*
X124628571Y-87269438D01*
X124628571Y-87269438D02*
X124628571Y-87155152D01*
X124628571Y-87155152D02*
X124590475Y-87002771D01*
X124590475Y-87002771D02*
X124552380Y-86926580D01*
X124552380Y-86926580D02*
X124476190Y-86850390D01*
X124476190Y-86850390D02*
X124361904Y-86812295D01*
X124361904Y-86812295D02*
X124285713Y-86812295D01*
X124285713Y-86812295D02*
X124171428Y-86850390D01*
X124171428Y-86850390D02*
X124133332Y-86888485D01*
X123866666Y-86812295D02*
X123371428Y-86812295D01*
X123371428Y-86812295D02*
X123638094Y-87117057D01*
X123638094Y-87117057D02*
X123523809Y-87117057D01*
X123523809Y-87117057D02*
X123447618Y-87155152D01*
X123447618Y-87155152D02*
X123409523Y-87193247D01*
X123409523Y-87193247D02*
X123371428Y-87269438D01*
X123371428Y-87269438D02*
X123371428Y-87459914D01*
X123371428Y-87459914D02*
X123409523Y-87536104D01*
X123409523Y-87536104D02*
X123447618Y-87574200D01*
X123447618Y-87574200D02*
X123523809Y-87612295D01*
X123523809Y-87612295D02*
X123752380Y-87612295D01*
X123752380Y-87612295D02*
X123828571Y-87574200D01*
X123828571Y-87574200D02*
X123866666Y-87536104D01*
X120033332Y-41086104D02*
X120071428Y-41124200D01*
X120071428Y-41124200D02*
X120185713Y-41162295D01*
X120185713Y-41162295D02*
X120261904Y-41162295D01*
X120261904Y-41162295D02*
X120376190Y-41124200D01*
X120376190Y-41124200D02*
X120452380Y-41048009D01*
X120452380Y-41048009D02*
X120490475Y-40971819D01*
X120490475Y-40971819D02*
X120528571Y-40819438D01*
X120528571Y-40819438D02*
X120528571Y-40705152D01*
X120528571Y-40705152D02*
X120490475Y-40552771D01*
X120490475Y-40552771D02*
X120452380Y-40476580D01*
X120452380Y-40476580D02*
X120376190Y-40400390D01*
X120376190Y-40400390D02*
X120261904Y-40362295D01*
X120261904Y-40362295D02*
X120185713Y-40362295D01*
X120185713Y-40362295D02*
X120071428Y-40400390D01*
X120071428Y-40400390D02*
X120033332Y-40438485D01*
X119652380Y-41162295D02*
X119499999Y-41162295D01*
X119499999Y-41162295D02*
X119423809Y-41124200D01*
X119423809Y-41124200D02*
X119385713Y-41086104D01*
X119385713Y-41086104D02*
X119309523Y-40971819D01*
X119309523Y-40971819D02*
X119271428Y-40819438D01*
X119271428Y-40819438D02*
X119271428Y-40514676D01*
X119271428Y-40514676D02*
X119309523Y-40438485D01*
X119309523Y-40438485D02*
X119347618Y-40400390D01*
X119347618Y-40400390D02*
X119423809Y-40362295D01*
X119423809Y-40362295D02*
X119576190Y-40362295D01*
X119576190Y-40362295D02*
X119652380Y-40400390D01*
X119652380Y-40400390D02*
X119690475Y-40438485D01*
X119690475Y-40438485D02*
X119728571Y-40514676D01*
X119728571Y-40514676D02*
X119728571Y-40705152D01*
X119728571Y-40705152D02*
X119690475Y-40781342D01*
X119690475Y-40781342D02*
X119652380Y-40819438D01*
X119652380Y-40819438D02*
X119576190Y-40857533D01*
X119576190Y-40857533D02*
X119423809Y-40857533D01*
X119423809Y-40857533D02*
X119347618Y-40819438D01*
X119347618Y-40819438D02*
X119309523Y-40781342D01*
X119309523Y-40781342D02*
X119271428Y-40705152D01*
X136717295Y-72635714D02*
X136336342Y-72369047D01*
X136717295Y-72178571D02*
X135917295Y-72178571D01*
X135917295Y-72178571D02*
X135917295Y-72483333D01*
X135917295Y-72483333D02*
X135955390Y-72559523D01*
X135955390Y-72559523D02*
X135993485Y-72597618D01*
X135993485Y-72597618D02*
X136069676Y-72635714D01*
X136069676Y-72635714D02*
X136183961Y-72635714D01*
X136183961Y-72635714D02*
X136260152Y-72597618D01*
X136260152Y-72597618D02*
X136298247Y-72559523D01*
X136298247Y-72559523D02*
X136336342Y-72483333D01*
X136336342Y-72483333D02*
X136336342Y-72178571D01*
X136717295Y-73397618D02*
X136717295Y-72940475D01*
X136717295Y-73169047D02*
X135917295Y-73169047D01*
X135917295Y-73169047D02*
X136031580Y-73092856D01*
X136031580Y-73092856D02*
X136107771Y-73016666D01*
X136107771Y-73016666D02*
X136145866Y-72940475D01*
X136717295Y-74159523D02*
X136717295Y-73702380D01*
X136717295Y-73930952D02*
X135917295Y-73930952D01*
X135917295Y-73930952D02*
X136031580Y-73854761D01*
X136031580Y-73854761D02*
X136107771Y-73778571D01*
X136107771Y-73778571D02*
X136145866Y-73702380D01*
X117766666Y-91362295D02*
X117766666Y-91933723D01*
X117766666Y-91933723D02*
X117804761Y-92048009D01*
X117804761Y-92048009D02*
X117880952Y-92124200D01*
X117880952Y-92124200D02*
X117995237Y-92162295D01*
X117995237Y-92162295D02*
X118071428Y-92162295D01*
X117423809Y-91438485D02*
X117385713Y-91400390D01*
X117385713Y-91400390D02*
X117309523Y-91362295D01*
X117309523Y-91362295D02*
X117119047Y-91362295D01*
X117119047Y-91362295D02*
X117042856Y-91400390D01*
X117042856Y-91400390D02*
X117004761Y-91438485D01*
X117004761Y-91438485D02*
X116966666Y-91514676D01*
X116966666Y-91514676D02*
X116966666Y-91590866D01*
X116966666Y-91590866D02*
X117004761Y-91705152D01*
X117004761Y-91705152D02*
X117461904Y-92162295D01*
X117461904Y-92162295D02*
X116966666Y-92162295D01*
D11*
X131022936Y-79765000D02*
X131477064Y-79765000D01*
X131022936Y-81235000D02*
X131477064Y-81235000D01*
X145327064Y-106335000D02*
X144872936Y-106335000D01*
X145327064Y-104865000D02*
X144872936Y-104865000D01*
X148985000Y-88772936D02*
X148985000Y-89227064D01*
X147515000Y-88772936D02*
X147515000Y-89227064D01*
X138522936Y-82015000D02*
X138977064Y-82015000D01*
X138522936Y-83485000D02*
X138977064Y-83485000D01*
X140272936Y-93515000D02*
X140727064Y-93515000D01*
X140272936Y-94985000D02*
X140727064Y-94985000D01*
D12*
X138850000Y-63925000D02*
X138850000Y-61075000D01*
X137150000Y-61075000D02*
X137150000Y-63925000D01*
D13*
X138100000Y-65500000D02*
G75*
G03*
X138100000Y-65500000I-100000J0D01*
G01*
D11*
X132272936Y-66765000D02*
X132727064Y-66765000D01*
X132272936Y-68235000D02*
X132727064Y-68235000D01*
X121477064Y-85735000D02*
X121022936Y-85735000D01*
X121477064Y-84265000D02*
X121022936Y-84265000D01*
X139772936Y-47015000D02*
X140227064Y-47015000D01*
X139772936Y-48485000D02*
X140227064Y-48485000D01*
X146420000Y-47430000D02*
X149080000Y-47430000D01*
X146420000Y-62730000D02*
X146420000Y-47430000D01*
X146420000Y-62730000D02*
X149080000Y-62730000D01*
X146420000Y-64000000D02*
X146420000Y-65330000D01*
X146420000Y-65330000D02*
X147750000Y-65330000D01*
X149080000Y-62730000D02*
X149080000Y-47430000D01*
X145327064Y-108435000D02*
X144872936Y-108435000D01*
X145327064Y-106965000D02*
X144872936Y-106965000D01*
X138522936Y-84265000D02*
X138977064Y-84265000D01*
X138522936Y-85735000D02*
X138977064Y-85735000D01*
D12*
X137225000Y-58075000D02*
X137321000Y-58075000D01*
X138679000Y-58075000D02*
X138775000Y-58075000D01*
X138775000Y-58075000D02*
X138775000Y-55425000D01*
X137225000Y-55425000D02*
X137225000Y-58075000D01*
X137321000Y-55425000D02*
X137225000Y-55425000D01*
X138775000Y-55425000D02*
X138679000Y-55425000D01*
D13*
X138100000Y-59600000D02*
G75*
G03*
X138100000Y-59600000I-100000J0D01*
G01*
D11*
X137485000Y-42488748D02*
X137485000Y-43011252D01*
X136015000Y-42488748D02*
X136015000Y-43011252D01*
X134510000Y-46750000D02*
X134510000Y-47500000D01*
X133760000Y-46750000D02*
X134510000Y-46750000D01*
X109010000Y-46750000D02*
X115760000Y-46750000D01*
X109010000Y-46750000D02*
X109010000Y-64750000D01*
X134510000Y-47500000D02*
X134510000Y-49250000D01*
X134510000Y-64000000D02*
X134510000Y-62250000D01*
X134510000Y-64750000D02*
X134510000Y-64000000D01*
X133760000Y-64750000D02*
X134510000Y-64750000D01*
X114950000Y-64750000D02*
X114950000Y-46750000D01*
X109010000Y-64750000D02*
X115760000Y-64750000D01*
X121022936Y-82015000D02*
X121477064Y-82015000D01*
X121022936Y-83485000D02*
X121477064Y-83485000D01*
X143930000Y-70810000D02*
X144730000Y-70810000D01*
X143930000Y-70810000D02*
X143130000Y-70810000D01*
X143930000Y-67690000D02*
X145730000Y-67690000D01*
X143930000Y-67690000D02*
X143130000Y-67690000D01*
X139440000Y-53750000D02*
X139440000Y-54550000D01*
X139440000Y-53750000D02*
X139440000Y-52950000D01*
X142560000Y-53750000D02*
X142560000Y-55550000D01*
X142560000Y-53750000D02*
X142560000Y-52950000D01*
X124772936Y-36765000D02*
X125227064Y-36765000D01*
X124772936Y-38235000D02*
X125227064Y-38235000D01*
X145327064Y-100135000D02*
X144872936Y-100135000D01*
X145327064Y-98665000D02*
X144872936Y-98665000D01*
X147935000Y-42172936D02*
X147935000Y-42627064D01*
X146465000Y-42172936D02*
X146465000Y-42627064D01*
X129511252Y-38235000D02*
X128988748Y-38235000D01*
X129511252Y-36765000D02*
X128988748Y-36765000D01*
D12*
X131475000Y-87895000D02*
X127475000Y-87895000D01*
X131475000Y-82795000D02*
X127475000Y-82795000D01*
D13*
X134020000Y-82840000D02*
G75*
G03*
X134020000Y-82840000I-100000J0D01*
G01*
D11*
X139738748Y-49265000D02*
X140261252Y-49265000D01*
X139738748Y-50735000D02*
X140261252Y-50735000D01*
X135235000Y-73488748D02*
X135235000Y-74011252D01*
X133765000Y-73488748D02*
X133765000Y-74011252D01*
X145327064Y-102135000D02*
X144872936Y-102135000D01*
X145327064Y-100665000D02*
X144872936Y-100665000D01*
X148415000Y-69022936D02*
X148415000Y-69477064D01*
X146945000Y-69022936D02*
X146945000Y-69477064D01*
X138488748Y-86515000D02*
X139011252Y-86515000D01*
X138488748Y-87985000D02*
X139011252Y-87985000D01*
X125300000Y-44960000D02*
X125950000Y-44960000D01*
X125300000Y-44960000D02*
X124650000Y-44960000D01*
X125300000Y-41840000D02*
X126975000Y-41840000D01*
X125300000Y-41840000D02*
X124650000Y-41840000D01*
X148100000Y-72330000D02*
X149250000Y-72330000D01*
X146000000Y-72330000D02*
X144200000Y-72330000D01*
X148100000Y-81670000D02*
X149250000Y-81670000D01*
X146000000Y-81670000D02*
X144200000Y-81670000D01*
D12*
X136975000Y-70850000D02*
X139825000Y-70850000D01*
X139825000Y-69150000D02*
X136975000Y-69150000D01*
D13*
X135500000Y-70000000D02*
G75*
G03*
X135500000Y-70000000I-100000J0D01*
G01*
D11*
X133472936Y-36765000D02*
X133927064Y-36765000D01*
X133472936Y-38235000D02*
X133927064Y-38235000D01*
X111830000Y-85830000D02*
X109170000Y-85830000D01*
X111830000Y-73070000D02*
X111830000Y-85830000D01*
X111830000Y-73070000D02*
X109170000Y-73070000D01*
X111830000Y-71800000D02*
X111830000Y-70470000D01*
X111830000Y-70470000D02*
X110500000Y-70470000D01*
X109170000Y-73070000D02*
X109170000Y-85830000D01*
X141227064Y-65235000D02*
X140772936Y-65235000D01*
X141227064Y-63765000D02*
X140772936Y-63765000D01*
X142265000Y-49227064D02*
X142265000Y-48772936D01*
X143735000Y-49227064D02*
X143735000Y-48772936D01*
X122310000Y-77312500D02*
X122310000Y-76662500D01*
X122310000Y-77312500D02*
X122310000Y-77962500D01*
X119190000Y-77312500D02*
X119190000Y-75637500D01*
X119190000Y-77312500D02*
X119190000Y-77962500D01*
X118772936Y-73015000D02*
X119227064Y-73015000D01*
X118772936Y-74485000D02*
X119227064Y-74485000D01*
X138977064Y-80735000D02*
X138522936Y-80735000D01*
X138977064Y-79265000D02*
X138522936Y-79265000D01*
X122940000Y-75553908D02*
X122940000Y-77503908D01*
X122940000Y-75553908D02*
X122940000Y-73603908D01*
X133060000Y-75553908D02*
X133060000Y-79003908D01*
X133060000Y-75553908D02*
X133060000Y-73603908D01*
X127477064Y-81235000D02*
X127022936Y-81235000D01*
X127477064Y-79765000D02*
X127022936Y-79765000D01*
X145250000Y-93690000D02*
X144450000Y-93690000D01*
X145250000Y-93690000D02*
X146050000Y-93690000D01*
X145250000Y-96810000D02*
X143450000Y-96810000D01*
X145250000Y-96810000D02*
X146050000Y-96810000D01*
X118335000Y-43072936D02*
X118335000Y-43527064D01*
X116865000Y-43072936D02*
X116865000Y-43527064D01*
X118560000Y-77312500D02*
X118560000Y-76662500D01*
X118560000Y-77312500D02*
X118560000Y-77962500D01*
X115440000Y-77312500D02*
X115440000Y-75637500D01*
X115440000Y-77312500D02*
X115440000Y-77962500D01*
X140272936Y-95765000D02*
X140727064Y-95765000D01*
X140272936Y-97235000D02*
X140727064Y-97235000D01*
X121265000Y-43527064D02*
X121265000Y-43072936D01*
X122735000Y-43527064D02*
X122735000Y-43072936D01*
X145327064Y-104235000D02*
X144872936Y-104235000D01*
X145327064Y-102765000D02*
X144872936Y-102765000D01*
X116035000Y-42938748D02*
X116035000Y-43461252D01*
X114565000Y-42938748D02*
X114565000Y-43461252D01*
X141000000Y-44060000D02*
X141800000Y-44060000D01*
X141000000Y-44060000D02*
X140200000Y-44060000D01*
X141000000Y-40940000D02*
X142800000Y-40940000D01*
X141000000Y-40940000D02*
X140200000Y-40940000D01*
X144265000Y-42661252D02*
X144265000Y-42138748D01*
X145735000Y-42661252D02*
X145735000Y-42138748D01*
X147290000Y-86610000D02*
X147290000Y-83750000D01*
X149210000Y-86610000D02*
X147290000Y-86610000D01*
X149210000Y-83750000D02*
X149210000Y-86610000D01*
X141261252Y-62985000D02*
X140738748Y-62985000D01*
X141261252Y-61515000D02*
X140738748Y-61515000D01*
X138977064Y-78485000D02*
X138522936Y-78485000D01*
X138977064Y-77015000D02*
X138522936Y-77015000D01*
X141227064Y-60735000D02*
X140772936Y-60735000D01*
X141227064Y-59265000D02*
X140772936Y-59265000D01*
X141261252Y-58485000D02*
X140738748Y-58485000D01*
X141261252Y-57015000D02*
X140738748Y-57015000D01*
X129927064Y-44635000D02*
X129472936Y-44635000D01*
X129927064Y-43165000D02*
X129472936Y-43165000D01*
D12*
X142975000Y-84550000D02*
X145825000Y-84550000D01*
X145825000Y-82850000D02*
X142975000Y-82850000D01*
D13*
X141500000Y-83700000D02*
G75*
G03*
X141500000Y-83700000I-100000J0D01*
G01*
D11*
X119227064Y-72235000D02*
X118772936Y-72235000D01*
X119227064Y-70765000D02*
X118772936Y-70765000D01*
X138977064Y-76235000D02*
X138522936Y-76235000D01*
X138977064Y-74765000D02*
X138522936Y-74765000D01*
X121511252Y-87985000D02*
X120988748Y-87985000D01*
X121511252Y-86515000D02*
X120988748Y-86515000D01*
X120535000Y-43038748D02*
X120535000Y-43561252D01*
X119065000Y-43038748D02*
X119065000Y-43561252D01*
X138977064Y-73985000D02*
X138522936Y-73985000D01*
X138977064Y-72515000D02*
X138522936Y-72515000D01*
X116560000Y-100660000D02*
X110440000Y-100660000D01*
X116560000Y-94440000D02*
X115640000Y-94440000D01*
X116560000Y-92840000D02*
X116560000Y-100660000D01*
X115800000Y-98400000D02*
X114800000Y-98400000D01*
X115800000Y-96800000D02*
X115800000Y-98400000D01*
X115640000Y-94440000D02*
X115640000Y-92840000D01*
X115640000Y-92840000D02*
X116560000Y-92840000D01*
X115360000Y-94440000D02*
X115640000Y-94440000D01*
X115360000Y-94440000D02*
X115360000Y-93225000D01*
X115300000Y-98400000D02*
X115300000Y-100660000D01*
X114800000Y-98400000D02*
X114800000Y-100660000D01*
X114800000Y-98400000D02*
X114800000Y-96800000D01*
X114800000Y-96800000D02*
X115800000Y-96800000D01*
X114000000Y-100660000D02*
X114000000Y-96300000D01*
X114000000Y-96300000D02*
X113000000Y-96300000D01*
X113000000Y-96300000D02*
X113000000Y-100660000D01*
X112200000Y-98400000D02*
X112200000Y-96800000D01*
X112200000Y-96800000D02*
X111200000Y-96800000D01*
X111360000Y-94440000D02*
X111640000Y-94440000D01*
X111360000Y-92840000D02*
X111360000Y-94440000D01*
X111200000Y-98400000D02*
X112200000Y-98400000D01*
X111200000Y-96800000D02*
X111200000Y-98400000D01*
X110440000Y-100660000D02*
X110440000Y-92840000D01*
X110440000Y-94440000D02*
X111360000Y-94440000D01*
X110440000Y-92840000D02*
X111360000Y-92840000D01*
%LPC*%
D14*
X123750000Y-106500000D03*
X129250000Y-94000000D03*
X129250000Y-103000000D03*
X129250000Y-112000000D03*
X141750000Y-106500000D03*
D15*
X118000000Y-102750000D03*
X118000000Y-110250000D03*
X125500000Y-95250000D03*
X125500000Y-108750000D03*
X125500000Y-117750000D03*
X133000000Y-95250000D03*
X133000000Y-108750000D03*
X133000000Y-117750000D03*
X140500000Y-102750000D03*
X140500000Y-110250000D03*
D14*
X129250000Y-110000000D03*
D15*
X125500000Y-104250000D03*
X133000000Y-104250000D03*
D14*
X129250000Y-101000000D03*
D15*
X125500000Y-99750000D03*
X133000000Y-99750000D03*
D14*
X134750000Y-106500000D03*
D15*
X136000000Y-102750000D03*
X136000000Y-110250000D03*
D14*
X129250000Y-119000000D03*
D15*
X125500000Y-113250000D03*
X133000000Y-113250000D03*
D14*
X116750000Y-106500000D03*
D15*
X122500000Y-102750000D03*
X122500000Y-110250000D03*
D16*
X132250000Y-40000000D03*
D17*
X130250000Y-40000000D03*
X128250000Y-40000000D03*
X126250000Y-40000000D03*
D18*
X138140000Y-89500000D03*
X135600000Y-89500000D03*
X133060000Y-89500000D03*
X130520000Y-89500000D03*
X127980000Y-89500000D03*
X125440000Y-89500000D03*
X122900000Y-89500000D03*
X120360000Y-89500000D03*
D19*
X130250000Y-80500000D03*
X132250000Y-80500000D03*
D20*
X146100000Y-105600000D03*
X144100000Y-105600000D03*
D21*
X148250000Y-88000000D03*
X148250000Y-90000000D03*
D19*
X137750000Y-82750000D03*
X139750000Y-82750000D03*
X139500000Y-94250000D03*
X141500000Y-94250000D03*
D22*
X138000000Y-60820000D03*
X138000000Y-64180000D03*
D19*
X131500000Y-67500000D03*
X133500000Y-67500000D03*
D23*
X146300000Y-113100000D03*
D20*
X122250000Y-85000000D03*
X120250000Y-85000000D03*
D19*
X139000000Y-47750000D03*
X141000000Y-47750000D03*
D24*
X147750000Y-64000000D03*
D25*
X147750000Y-61460000D03*
X147750000Y-58920000D03*
X147750000Y-56380000D03*
X147750000Y-53840000D03*
X147750000Y-51300000D03*
X147750000Y-48760000D03*
D20*
X146100000Y-107700000D03*
X144100000Y-107700000D03*
D19*
X137750000Y-85000000D03*
X139750000Y-85000000D03*
D22*
X138000000Y-55070000D03*
X138000000Y-58430000D03*
D26*
X136750000Y-41712500D03*
X136750000Y-43787500D03*
D27*
X116500000Y-47000000D03*
X117770000Y-47000000D03*
X119040000Y-47000000D03*
X120310000Y-47000000D03*
X121580000Y-47000000D03*
X122850000Y-47000000D03*
X124120000Y-47000000D03*
X125390000Y-47000000D03*
X126660000Y-47000000D03*
X127930000Y-47000000D03*
X129200000Y-47000000D03*
X130470000Y-47000000D03*
X131740000Y-47000000D03*
X133010000Y-47000000D03*
D28*
X134260000Y-50030000D03*
X134260000Y-51300000D03*
X134260000Y-52570000D03*
X134260000Y-53840000D03*
X134260000Y-55110000D03*
X134260000Y-56380000D03*
X134260000Y-57650000D03*
X134260000Y-58920000D03*
X134260000Y-60190000D03*
X134260000Y-61460000D03*
D27*
X133010000Y-64500000D03*
X131740000Y-64500000D03*
X130470000Y-64500000D03*
X129200000Y-64500000D03*
X127930000Y-64500000D03*
X126660000Y-64500000D03*
X125390000Y-64500000D03*
X124120000Y-64500000D03*
X122850000Y-64500000D03*
X121580000Y-64500000D03*
X120310000Y-64500000D03*
X119040000Y-64500000D03*
X117770000Y-64500000D03*
X116500000Y-64500000D03*
D29*
X125620000Y-52850000D03*
X125620000Y-52850000D03*
X124220000Y-52850000D03*
X122820000Y-52850000D03*
X122820000Y-52850000D03*
X125620000Y-54250000D03*
X125620000Y-54250000D03*
X124220000Y-54250000D03*
X122820000Y-54250000D03*
X125620000Y-55650000D03*
X124220000Y-55650000D03*
X122820000Y-55650000D03*
D19*
X120250000Y-82750000D03*
X122250000Y-82750000D03*
D30*
X145067500Y-68300000D03*
X145067500Y-69250000D03*
X145067500Y-70200000D03*
X142792500Y-70200000D03*
X142792500Y-69250000D03*
X142792500Y-68300000D03*
D31*
X141950000Y-54887500D03*
X141000000Y-54887500D03*
X140050000Y-54887500D03*
X140050000Y-52612500D03*
X141000000Y-52612500D03*
X141950000Y-52612500D03*
D19*
X124000000Y-37500000D03*
X126000000Y-37500000D03*
D20*
X146100000Y-99400000D03*
X144100000Y-99400000D03*
D21*
X147200000Y-41400000D03*
X147200000Y-43400000D03*
D32*
X130287500Y-37500000D03*
X128212500Y-37500000D03*
D33*
X131950000Y-83440000D03*
X131950000Y-84710000D03*
X131950000Y-85980000D03*
X131950000Y-87250000D03*
X127000000Y-87250000D03*
X127000000Y-85980000D03*
X127000000Y-84710000D03*
X127000000Y-83440000D03*
D34*
X129475000Y-85345000D03*
D35*
X138962500Y-50000000D03*
X141037500Y-50000000D03*
D26*
X134500000Y-72712500D03*
X134500000Y-74787500D03*
D20*
X146100000Y-101400000D03*
X144100000Y-101400000D03*
D21*
X147680000Y-68250000D03*
X147680000Y-70250000D03*
D35*
X137712500Y-87250000D03*
X139787500Y-87250000D03*
D36*
X126237500Y-42450000D03*
X126237500Y-44350000D03*
X124362500Y-43400000D03*
D37*
X143395000Y-74110000D03*
X143395000Y-79890000D03*
D38*
X142320000Y-73800000D03*
X142320000Y-74600000D03*
D39*
X142320000Y-75750000D03*
X142320000Y-76750000D03*
X142320000Y-77250000D03*
X142320000Y-78250000D03*
D38*
X142320000Y-79400000D03*
X142320000Y-80200000D03*
X142320000Y-80200000D03*
X142320000Y-79400000D03*
D39*
X142320000Y-78750000D03*
X142320000Y-77750000D03*
X142320000Y-76250000D03*
X142320000Y-75250000D03*
D38*
X142320000Y-74600000D03*
X142320000Y-73800000D03*
D40*
X147075000Y-72680000D03*
D41*
X142895000Y-72680000D03*
D40*
X147075000Y-81320000D03*
D41*
X142895000Y-81320000D03*
D42*
X140080000Y-70000000D03*
X136720000Y-70000000D03*
D19*
X132700000Y-37500000D03*
X134700000Y-37500000D03*
D24*
X110500000Y-71800000D03*
D25*
X110500000Y-74340000D03*
X110500000Y-76880000D03*
X110500000Y-79420000D03*
X110500000Y-81960000D03*
X110500000Y-84500000D03*
D20*
X142000000Y-64500000D03*
X140000000Y-64500000D03*
D43*
X143000000Y-50000000D03*
X143000000Y-48000000D03*
D44*
X119800000Y-76375000D03*
X121700000Y-76375000D03*
X120750000Y-78250000D03*
D19*
X118000000Y-73750000D03*
X120000000Y-73750000D03*
D20*
X139750000Y-80000000D03*
X137750000Y-80000000D03*
D45*
X132445000Y-78028908D03*
X131175000Y-78028908D03*
X129905000Y-78028908D03*
X128635000Y-78028908D03*
X127365000Y-78028908D03*
X126095000Y-78028908D03*
X124825000Y-78028908D03*
X123555000Y-78028908D03*
X123555000Y-73078908D03*
X124825000Y-73078908D03*
X126095000Y-73078908D03*
X127365000Y-73078908D03*
X128635000Y-73078908D03*
X129905000Y-73078908D03*
X131175000Y-73078908D03*
X132445000Y-73078908D03*
D20*
X128250000Y-80500000D03*
X126250000Y-80500000D03*
D23*
X112200000Y-113100000D03*
D46*
X144112500Y-96200000D03*
X144112500Y-95250000D03*
X144112500Y-94300000D03*
X146387500Y-94300000D03*
X146387500Y-95250000D03*
X146387500Y-96200000D03*
D21*
X117600000Y-42300000D03*
X117600000Y-44300000D03*
D44*
X116050000Y-76375000D03*
X117950000Y-76375000D03*
X117000000Y-78250000D03*
D19*
X139500000Y-96500000D03*
X141500000Y-96500000D03*
D43*
X122000000Y-44300000D03*
X122000000Y-42300000D03*
D20*
X146100000Y-103500000D03*
X144100000Y-103500000D03*
D26*
X115300000Y-42162500D03*
X115300000Y-44237500D03*
D30*
X142137500Y-41550000D03*
X142137500Y-42500000D03*
X142137500Y-43450000D03*
X139862500Y-43450000D03*
X139862500Y-41550000D03*
D47*
X145000000Y-43437500D03*
X145000000Y-41362500D03*
D48*
X148250000Y-85775000D03*
X148250000Y-83725000D03*
D32*
X142037500Y-62250000D03*
X139962500Y-62250000D03*
D20*
X139750000Y-77750000D03*
X137750000Y-77750000D03*
X142000000Y-60000000D03*
X140000000Y-60000000D03*
D32*
X142037500Y-57750000D03*
X139962500Y-57750000D03*
D20*
X130700000Y-43900000D03*
X128700000Y-43900000D03*
D42*
X146080000Y-83700000D03*
X142720000Y-83700000D03*
D20*
X120000000Y-71500000D03*
X118000000Y-71500000D03*
X139750000Y-75500000D03*
X137750000Y-75500000D03*
D32*
X122287500Y-87250000D03*
X120212500Y-87250000D03*
D26*
X119800000Y-42262500D03*
X119800000Y-44337500D03*
D20*
X139750000Y-73250000D03*
X137750000Y-73250000D03*
D49*
X114500000Y-94300000D03*
D50*
X112500000Y-94300000D03*
%LPD*%
M02*
