G04 #@! TF.GenerationSoftware,KiCad,Pcbnew,7.0.7*
G04 #@! TF.CreationDate,2023-10-29T22:41:13+02:00*
G04 #@! TF.ProjectId,dif-pressure-meter,6469662d-7072-4657-9373-7572652d6d65,rev?*
G04 #@! TF.SameCoordinates,Original*
G04 #@! TF.FileFunction,Paste,Bot*
G04 #@! TF.FilePolarity,Positive*
%FSLAX46Y46*%
G04 Gerber Fmt 4.6, Leading zero omitted, Abs format (unit mm)*
G04 Created by KiCad (PCBNEW 7.0.7) date 2023-10-29 22:41:13*
%MOMM*%
%LPD*%
G01*
G04 APERTURE LIST*
G04 Aperture macros list*
%AMRoundRect*
0 Rectangle with rounded corners*
0 $1 Rounding radius*
0 $2 $3 $4 $5 $6 $7 $8 $9 X,Y pos of 4 corners*
0 Add a 4 corners polygon primitive as box body*
4,1,4,$2,$3,$4,$5,$6,$7,$8,$9,$2,$3,0*
0 Add four circle primitives for the rounded corners*
1,1,$1+$1,$2,$3*
1,1,$1+$1,$4,$5*
1,1,$1+$1,$6,$7*
1,1,$1+$1,$8,$9*
0 Add four rect primitives between the rounded corners*
20,1,$1+$1,$2,$3,$4,$5,0*
20,1,$1+$1,$4,$5,$6,$7,0*
20,1,$1+$1,$6,$7,$8,$9,0*
20,1,$1+$1,$8,$9,$2,$3,0*%
G04 Aperture macros list end*
%ADD10C,0.010000*%
%ADD11RoundRect,0.250000X-0.350000X-0.450000X0.350000X-0.450000X0.350000X0.450000X-0.350000X0.450000X0*%
%ADD12RoundRect,0.250000X0.350000X0.450000X-0.350000X0.450000X-0.350000X-0.450000X0.350000X-0.450000X0*%
%ADD13RoundRect,0.250000X-0.450000X0.350000X-0.450000X-0.350000X0.450000X-0.350000X0.450000X0.350000X0*%
%ADD14R,0.730000X1.210000*%
%ADD15RoundRect,0.250000X-0.475000X0.337500X-0.475000X-0.337500X0.475000X-0.337500X0.475000X0.337500X0*%
%ADD16R,0.900000X1.500000*%
%ADD17R,1.500000X0.900000*%
%ADD18R,0.900000X0.900000*%
%ADD19RoundRect,0.150000X0.512500X0.150000X-0.512500X0.150000X-0.512500X-0.150000X0.512500X-0.150000X0*%
%ADD20RoundRect,0.150000X0.150000X-0.512500X0.150000X0.512500X-0.150000X0.512500X-0.150000X-0.512500X0*%
%ADD21RoundRect,0.250000X0.337500X0.475000X-0.337500X0.475000X-0.337500X-0.475000X0.337500X-0.475000X0*%
%ADD22RoundRect,0.042000X0.943000X0.258000X-0.943000X0.258000X-0.943000X-0.258000X0.943000X-0.258000X0*%
%ADD23RoundRect,0.250000X-0.337500X-0.475000X0.337500X-0.475000X0.337500X0.475000X-0.337500X0.475000X0*%
%ADD24RoundRect,0.150000X0.587500X0.150000X-0.587500X0.150000X-0.587500X-0.150000X0.587500X-0.150000X0*%
%ADD25R,1.150000X0.600000*%
%ADD26R,1.150000X0.300000*%
%ADD27O,1.800000X1.000000*%
%ADD28O,2.100000X1.000000*%
%ADD29R,1.210000X0.730000*%
%ADD30RoundRect,0.250000X0.450000X-0.350000X0.450000X0.350000X-0.450000X0.350000X-0.450000X-0.350000X0*%
%ADD31RoundRect,0.150000X-0.150000X0.587500X-0.150000X-0.587500X0.150000X-0.587500X0.150000X0.587500X0*%
%ADD32RoundRect,0.150000X0.150000X-0.825000X0.150000X0.825000X-0.150000X0.825000X-0.150000X-0.825000X0*%
%ADD33RoundRect,0.150000X-0.512500X-0.150000X0.512500X-0.150000X0.512500X0.150000X-0.512500X0.150000X0*%
%ADD34RoundRect,0.250000X0.475000X-0.337500X0.475000X0.337500X-0.475000X0.337500X-0.475000X-0.337500X0*%
%ADD35RoundRect,0.250000X0.450000X-0.325000X0.450000X0.325000X-0.450000X0.325000X-0.450000X-0.325000X0*%
G04 APERTURE END LIST*
D10*
X130120000Y-86165000D02*
X128830000Y-86165000D01*
X128830000Y-84525000D01*
X130120000Y-84525000D01*
X130120000Y-86165000D01*
G36*
X130120000Y-86165000D02*
G01*
X128830000Y-86165000D01*
X128830000Y-84525000D01*
X130120000Y-84525000D01*
X130120000Y-86165000D01*
G37*
D11*
X130250000Y-80500000D03*
X132250000Y-80500000D03*
D12*
X146100000Y-105600000D03*
X144100000Y-105600000D03*
D13*
X148250000Y-88000000D03*
X148250000Y-90000000D03*
D11*
X137750000Y-82750000D03*
X139750000Y-82750000D03*
X139500000Y-94250000D03*
X141500000Y-94250000D03*
D14*
X138000000Y-60820000D03*
X138000000Y-64180000D03*
D11*
X131500000Y-67500000D03*
X133500000Y-67500000D03*
D12*
X122250000Y-85000000D03*
X120250000Y-85000000D03*
D11*
X139000000Y-47750000D03*
X141000000Y-47750000D03*
D12*
X146100000Y-107700000D03*
X144100000Y-107700000D03*
D11*
X137750000Y-85000000D03*
X139750000Y-85000000D03*
D14*
X138000000Y-55070000D03*
X138000000Y-58430000D03*
D15*
X136750000Y-41712500D03*
X136750000Y-43787500D03*
D16*
X116500000Y-47000000D03*
X117770000Y-47000000D03*
X119040000Y-47000000D03*
X120310000Y-47000000D03*
X121580000Y-47000000D03*
X122850000Y-47000000D03*
X124120000Y-47000000D03*
X125390000Y-47000000D03*
X126660000Y-47000000D03*
X127930000Y-47000000D03*
X129200000Y-47000000D03*
X130470000Y-47000000D03*
X131740000Y-47000000D03*
X133010000Y-47000000D03*
D17*
X134260000Y-50030000D03*
X134260000Y-51300000D03*
X134260000Y-52570000D03*
X134260000Y-53840000D03*
X134260000Y-55110000D03*
X134260000Y-56380000D03*
X134260000Y-57650000D03*
X134260000Y-58920000D03*
X134260000Y-60190000D03*
X134260000Y-61460000D03*
D16*
X133010000Y-64500000D03*
X131740000Y-64500000D03*
X130470000Y-64500000D03*
X129200000Y-64500000D03*
X127930000Y-64500000D03*
X126660000Y-64500000D03*
X125390000Y-64500000D03*
X124120000Y-64500000D03*
X122850000Y-64500000D03*
X121580000Y-64500000D03*
X120310000Y-64500000D03*
X119040000Y-64500000D03*
X117770000Y-64500000D03*
X116500000Y-64500000D03*
D18*
X125620000Y-52850000D03*
X125620000Y-52850000D03*
X124220000Y-52850000D03*
X122820000Y-52850000D03*
X122820000Y-52850000D03*
X125620000Y-54250000D03*
X125620000Y-54250000D03*
X124220000Y-54250000D03*
X122820000Y-54250000D03*
X125620000Y-55650000D03*
X124220000Y-55650000D03*
X122820000Y-55650000D03*
D11*
X120250000Y-82750000D03*
X122250000Y-82750000D03*
D19*
X145067500Y-68300000D03*
X145067500Y-69250000D03*
X145067500Y-70200000D03*
X142792500Y-70200000D03*
X142792500Y-69250000D03*
X142792500Y-68300000D03*
D20*
X141950000Y-54887500D03*
X141000000Y-54887500D03*
X140050000Y-54887500D03*
X140050000Y-52612500D03*
X141000000Y-52612500D03*
X141950000Y-52612500D03*
D11*
X124000000Y-37500000D03*
X126000000Y-37500000D03*
D12*
X146100000Y-99400000D03*
X144100000Y-99400000D03*
D13*
X147200000Y-41400000D03*
X147200000Y-43400000D03*
D21*
X130287500Y-37500000D03*
X128212500Y-37500000D03*
D22*
X131950000Y-83440000D03*
X131950000Y-84710000D03*
X131950000Y-85980000D03*
X131950000Y-87250000D03*
X127000000Y-87250000D03*
X127000000Y-85980000D03*
X127000000Y-84710000D03*
X127000000Y-83440000D03*
D23*
X138962500Y-50000000D03*
X141037500Y-50000000D03*
D15*
X134500000Y-72712500D03*
X134500000Y-74787500D03*
D12*
X146100000Y-101400000D03*
X144100000Y-101400000D03*
D13*
X147680000Y-68250000D03*
X147680000Y-70250000D03*
D23*
X137712500Y-87250000D03*
X139787500Y-87250000D03*
D24*
X126237500Y-42450000D03*
X126237500Y-44350000D03*
X124362500Y-43400000D03*
D25*
X142320000Y-73800000D03*
X142320000Y-74600000D03*
D26*
X142320000Y-75750000D03*
X142320000Y-76750000D03*
X142320000Y-77250000D03*
X142320000Y-78250000D03*
D25*
X142320000Y-79400000D03*
X142320000Y-80200000D03*
X142320000Y-80200000D03*
X142320000Y-79400000D03*
D26*
X142320000Y-78750000D03*
X142320000Y-77750000D03*
X142320000Y-76250000D03*
X142320000Y-75250000D03*
D25*
X142320000Y-74600000D03*
X142320000Y-73800000D03*
D27*
X147075000Y-72680000D03*
D28*
X142895000Y-72680000D03*
D27*
X147075000Y-81320000D03*
D28*
X142895000Y-81320000D03*
D29*
X140080000Y-70000000D03*
X136720000Y-70000000D03*
D11*
X132700000Y-37500000D03*
X134700000Y-37500000D03*
D12*
X142000000Y-64500000D03*
X140000000Y-64500000D03*
D30*
X143000000Y-50000000D03*
X143000000Y-48000000D03*
D31*
X119800000Y-76375000D03*
X121700000Y-76375000D03*
X120750000Y-78250000D03*
D11*
X118000000Y-73750000D03*
X120000000Y-73750000D03*
D12*
X139750000Y-80000000D03*
X137750000Y-80000000D03*
D32*
X132445000Y-78028908D03*
X131175000Y-78028908D03*
X129905000Y-78028908D03*
X128635000Y-78028908D03*
X127365000Y-78028908D03*
X126095000Y-78028908D03*
X124825000Y-78028908D03*
X123555000Y-78028908D03*
X123555000Y-73078908D03*
X124825000Y-73078908D03*
X126095000Y-73078908D03*
X127365000Y-73078908D03*
X128635000Y-73078908D03*
X129905000Y-73078908D03*
X131175000Y-73078908D03*
X132445000Y-73078908D03*
D12*
X128250000Y-80500000D03*
X126250000Y-80500000D03*
D33*
X144112500Y-96200000D03*
X144112500Y-95250000D03*
X144112500Y-94300000D03*
X146387500Y-94300000D03*
X146387500Y-95250000D03*
X146387500Y-96200000D03*
D13*
X117600000Y-42300000D03*
X117600000Y-44300000D03*
D31*
X116050000Y-76375000D03*
X117950000Y-76375000D03*
X117000000Y-78250000D03*
D11*
X139500000Y-96500000D03*
X141500000Y-96500000D03*
D30*
X122000000Y-44300000D03*
X122000000Y-42300000D03*
D12*
X146100000Y-103500000D03*
X144100000Y-103500000D03*
D15*
X115300000Y-42162500D03*
X115300000Y-44237500D03*
D19*
X142137500Y-41550000D03*
X142137500Y-42500000D03*
X142137500Y-43450000D03*
X139862500Y-43450000D03*
X139862500Y-41550000D03*
D34*
X145000000Y-43437500D03*
X145000000Y-41362500D03*
D35*
X148250000Y-85775000D03*
X148250000Y-83725000D03*
D21*
X142037500Y-62250000D03*
X139962500Y-62250000D03*
D12*
X139750000Y-77750000D03*
X137750000Y-77750000D03*
X142000000Y-60000000D03*
X140000000Y-60000000D03*
D21*
X142037500Y-57750000D03*
X139962500Y-57750000D03*
D12*
X130700000Y-43900000D03*
X128700000Y-43900000D03*
D29*
X146080000Y-83700000D03*
X142720000Y-83700000D03*
D12*
X120000000Y-71500000D03*
X118000000Y-71500000D03*
X139750000Y-75500000D03*
X137750000Y-75500000D03*
D21*
X122287500Y-87250000D03*
X120212500Y-87250000D03*
D15*
X119800000Y-42262500D03*
X119800000Y-44337500D03*
D12*
X139750000Y-73250000D03*
X137750000Y-73250000D03*
M02*
